<?xml version="1.0" encoding="UTF-8" standalone="no"?>
<!-- Created with Inkscape (http://www.inkscape.org/) -->

<svg
   xmlns:dc="http://purl.org/dc/elements/1.1/"
   xmlns:cc="http://creativecommons.org/ns#"
   xmlns:rdf="http://www.w3.org/1999/02/22-rdf-syntax-ns#"
   xmlns:svg="http://www.w3.org/2000/svg"
   xmlns="http://www.w3.org/2000/svg"
   xmlns:sodipodi="http://sodipodi.sourceforge.net/DTD/sodipodi-0.dtd"
   xmlns:inkscape="http://www.inkscape.org/namespaces/inkscape"
   width="214"
   height="65"
   id="svg2"
   version="1.1"
   inkscape:version="0.47 r22583"
   sodipodi:docname="Birds_sizes_in_silhouettes_2_sparrow-size.svg">
  <defs
     id="defs4">
    <inkscape:perspective
       sodipodi:type="inkscape:persp3d"
       inkscape:vp_x="0 : 526.18109 : 1"
       inkscape:vp_y="0 : 1000 : 0"
       inkscape:vp_z="744.09448 : 526.18109 : 1"
       inkscape:persp3d-origin="372.04724 : 350.78739 : 1"
       id="perspective10" />
    <inkscape:perspective
       sodipodi:type="inkscape:persp3d"
       inkscape:vp_x="0 : 57.29985 : 1"
       inkscape:vp_y="0 : 1000 : 0"
       inkscape:vp_z="119.7 : 57.29985 : 1"
       inkscape:persp3d-origin="59.850002 : 38.1999 : 1"
       id="perspective2899" />
    <inkscape:perspective
       id="perspective2849"
       inkscape:persp3d-origin="372.04724 : 350.78739 : 1"
       inkscape:vp_z="744.09448 : 526.18109 : 1"
       inkscape:vp_y="0 : 1000 : 0"
       inkscape:vp_x="0 : 526.18109 : 1"
       sodipodi:type="inkscape:persp3d" />
    <inkscape:perspective
       id="perspective10-3"
       inkscape:persp3d-origin="0.5 : 0.33333333 : 1"
       inkscape:vp_z="1 : 0.5 : 1"
       inkscape:vp_y="0 : 1000 : 0"
       inkscape:vp_x="0 : 0.5 : 1"
       sodipodi:type="inkscape:persp3d" />
    <inkscape:perspective
       id="perspective10-5"
       inkscape:persp3d-origin="0.5 : 0.33333333 : 1"
       inkscape:vp_z="1 : 0.5 : 1"
       inkscape:vp_y="0 : 1000 : 0"
       inkscape:vp_x="0 : 0.5 : 1"
       sodipodi:type="inkscape:persp3d" />
    <inkscape:perspective
       id="perspective10-2"
       inkscape:persp3d-origin="0.5 : 0.33333333 : 1"
       inkscape:vp_z="1 : 0.5 : 1"
       inkscape:vp_y="0 : 1000 : 0"
       inkscape:vp_x="0 : 0.5 : 1"
       sodipodi:type="inkscape:persp3d" />
    <inkscape:perspective
       sodipodi:type="inkscape:persp3d"
       inkscape:vp_x="0 : 0.5 : 1"
       inkscape:vp_y="0 : 1000 : 0"
       inkscape:vp_z="1 : 0.5 : 1"
       inkscape:persp3d-origin="0.5 : 0.33333333 : 1"
       id="perspective2958" />
    <inkscape:perspective
       id="perspective10-36"
       inkscape:persp3d-origin="372.04724 : 350.78739 : 1"
       inkscape:vp_z="744.09448 : 526.18109 : 1"
       inkscape:vp_y="0 : 1000 : 0"
       inkscape:vp_x="0 : 526.18109 : 1"
       sodipodi:type="inkscape:persp3d" />
    <inkscape:perspective
       sodipodi:type="inkscape:persp3d"
       inkscape:vp_x="0 : 0.5 : 1"
       inkscape:vp_y="0 : 1000 : 0"
       inkscape:vp_z="1 : 0.5 : 1"
       inkscape:persp3d-origin="0.5 : 0.33333333 : 1"
       id="perspective3048" />
    <inkscape:perspective
       id="perspective2999"
       inkscape:persp3d-origin="372.04724 : 350.78739 : 1"
       inkscape:vp_z="744.09448 : 526.18109 : 1"
       inkscape:vp_y="0 : 1000 : 0"
       inkscape:vp_x="0 : 526.18109 : 1"
       sodipodi:type="inkscape:persp3d" />
    <inkscape:perspective
       id="perspective3220"
       inkscape:persp3d-origin="0.5 : 0.33333333 : 1"
       inkscape:vp_z="1 : 0.5 : 1"
       inkscape:vp_y="0 : 1000 : 0"
       inkscape:vp_x="0 : 0.5 : 1"
       sodipodi:type="inkscape:persp3d" />
  </defs>
  <sodipodi:namedview
     id="base"
     pagecolor="#ffffff"
     bordercolor="#666666"
     borderopacity="1.0"
     inkscape:pageopacity="0.0"
     inkscape:pageshadow="2"
     inkscape:zoom="3.8214288"
     inkscape:cx="98.529428"
     inkscape:cy="44.036435"
     inkscape:document-units="px"
     inkscape:current-layer="layer1"
     showgrid="false"
     inkscape:window-width="1016"
     inkscape:window-height="744"
     inkscape:window-x="0"
     inkscape:window-y="0"
     inkscape:window-maximized="1"
     inkscape:snap-grids="false"
     showguides="true"
     inkscape:guide-bbox="true">
    <sodipodi:guide
       orientation="0,1"
       position="-5.7242988,0"
       id="guide3063" />
    <sodipodi:guide
       orientation="0,1"
       position="76.512915,24.980033"
       id="guide3065" />
  </sodipodi:namedview>
  <metadata
     id="metadata7">
    <rdf:RDF>
      <cc:Work
         rdf:about="">
        <dc:format>image/svg+xml</dc:format>
        <dc:type
           rdf:resource="http://purl.org/dc/dcmitype/StillImage" />
        <dc:title />
      </cc:Work>
    </rdf:RDF>
  </metadata>
  <g
     inkscape:label="Ebene 1"
     inkscape:groupmode="layer"
     id="layer1"
     transform="translate(-150.29465,-529.17452)">
    <path
       id="path2818"
       d="m 341.34197,594.84301 c -0.0287,-0.0115 -0.0521,-0.0542 -0.0521,-0.095 0,-0.0408 -0.0555,-0.14409 -0.12344,-0.22952 -0.0679,-0.0854 -0.13432,-0.18652 -0.14763,-0.22464 -0.0598,-0.17129 -0.66887,-0.53989 -0.90525,-0.54783 -0.0163,-8.3e-4 -0.051,0.0788 -0.077,0.17622 -0.0261,0.0975 -0.0666,0.20066 -0.0901,0.22933 -0.0832,0.10153 -0.28745,0.0562 -0.54795,-0.12162 -0.13999,-0.0956 -0.28299,-0.17214 -0.31779,-0.17019 -0.12597,0.007 -0.27819,-0.0791 -0.34772,-0.19681 -0.12919,-0.2187 -0.55257,-0.50167 -0.75057,-0.50167 -0.138,0 -0.46284,-0.14848 -0.59714,-0.27294 -0.0768,-0.0712 -0.15846,-0.10233 -0.26839,-0.10233 -0.23463,0 -0.35608,-0.0614 -0.40631,-0.2055 -0.0246,-0.0705 -0.0708,-0.12807 -0.10289,-0.12807 -0.032,0 -0.0901,-0.0352 -0.12905,-0.0782 -0.0389,-0.043 -0.13225,-0.0882 -0.20737,-0.10039 -0.2688,-0.0436 -1.14669,-0.50655 -1.21498,-0.64068 -0.0229,-0.045 -0.12614,-0.17583 -0.22933,-0.29064 -0.23187,-0.25792 -0.65663,-0.45466 -0.90631,-0.41978 -0.86861,0.12134 -0.90187,0.1231 -1.25979,0.0666 -0.41324,-0.0652 -0.77082,-0.072 -1.36435,-0.0259 -0.4053,0.0315 -0.42524,0.0292 -0.45112,-0.0524 -0.0149,-0.0469 0.003,-0.18905 0.0399,-0.31583 0.0369,-0.12679 0.0545,-0.2508 0.0392,-0.27559 -0.0547,-0.0884 -0.38396,-0.008 -0.65167,0.15927 -0.20255,0.12653 -0.2824,0.20678 -0.35281,0.35462 -0.0871,0.18292 -0.23558,0.28458 -0.41557,0.28458 -0.11404,0 -0.014,-0.54853 0.13314,-0.73041 0.0368,-0.0455 0.055,-0.0592 0.0405,-0.0306 -0.0154,0.0305 4e-5,0.0521 0.0373,0.0521 0.0395,0 0.0546,-0.0238 0.0397,-0.0626 -0.0132,-0.0344 -0.003,-0.0625 0.0222,-0.0625 0.0254,0 0.0462,-0.0249 0.0462,-0.0553 0,-0.0716 0.18515,-0.24603 0.222,-0.20919 0.0155,0.0155 0.0282,0.004 0.0282,-0.0264 0,-0.0673 0.23331,-0.29587 0.26728,-0.26191 0.0135,0.0135 0.0246,0.002 0.0246,-0.0265 0,-0.0281 0.0166,-0.0408 0.0369,-0.0283 0.0203,0.0125 0.0907,0.006 0.15636,-0.0154 0.0657,-0.021 0.22735,-0.0458 0.35921,-0.055 0.18861,-0.0132 0.23976,-0.004 0.23976,0.0432 0,0.0374 0.0247,0.0506 0.0656,0.0349 0.0361,-0.0138 0.10173,-0.006 0.14594,0.0179 0.0546,0.0292 0.0804,0.0293 0.0804,0 0,-0.0668 0.20337,-0.0332 0.2325,0.0383 0.0207,0.051 0.0333,0.0451 0.0619,-0.0291 0.0369,-0.0956 0.0637,-0.0974 0.40748,-0.0276 0.0565,0.0115 0.0868,0.003 0.0724,-0.0206 -0.0235,-0.0379 0.12861,-0.1138 0.19392,-0.0967 0.0165,0.004 0.05,-0.0295 0.0744,-0.0751 0.0244,-0.0456 0.0768,-0.083 0.1163,-0.083 0.0395,0 0.0963,-0.039 0.12603,-0.0867 0.0474,-0.0759 0.044,-0.0893 -0.0272,-0.10793 -0.0497,-0.013 -0.0913,-0.071 -0.10693,-0.14932 -0.0141,-0.0704 -0.0379,-0.11579 -0.0529,-0.10079 -0.0274,0.0274 -0.11489,-0.0969 -0.16411,-0.23331 -0.0146,-0.0404 -0.0698,-0.0843 -0.12274,-0.0976 -0.0529,-0.0133 -0.10639,-0.0506 -0.1188,-0.0829 -0.0124,-0.0323 -0.0466,-0.0595 -0.076,-0.0604 -0.0294,-8.8e-4 -0.11901,-0.0853 -0.19917,-0.18764 -0.0802,-0.10232 -0.17241,-0.18605 -0.20501,-0.18605 -0.0326,0 -0.0478,-0.0115 -0.0338,-0.0255 0.0361,-0.0361 -0.19749,-0.2247 -0.2782,-0.2247 -0.0436,0 -0.067,-0.0363 -0.067,-0.10424 0,-0.0573 -0.0204,-0.10424 -0.0453,-0.10424 -0.0249,0 -0.16253,-0.11257 -0.30581,-0.25015 -0.14328,-0.13758 -0.276,-0.23609 -0.29495,-0.2189 -0.019,0.0172 -0.0222,0.01 -0.007,-0.0165 0.0263,-0.046 -0.0818,-0.11951 -0.15254,-0.10377 -0.0189,0.004 -0.0238,-0.01 -0.0108,-0.0305 0.013,-0.021 -0.0279,-0.0716 -0.0907,-0.11237 -0.0629,-0.0408 -0.13883,-0.10853 -0.16879,-0.1505 -0.03,-0.042 -0.0816,-0.0763 -0.11466,-0.0763 -0.0331,0 -0.0602,-0.0166 -0.0602,-0.0368 0,-0.0536 -0.95157,-0.76412 -1.13824,-0.84994 -0.0891,-0.041 -0.20101,-0.0621 -0.25588,-0.0484 -0.0691,0.0174 -0.1249,-0.004 -0.19175,-0.0727 -0.0518,-0.0534 -0.0788,-0.0702 -0.06,-0.0372 0.0189,0.033 -0.0437,-0.003 -0.13901,-0.0793 -0.17169,-0.13798 -0.24362,-0.25758 -0.19866,-0.33033 0.0128,-0.0207 -0.004,-0.0482 -0.0378,-0.0611 -0.0386,-0.0148 -0.0592,-0.0752 -0.0558,-0.16383 0.006,-0.15089 -0.14179,-0.40781 -0.29613,-0.51591 -0.0485,-0.034 -0.0773,-0.0794 -0.064,-0.10093 0.0133,-0.0215 -0.005,-0.0504 -0.041,-0.0642 -0.0358,-0.0138 -0.0652,-0.0591 -0.0652,-0.10075 0,-0.0417 -0.0469,-0.13148 -0.10424,-0.19962 -0.0942,-0.11194 -0.10417,-0.15946 -0.10343,-0.49313 10e-4,-0.57152 0.12571,-1.16311 0.42411,-2.01626 0.16348,-0.46741 0.28693,-0.94938 0.34308,-1.33943 0.0244,-0.16978 0.0145,-0.20849 -0.0832,-0.32467 -0.11159,-0.13261 -0.3395,-0.25395 -0.47701,-0.25395 -0.0407,0 -0.2053,-0.0559 -0.36585,-0.12421 -0.40941,-0.17422 -0.85378,-0.2441 -1.86419,-0.29313 -0.48159,-0.0234 -1.04682,-0.0704 -1.25606,-0.10445 -0.20924,-0.0342 -0.49416,-0.0621 -0.63316,-0.0621 -0.139,0 -0.30554,-0.021 -0.3701,-0.0467 -0.0646,-0.0257 -0.28015,-0.0485 -0.47908,-0.0508 -0.19894,-0.002 -0.35263,-0.0187 -0.34154,-0.0367 0.0111,-0.018 -0.0138,-0.0324 -0.0553,-0.032 -0.0415,3.3e-4 -0.38571,-0.0588 -0.76495,-0.13143 l -0.68951,-0.13202 -0.41545,0.13153 c -0.22849,0.0723 -0.42733,0.13149 -0.44185,0.13143 -0.0499,-1.7e-4 -0.0689,-0.16291 -0.0213,-0.18245 0.0262,-0.0108 -0.003,-0.021 -0.0645,-0.0228 -0.0617,-0.002 -0.12247,0.0133 -0.135,0.0336 -0.0392,0.0635 -0.56013,0.14488 -0.61838,0.0966 -0.0344,-0.0285 -0.11475,-0.0296 -0.23938,-0.003 -0.1032,0.0217 -0.34243,0.0605 -0.53163,0.0862 -0.1892,0.0257 -0.344,0.0646 -0.344,0.0864 0,0.0218 -0.0281,0.0289 -0.0625,0.0157 -0.0344,-0.0132 -0.0626,-0.0105 -0.0627,0.006 0,0.0165 -0.0687,0.0335 -0.15235,0.0379 -0.0837,0.004 -0.16334,0.0231 -0.17702,0.0417 -0.0319,0.0433 -0.17115,0.0507 -0.97346,0.0516 -0.36385,4.1e-4 -0.65672,0.0176 -0.65672,0.0385 0,0.0208 -0.16418,0.0384 -0.36485,0.0392 -0.45177,0.002 -0.65911,0.0243 -1.03199,0.11204 -0.16053,0.0378 -0.45605,0.0796 -0.65672,0.093 -0.20066,0.0134 -0.36484,0.0392 -0.36484,0.0573 0,0.0181 -0.0657,0.0222 -0.14594,0.009 -0.0983,-0.016 -0.14594,-0.007 -0.14594,0.0259 0,0.0273 -0.0177,0.0387 -0.0392,0.0254 -0.0417,-0.0258 -0.71771,0.13658 -0.75301,0.18082 -0.0115,0.0144 -0.0584,0.0309 -0.10424,0.0367 -0.39071,0.0496 -0.47445,0.0681 -0.4546,0.10022 0.0125,0.0203 -0.0302,0.0333 -0.0949,0.0289 -0.13116,-0.009 -0.40591,0.14007 -0.35728,0.19371 0.0171,0.0189 0.008,0.0212 -0.0199,0.005 -0.0487,-0.028 -0.50195,0.20873 -0.94972,0.49608 -0.11467,0.0736 -0.48994,0.28104 -0.83393,0.461 -1.03088,0.5393 -1.84703,0.96215 -2.37671,1.23136 -0.40504,0.20587 -0.93607,0.50335 -1.48022,0.82921 -0.14771,0.0884 -0.88465,0.4264 -1.23005,0.56408 -0.2064,0.0823 -0.43156,0.17492 -0.50036,0.20588 -0.46245,0.20811 -0.54873,0.25047 -0.6046,0.29681 -0.1367,0.1134 -0.95309,0.59017 -1.19165,0.69592 -0.13941,0.0618 -0.39272,0.13232 -0.5629,0.15671 -0.34171,0.049 -0.83064,0.0414 -0.83064,-0.0129 0,-0.0191 -0.0182,-0.0234 -0.0405,-0.01 -0.0223,0.0137 -0.0524,-0.0227 -0.0671,-0.0809 -0.0146,-0.0583 -0.0352,-0.10594 -0.0457,-0.10594 -0.034,0 -0.20063,0.095 -0.22206,0.12664 -0.0294,0.0434 -0.33067,0.16523 -0.40848,0.16523 -0.0493,0 -0.0406,-0.0262 0.0364,-0.10999 l 0.10108,-0.10998 -0.18763,0.0305 c -0.1032,0.0168 -0.33774,0.0336 -0.52121,0.0375 -0.1978,0.004 -0.38314,0.0321 -0.45535,0.0686 -0.0938,0.0474 -0.12574,0.0497 -0.13899,0.01 -0.01,-0.0284 -0.0615,-0.0516 -0.11551,-0.0516 -0.0541,0 -0.111,-0.0205 -0.12651,-0.0456 -0.0155,-0.0251 -0.0729,-0.0371 -0.12755,-0.0266 -0.0546,0.0104 -0.0993,0.003 -0.0993,-0.0156 0,-0.019 -0.0277,-0.024 -0.0615,-0.011 -0.0338,0.013 -0.0914,-0.006 -0.12806,-0.043 -0.0366,-0.0366 -0.1023,-0.0666 -0.14594,-0.0666 -0.0923,0 -0.19931,-0.19005 -0.17603,-0.31272 0.0265,-0.13947 0.10502,-0.32973 0.16569,-0.40132 0.0316,-0.0373 0.0519,-0.0927 0.0452,-0.1232 -0.007,-0.0305 0.0154,-0.0563 0.0492,-0.0573 0.0337,-10e-4 0.085,-0.0488 0.11405,-0.10614 0.029,-0.0573 0.053,-0.0879 0.0533,-0.0679 3.4e-4,0.02 0.0285,0.0132 0.0627,-0.0151 0.0341,-0.0283 0.05,-0.0711 0.0352,-0.0949 -0.0148,-0.0239 -0.007,-0.0313 0.0166,-0.0166 0.0468,0.0289 0.16312,-0.0844 0.12539,-0.12211 -0.0125,-0.0125 -0.0994,0.0164 -0.19306,0.0641 -0.23392,0.11934 -0.64836,0.16106 -0.74518,0.075 -0.0496,-0.0441 -0.12964,-0.059 -0.25383,-0.0474 l -0.18138,0.017 0.16053,-0.14754 c 0.2469,-0.22692 1.41302,-1.02055 1.49954,-1.02055 0.0219,0 1.22409,-0.72597 1.41783,-0.85622 l 0.12995,-0.0874 -0.1192,-0.0528 c -0.0919,-0.0407 -0.11104,-0.0687 -0.0835,-0.12239 0.0196,-0.0383 0.0467,-0.18178 0.0602,-0.31887 0.017,-0.17338 0.0473,-0.26486 0.0995,-0.30054 0.16485,-0.11275 0.38772,-0.32794 0.38772,-0.37437 0,-0.053 -0.26216,0.0222 -1.03605,0.29715 -0.2373,0.0843 -0.44126,0.14347 -0.45326,0.13147 -0.0367,-0.0367 0.231,-0.34664 0.48083,-0.55658 0.13009,-0.10932 0.26272,-0.2235 0.29474,-0.25372 0.16503,-0.15578 0.83438,-0.56631 1.23694,-0.75865 0.25117,-0.12001 0.50358,-0.25094 0.56091,-0.29096 0.0573,-0.04 0.2776,-0.16302 0.48948,-0.27332 0.21188,-0.1103 0.37825,-0.20754 0.36971,-0.21608 -0.008,-0.009 -0.13295,0.024 -0.27648,0.0724 -0.18355,0.0618 -0.27404,0.0748 -0.30508,0.0438 -0.031,-0.031 -0.0301,-0.0441 0.003,-0.0441 0.026,0 0.0592,-0.0379 0.0739,-0.0841 0.0235,-0.0739 0.20552,-0.27088 0.56682,-0.61325 0.0596,-0.0565 0.1747,-0.14316 0.25576,-0.1926 0.26426,-0.16122 0.48309,-0.31499 0.50983,-0.35827 0.0278,-0.045 1.29733,-0.68767 1.45273,-0.7354 0.0504,-0.0155 0.23366,-0.0985 0.40718,-0.18453 0.17351,-0.086 0.35872,-0.17009 0.41157,-0.18686 0.0529,-0.0168 0.17895,-0.0889 0.28021,-0.16027 0.14668,-0.10339 0.19877,-0.12061 0.25627,-0.0847 0.0578,0.0361 0.18815,-0.0107 0.65522,-0.23507 0.32067,-0.15407 0.69562,-0.32397 0.83322,-0.37754 0.1376,-0.0536 0.2751,-0.12208 0.30555,-0.15224 0.1002,-0.0992 0.2168,-0.14254 0.42178,-0.15671 0.1383,-0.01 0.23067,-0.0425 0.29241,-0.10422 0.0496,-0.0496 0.17587,-0.14455 0.28053,-0.21092 0.21191,-0.13439 0.27926,-0.21551 0.32079,-0.38638 0.0163,-0.0671 0.0848,-0.1505 0.16259,-0.1979 0.0753,-0.0459 0.10688,-0.0838 0.0719,-0.0861 -0.1059,-0.007 0.67929,-0.19991 0.8235,-0.20237 0.0836,-10e-4 0.13552,-0.0235 0.13552,-0.0576 0,-0.0304 0.0463,-0.0988 0.10295,-0.152 0.11806,-0.11091 0.1035,-0.16799 -0.0429,-0.16799 -0.17016,0 -0.11617,-0.0597 0.20052,-0.2218 0.37489,-0.19187 0.54939,-0.19697 1.02902,-0.03 0.34682,0.12071 0.35238,0.12125 0.42185,0.0411 0.0387,-0.0446 0.0836,-0.0812 0.0997,-0.0812 0.0311,0 0.54301,-0.35266 0.64888,-0.44702 0.0344,-0.0307 0.22204,-0.17155 0.41697,-0.31309 0.19493,-0.14154 0.52329,-0.381 0.72969,-0.53214 0.39736,-0.29098 0.63574,-0.44408 1.04241,-0.66949 0.1376,-0.0763 0.33337,-0.22221 0.43505,-0.32431 l 0.18487,-0.18564 -0.34123,0.0198 c -0.36176,0.0209 -0.39421,0.002 -0.29948,-0.17505 0.0652,-0.12181 0.90001,-0.77539 1.34549,-1.05337 0.0725,-0.0452 0.10654,-0.0935 0.0884,-0.12509 -0.0163,-0.0283 -0.0142,-0.0375 0.005,-0.0204 0.0189,0.0171 0.0922,-0.013 0.16305,-0.0669 0.26809,-0.20397 1.43176,-0.88894 1.67153,-0.98391 0.3166,-0.1254 1.05369,-0.49466 1.08341,-0.54275 0.0124,-0.02 0.14891,-0.0778 0.30346,-0.12856 0.35162,-0.1154 0.37747,-0.13061 0.28006,-0.16478 -0.0823,-0.0289 -0.0896,-0.026 1.0765,-0.42494 0.29344,-0.10038 0.52493,-0.19118 0.51443,-0.20177 -0.0105,-0.0106 0.0387,-0.0214 0.10922,-0.0241 0.0706,-0.003 0.14868,-0.0308 0.17357,-0.0625 0.0265,-0.0339 0.14749,-0.064 0.29244,-0.0728 0.25758,-0.0157 0.73725,-0.21186 1.13502,-0.46412 0.10475,-0.0664 0.32394,-0.15113 0.48711,-0.18824 0.16316,-0.0371 0.31593,-0.0811 0.33948,-0.0979 0.0236,-0.0167 0.11787,-0.0557 0.20961,-0.0867 0.0917,-0.031 0.21153,-0.0912 0.26623,-0.13378 0.0547,-0.0426 0.11368,-0.0775 0.1311,-0.0775 0.0174,0 0.0898,-0.0543 0.16094,-0.12077 0.13934,-0.13016 0.4297,-0.29458 0.56643,-0.32075 0.0465,-0.009 0.10326,-0.0406 0.12619,-0.0705 0.0229,-0.0299 0.11614,-0.10983 0.20711,-0.1777 0.23739,-0.17709 0.2623,-0.19814 0.58513,-0.49446 0.30751,-0.28226 0.74196,-0.63117 1.50107,-1.20553 0.42071,-0.31831 0.72081,-0.52971 1.53879,-1.08397 0.16272,-0.11026 0.54917,-0.32284 0.85876,-0.4724 0.3096,-0.14956 0.64734,-0.31266 0.75054,-0.36243 0.1032,-0.0498 0.19393,-0.1047 0.20163,-0.12204 0.008,-0.0173 0.0311,-0.0209 0.0521,-0.008 0.021,0.013 0.0381,0.007 0.0381,-0.0136 0,-0.0205 0.0245,-0.0372 0.0545,-0.0372 0.0299,0 0.19414,-0.0712 0.36484,-0.15827 0.17071,-0.087 0.52615,-0.24184 0.78988,-0.34399 0.26374,-0.10216 0.60148,-0.23894 0.75054,-0.30396 0.14907,-0.065 0.37423,-0.16152 0.50036,-0.21443 0.12613,-0.0529 0.3647,-0.16619 0.53015,-0.25174 0.16545,-0.0856 0.44221,-0.21441 0.61502,-0.28635 0.17282,-0.0719 0.31421,-0.14469 0.31421,-0.16166 0,-0.017 0.0238,-0.0308 0.0528,-0.0308 0.0291,0 0.37148,-0.15006 0.76096,-0.33346 0.38948,-0.1834 0.82542,-0.37645 0.96876,-0.429 0.14332,-0.0525 0.2606,-0.11284 0.2606,-0.13398 0,-0.0211 0.0234,-0.0339 0.0521,-0.0284 0.0852,0.0164 0.72672,-0.23038 0.78181,-0.30069 0.0115,-0.0146 0.049,-0.0263 0.0834,-0.026 0.14862,0.002 0.80776,-0.23791 1.12342,-0.40809 0.29502,-0.15906 0.71837,-0.46832 0.85716,-0.62617 0.0229,-0.0261 0.075,-0.0599 0.1156,-0.0752 0.0406,-0.0153 0.0856,-0.0582 0.0999,-0.0954 0.0329,-0.0857 0.21344,-0.26781 0.26557,-0.26781 0.0217,0 0.0629,-0.0375 0.0915,-0.0834 0.0286,-0.0459 0.0788,-0.0834 0.11155,-0.0834 0.0327,0 0.0475,-0.0119 0.033,-0.0265 -0.0146,-0.0146 0.0707,-0.11778 0.18951,-0.22933 0.11882,-0.11156 0.19799,-0.20401 0.17593,-0.20547 -0.0221,-10e-4 0.003,-0.0201 0.0564,-0.0413 0.058,-0.0233 0.0846,-0.058 0.0665,-0.0872 -0.0165,-0.0267 -0.012,-0.0373 0.0101,-0.0237 0.022,0.0136 0.1118,-0.0491 0.19948,-0.13949 0.0877,-0.0903 0.14395,-0.16426 0.12506,-0.16426 -0.0189,0 0.0253,-0.044 0.0983,-0.0978 0.0729,-0.0538 0.11881,-0.11167 0.10192,-0.12856 -0.0169,-0.0169 -0.0116,-0.0245 0.0118,-0.0168 0.0604,0.0198 0.27352,-0.15588 0.23753,-0.19573 -0.0164,-0.0182 -0.009,-0.0211 0.0168,-0.006 0.0745,0.0425 0.74338,-0.56118 0.68907,-0.62196 -0.0148,-0.0166 -0.005,-0.0174 0.0224,-0.002 0.0275,0.0158 0.0782,-0.013 0.11467,-0.0651 0.036,-0.0513 0.0654,-0.0785 0.0654,-0.0604 0,0.0433 0.1901,-0.0955 0.38391,-0.28039 0.085,-0.0811 0.23379,-0.19985 0.33059,-0.26388 l 0.176,-0.11644 -0.11568,-0.0208 c -0.11259,-0.0203 -0.10957,-0.0247 0.1129,-0.16529 0.12574,-0.0795 0.22042,-0.16578 0.21042,-0.19185 -0.01,-0.0261 0.0437,-0.0779 0.1194,-0.1152 l 0.13759,-0.0678 -0.13551,-9.5e-4 c -0.14877,-10e-4 -0.18211,-0.0639 -0.0553,-0.1042 0.0442,-0.014 0.21679,-0.15747 0.38365,-0.3188 0.16686,-0.16133 0.36059,-0.32261 0.43052,-0.35842 0.0699,-0.0358 0.13731,-0.0807 0.14975,-0.0999 0.0124,-0.0191 0.10626,-0.0799 0.20849,-0.13505 0.10222,-0.0551 0.18179,-0.11943 0.17682,-0.14287 -0.005,-0.0234 0.0405,-0.055 0.10095,-0.0702 0.0605,-0.0152 0.15621,-0.064 0.21271,-0.10842 0.0565,-0.0444 0.13544,-0.0808 0.17541,-0.0808 0.1032,0 0.38043,-0.11969 0.47899,-0.20679 0.0883,-0.0781 0.62549,-0.29357 0.73171,-0.29357 0.0345,0 0.10427,-0.029 0.15493,-0.0645 0.16786,-0.11757 0.80834,-0.17547 1.86533,-0.16864 0.96912,0.006 1.01124,0.01 1.33429,0.11929 0.18346,0.062 0.35689,0.11305 0.3854,0.11334 0.11488,10e-4 1.19405,0.51977 1.345,0.64633 0.0344,0.0288 0.19502,0.11581 0.35693,0.19326 0.28835,0.13793 0.31022,0.15552 0.31022,0.24958 0,0.0285 0.04,0.0362 0.10424,0.0201 0.0612,-0.0154 0.10424,-0.008 0.10424,0.0172 0,0.0239 0.0516,0.0663 0.11467,0.0943 0.0631,0.028 0.15104,0.0839 0.19549,0.12419 0.0445,0.0403 0.10544,0.0733 0.13552,0.0733 0.0301,0 0.0547,0.0158 0.0547,0.035 0,0.0462 0.19078,0.13179 0.29383,0.13179 0.0448,0 0.0814,0.0188 0.0814,0.0417 0,0.0613 0.12485,0.051 0.12642,-0.0104 8.3e-4,-0.0312 0.0241,-0.0221 0.0581,0.0228 0.041,0.054 0.087,0.0673 0.16546,0.0476 0.0706,-0.0177 0.10868,-0.0102 0.10868,0.0214 0,0.0268 0.0183,0.0374 0.0407,0.0235 0.0564,-0.0348 0.54314,0.0697 0.51753,0.1112 -0.0114,0.0185 0.0225,0.033 0.0753,0.0323 0.11723,-10e-4 0.62616,0.11845 0.5235,0.12337 -0.0401,0.002 -0.073,0.0203 -0.073,0.0407 0,0.0399 0.50233,0.14147 0.53547,0.10833 0.0109,-0.0109 0.0402,-0.003 0.0653,0.0171 0.083,0.0673 0.90089,0.30051 0.94917,0.27067 0.0263,-0.0162 0.0361,-0.0109 0.022,0.0119 -0.014,0.0227 0.16008,0.1289 0.38685,0.23609 0.22677,0.10718 0.57776,0.31976 0.77998,0.4724 0.20223,0.15264 0.39113,0.27759 0.4198,0.27766 0.0287,9e-5 0.0434,0.009 0.0327,0.0195 -0.0107,0.0107 0.0451,0.0947 0.12383,0.18671 0.0788,0.092 0.13452,0.1814 0.12388,0.19862 -0.0106,0.0172 0.009,0.0421 0.0429,0.0552 0.0343,0.0131 0.0626,0.001 0.063,-0.0269 8.3e-4,-0.0394 0.008,-0.0396 0.0326,-5.8e-4 0.0176,0.0276 0.0274,0.13068 0.0219,0.229 -0.007,0.12526 0.002,0.16015 0.0294,0.11656 0.0325,-0.0513 0.04,-0.0476 0.0433,0.0212 0.002,0.0459 0.0134,0.0599 0.025,0.0313 0.0116,-0.0287 0.0342,-0.0521 0.0504,-0.0521 0.0462,0 0.0464,0.16226 0,0.19081 -0.0245,0.0152 -0.0137,0.0461 0.0265,0.0754 0.0487,0.0356 0.06,0.082 0.0397,0.16278 -0.0156,0.0622 -0.0462,0.11303 -0.068,0.11303 -0.0218,0 -0.0252,-0.0234 -0.007,-0.0521 0.0177,-0.0287 -0.0171,-0.02 -0.0772,0.0194 -0.10574,0.0691 -0.26822,0.11924 -0.4191,0.12921 -0.0401,0.003 -0.073,0.0194 -0.073,0.0371 0,0.0178 -0.0422,0.032 -0.0938,0.0317 -0.0516,-3.4e-4 -0.15011,0.007 -0.21891,0.0168 -1.18828,0.16521 -2.17615,0.28324 -2.54349,0.3039 -0.25226,0.0142 -0.4813,0.0436 -0.50896,0.0654 -0.0277,0.0218 -0.0682,0.0285 -0.0901,0.015 -0.0714,-0.0442 -0.16856,0.0204 -0.14108,0.0938 0.0226,0.0605 0.0169,0.0621 -0.0443,0.0123 -0.0487,-0.0396 -0.0703,-0.0422 -0.0703,-0.009 0,0.0267 -0.0235,0.0456 -0.0521,0.0419 -0.13901,-0.0181 -0.2059,0.006 -0.18298,0.0657 0.0266,0.0694 -0.037,0.0865 -0.0776,0.0208 -0.0142,-0.0229 -0.0669,-0.0402 -0.11713,-0.0384 -0.0503,0.002 -0.069,0.0124 -0.0416,0.0235 0.0274,0.0111 0.0391,0.048 0.0261,0.0819 -0.0205,0.0534 -0.0337,0.0526 -0.0984,-0.006 -0.0564,-0.051 -0.0945,-0.0571 -0.15489,-0.0248 -0.0441,0.0236 -0.12282,0.0317 -0.175,0.0181 -0.0838,-0.0219 -0.0917,-0.0132 -0.0671,0.0751 0.0248,0.0892 0.0217,0.0924 -0.0288,0.0301 -0.0526,-0.0649 -0.0659,-0.0639 -0.1898,0.0145 -0.0733,0.0464 -0.13321,0.11828 -0.13321,0.15974 0,0.0549 -0.0227,0.0695 -0.0834,0.0536 -0.0561,-0.0147 -0.0834,-10e-4 -0.0834,0.041 0,0.0385 -0.0553,0.0732 -0.14292,0.0896 -0.11554,0.0217 -0.14813,0.0506 -0.17017,0.15092 -0.0266,0.12113 -0.16063,0.23382 -0.25549,0.21483 -0.0261,-0.005 -0.0583,0.019 -0.0717,0.0538 -0.0134,0.0348 -0.0418,0.0633 -0.0633,0.0633 -0.0428,0 -0.17035,0.10916 -0.6073,0.51976 -0.15908,0.14949 -0.32327,0.2826 -0.36485,0.29579 -0.0416,0.0132 -0.0762,0.0556 -0.0769,0.0942 -8.3e-4,0.0386 -0.0805,0.1303 -0.17721,0.2038 -0.33124,0.25164 -0.64935,0.59345 -0.62375,0.67024 0.009,0.028 -0.003,0.0509 -0.0276,0.0509 -0.0245,0 -0.0658,0.0844 -0.0918,0.18764 -0.026,0.1032 -0.0632,0.18763 -0.0827,0.18763 -0.0195,0 -0.0246,0.0281 -0.0114,0.0625 0.0132,0.0344 0.007,0.0625 -0.0141,0.0625 -0.0209,0 -0.0381,0.0422 -0.0381,0.0938 0,0.16249 -0.0659,0.48984 -0.0949,0.47197 -0.0245,-0.0151 -0.0333,0.16438 -0.052,1.06038 -0.003,0.12613 -0.0207,0.23953 -0.0402,0.25199 -0.0377,0.0241 -0.071,0.16577 -0.0761,0.3238 -0.002,0.053 -0.0216,0.0848 -0.0443,0.0708 -0.0236,-0.0146 -0.0306,0.002 -0.0164,0.0392 0.0137,0.0356 0.005,0.0647 -0.02,0.0647 -0.0247,0 -0.0333,0.03 -0.0192,0.0667 0.0141,0.0367 0.005,0.0796 -0.0205,0.0953 -0.0254,0.0157 -0.0548,0.12118 -0.0653,0.23446 -0.0106,0.11328 -0.0375,0.21204 -0.0598,0.21947 -0.0223,0.007 -0.031,0.0499 -0.0194,0.0944 0.0132,0.0504 -0.004,0.0906 -0.0459,0.10661 -0.0369,0.0141 -0.0567,0.0425 -0.044,0.063 0.0127,0.0205 0.006,0.0373 -0.0147,0.0373 -0.0208,0 -0.0395,0.058 -0.0415,0.12886 -0.006,0.21973 -0.14358,0.78753 -0.18439,0.76231 -0.0213,-0.0131 -0.0344,10e-4 -0.0291,0.0324 0.005,0.031 -0.003,0.10322 -0.0181,0.16055 -0.0152,0.0573 -0.0357,0.18868 -0.0456,0.29188 -0.0446,0.46486 -0.20362,0.99408 -0.3204,1.06625 -0.0203,0.0125 -0.0369,0.078 -0.0369,0.14541 0,0.0674 -0.0183,0.12263 -0.0406,0.12263 -0.0528,0 -0.17794,0.24183 -0.14917,0.28837 0.0121,0.0197 -0.006,0.0589 -0.04,0.0873 -0.0342,0.0283 -0.0621,0.0758 -0.0621,0.10549 0,0.0297 -0.0186,0.0602 -0.0413,0.0679 -0.0227,0.008 -0.0485,0.0755 -0.0572,0.15067 -0.009,0.0752 -0.0465,0.17057 -0.0839,0.21187 -0.0374,0.0413 -0.0554,0.0876 -0.0401,0.10298 0.0153,0.0153 0.003,0.0279 -0.0277,0.0279 -0.0306,0 -0.0438,0.0118 -0.0295,0.0261 0.0374,0.0374 -0.0898,0.26996 -0.2082,0.38059 -0.0553,0.0517 -0.0903,0.11072 -0.0777,0.13115 0.0126,0.0204 -0.005,0.0479 -0.0393,0.061 -0.0343,0.0131 -0.0623,0.0631 -0.0623,0.11107 0,0.0479 -0.0178,0.0761 -0.0396,0.0627 -0.0435,-0.0269 -0.13826,0.11967 -0.10126,0.15668 0.0127,0.0127 -0.0254,0.0547 -0.0845,0.0934 -0.0591,0.0387 -0.0979,0.086 -0.0861,0.10509 0.0232,0.0375 -0.13983,0.20641 -0.19924,0.20641 -0.02,0 -0.0248,0.0186 -0.0107,0.0414 0.0141,0.0228 -0.0407,0.10967 -0.12172,0.19309 -0.081,0.0834 -0.13564,0.17056 -0.12138,0.19364 0.0143,0.0231 -0.019,0.0785 -0.0739,0.12325 -0.0549,0.0447 -0.0717,0.0688 -0.0373,0.0536 0.0344,-0.0152 0.0203,0.01 -0.0313,0.0552 -0.0516,0.0455 -0.0938,0.0988 -0.0938,0.11823 0,0.0195 -0.0383,0.0593 -0.085,0.0885 -0.0468,0.0292 -0.075,0.0693 -0.0628,0.0891 0.0122,0.0198 -0.007,0.0472 -0.0427,0.0609 -0.0357,0.0137 -0.053,0.0443 -0.0384,0.0679 0.0146,0.0237 0.003,0.0379 -0.0249,0.0316 -0.0283,-0.006 -0.0654,0.0355 -0.0823,0.0928 -0.017,0.0573 -0.0327,0.0888 -0.035,0.07 -0.006,-0.0474 -0.12924,0.0806 -0.12924,0.13405 0,0.0238 -0.038,0.0636 -0.0846,0.0885 -0.0465,0.0249 -0.0747,0.0612 -0.0627,0.0807 0.012,0.0195 -0.039,0.0889 -0.1135,0.15427 -0.0745,0.0654 -0.14476,0.13763 -0.15623,0.16056 -0.0115,0.0229 -0.0312,0.0383 -0.0438,0.034 -0.0126,-0.004 -0.0469,0.0306 -0.0761,0.0773 -0.0436,0.0698 -0.0432,0.0793 0.002,0.0531 0.0703,-0.0407 -0.12275,0.18193 -0.24749,0.28535 -0.0518,0.043 -0.0836,0.0954 -0.0705,0.11646 0.013,0.0211 -0.003,0.0384 -0.0363,0.0384 -0.0626,0 -0.24297,0.21481 -0.29215,0.34796 -0.0156,0.0423 -0.0659,0.0867 -0.11159,0.0987 -0.0457,0.012 -0.0832,0.0398 -0.0832,0.0619 0,0.0221 -0.11674,0.15594 -0.25941,0.29744 -0.14268,0.14149 -0.25526,0.27134 -0.25018,0.28854 0.005,0.0172 -0.0166,0.0313 -0.0482,0.0313 -0.0512,0 -0.44289,0.41833 -0.44289,0.47306 0,0.0222 -0.20581,0.25405 -0.53136,0.59869 -0.0975,0.10317 -0.16497,0.20735 -0.15004,0.2315 0.0149,0.0242 0.008,0.0319 -0.0162,0.0171 -0.0238,-0.0147 -0.18213,0.11986 -0.35173,0.2991 -0.16961,0.17923 -0.33784,0.34319 -0.37386,0.36434 -0.13909,0.0817 -0.70334,0.62438 -0.70334,0.67646 0,0.0302 -0.0178,0.0439 -0.0396,0.0304 -0.0218,-0.0135 -0.0605,0.0145 -0.0859,0.0621 -0.0255,0.0476 -0.0932,0.10438 -0.15054,0.12618 -0.0573,0.0218 -0.0939,0.0563 -0.0813,0.0767 0.0126,0.0204 0,0.0563 -0.0288,0.0799 -0.0511,0.0424 -0.0747,0.05 -0.1559,0.05 -0.0229,0 -0.037,0.0218 -0.0313,0.0484 0.006,0.0266 -0.0271,0.0595 -0.073,0.073 -0.11733,0.0345 -0.5629,0.34112 -0.5629,0.38732 0,0.021 -0.0153,0.0288 -0.0341,0.0172 -0.0188,-0.0116 -0.0844,0.0256 -0.14594,0.0826 -0.0615,0.057 -0.11241,0.0889 -0.11311,0.0707 -8.3e-4,-0.0181 -0.0204,-8e-5 -0.0438,0.04 -0.0234,0.0401 -0.0791,0.073 -0.12382,0.073 -0.0447,0 -0.11573,0.0328 -0.15776,0.073 -0.0421,0.0401 -0.10304,0.0787 -0.13552,0.0857 -0.0325,0.007 -0.079,0.0386 -0.10335,0.0702 -0.0243,0.0316 -0.0947,0.0702 -0.15636,0.0856 -0.0616,0.0155 -0.11209,0.048 -0.11209,0.0722 0,0.0243 -0.0119,0.0322 -0.0264,0.0177 -0.0529,-0.0529 -0.65051,0.2994 -0.8823,0.52016 -0.13086,0.12462 -0.35988,0.32949 -0.50894,0.45526 -0.42925,0.36219 -0.58376,0.51284 -0.58376,0.56918 0,0.0288 -0.0153,0.0477 -0.0339,0.042 -0.0452,-0.0139 -0.49048,0.43714 -0.47582,0.48195 0.006,0.0193 -0.005,0.0246 -0.026,0.0119 -0.0206,-0.0128 -0.14775,0.10665 -0.28249,0.26535 -0.13473,0.15869 -0.26374,0.29016 -0.28667,0.29216 -0.0229,0.002 -0.1709,0.12511 -0.3288,0.2736 -0.15791,0.14849 -0.2961,0.26998 -0.30709,0.26998 -0.031,0 -0.49621,0.33706 -0.69937,0.50673 -0.10031,0.0838 -0.38505,0.29331 -0.63276,0.46564 -0.4739,0.32969 -0.69614,0.53922 -0.93672,0.88312 -0.18785,0.26854 -0.45183,0.75659 -0.45183,0.83537 0,0.0336 -0.0144,0.0611 -0.032,0.0611 -0.0387,0 -0.19125,0.39337 -0.27483,0.70884 -0.0334,0.12613 -0.073,0.47326 -0.088,0.77139 -0.015,0.29813 -0.0449,0.55988 -0.0664,0.58166 -0.0215,0.0218 -0.0391,0.1818 -0.0391,0.35557 0,0.21603 -0.0202,0.34474 -0.0637,0.40698 -0.0766,0.10937 -0.0444,0.28076 0.0676,0.35916 0.0427,0.0299 0.33395,0.29686 0.64717,0.5932 0.31322,0.29633 0.58571,0.54505 0.60554,0.55269 0.0198,0.008 0.0361,0.0405 0.0361,0.073 0,0.0325 0.0159,0.0591 0.0352,0.0591 0.0194,0 0.12621,0.0927 0.23744,0.20593 0.11121,0.11327 0.2145,0.19834 0.22952,0.18906 0.015,-0.009 0.0675,0.0294 0.11671,0.0859 0.0492,0.0565 0.10828,0.10282 0.13137,0.10282 0.0231,0 0.042,0.0281 0.042,0.0625 0,0.0344 0.0293,0.0625 0.065,0.0625 0.0358,0 0.0538,0.0181 0.0402,0.0402 -0.0137,0.0221 0.0462,0.0863 0.13305,0.14258 0.17929,0.11624 0.50193,0.40097 0.45437,0.40097 -0.0173,0 -0.003,0.0281 0.0312,0.0625 0.0344,0.0344 0.092,0.0625 0.12806,0.0625 0.036,0 0.0608,0.0235 0.0551,0.0521 -0.006,0.0287 0.013,0.0474 0.0417,0.0417 0.0287,-0.006 0.0474,0.013 0.0417,0.0417 -0.006,0.0287 0.013,0.0474 0.0417,0.0417 0.0287,-0.006 0.0521,0.008 0.0521,0.0313 0,0.0229 0.0141,0.0387 0.0313,0.0351 0.0172,-0.004 0.0657,0.008 0.10774,0.0267 0.0602,0.0262 0.0646,0.0408 0.0209,0.0685 -0.038,0.0241 -0.0185,0.0355 0.0615,0.0359 0.0644,4.2e-4 0.10776,0.0158 0.0963,0.0343 -0.0114,0.0185 0.0203,0.0643 0.0705,0.10179 0.25918,0.19334 0.39306,0.28472 0.48743,0.33272 0.14134,0.0719 0.25008,0.16673 0.25066,0.21864 8.4e-4,0.0236 0.08,0.0794 0.17722,0.12413 0.17294,0.0795 0.41581,0.29119 0.37777,0.32923 -0.0332,0.0332 0.0835,0.18792 0.15623,0.20692 0.0849,0.0222 0.23018,0.33828 0.39232,0.85375 0.10275,0.32667 0.14485,0.40453 0.26982,0.49908 0.0814,0.0616 0.17997,0.15188 0.21894,0.20059 0.11354,0.14189 0.49785,0.38427 0.68706,0.43332 0.25946,0.0672 0.38874,0.24208 0.38874,0.52571 0,0.21649 0.006,0.22793 0.13977,0.28398 0.0769,0.0321 0.22228,0.0716 0.32314,0.0878 0.10086,0.0162 0.32296,0.0652 0.49354,0.10895 0.17058,0.0438 0.39995,0.0796 0.5097,0.0796 0.23363,0 0.76224,0.19642 0.98419,0.36571 0.0813,0.062 0.18198,0.18801 0.22378,0.28004 0.10204,0.22459 0.0997,0.28414 -0.01,0.24942 -0.0768,-0.0244 -0.0837,-0.0158 -0.0561,0.0702 0.0742,0.23142 0.1,0.40826 0.10093,0.69211 l 10e-4,0.3023 -0.12509,0 c -0.1724,0 -0.27462,-0.11798 -0.33033,-0.3813 -0.027,-0.12748 -0.11279,-0.31902 -0.19999,-0.44638 -0.14588,-0.21306 -0.15938,-0.22199 -0.301,-0.19901 -0.18321,0.0297 -0.25279,0.11962 -0.25279,0.32657 l 0,0.15957 -0.17721,-0.0112 c -0.15746,-0.01 -0.17546,-0.002 -0.16147,0.0722 0.0337,0.17853 0.0239,0.4934 -0.0157,0.50355 -0.0229,0.006 -0.0652,10e-4 -0.0938,-0.0101 z m -5.12744,-4.87626 c 0.0398,-0.0398 -0.14497,-0.26788 -0.26931,-0.33247 -0.0614,-0.0319 -0.12302,-0.0911 -0.13685,-0.13144 -0.0138,-0.0404 -0.10815,-0.13836 -0.20962,-0.21772 -0.10145,-0.0793 -0.1768,-0.15195 -0.16743,-0.16132 0.0223,-0.0223 -0.30914,-0.29899 -0.3582,-0.29899 -0.0208,0 -0.0378,-0.0281 -0.0378,-0.0625 0,-0.0344 -0.0235,-0.0579 -0.0521,-0.0521 -0.0287,0.006 -0.0474,-0.013 -0.0417,-0.0417 0.006,-0.0287 -0.0177,-0.0521 -0.0521,-0.0521 -0.0344,0 -0.0625,-0.0265 -0.0625,-0.0588 0,-0.0323 -0.11678,-0.159 -0.25951,-0.28145 -0.14272,-0.12244 -0.30974,-0.27423 -0.37115,-0.33729 -0.0614,-0.0631 -0.12083,-0.11467 -0.13207,-0.11467 -0.0113,0 -0.12137,-0.0985 -0.24472,-0.21891 -0.228,-0.22253 -0.4399,-0.40654 -0.46817,-0.40654 -0.009,0 -0.10615,-0.0831 -0.21682,-0.18474 -0.11066,-0.10161 -0.21608,-0.17556 -0.23425,-0.16433 -0.0182,0.0112 -0.033,0.003 -0.033,-0.0187 0,-0.0514 -0.62574,-0.52177 -0.69408,-0.52177 -0.029,0 -0.0434,-0.0151 -0.032,-0.0336 0.0268,-0.0434 -0.34413,-0.27555 -0.49351,-0.30885 -0.0631,-0.0141 -0.11466,-0.0435 -0.11466,-0.0654 0,-0.0232 -0.0361,-0.0205 -0.0867,0.007 -0.0831,0.0444 -0.0782,0.055 0.11467,0.25158 0.11074,0.11285 0.22481,0.20522 0.25348,0.20525 0.0287,3e-5 0.0521,0.0159 0.0521,0.0353 0,0.0194 0.14323,0.17416 0.3183,0.34399 0.17505,0.16983 0.35799,0.35396 0.40654,0.40918 0.15288,0.17394 0.59627,0.6059 0.68585,0.66816 0.0473,0.0328 0.0745,0.0797 0.0606,0.10425 -0.0139,0.0245 -0.0106,0.0313 0.007,0.015 0.018,-0.0162 0.0913,0.0143 0.16305,0.0678 0.0717,0.0535 0.20206,0.13049 0.28967,0.17113 0.11444,0.0531 0.1438,0.0837 0.10424,0.1088 -0.0413,0.0262 -0.0363,0.0351 0.0204,0.0355 0.0415,4.2e-4 0.0652,0.0172 0.0526,0.0375 -0.0204,0.033 0.1828,0.14125 0.28889,0.15394 0.0229,0.003 0.0663,0.008 0.0963,0.0113 0.03,0.004 0.043,0.0251 0.0288,0.048 -0.0142,0.0229 0.004,0.0417 0.0414,0.0417 0.037,0 0.13624,0.0469 0.22062,0.10424 0.0844,0.0573 0.12559,0.10452 0.0916,0.10487 -0.0541,8.4e-4 -0.054,0.006 8.4e-4,0.0408 0.0344,0.0221 0.0934,0.0305 0.13111,0.0188 0.0719,-0.0223 0.17318,0.0574 0.24622,0.19386 0.0238,0.0444 0.11845,0.12824 0.21041,0.18629 0.13427,0.0848 0.16178,0.12262 0.13968,0.19225 -0.0175,0.0551 -0.0118,0.077 0.0158,0.0599 0.0238,-0.0147 0.0542,-0.009 0.0676,0.0127 0.0134,0.0217 -0.0181,0.0476 -0.0701,0.0575 -0.0817,0.0157 -0.079,0.0189 0.0202,0.0238 0.0951,0.005 0.11467,0.0247 0.11467,0.11705 0,0.18314 0.10832,0.26389 0.35394,0.26389 0.11875,0 0.22742,-0.0115 0.24148,-0.0256 z m -4.78878,-4.09776 c 0.0126,-0.0204 -0.0473,-0.089 -0.13305,-0.15242 -0.19874,-0.14701 -0.29979,-0.26981 -0.30097,-0.36569 -0.001,-0.10594 -0.17,-0.48724 -0.21557,-0.48724 -0.0207,0 -0.0554,-0.0469 -0.0772,-0.10424 -0.0218,-0.0573 -0.0583,-0.10425 -0.0811,-0.10425 -0.0228,0 -0.0306,-0.0281 -0.0174,-0.0625 0.0132,-0.0344 0.007,-0.0625 -0.0138,-0.0625 -0.0607,0 -0.1472,0.48845 -0.10156,0.57375 0.0217,0.0406 0.17565,0.1955 0.34204,0.34422 0.16638,0.14871 0.34164,0.31062 0.38946,0.3598 0.0942,0.0968 0.1729,0.11986 0.20917,0.0612 z m -0.94267,-3.06205 c -0.005,-0.0269 0.0224,-0.10903 0.0614,-0.18242 0.0391,-0.0734 0.071,-0.18239 0.071,-0.24222 0,-0.0665 0.0173,-0.0981 0.0445,-0.0813 0.037,0.0229 0.1161,-0.14183 0.0867,-0.18043 -0.005,-0.007 0.0197,-0.0407 0.0549,-0.076 0.0352,-0.0352 0.064,-0.10849 0.064,-0.16283 0,-0.0543 0.0173,-0.10949 0.0384,-0.12254 0.0211,-0.0131 0.0714,-0.11268 0.1117,-0.22137 0.0403,-0.1087 0.1069,-0.24666 0.14799,-0.30658 0.0411,-0.0599 0.0627,-0.1209 0.0481,-0.13551 -0.0146,-0.0146 -0.005,-0.0266 0.0221,-0.0266 0.0268,0 0.0484,-0.0328 0.048,-0.073 -8.3e-4,-0.063 -0.007,-0.0645 -0.0453,-0.0104 -0.0367,0.0514 -0.0412,0.0477 -0.0249,-0.0208 0.0109,-0.0459 0.0345,-0.11949 0.0525,-0.1636 0.0263,-0.0642 0.0189,-0.0749 -0.037,-0.0534 -0.0867,0.0333 -0.0907,-0.0272 -0.007,-0.11058 0.0344,-0.0344 0.0619,-0.0967 0.0611,-0.1385 -0.001,-0.0658 -0.0125,-0.0627 -0.0844,0.0238 -0.0457,0.0548 -0.0951,0.0876 -0.1099,0.0729 -0.0148,-0.0148 -0.0656,0.006 -0.11291,0.0462 -0.0818,0.0694 -0.0832,0.0694 -0.0296,0 0.0346,-0.0446 0.0391,-0.073 0.0118,-0.073 -0.0246,0 -0.0597,0.0235 -0.0781,0.0521 -0.0183,0.0287 -0.0697,0.0803 -0.11412,0.11467 -0.0734,0.0569 -0.0783,0.0559 -0.0534,-0.0104 0.015,-0.0401 0.01,-0.073 -0.0114,-0.073 -0.0213,0 -0.0592,0.0797 -0.0841,0.17721 -0.0249,0.0975 -0.0558,0.20536 -0.0685,0.23976 -0.0593,0.16033 -0.13674,0.61028 -0.11618,0.67504 0.0126,0.0398 0.002,0.11116 -0.0232,0.15861 -0.0548,0.10245 -0.01,1.01178 0.0485,0.97584 0.0203,-0.0125 0.0326,-0.0449 0.0274,-0.0718 z m 0.50773,-1.81862 c 0,-0.0243 0.0188,-0.0442 0.0417,-0.0442 0.0229,0 0.0417,0.008 0.0417,0.0184 0,0.0101 -0.0188,0.03 -0.0417,0.0442 -0.0229,0.0142 -0.0417,0.006 -0.0417,-0.0184 z m 0.0834,-0.12509 c 0,-0.0243 0.0188,-0.0442 0.0417,-0.0442 0.0229,0 0.0417,0.008 0.0417,0.0184 0,0.0101 -0.0188,0.03 -0.0417,0.0442 -0.0229,0.0142 -0.0417,0.006 -0.0417,-0.0184 z m 27.52809,-26.44822 c -0.0492,-0.0492 -0.10404,-0.0739 -0.12188,-0.0548 -0.0178,0.0191 -0.009,0.0431 0.0199,0.0534 0.0288,0.0103 0.0442,0.032 0.0342,0.0482 -0.01,0.0162 0.0213,0.0325 0.0695,0.0361 l 0.0877,0.007 -0.0895,-0.0895 z m -26.65246,35.14195 c 0,-0.0101 0.0188,-0.03 0.0417,-0.0442 0.0229,-0.0142 0.0417,-0.006 0.0417,0.0184 0,0.0243 -0.0188,0.0442 -0.0417,0.0442 -0.0229,0 -0.0417,-0.008 -0.0417,-0.0184 z m 23.13036,-36.74362 c 0.0282,-0.0114 0.0845,-0.0121 0.12509,-0.002 0.0406,0.0106 0.0175,0.0199 -0.0513,0.0208 -0.0688,8.5e-4 -0.10199,-0.008 -0.0738,-0.0192 z"
       style="fill:#cccccc"
       inkscape:connector-curvature="0" />
    <g
       transform="matrix(0.06679702,0,0,0.06679702,148.29449,552.03462)"
       id="layer1-9"
       inkscape:label="Ebene 1">
      <path
         id="path2964"
         d="m 302.13928,570.07415 c -0.58742,-0.73225 -0.96652,-0.94677 -1.96175,-1.1101 -2.12195,-0.34825 -4.50935,-0.27812 -4.85862,0.14273 -0.2568,0.30942 -1.14773,0.375 -5.09475,0.375 -2.81515,0 -5.14293,0.11422 -5.6569,0.2776 -0.48035,0.15267 -3.23585,0.3343 -6.12335,0.40362 -6.10075,0.1464 -9.0448,-0.21807 -9.85633,-1.22022 -0.44245,-0.54643 -0.50747,-0.55343 -2.42415,-0.26088 -2.84488,0.43423 -11.58369,0.4809 -16.0667,0.0858 -3.8115,-0.3359 -3.85627,-0.33393 -4.82718,0.21175 -1.05116,0.59077 -1.08585,0.58617 -3.45064,-0.45968 -1.07807,-0.47677 -1.24132,-0.7007 -1.24617,-1.70925 -0.0114,-2.36342 -1.28947,-2.87217 -3.93888,-1.56787 -0.91627,0.45107 -2.32921,1.33627 -3.13988,1.96712 -0.81066,0.63083 -1.71606,1.3089 -2.012,1.50683 -0.29594,0.1979 -0.76307,0.54877 -1.03807,0.77967 -0.275,0.23093 -0.82589,0.49715 -1.22418,0.59163 l -0.72418,0.1718 0.13925,-1.95148 c 0.0766,-1.07332 0.21764,-2.14835 0.31343,-2.38897 0.16085,-0.40405 -0.0917,-0.4375 -3.30258,-0.4375 -2.18395,0 -3.57846,-0.10173 -3.75028,-0.27355 -0.16995,-0.16993 -0.82798,-0.2211 -1.7375,-0.13513 -4.49358,0.42488 -5.39304,0.4546 -5.66055,0.18708 -0.15313,-0.15313 -0.5284,-0.2784 -0.83393,-0.2784 -0.63089,0 -2.34448,-1.83779 -2.34448,-2.51439 0,-0.64179 -0.62684,-1.03315 -1.88126,-1.17454 -0.79797,-0.09 -1.25801,-0.0166 -1.56237,0.24911 -0.23725,0.20713 -0.86412,0.51564 -1.39304,0.68557 -0.52892,0.16993 -1.26017,0.46471 -1.625,0.65507 -0.36483,0.19035 -0.79837,0.34679 -0.96341,0.34763 -0.16504,5e-4 -0.39004,0.1482 -0.5,0.32745 -0.42569,0.69395 -2.52446,1.9654 -3.10799,1.88285 -0.50158,-0.071 -0.60366,-0.24593 -0.66881,-1.14625 -0.0666,-0.91983 -0.0101,-1.06251 0.42066,-1.06251 0.27364,0 0.56386,-0.209 0.64494,-0.46445 0.1944,-0.61251 2.19866,-2.63244 3.50132,-3.5287 0.56925,-0.39165 1.85862,-0.96226 2.86527,-1.26802 1.67507,-0.50879 2.12979,-0.54088 5.36248,-0.37852 1.94271,0.0976 3.57075,0.28457 3.61787,0.41553 0.0471,0.13097 0.46193,0.16754 0.92181,0.0813 0.55067,-0.10331 1.33979,0.0174 2.31128,0.35363 0.81132,0.28078 2.25275,0.63986 3.20319,0.79797 0.95043,0.15811 2.25166,0.43657 2.89163,0.6188 0.63997,0.18223 1.60812,0.27171 2.15146,0.19883 0.54334,-0.0729 1.20098,-0.0226 1.46143,0.1118 0.49841,0.25713 1.09854,0.1589 1.09854,-0.17981 0,-0.11001 -0.22613,-0.25914 -0.50251,-0.33142 -0.27637,-0.0723 -0.65059,-0.48362 -0.8316,-0.9141 -0.181,-0.43048 -0.74238,-1.06353 -1.24749,-1.40676 -0.50512,-0.34324 -0.9184,-0.76916 -0.9184,-0.94648 0,-0.3894 -0.93411,-1.26393 -1.625,-1.52136 -0.275,-0.10246 -1.65313,-0.26085 -3.0625,-0.35197 -1.98071,-0.12806 -2.5625,-0.0942 -2.5625,0.14904 0,0.1731 -0.25313,0.31626 -0.5625,0.31814 -0.30938,0.002 -0.81053,0.0699 -1.11367,0.15119 -0.44003,0.11798 -0.5832,0.0201 -0.71006,-0.48532 -0.15333,-0.61092 -0.86377,-1.15494 -0.86377,-0.66144 0,0.384 -1.42539,0.28105 -1.83929,-0.13285 -0.20625,-0.20625 -0.54369,-0.375 -0.74987,-0.375 -0.26689,0 -0.42435,-0.39604 -0.54666,-1.375 -0.18572,-1.48644 -0.24331,-1.54507 -0.97447,-0.99205 -0.2669,0.20188 -0.99815,0.37104 -1.625,0.37591 -0.62684,0.005 -1.42096,0.16964 -1.76471,0.36614 -0.34375,0.19651 -0.92634,0.36127 -1.29465,0.36614 -0.3683,0.005 -0.83839,0.17761 -1.04464,0.38386 -0.20625,0.20625 -0.77125,0.375 -1.25555,0.375 -1.39247,0 -3.35111,0.49854 -3.50183,0.89133 -0.0757,0.19727 -0.31145,0.35867 -0.52388,0.35867 -0.21243,0 -0.58159,0.0989 -0.82035,0.21982 -1.34949,0.68332 -3.01227,1.01198 -4.37573,0.8649 -1.24382,-0.13418 -1.46192,-0.23641 -1.5896,-0.74512 -0.0814,-0.32428 -0.30453,-0.5896 -0.49588,-0.5896 -0.19134,0 -0.34789,-0.16875 -0.34789,-0.375 0,-0.20625 -0.21836,-0.375 -0.48525,-0.375 -0.26688,0 -0.55477,-0.1125 -0.63975,-0.25 -0.085,-0.1375 -0.64486,-0.25 -1.24417,-0.25 -1.02657,0 -1.11617,-0.0575 -1.54774,-0.99355 -0.27556,-0.59766 -0.63242,-0.99612 -0.89559,-1 -0.24063,-0.003 -0.4375,0.10605 -0.4375,0.24355 0,0.1375 -0.18095,0.25 -0.40211,0.25 -0.30323,0 -0.36383,-0.15248 -0.24645,-0.62016 0.14087,-0.56127 0.1019,-0.59983 -0.4104,-0.40606 -0.31132,0.11775 -1.15667,0.29488 -1.87854,0.39362 -1.14175,0.15617 -1.3125,0.12389 -1.3125,-0.24809 0,-0.32305 -0.13756,-0.38944 -0.5625,-0.27151 -1.6289,0.45207 -1.6875,0.45516 -1.6875,0.089 0,-0.25712 -0.18764,-0.33156 -0.625,-0.24795 -0.4582,0.0876 -0.625,0.0116 -0.625,-0.28467 0,-0.26003 -0.21415,-0.40415 -0.60055,-0.40415 -0.44643,0 -0.68115,-0.2085 -0.91466,-0.8125 -0.457,-1.18205 -0.50702,-3.69466 -0.0768,-3.85973 0.4568,-0.17529 0.43808,-1.23742 -0.025,-1.4151 -0.20184,-0.0775 -0.424,-0.0486 -0.49368,0.0642 -0.16832,0.27235 -2.13932,0.26501 -2.13932,-0.008 0,-0.11712 -0.43449,-0.28243 -0.96553,-0.36735 -1.49736,-0.23943 -1.70414,-0.44243 -1.36524,-1.34026 0.25787,-0.68319 0.23829,-0.76125 -0.19095,-0.76125 -0.28738,0 -0.47981,-0.17462 -0.48211,-0.4375 -0.002,-0.24828 -0.0833,-0.3288 -0.1875,-0.18617 -0.27968,0.38271 -2.01852,0.92799 -2.33517,0.73229 -0.68457,-0.42309 -3.64824,-0.0273 -5.03261,0.67207 -0.23876,0.12062 -0.76649,0.21931 -1.17274,0.21931 -0.40626,0 -0.80049,0.10007 -0.87608,0.22238 -0.0756,0.1223 -0.5041,0.28293 -0.95225,0.35693 -1.52227,0.25139 -6.39251,1.57885 -7.06482,1.92564 -0.67805,0.34974 -5.75819,0.94559 -7,0.82103 -1.77521,-0.17807 -2.06462,-0.30136 -2.22712,-0.9488 -0.0866,-0.34494 -0.26775,-0.62717 -0.40263,-0.62717 -0.30239,0 -0.32224,-1.10115 -0.0305,-1.69089 0.11812,-0.23876 0.41255,-1.0488 0.65427,-1.80008 0.51641,-1.60497 1.06097,-2.50903 1.51131,-2.50903 0.19013,0 0.27351,-0.18866 0.20283,-0.45893 -0.0705,-0.26976 0.15803,-0.78936 0.55452,-1.26056 0.37099,-0.4409 0.6324,-0.83266 0.58091,-0.87059 -0.0515,-0.0379 -0.8811,-0.21808 -1.8436,-0.40033 -2.18324,-0.41339 -2.375,-0.48537 -2.375,-0.89147 0,-0.34896 -0.0476,-0.36155 -3.80719,-1.00742 -1.539,-0.26439 -2.63179,-0.59095 -2.97575,-0.88926 -0.29896,-0.25929 -0.83016,-0.47144 -1.18045,-0.47144 -1.03668,0 -3.53661,-0.8344 -3.53661,-1.18041 0,-0.20705 -0.35793,-0.31959 -1.01644,-0.31959 -0.55904,0 -1.2509,-0.12548 -1.53746,-0.27885 -0.28657,-0.15336 -1.08769,-0.27884 -1.78027,-0.27884 -0.73935,0 -1.40215,-0.14292 -1.60539,-0.34616 -0.33951,-0.3395 -1.1303,-0.47162 -2.24794,-0.37557 -0.30938,0.0266 -0.5625,-0.0579 -0.5625,-0.18771 0,-0.12984 -0.225,-0.17722 -0.5,-0.10531 -0.275,0.0719 -0.50001,0.009 -0.50001,-0.14056 0,-0.14922 -0.17587,-0.20382 -0.39082,-0.12133 -0.48502,0.18611 -4.20234,-0.72817 -7.91379,-1.94641 -1.73747,-0.57031 -4.63505,-0.61688 -6.49569,-0.1044 -0.72858,0.20068 -2.39345,0.65842 -3.6997,1.0172 -1.4509,0.39852 -3.34773,0.70545 -4.875,0.78883 -2.402288,0.13116 -2.521693,0.11307 -3.055138,-0.46298 -0.305327,-0.32971 -0.65024,-1.04575 -0.766475,-1.59119 -0.167122,-0.78425 -0.312485,-0.97615 -0.694857,-0.91728 -1.702333,0.26206 -9.39537,2.96257 -9.566858,3.35827 -0.04584,0.10576 -0.327085,0.19066 -0.624997,0.18867 -0.605563,-0.004 -3.971788,1.02667 -4.166668,1.2758 -0.194582,0.24876 -5.243925,1.88858 -9.25,3.00402 -1.99375,0.55513 -3.883417,1.11384 -4.199262,1.24157 -0.315845,0.12772 -1.399365,0.23223 -2.407823,0.23223 l -1.833557,0 -0.27968,-1.11071 c -0.153823,-0.61088 -0.279678,-1.39838 -0.279678,-1.75 0,-0.46615 -0.131422,-0.63929 -0.485245,-0.63929 -0.266885,0 -0.54561,0.0977 -0.61939,0.21705 -0.07378,0.11937 -0.69071,0.29088 -1.37096,0.38111 -0.68025,0.0902 -1.2734,0.24756 -1.31811,0.34959 -0.04471,0.10204 -1.037545,0.4478 -2.206295,0.76837 -1.16875,0.32056 -2.51875,0.72537 -3,0.89958 -0.48125,0.17421 -1.465625,0.45566 -2.1875,0.62546 -0.721875,0.16979 -1.3125,0.38996 -1.3125,0.48927 0,0.25117 -4.642962,0.86523 -4.977727,0.65833 -0.81354,-0.50279 0.21991,-1.88876 1.408355,-1.88876 0.313155,0 0.56937,-0.15104 0.56937,-0.33563 0,-0.1846 0.394955,-0.54833 0.877675,-0.80829 0.721597,-0.38861 0.799397,-0.50126 0.4375,-0.63348 -0.242095,-0.0884 -0.557105,-0.0681 -0.700015,0.0452 -0.142915,0.11331 -0.705415,0.31227 -1.25,0.44214 -0.54459,0.12986 -1.66067,0.417 -2.480185,0.63809 -0.81951,0.22108 -2.085135,0.40197 -2.8125,0.40197 -1.30275,0 -1.322475,-0.0112 -1.322475,-0.75 0,-0.6285 -0.09886,-0.75 -0.610245,-0.75 -0.335635,0 -0.68755,-0.12508 -0.782035,-0.27796 -0.18097,-0.29282 -2.49126,-0.10379 -2.97647,0.24353 -0.140935,0.10089 -1.60625,0.12178 -3.25625,0.0465 -2.7156,-0.12401 -3,-0.18135 -3,-0.60476 0,-0.93352 5.74958,-3.68541 12.281235,-5.8781 3.51532,-1.1801 5.85445,-1.88395 16.718767,-5.03073 4.309705,-1.24828 11.423143,-3.49841 12.25,-3.87494 0.4125,-0.18784 1.115625,-0.4139 1.5625,-0.50236 0.446875,-0.0885 0.8125,-0.2644 0.8125,-0.39098 0,-0.12657 0.233035,-0.23013 0.517858,-0.23013 0.28482,0 0.692592,-0.17474 0.90616,-0.38831 0.213567,-0.21356 0.627407,-0.35332 0.919645,-0.31056 0.292235,0.0427 0.644455,-0.0667 0.782712,-0.24317 0.138255,-0.17649 0.68521,-0.35982 1.215455,-0.4074 0.530243,-0.0476 1.040258,-0.20978 1.133368,-0.36043 0.09311,-0.15066 0.558657,-0.30569 1.034547,-0.34453 0.47589,-0.0389 0.989613,-0.22951 1.141603,-0.42372 0.151992,-0.19422 0.448142,-0.2872 0.658112,-0.20662 0.50831,0.19505 2.474515,-0.31593 2.918355,-0.75843 0.20142,-0.20081 0.657345,-0.30705 1.0625,-0.24759 0.390325,0.0573 0.709683,0.0111 0.709683,-0.10254 0,-0.11369 0.151465,-0.2067 0.33659,-0.2067 0.185125,0 0.702895,-0.18274 1.1506,-0.40608 0.697945,-0.34818 1.423572,-0.50576 2.661425,-0.57796 0.150487,-0.009 0.600487,-0.29707 1,-0.64066 0.399512,-0.34358 0.808582,-0.62483 0.909047,-0.625 0.100463,-1.6e-4 1.12983,-0.4503 2.287483,-1.0003 1.157652,-0.55 2.200455,-1.00024 2.31734,-1.00053 0.116882,-2.5e-4 1.112515,-0.46407 2.212515,-1.03062 2.121135,-1.09247 7.575925,-3.51816 8.624995,-3.83544 0.34375,-0.10397 0.9625,-0.33727 1.375,-0.51846 1.65458,-0.72677 6.64056,-2.59805 8.92969,-3.35138 2.92665,-0.96314 9.39594,-4.59282 10.69532,-6.00075 0.48125,-0.52145 1.49375,-1.31745 2.25,-1.76887 2.98431,-1.78142 3.33087,-2.06652 2.89736,-2.38351 -0.67518,-0.49371 -0.44397,-1.10066 0.68769,-1.80522 1.01452,-0.63163 1.08358,-0.74495 1.0625,-1.74358 -0.0189,-0.89397 0.10766,-1.18977 0.77639,-1.81484 0.43942,-0.41074 0.88942,-0.75038 1,-0.75475 0.11058,-0.004 0.41097,-0.16693 0.66752,-0.36124 0.45294,-0.34305 0.45112,-0.3728 -0.0625,-1.02577 -0.86539,-1.10017 -0.7017,-1.97831 0.53354,-2.86215 0.58437,-0.41813 1.26066,-0.92508 1.50285,-1.12656 0.2422,-0.20148 0.49074,-0.36633 0.55231,-0.36633 0.0616,0 0.61445,-0.30352 1.22861,-0.67448 0.85087,-0.51395 1.15289,-0.86768 1.26893,-1.4862 0.12205,-0.65059 0.43589,-0.98645 1.58104,-1.69199 0.78581,-0.48415 1.71001,-1.1076 2.05376,-1.38545 0.34375,-0.27784 0.76562,-0.50668 0.9375,-0.50853 0.17187,-10e-4 0.3125,-0.1721 0.3125,-0.37835 0,-0.20625 0.10294,-0.375 0.22876,-0.375 0.12582,0 0.49144,-0.22098 0.8125,-0.49106 1.49241,-1.25547 2.12413,-1.70316 2.62387,-1.85948 0.29707,-0.0929 0.72154,-0.44582 0.94326,-0.78421 0.22172,-0.33839 0.52321,-0.61525 0.66997,-0.61525 0.14676,0 0.809,-0.5625 1.47163,-1.25 0.66264,-0.6875 1.35666,-1.25 1.54226,-1.25 0.18561,0 0.46217,-0.19967 0.61457,-0.44371 0.15241,-0.24404 0.74068,-0.66592 1.30727,-0.9375 0.56659,-0.27159 1.03146,-0.57817 1.03304,-0.68129 0.002,-0.10313 0.10995,-0.1875 0.24083,-0.1875 0.13088,0 0.60901,-0.3701 1.0625,-0.82243 1.59195,-1.5879 3.80256,-3.42757 4.11867,-3.42757 0.17564,0 0.51125,-0.2929 0.74581,-0.65088 0.23456,-0.35799 1.02466,-1.09279 1.75577,-1.63289 0.7311,-0.5401 1.32928,-1.1472 1.32928,-1.34912 0,-0.20191 0.10739,-0.36711 0.23864,-0.36711 0.13125,0 0.51989,-0.28125 0.86364,-0.625 0.34375,-0.34375 0.71449,-0.6264 0.82386,-0.62812 0.10938,-0.002 0.68188,-0.45171 1.27223,-1 0.59035,-0.54828 1.13699,-0.99688 1.21476,-0.99688 0.0778,0 0.38226,-0.21758 0.67664,-0.4835 0.29437,-0.26593 1.60398,-1.40373 2.91023,-2.52844 1.30625,-1.12472 2.61522,-2.28527 2.90881,-2.579 0.29359,-0.29374 0.90644,-0.81531 1.36189,-1.15906 0.45545,-0.34375 1.36781,-1.15938 2.02746,-1.8125 0.65966,-0.65313 1.30847,-1.1875 1.44181,-1.1875 0.13334,0 0.36286,-0.225 0.51003,-0.5 0.14718,-0.275 0.40426,-0.50237 0.5713,-0.50526 0.16704,-0.003 0.99798,-0.65415 1.84653,-1.44723 0.84856,-0.79308 1.84812,-1.60535 2.22125,-1.80505 0.37314,-0.19969 0.84493,-0.61719 1.04843,-0.92777 0.2035,-0.31058 0.46392,-0.56469 0.57871,-0.56469 0.20904,0 2.49853,-1.46581 2.73378,-1.75026 0.0687,-0.0831 0.57501,-0.41827 1.125,-0.74476 0.55,-0.3265 2.32694,-1.47368 3.94875,-2.54931 1.6218,-1.07562 3.00473,-1.95567 3.07317,-1.95567 0.15054,0 2.6349,-1.82345 3.12742,-2.29543 0.19287,-0.18483 0.68524,-0.55058 1.09417,-0.81277 0.40892,-0.26219 0.85892,-0.57073 1,-0.68564 0.49785,-0.40552 4.13357,-3.09085 5.18709,-3.83116 0.58701,-0.4125 1.57402,-1.01782 2.19335,-1.34515 0.61933,-0.32733 1.6323,-0.95879 2.25105,-1.40325 2.05528,-1.47633 6.90704,-4.28474 12,-6.94612 1.03125,-0.53889 1.9875,-1.04934 2.125,-1.13434 0.1375,-0.085 0.97647,-0.40869 1.86438,-0.71932 0.8879,-0.31062 2.40665,-0.89598 3.375,-1.30079 0.96834,-0.40481 2.65388,-1.05596 3.74563,-1.447 1.75298,-0.62787 2.00766,-0.79838 2.17877,-1.45874 0.13064,-0.50415 0.64414,-1.07315 1.57616,-1.74653 0.76031,-0.54932 1.38299,-1.08978 1.38372,-1.20102 0.001,-0.11124 -0.10598,-0.13592 -0.23716,-0.0548 -0.36809,0.2275 -1.5115,-0.13435 -1.5115,-0.47833 0,-0.16842 0.33438,-0.63435 0.74306,-1.03539 0.40868,-0.40105 0.74618,-0.9111 0.75,-1.13345 0.004,-0.22235 0.45694,-0.70207 1.00694,-1.06605 0.55,-0.36397 1,-0.76739 1,-0.89649 0,-0.1291 0.39134,-0.42042 0.86963,-0.64739 1.20858,-0.57351 2.11415,-2.53229 1.38037,-2.98579 -0.47738,-0.29504 -0.24581,-0.86433 0.51074,-1.25556 0.41841,-0.21636 0.86198,-0.65964 0.98569,-0.98506 0.13245,-0.34835 0.59068,-0.72392 1.11427,-0.91325 0.48911,-0.17687 0.8893,-0.47168 0.8893,-0.65515 0,-0.64695 0.7954,-1.53622 1.51552,-1.69439 0.90682,-0.19917 0.90503,-0.19606 1.21339,-2.11077 0.13974,-0.8677 0.42665,-1.76834 0.63758,-2.00142 0.21093,-0.23307 0.38351,-0.61121 0.38351,-0.84031 0,-0.24833 0.45188,-0.62894 1.11902,-0.94253 0.66547,-0.31281 1.2638,-0.8162 1.47621,-1.24199 0.32759,-0.65668 0.31773,-0.7285 -0.11902,-0.86712 -0.58419,-0.18542 -0.64285,-1.25001 -0.0808,-1.4657 0.21749,-0.0835 0.82704,-0.15175 1.35455,-0.15175 1.56001,0 1.73597,-0.14323 1.42415,-1.15924 -0.31005,-1.01023 -0.0334,-1.33047 1.15479,-1.33693 1.04116,-0.006 1.67106,-0.43449 1.67106,-1.13763 0,-0.58024 0.0802,-0.6162 1.375,-0.6162 l 1.375,0 0,-0.875 c 0,-0.48125 0.12288,-0.875 0.27308,-0.875 0.15018,0 0.5591,-0.225 0.9087,-0.5 0.34963,-0.275 0.84547,-0.5 1.10195,-0.5 0.47955,0 0.6253,-0.67581 0.50627,-2.34774 l -0.0514,-0.72274 1.4916,0.13525 c 1.38358,0.12546 1.49718,0.0965 1.56823,-0.3997 0.0441,-0.30772 0.28903,-0.56807 0.57663,-0.6129 0.275,-0.0429 0.75737,-0.20594 1.07197,-0.36237 0.46225,-0.22987 0.54238,-0.41923 0.41763,-0.98712 -0.14523,-0.66122 -0.10523,-0.70232 0.67802,-0.69657 0.4578,0.003 1.3211,0.11881 1.91845,0.25655 0.856,0.1974 1.24807,0.16962 1.8509,-0.13111 0.42067,-0.20985 0.91845,-0.38155 1.1062,-0.38155 0.24453,0 0.29412,-0.18814 0.17488,-0.66329 l -0.16648,-0.66328 1.68947,0.17309 c 1.41035,0.1445 1.73898,0.1054 1.98908,-0.23662 0.25223,-0.34493 0.45362,-0.36718 1.27365,-0.14076 0.714,0.19714 1.02083,0.19332 1.14913,-0.0143 0.0963,-0.15579 0.73214,-0.2948 1.413,-0.30891 0.68087,-0.0141 1.39457,-0.15445 1.58602,-0.31186 0.24998,-0.20554 1.1232,-0.2271 3.09808,-0.0765 1.5125,0.11533 3.15375,0.14933 3.6472,0.0756 1.08375,-0.16203 4.44292,0.32672 4.91005,0.71439 0.2473,0.20525 0.49062,0.19445 0.93115,-0.0413 0.4481,-0.23982 0.78777,-0.25242 1.36647,-0.0507 0.69753,0.24316 0.77013,0.22001 0.77013,-0.24563 0,-0.43959 0.0996,-0.48694 0.6875,-0.3267 0.37812,0.10307 0.95375,0.17169 1.27915,0.15249 0.3254,-0.0192 1.0004,0.19233 1.5,0.47005 1.30267,0.72416 6.01752,2.22213 6.17782,1.96277 0.2074,-0.33559 1.0589,-0.26064 2.06775,0.18199 1.87683,0.82347 2.16753,0.9811 2.3583,1.27875 0.11433,0.17834 0.47775,0.25 0.875,0.17251 0.52285,-0.10198 1.06983,0.13034 2.37288,1.00786 0.9314,0.62721 1.77619,1.14039 1.87737,1.14039 0.10117,0 0.32447,0.225 0.4962,0.5 0.17175,0.275 0.45618,0.5 0.63205,0.5 0.17587,0 0.87805,0.56893 1.56037,1.2643 0.68233,0.69536 1.81918,1.59673 2.52633,2.00303 0.70718,0.40631 1.47277,1.02416 1.70135,1.37302 0.22857,0.34885 1.50625,1.77104 2.83925,3.1604 1.33302,1.38937 3.07055,3.20361 3.86117,4.03165 0.79063,0.82803 1.4375,1.64511 1.4375,1.81572 0,0.17062 0.0844,0.34771 0.1875,0.39355 0.23706,0.10535 2.0844,2.36343 2.66423,3.25655 0.2404,0.37028 0.62522,1.17525 0.85517,1.78882 0.3891,1.03823 0.5828,1.20158 2.7931,2.35566 3.80563,1.98704 4.6173,2.42444 4.75,2.55969 0.0688,0.0701 0.57193,0.35132 1.11818,0.625 0.54622,0.27369 1.10872,0.58778 1.25,0.698 0.14125,0.11021 1.3051,0.81953 2.58633,1.57626 3.58519,2.11753 8.16769,5.65365 9.5692,7.38415 0.46822,0.57813 1.05962,1.24748 1.31422,1.48744 0.63162,0.59529 1.16208,1.66682 1.16208,2.34742 0,0.47342 -0.1689,0.58616 -1.05643,0.7052 -0.58105,0.0779 -1.18665,0.0337 -1.3458,-0.0985 -0.19462,-0.16151 -0.33732,-0.11526 -0.43572,0.14122 -0.0805,0.20976 -0.39503,0.38138 -0.69895,0.38138 -0.64683,0 -2.0169,0.41673 -3.1093,0.94574 -0.42416,0.20541 -0.9294,0.32073 -1.12275,0.25627 -0.19338,-0.0645 -0.50125,0.0325 -0.68418,0.2154 -0.18292,0.18292 -0.6058,0.33259 -0.93972,0.33259 -0.33393,0 -0.60715,0.1003 -0.60715,0.2229 0,0.12259 -0.28125,0.29348 -0.625,0.37976 -0.34375,0.0863 -0.625,0.26722 -0.625,0.4021 0,0.13488 -0.39375,0.24524 -0.875,0.24524 -0.48125,0 -0.875,0.1125 -0.875,0.25 0,0.35984 -0.6847,0.30855 -0.83443,-0.0625 -0.0694,-0.17188 -0.13497,-0.0702 -0.14585,0.22587 -0.0168,0.45999 -0.21082,0.5604 -1.33222,0.68968 -0.72188,0.0832 -2.13968,0.14146 -3.15065,0.12943 -1.7264,-0.0205 -3.28685,0.34306 -3.28685,0.7659 0,0.10324 -0.47813,0.2692 -1.0625,0.3688 -0.94458,0.16099 -1.00365,0.20879 -0.53233,0.43073 0.43725,0.2059 0.53563,0.48641 0.5613,1.60086 0.024,1.04641 -0.0532,1.35123 -0.34265,1.35123 -0.2056,0 -0.37382,0.16875 -0.37382,0.375 0,0.20625 -0.16875,0.375 -0.375,0.375 -0.20625,0 -0.375,0.1125 -0.375,0.25 0,0.1375 0.1125,0.25 0.25,0.25 0.1375,0 0.25,0.37254 0.25,0.82786 0,0.4823 0.2087,1.05188 0.5,1.36455 0.51257,0.55017 0.65122,1.18462 0.30557,1.39824 -0.23007,0.1422 -0.18377,1.7953 0.0727,2.59685 0.11627,0.36329 0.0774,0.5625 -0.1097,0.5625 -0.15933,0 -0.43398,0.13477 -0.6103,0.29948 -0.26055,0.2434 -0.25638,0.42823 0.0222,0.98692 0.18862,0.37809 0.4527,1.36896 0.58685,2.20193 0.19797,1.22935 0.17102,1.65545 -0.1432,2.26309 -0.23678,0.45783 -0.28313,0.74858 -0.11938,0.74858 0.17815,0 0.23475,0.77395 0.16918,2.3125 -0.0941,2.20661 -0.0675,2.35256 0.5804,3.1875 1.06225,1.3689 1.6706,2.75552 1.8646,4.25 0.0982,0.75625 0.46072,2.0137 0.8057,2.79433 0.34495,0.78063 0.55262,1.54 0.46145,1.6875 -0.0912,0.14749 -0.0556,0.26817 0.0789,0.26817 0.39485,0 1.05565,2.3315 1.16845,4.12273 0.0573,0.91045 0.18215,1.78141 0.27738,1.93547 0.1897,0.30693 0.2271,0.81438 0.46112,6.2543 0.10003,2.32541 0.069,3.6875 -0.0839,3.6875 -0.13342,0 -0.23165,0.59062 -0.21827,1.3125 0.0132,0.72187 -0.007,2.24234 -0.0463,3.37881 -0.0597,1.74678 -0.14568,2.10646 -0.5559,2.326 -0.39508,0.21143 -0.45473,0.42239 -0.321,1.13517 0.12807,0.68266 0.0534,0.99629 -0.33923,1.424 -0.6432,0.70078 -0.8174,1.5595 -0.9253,4.5615 -0.0534,1.48471 -0.20017,2.49957 -0.3774,2.6091 -0.15952,0.0986 -0.30735,0.73021 -0.32852,1.40359 -0.0213,0.67338 -0.13963,1.29583 -0.2633,1.38322 -0.12365,0.0874 -0.23903,0.66867 -0.25638,1.29172 -0.0172,0.62306 -0.1159,1.21718 -0.21902,1.32027 -0.10313,0.1031 -0.1875,0.48257 -0.1875,0.84326 0,1.55419 -1.93913,7.14988 -3.09845,8.94111 -0.40858,0.63128 -0.70215,0.81425 -1.3103,0.81665 -0.84408,0.003 -1.23828,0.43581 -1.82575,2.0031 -0.83298,2.22231 -2.12605,4.75 -2.42993,4.75 -0.18457,0 -0.33557,0.16875 -0.33557,0.375 0,0.20625 -0.16875,0.375 -0.375,0.375 -0.27083,0 -0.375,-0.27778 -0.375,-1 0,-0.55 -0.1125,-1 -0.25,-1 -0.1375,0 -0.25,0.10446 -0.25,0.23214 0,0.12768 -0.16045,0.39259 -0.35655,0.58869 -0.43405,0.43406 -1.4176,2.76962 -2.02315,4.80417 -0.5605,1.88324 -1.35823,3.375 -1.8048,3.375 -0.33155,0 -0.3337,-1.06003 -0.0103,-4.96572 0.0524,-0.63176 -0.0646,-0.93081 -0.47055,-1.20319 -0.52323,-0.35107 -0.55345,-0.31679 -0.96168,1.09072 -0.8392,2.89394 -2.7833,7.07819 -3.28852,7.07819 -0.18393,0 -0.33443,-0.1125 -0.33443,-0.25 0,-0.58505 -0.42405,-0.15734 -1.11622,1.12587 -0.50278,0.93206 -0.89588,1.37413 -1.22193,1.37413 -0.438,0 -0.46577,-0.12764 -0.31262,-1.4375 0.0924,-0.79063 0.27667,-1.475 0.40942,-1.52083 0.13275,-0.0458 0.24135,-0.26708 0.24135,-0.49165 0,-0.22457 0.1853,-0.8935 0.41178,-1.48652 0.32432,-0.84924 0.352,-1.20939 0.13035,-1.69586 -0.30913,-0.67847 -1.04213,-0.84362 -1.04213,-0.2348 0,0.21057 -0.16875,0.44761 -0.375,0.52675 -0.20625,0.0791 -0.375,0.41312 -0.375,0.74216 0,0.32903 -0.1125,0.59825 -0.25,0.59825 -0.1375,0 -0.25,0.225 -0.25,0.5 0,0.275 -0.1125,0.5 -0.25,0.5 -0.1375,0 -0.25,0.21562 -0.25,0.47917 0,0.26354 -0.0931,0.51666 -0.20682,0.5625 -0.11378,0.0459 -0.62573,0.92708 -1.1377,1.95833 -1.22978,2.47711 -1.94093,3.49621 -2.44123,3.49829 -0.4682,0.002 -0.71122,-0.48891 -0.72097,-1.45624 l -0.007,-0.66705 -0.73655,0.875 c -0.4051,0.48125 -0.73958,1.01562 -0.74328,1.1875 -0.0138,0.64019 -0.6998,0.28468 -0.84422,-0.4375 -0.0825,-0.4125 -0.25958,-0.75 -0.39353,-0.75 -0.2857,0 -1.4067,1.42346 -2.01662,2.56072 -0.25913,0.48315 -0.71118,0.87283 -1.15193,0.99296 -0.5359,0.14608 -0.94872,0.58943 -1.58015,1.69703 -0.90132,1.58102 -1.15587,1.75132 -1.63607,1.0946 -0.2554,-0.3493 -0.37038,-0.35818 -0.84005,-0.0649 -0.29928,0.1869 -0.54415,0.53112 -0.54415,0.76493 0,0.23381 -0.10386,0.48929 -0.23078,0.56773 -0.1269,0.0784 -0.3046,0.47883 -0.39485,0.88976 -0.0903,0.41092 -0.31632,0.74713 -0.5024,0.74713 -0.18605,0 -0.4147,0.25312 -0.50807,0.5625 -0.1912,0.63337 -1.2822,1.6875 -1.74653,1.6875 -0.16767,0 -0.37112,0.33127 -0.4521,0.73617 -0.16952,0.8476 -1.67935,2.51383 -2.27785,2.51383 -0.49912,0 -1.785,1.28346 -2.01642,2.01261 -0.094,0.29597 -0.6096,0.99028 -1.1459,1.54291 -0.5363,0.55262 -0.9751,1.1037 -0.9751,1.22462 0,0.12092 -0.16875,0.21986 -0.375,0.21986 -0.20625,0 -0.3757,-0.14063 -0.37655,-0.3125 0,-0.17188 -0.14963,-0.0313 -0.33065,0.3125 -0.66613,1.26496 -1.05183,1.75885 -1.47968,1.89464 -0.24097,0.0765 -0.43812,0.24397 -0.43812,0.37221 0,0.29715 -0.92823,1.23315 -1.2229,1.23315 -0.1226,0 -0.29408,-0.28363 -0.38108,-0.63028 l -0.1582,-0.63027 -0.6189,0.61891 c -0.34042,0.3404 -0.61892,0.68502 -0.61892,0.76583 0,0.0808 -0.1162,0.28279 -0.2582,0.44886 -0.14203,0.16607 -0.77183,1.00507 -1.39955,1.86445 -1.4018,1.91907 -1.96288,2.05572 -1.78003,0.43355 0.07,-0.62092 0.0284,-1.19006 -0.0925,-1.26476 -0.12085,-0.0747 -0.21972,0.0267 -0.21972,0.2252 0,0.36787 -1.02175,1.16851 -1.4912,1.16851 -0.14235,0 -0.2588,-0.19613 -0.2588,-0.43584 0,-0.28623 -0.50198,0.0999 -1.46238,1.125 -1.55095,1.65539 -1.79355,1.78115 -2.28762,1.18584 -0.34598,-0.41687 -1,-0.50694 -1,-0.13771 0,0.22665 -2.21675,2.48511 -5.47228,5.57521 -1.5377,1.45959 -2.43167,1.79305 -2.6809,1 -0.0756,-0.24063 -0.2392,-0.69228 -0.36347,-1.00368 l -0.22598,-0.56619 -0.5037,0.50369 c -0.27702,0.27702 -0.50367,0.61618 -0.50367,0.75368 0,0.1375 -0.17928,0.25 -0.3984,0.25 -0.21913,0 -0.45725,0.225 -0.52918,0.5 -0.0719,0.275 -0.31762,0.5 -0.54602,0.5 -0.2284,0 -0.60793,0.225 -0.8434,0.5 -0.23545,0.275 -0.56983,0.50194 -0.74305,0.50432 -0.17323,0.003 -0.57988,0.28362 -0.9037,0.625 -0.3238,0.34137 -0.74568,0.62068 -0.9375,0.62068 -0.1918,0 -0.34875,0.10522 -0.34875,0.23382 0,0.1286 -0.39375,0.3762 -0.875,0.55022 -0.48125,0.17402 -0.875,0.4063 -0.875,0.51618 0,0.10988 -0.16875,0.19978 -0.375,0.19978 -0.74006,0 -0.35237,0.51236 0.8986,1.18757 0.70047,0.37809 1.7953,1.1093 2.43292,1.62493 0.71523,0.57838 1.42443,0.9375 1.8514,0.9375 0.67555,0 1.69208,0.75094 1.69208,1.25 0,0.1375 0.27015,0.25 0.6003,0.25 0.41585,0 0.75202,0.25713 1.09402,0.83677 0.41563,0.70446 0.67975,0.86227 1.67028,0.99804 0.64712,0.0887 1.53292,0.32615 1.96847,0.52768 1.19508,0.55295 5.71738,1.35537 6.213,1.10241 1.015,-0.51804 3.9751,-0.0401 4.58908,0.74105 0.33677,0.42848 6.56995,0.6088 7.08105,0.20485 0.18765,-0.14831 0.6939,-0.2925 1.125,-0.32042 0.4311,-0.0279 1.21692,-0.13248 1.74632,-0.23235 0.69773,-0.13162 1.0201,-0.0884 1.17185,0.15716 0.17243,0.27897 0.70828,0.29073 3.0375,0.0666 3.54483,-0.34102 5.18638,-0.2823 7.03628,0.25167 3.22197,0.93002 5.6487,3.59924 5.66307,6.22899 0.003,0.54905 -0.1095,0.68638 -0.55872,0.68195 -0.30938,-0.003 -0.84375,-0.22557 -1.1875,-0.49445 -0.34375,-0.26887 -0.74355,-0.49137 -0.88845,-0.49445 -0.1449,-0.003 -0.6451,-0.3993 -1.11155,-0.88055 -0.98213,-1.0133 -1.53073,-1.10457 -1.87823,-0.3125 -0.18675,0.4257 -0.566,0.6192 -1.55927,0.79563 -1.00828,0.17907 -1.3125,0.33695 -1.3125,0.68107 0,0.3611 -1.11465,1.2108 -1.58833,1.2108 -0.0622,0 -0.44082,-0.40842 -0.8413,-0.90762 z m -51.41826,-8.94079 c 0.0149,-0.0147 0.0922,-0.44846 0.17178,-0.96409 0.11042,-0.71554 0.0596,-0.9375 -0.21461,-0.9375 -0.49425,0 -0.45113,-0.49935 0.0782,-0.90583 0.40847,-0.31366 0.40018,-0.34645 -0.125,-0.49422 -0.30938,-0.087 -0.5625,-0.25764 -0.5625,-0.3791 0,-0.12147 -0.225,-0.22085 -0.5,-0.22085 -0.275,0 -0.5,-0.15131 -0.5,-0.33625 0,-0.40943 -0.586,-0.93326 -1.75,-1.56435 -0.48125,-0.26092 -0.94887,-0.57653 -1.03915,-0.70137 -0.0903,-0.12483 -0.90503,-0.25095 -1.81056,-0.28027 -0.90553,-0.0293 -1.81604,-0.19409 -2.02335,-0.36615 -0.24815,-0.20594 -0.37694,-0.21955 -0.37694,-0.0399 0,0.15167 -0.3894,0.25836 -0.87612,0.24007 -0.48187,-0.0181 -0.95143,0.0424 -1.04348,0.13442 -0.33912,0.33912 -0.21679,1.38513 0.17394,1.48731 0.21701,0.0567 0.53229,0.56287 0.70062,1.12471 0.18723,0.62491 0.49805,1.08246 0.80055,1.17847 0.27197,0.0863 0.49449,0.26186 0.49449,0.3901 0,0.12823 0.34803,0.23315 0.7734,0.23315 0.55994,0 0.80905,0.1363 0.90255,0.49384 0.0883,0.3376 0.41703,0.53989 1.03909,0.6394 1.67223,0.26751 1.99792,0.36544 2.33444,0.70196 0.52246,0.52246 1.75171,0.86804 2.57552,0.72406 0.4125,-0.0721 0.7622,-0.14305 0.77711,-0.15767 z"
         style="fill:#000000"
         inkscape:connector-curvature="0" />
    </g>
    <g
       transform="matrix(0.05937342,0,0,0.05937342,202.02205,545.59437)"
       id="layer1-8"
       inkscape:label="Ebene 1"
       style="fill:#cccccc">
      <path
         id="path3054"
         d="m 348.93406,748.52648 c -0.86119,-3.42005 -2.2127,-5.77505 -4.50047,-7.8419 -2.39431,-2.1631 -3.82606,-2.346 -4.62574,-0.5909 -0.73132,1.60505 -3.11642,1.6992 -4.72655,0.18655 -0.7886,-0.74085 -1.7842,-1.0655 -3.28222,-1.0703 -4.00247,-0.013 -13.63711,-1.25995 -15.90026,-2.05815 -1.2375,-0.43645 -2.85547,-0.7968 -3.59549,-0.8008 -0.74002,-0.005 -1.46659,-0.20325 -1.61459,-0.4427 -0.14801,-0.2395 -0.92245,-0.5661 -1.72097,-0.7258 -2.99579,-0.59915 -8.43513,-3.3974 -8.99574,-4.6278 -0.30347,-0.66605 -0.7572,-1.211 -1.00828,-1.211 -0.25109,0 -0.60447,-0.5895 -0.7853,-1.31 l -0.32879,-1.30995 -4.35042,0.2861 c -2.39273,0.1574 -4.91292,0.3861 -5.60042,0.5083 -3.792,0.674 -7.78173,1.57615 -8,1.80895 -0.44959,0.47945 -2.1803,0.6672 -6.57949,0.71365 -2.38123,0.025 -4.2242,0.2161 -4.09549,0.42435 0.1287,0.2082 -0.002,0.3786 -0.29127,0.3786 -0.2889,0 -0.8063,-0.45 -1.14978,-1 -0.70827,-1.1341 -2.7672,-1.3268 -4.00686,-0.375 -0.44771,0.34375 -1.00966,1.4125 -1.24879,2.375 -0.31884,1.28335 -0.8939,1.9769 -2.15654,2.601 -3.30571,1.63385 -7.47178,0.88745 -7.47178,-1.3386 0,-0.69435 -0.28125,-1.2591 -0.625,-1.2551 -0.78734,0.009 -4.62468,1.3063 -6.70056,2.26505 -0.86656,0.4002 -1.94649,0.72765 -2.39983,0.72765 -0.45335,0 -1.49469,0.3467 -2.31409,0.7704 l -1.48982,0.77045 0.33482,-1.39545 c 1.00837,-4.20255 4.94528,-7.5102 11.19448,-9.4053 0.6875,-0.2085 1.74279,-0.90735 2.34509,-1.55305 0.85987,-0.92185 1.42205,-1.1086 2.6173,-0.86955 1.13638,0.22725 1.60109,0.0989 1.83341,-0.50655 0.39594,-1.0318 1.13398,-1.0295 2.2795,0.007 0.84225,0.76225 0.96498,0.7429 1.79554,-0.2828 0.77332,-0.955 1.08115,-1.02885 2.32209,-0.55705 1.15311,0.43845 1.53984,0.3957 1.99383,-0.22035 0.42084,-0.57105 1.38492,-0.73765 3.81324,-0.659 5.11788,0.16585 13.41516,-1.29605 13.85453,-2.44105 0.13885,-0.36185 0.55073,-0.6579 0.91527,-0.6579 0.89122,0 1.46847,-1.9617 0.77987,-2.6503 -0.30232,-0.30235 -0.54967,-1.36985 -0.54967,-2.3722 0,-1.1875 -0.34842,-2.1378 -1,-2.7275 -0.55,-0.49775 -1,-1.46625 -1,-2.15225 0,-0.686 -1.12739,-3.70355 -2.5053,-6.70565 -1.37792,-3.0021 -2.73946,-6.5122 -3.02564,-7.8002 -0.29151,-1.312 -1.60848,-3.95665 -2.9947,-6.0137 -1.36089,-2.0195 -2.47436,-3.881 -2.47436,-4.1366 0,-0.6057 -8.50997,-17.1664 -11.14655,-21.6916 -3.52347,-6.0474 -7.30593,-11.333 -10.07815,-14.08315 -1.6039,-1.59115 -3.2668,-3.9186 -4.15338,-5.81315 -1.4657,-3.13215 -1.50314,-3.1655 -4.31,-3.83885 -2.64227,-0.63385 -2.88365,-0.6153 -3.61251,0.27795 -0.66954,0.82055 -0.7421,0.83315 -0.50822,0.0882 0.31898,-1.016 -0.45873,-0.9645 -1.79588,0.119 -0.50907,0.4125 -1.31252,0.78165 -1.78544,0.8203 -0.47293,0.0385 -1.25617,0.2325 -1.74054,0.4307 -0.70001,0.2864 -0.81041,0.17725 -0.53819,-0.53215 0.2656,-0.69215 0.15464,-0.8204 -0.49433,-0.57135 -1.35233,0.51895 -0.95798,-0.55205 0.48085,-1.30595 1.27367,-0.66735 1.2128,-0.6999 -1.82338,-0.9752 -2.38995,-0.2167 -3.41349,-0.5636 -4.28048,-1.4506 -3.72071,-3.8066 -12.29168,-9.10265 -13.94388,-8.61605 -0.56096,0.16525 -3.09134,1.0654 -5.62308,2.00035 -2.70448,0.99875 -5.53054,1.69995 -6.85148,1.69995 -2.1855,0 -2.84681,0.18855 -7.04536,2.00865 -1.1,0.4769 -4.25,1.69015 -7,2.69615 -2.75,1.00605 -5.5625,2.0734 -6.25,2.37195 -3.63314,1.5777 -8.21522,2.88405 -8.49996,2.4233 -0.20778,-0.3362 -1.2758,-0.31075 -3.20288,0.0762 -2.40009,0.482 -2.96492,0.4613 -3.32545,-0.1221 -0.35036,-0.5669 -1.56037,-0.14215 -6.26048,2.1974 -3.20439,1.5951 -5.91324,2.81305 -6.01966,2.70665 -0.10642,-0.10645 1.32569,-1.19645 3.18247,-2.42225 8.23045,-5.4336 12.12596,-8.19815 12.12596,-8.60555 0,-0.6231 -2.22261,0.014 -5.73187,1.6436 -1.65997,0.7707 -3.91813,1.79915 -5.01813,2.2854 -3.29295,1.4556 -21.6884,10.6652 -26.15272,13.0932 -2.28401,1.2422 -4.24451,2.1668 -4.35667,2.0546 -0.11217,-0.11215 2.15031,-1.8656 5.02772,-3.8965 2.87742,-2.0309 5.23167,-3.7672 5.23167,-3.85835 0,-0.28635 -3.66149,1.34845 -5.75,2.56735 -1.1,0.64195 -3.575,2.0107 -5.5,3.04165 -1.925,1.03095 -4.09723,2.2939 -4.82718,2.80655 -2.7307,1.9177 -1.99299,0.84575 0.85831,-1.24725 9.30784,-6.83235 13.54227,-9.88385 17.44379,-12.5707 3.99524,-2.7514 13.06726,-9.3755 13.68183,-9.9901 0.14295,-0.14295 -0.0589,-0.2599 -0.44848,-0.2599 -0.69173,0 -12.66231,6.51835 -27.70827,15.08795 -8.77694,4.99905 -9.75,5.52085 -9.75,5.2284 0,-0.29555 8.84252,-6.55805 19.5,-13.81045 12.41269,-8.4468 16.64977,-11.5228 16.3227,-11.84985 -0.27663,-0.27665 -6.04016,2.4042 -9.0727,4.2201 -3.44101,2.06045 -8.63345,5.08485 -10.5,6.1158 -1.1,0.60755 -3.18125,1.77445 -4.625,2.59305 -1.44375,0.8186 -2.625,1.3655 -2.625,1.21525 0,-0.1502 3.99375,-3.075 8.875,-6.49955 9.76789,-6.8528 13.26153,-9.3423 15.08001,-10.7457 l 1.20501,-0.93 -1.4211,0 c -0.7816,0 -2.42612,0.5344 -3.65448,1.1875 -2.4417,1.29825 -4.20494,1.5594 -3.79781,0.5625 0.14038,-0.34375 1.31457,-1.39905 2.60931,-2.3451 1.29473,-0.94605 3.59156,-2.62165 5.10406,-3.72355 3.92444,-2.8591 3.97324,-2.9252 1.875,-2.5396 -2.72843,0.50135 -2.46067,-0.6906 0.75,-3.33865 3.90186,-3.2182 11.875,-11.0867 11.875,-11.71915 0,-0.8641 -3.45055,-1.6841 -9.33894,-2.2193 -7.24,-0.65805 -15.66361,-2.16065 -22.66106,-4.0422 -6.10075,-1.64045 -10.78667,-2.5057 -18.5,-3.41595 -5.27785,-0.62285 -14.205808,-2.50985 -19.258693,-4.07055 -3.559815,-1.0995 -11.73802,-2.46095 -14.783003,-2.46095 -1.033355,0 -5.21546,0.57745 -9.293565,1.28325 -9.71202,1.6808 -11.13744,1.91465 -19.414735,3.1851 -3.85,0.5909 -7.5625,1.3297 -8.25,1.64175 -0.6875,0.312 -2.6,0.7223 -4.25,0.9117 -1.65,0.1894 -5.1375,0.832 -7.75,1.428 -2.6125,0.59605 -7.7875,1.74955 -11.5,2.5634 -3.7125,0.81385 -8.4375003,1.92625 -10.5000003,2.47205 -7.582975,2.00675 -16.5736597,4.01475 -17.9754447,4.01475 -0.792675,0 -1.53351,-0.27685 -1.646305,-0.61525 -0.158545,-0.47565 -1.21366,-0.4208 -4.65002,0.24165 -4.54164,0.87555 -5.98255,0.63495 -4.79163,-0.8 0.326825,-0.3938 1.937285,-1.21825 3.57881,-1.83215 1.641525,-0.6139 2.98459,-1.2039 2.98459,-1.3111 0,-0.10725 -0.84375,-0.0859 -1.875,0.0475 -8.636625,1.11645 -14.415015,1.7733 -17.39521,1.97725 -1.936115,0.13255 -4.56668,0.4755 -5.8457,0.7621 -1.27902,0.28665 -2.619925,0.42945 -2.97979,0.3174 -0.359865,-0.1121 -1.28225,-0.3417 -2.04975,-0.51025 -1.813515,-0.3982 -1.35615,-1.07535 1.01493,-1.5026 3.07156,-0.55345 10.63052,-2.94775 10.63052,-3.3672 0,-0.2135 -0.95625,-0.28745 -2.125,-0.16435 -5.85426,0.61655 -9.56579,0.7503 -9.114095,0.32845 0.76166,-0.7114 18.629475,-6.11235 29.989095,-9.0649 3.3,-0.85775 7.5749997,-1.99415 9.4999997,-2.5253 4.824965,-1.33145 13.13289,-3.2593 21.7500003,-5.0472 8.33214,-1.7287 12.852145,-2.69675 23,-4.9258 7.4654,-1.6398 28.203665,-5.9421 41,-8.50565 16.619943,-3.32965 24.938336,-5.66135 37.499996,-10.51155 7.63407,-2.9476 9.3044,-3.77835 8.41041,-4.1829 -0.36322,-0.1644 -0.18291,-0.1824 0.4007,-0.04 1.15585,0.2819 7.73825,-2.3349 6.72384,-2.67305 -0.36281,-0.12095 -0.0317,-0.57104 0.79724,-1.08359 0.97748,-0.60445 1.69005,-0.73664 2.29438,-0.42564 1.76782,0.90976 6.5768,-1.65359 35.12343,-18.72201 1.375,-0.82213 2.66531,-1.74655 2.86735,-2.05427 0.20204,-0.30771 0.37079,-0.35586 0.375,-0.10698 0.004,0.24887 0.4014,0.11819 0.88265,-0.2904 0.48125,-0.4086 2,-1.38024 3.375,-2.15922 1.375,-0.77897 2.66055,-1.66079 2.85677,-1.95959 0.19621,-0.29881 0.53371,-0.5438 0.75,-0.54443 1.64656,-0.005 34.8626,-21.12239 45.08446,-28.66313 3.94212,-2.90813 49.9735,-33.49959 63.30877,-42.07364 12.71727,-8.1767 35.02757,-21.13685 42.83451,-24.88275 3.94102,-1.89097 8.76313,-4.37144 10.71579,-5.51216 4.71278,-2.75314 14.14699,-10.09004 21.62296,-16.81598 8.72376,-7.84855 22.07674,-22.74126 22.07674,-24.62241 0,-0.88817 10.6982,-13.87559 16.39737,-19.90611 8.79266,-9.30387 20.55783,-16.96356 32.01213,-20.84142 12.91631,-4.37283 19.57726,-5.31317 29.45891,-4.15875 7.45645,0.8711 11.47045,1.80538 16.28315,3.78998 4.6606,1.92188 5.16485,1.81136 1.68025,-0.36827 -1.5878,-0.99317 -2.7848,-1.90791 -2.65995,-2.03274 0.12485,-0.12483 1.5933,0.46277 3.2633,1.30578 3.29885,1.66525 3.7989,1.81598 3.28935,0.99144 -0.78055,-1.26295 3.6201,1.60761 12.2755,8.00736 5.0875,3.76166 10.2625,7.56749 11.5,8.4574 l 2.25,1.61802 11.75,-0.33767 c 14.34485,-0.41224 23.83115,0.28324 31.33985,2.29765 4.86385,1.30485 5.7364,1.73455 12.2171,6.01643 0.223,0.14734 0.27765,0.75655 0.1215,1.3538 -0.4001,1.52989 -1.606,1.92552 -28.6016,9.38355 -26.10755,7.21269 -24.18485,6.43049 -28.86955,11.74476 -0.84845,0.9625 -2.87345,3.00935 -4.5,4.54856 -2.29755,2.17423 -3.1726,3.43495 -3.9224,5.65118 -0.5308,1.56894 -1.1758,2.98284 -1.43335,3.14199 -0.76745,0.47432 -3.67075,7.25549 -4.00235,9.34832 -0.387,2.44227 -2.92355,7.73991 -4.33795,9.05995 -3.10585,2.89862 -3.95055,4.07225 -5.16055,7.17014 -2.2337,5.71891 -2.4735,9.58807 -2.8561,46.07986 -0.1975,18.8375 -0.6031,36.6125 -0.90135,39.5 -0.29825,2.8875 -0.66165,7.05224 -0.8075,9.25497 -0.23795,3.59246 -0.673,5.6468 -3.06955,14.49503 -1.167,4.30861 -2.60725,9.87292 -3.42955,13.25 -0.4353,1.78749 -1.442,4.59999 -2.2372,6.24999 -0.7952,1.65 -2.62135,5.475 -4.05815,8.5 -1.4368,3.025 -2.7766,5.6125 -2.97735,5.75 -0.36425,0.24945 -1.4278,1.9834 -4.26395,6.95145 -0.825,1.44515 -2.8324,3.9035 -4.46095,5.46305 -6.02705,5.77175 -7.8168,7.40375 -11.33475,10.3355 -1.97985,1.65 -3.9608,3.44005 -4.40205,3.9779 -1.68875,2.0585 -6.38276,6.4502 -8.17726,7.65065 -1.03125,0.6899 -1.875,1.408 -1.875,1.59585 0,0.1878 -0.84375,0.82615 -1.875,1.41855 -1.03125,0.5924 -2.8693,2.00995 -4.08455,3.1501 -4.14835,3.89195 -14.07092,10.9517 -15.40319,10.9591 -0.21299,0 -1.57307,0.9012 -3.0224,2 -1.44933,1.0988 -2.83651,1.99785 -3.08262,1.99785 -0.24611,0 -1.08456,0.675 -1.86323,1.5 -0.77867,0.825 -1.59474,1.5 -1.81349,1.5 -0.21875,0 -0.66948,0.22315 -1.00162,0.4959 -4.04863,3.3245 -8.66691,6.62235 -10.1039,7.21495 -1.57829,0.65095 -4.75,0.8885 -4.75,0.3558 0,-0.2658 0.28125,-0.58375 0.625,-0.70655 0.34375,-0.12275 0.46596,-0.3943 0.27157,-0.6034 -0.19439,-0.20915 -0.75689,-0.2031 -1.25,0.0135 -0.49311,0.21645 -1.00907,0.4205 -1.14657,0.45335 -0.1375,0.033 -1.19697,0.66805 -2.35439,1.41145 -1.15742,0.7434 -3.13331,1.58225 -4.39087,1.8641 -1.25756,0.2818 -2.67309,0.70175 -3.14561,0.93315 -4.60605,2.2558 -9.89227,4.44115 -11.67926,4.8282 -0.92393,0.20015 -2.57987,0.7572 -3.67987,1.23795 -3.16199,1.38185 -26.28523,6.4752 -29.74338,6.5516 -6.097,0.13465 -6.23404,0.9769 -1.49693,9.20015 0.63367,1.1 1.98675,3.575 3.00686,5.5 1.92637,3.6352 4.64073,8.4504 5.49616,9.75 0.27151,0.4125 0.6479,1.0875 0.83643,1.5 0.18852,0.4125 1.31209,2.17045 2.49682,3.9066 1.18472,1.73615 2.15404,3.3067 2.15404,3.49015 0,0.40555 3.54998,6.252 4.00949,6.60325 0.17989,0.1375 0.96772,1.375 1.75072,2.75 0.783,1.375 2.05727,3.31985 2.83172,4.32195 0.77444,1.00205 1.40807,2.1343 1.40807,2.5161 0,0.38175 1.00698,1.58685 2.23772,2.67805 1.77163,1.57065 2.30367,2.42315 2.55436,4.0928 0.31787,2.11715 0.89821,2.8979 2.88625,3.88315 0.61848,0.3065 1.13858,1.10775 1.2299,1.8947 0.087,0.75 0.61303,1.60705 1.1689,1.9045 0.75029,0.40155 0.93249,0.85235 0.70724,1.74985 -0.17678,0.7043 -0.084,1.2089 0.22222,1.2089 0.2891,0 0.68714,0.39375 0.88452,0.875 0.35367,0.86225 1.7929,2.5047 5.99743,6.84425 1.1762,1.214 2.80745,2.35415 3.625,2.5337 0.81756,0.1796 1.48646,0.5336 1.48646,0.78675 0,0.25315 0.35902,0.4603 0.79782,0.4603 0.4388,0 1.39793,0.4273 2.13142,0.9496 0.79291,0.5646 2.5473,1.0545 4.32718,1.20835 3.86723,0.3343 6.22923,0.78145 7.56562,1.43225 0.74911,0.3648 2.30898,0.3556 5.17842,-0.0305 2.25852,-0.30395 4.2982,-0.4341 4.53263,-0.2892 0.23443,0.1449 0.87977,-0.02 1.43409,-0.366 0.75594,-0.4721 1.15071,-0.48655 1.57933,-0.058 0.31688,0.3169 1.28441,0.4558 2.17176,0.3118 1.33448,-0.21655 1.74656,-0.0365 2.48096,1.0844 0.48437,0.73925 0.99476,1.23 1.1342,1.09055 0.45274,-0.45275 5.36302,1.21115 7.41657,2.51315 2.33429,1.48 6.8025,6.1641 6.43985,6.75095 -0.5405,0.87455 -2.37355,0.31905 -4.38443,-1.3287 -2.33995,-1.9174 -6.01257,-3.74245 -7.55542,-3.7545 -0.59267,-0.005 -1.34694,0.6019 -1.85174,1.489 -0.9758,1.71485 -2.36912,1.9663 -2.75338,0.49685 -0.29385,-1.12365 -0.69501,-1.24985 -1.47942,-0.46545 -0.3772,0.3772 -1.32651,0.3803 -3.225,0.0105 -3.53263,-0.68795 -9.9936,-0.95455 -9.81034,-0.4048 0.23882,0.7165 6.51132,3.3281 8.11988,3.3808 0.825,0.027 1.95,0.2425 2.5,0.47885 1.0422,0.44785 0.87784,0.5165 -1.75,0.731 -0.6875,0.0561 -2.88527,0.2753 -4.88394,0.48715 -3.07345,0.32575 -3.84353,0.24785 -4.99273,-0.50515 -2.29363,-1.50285 -5.12868,-1.77725 -6.7122,-0.6497 -1.23802,0.88155 -1.51743,0.9057 -3.05298,0.2641 -0.92964,-0.3884 -2.12646,-1.26075 -2.65961,-1.93855 -0.54178,-0.68875 -2.1778,-1.62605 -3.70895,-2.12485 -1.50677,-0.49085 -3.0948,-1.20105 -3.52896,-1.57825 -1.32334,-1.1496 -1.74608,-0.7804 -1.54312,1.3478 0.15593,1.63515 0.45241,2.1404 1.51321,2.5787 1.17926,0.4873 1.21315,0.56605 0.31928,0.74225 -0.55,0.1084 -1.45,0.39225 -2,0.63075 -0.55,0.23855 -1.675,0.5481 -2.5,0.68785 -2.52939,0.42855 -4.25,1.2644 -4.25,2.06455 0,0.96825 -0.1009,0.95915 -2.09642,-0.1892 -0.90947,-0.52335 -2.44108,-1.1109 -3.40358,-1.30565 -0.9625,-0.19475 -2.12969,-0.6887 -2.59376,-1.09765 -0.61321,-0.5404 -1.39879,-0.6498 -2.875,-0.4004 -2.304,0.38925 -2.2979,0.37375 -1.28124,3.25525 0.80966,2.2948 1.03028,8 0.30936,8 -0.24235,0 -0.70321,-1.04275 -1.02412,-2.3172 z m 11.80287,-14.6097 c 0.47318,0.39275 0.66189,0.39435 0.66189,0.005 0,-0.64975 -1.49843,-1.51875 -2.52078,-1.46185 -1.87589,0.1044 -2.47922,-0.17295 -2.47922,-1.13965 0,-1.522 -2.20366,-3.4773 -3.91895,-3.4773 -1.05347,0 -1.53927,-0.2862 -1.73114,-1.01995 -0.20339,-0.7778 -0.54374,-0.9522 -1.43332,-0.73455 -0.64162,0.15695 -2.23534,0.0825 -3.54159,-0.1655 -1.68822,-0.3205 -2.37721,-0.28885 -2.38265,0.10955 -0.005,0.35935 -0.13947,0.38105 -0.375,0.0604 -0.51522,-0.70125 -1.10602,-0.7518 -12.74235,-1.0901 -9.2014,-0.2675 -10.375,-0.21325 -10.375,0.4795 0,0.47845 0.62968,0.91245 1.625,1.11995 0.89375,0.18635 2.075,0.62005 2.625,0.9638 0.55,0.3437 3.10358,1.1489 5.67462,1.7893 2.57105,0.64045 4.7861,1.4549 4.92234,1.8099 0.17614,0.45905 0.88414,0.5583 2.45038,0.34365 1.40411,-0.19245 2.20266,-0.1104 2.20266,0.2263 0,0.61015 1.83424,1.0769 5.31012,1.35125 1.34193,0.1059 3.90238,0.32855 5.68988,0.49475 1.7875,0.16615 4.02664,0.0707 4.97586,-0.2121 1.32523,-0.39485 1.96359,-0.3526 2.75,0.1821 0.59622,0.4054 1.21764,0.51235 1.48725,0.2559 0.26856,-0.2554 0.74115,-0.20965 1.125,0.1089 z m 4.16189,-1.95725 c 0,-0.2113 -0.84375,-1.42245 -1.875,-2.69145 -1.03125,-1.269 -2.13294,-2.72735 -2.44821,-3.2408 -0.4357,-0.70965 -0.71764,-0.7956 -1.17524,-0.35835 -0.4662,0.44545 -0.28469,1.1223 0.80451,3 0.77359,1.3336 1.75245,2.69885 2.17524,3.03385 0.85914,0.68075 2.5187,0.8499 2.5187,0.25675 z m -51.25,-14.58915 c 2.85825,-0.586 4.43852,-1.1034 6.36822,-2.08505 1.49732,-0.7617 5.83868,-0.4835 9.41705,0.60335 3.42516,1.0404 6.97496,1.106 10.71473,0.19815 1.78862,-0.43425 3.2235,-2.0502 3.23888,-3.64765 0.007,-0.7525 0.21482,-1.02865 0.59609,-0.793 0.41152,0.25435 0.47021,0.0778 0.19793,-0.5955 -0.97077,-2.40035 -1.18821,-3.7065 -0.67032,-4.0266 0.35326,-0.2183 0.25818,-0.5383 -0.27598,-0.9289 -0.44819,-0.32775 -1.16267,-2.09545 -1.58773,-3.9283 -0.70199,-3.02685 -3.73116,-9.4442 -4.75732,-10.0784 -0.23022,-0.1423 -0.69182,-1.09935 -1.02576,-2.12675 -0.33394,-1.02745 -1.2137,-2.65555 -1.95502,-3.61805 -0.74132,-0.9625 -2.26313,-3.4375 -3.38182,-5.5 -2.20508,-4.0655 -5.66177,-9.97335 -9.46821,-16.1823 -1.32591,-2.16275 -3.58108,-5.87525 -5.01149,-8.25 -1.43042,-2.37475 -3.27947,-4.92685 -4.109,-5.67135 -1.40678,-1.2626 -1.60053,-1.30575 -2.88017,-0.6419 -1.0397,0.5394 -1.46078,0.56805 -1.73882,0.11815 -0.20179,-0.3265 -0.52717,-0.43335 -0.72307,-0.23745 -0.1959,0.1959 -0.63429,0.12535 -0.97421,-0.15675 -0.43626,-0.36205 -0.85798,-0.27295 -1.43385,0.3029 -0.44871,0.4487 -1.14754,0.68855 -1.55298,0.53295 -0.40543,-0.15555 -0.74059,-0.008 -0.7448,0.32645 -0.006,0.4723 -0.0958,0.47045 -0.3999,-0.008 -0.24111,-0.3796 -1.44215,-0.5952 -3.11734,-0.5596 -4.65142,0.0989 -10.69613,-0.5202 -11.79642,-1.20825 -0.31422,-0.1965 -2.00172,-0.37885 -3.75,-0.4052 -1.74828,-0.0265 -4.41619,-0.34405 -5.92869,-0.70595 -4.7381,-1.13375 -7.49944,-1.3764 -8.28121,-0.72755 -0.87305,0.72455 -0.94431,3.04855 -0.11879,3.87405 0.33,0.33 0.45169,0.6 0.27042,0.6 -0.36429,0 4.77902,10.5145 6.11455,12.5 0.46244,0.6875 1.59566,2.99375 2.51827,5.125 0.92262,2.13125 1.86182,3.875 2.08712,3.875 0.2253,0 0.40964,0.25525 0.40964,0.56715 0,0.9261 5.42439,11.48935 6.87981,13.3975 0.73871,0.9685 1.40949,2.2164 1.49061,2.77315 0.0811,0.5567 0.54425,1.5747 1.02918,2.2622 0.48493,0.6875 1.42015,2.28745 2.07826,3.5554 0.86352,1.66375 1.43628,2.2427 2.05783,2.08015 0.68114,-0.1781 0.93755,0.2263 1.22601,1.9337 0.20061,1.1874 0.69319,2.6602 1.09462,3.27285 0.40143,0.6127 0.58758,1.3442 0.41366,1.6256 -0.50187,0.81205 0.56949,2.35155 2.44167,3.5086 0.94837,0.58615 1.79496,1.55415 1.88133,2.1512 0.11218,0.7755 0.62833,1.1813 1.8074,1.42105 2.13015,0.4331 2.2185,0.54415 2.35485,2.9607 0.20054,3.55435 1.78039,3.9965 8.99477,2.51745 z m -185.25,-171.2232 c 0,-0.1081 0.34919,-0.3305 0.77597,-0.4943 0.44496,-0.1707 0.64566,-0.0869 0.47049,0.19655 -0.29363,0.4751 -1.24646,0.7027 -1.24646,0.29775 z"
         style="fill:#cccccc"
         inkscape:connector-curvature="0" />
    </g>
    <path
       id="path2818-8-8"
       d="m 281.01102,589.53711 c 0.0585,-0.0364 0.10315,-0.0743 0.0993,-0.0845 -0.0129,-0.0336 0.038,-0.0837 0.11563,-0.1135 0.10668,-0.0412 0.52002,-0.0418 0.70452,-9.1e-4 0.0702,0.0156 0.1319,0.0236 0.13716,0.0181 0.0132,-0.0139 -0.25412,-0.26306 -0.40152,-0.37441 -0.2745,-0.20738 -0.52229,-0.30886 -0.83743,-0.34295 -0.21293,-0.023 -0.50642,-0.0117 -0.61992,0.0239 -0.10456,0.0328 -0.13751,0.0152 -0.23552,-0.12628 -0.16977,-0.24492 -0.27757,-0.29191 -0.72812,-0.31744 -0.15532,-0.008 -0.70878,-0.0412 -1.22989,-0.072 -0.78043,-0.0462 -1.05466,-0.056 -1.55532,-0.056 l -0.60782,0 -0.1068,-0.10927 c -0.12724,-0.13017 -0.28012,-0.33112 -0.50991,-0.67022 -0.20292,-0.29947 -1.19713,-1.82586 -1.22657,-1.88315 -0.0738,-0.14379 -0.22851,-0.72935 -0.27265,-1.03279 -0.0645,-0.44308 -0.10845,-0.96774 -0.11245,-1.33939 l -0.003,-0.23399 0.0678,-0.15872 c 0.0373,-0.0873 0.10033,-0.21105 0.14025,-0.27501 0.13044,-0.20928 0.33411,-0.36918 0.46675,-0.36645 0.41315,0.008 0.57335,-0.005 1.13258,-0.0965 0.90356,-0.14758 2.74021,-0.53324 3.8084,-0.79968 1.35119,-0.33701 2.96292,-1.15961 4.1776,-2.13217 0.23936,-0.19165 0.32606,-0.27829 0.55736,-0.55703 0.93476,-1.12645 1.46008,-2.21294 1.5506,-3.20705 0.0105,-0.11091 0.12256,-1.21473 0.2499,-2.45286 l 0.23153,-2.25115 0.31589,-1.646 c 0.2143,-1.11666 0.33389,-1.70309 0.37187,-1.82352 0.10328,-0.32759 0.14795,-0.65445 0.16368,-1.19799 0.0196,-0.67682 -0.0552,-1.50999 -0.17954,-2.0003 -0.11267,-0.44436 -0.19907,-1.00566 -0.22555,-1.46538 -0.0122,-0.21288 0.0131,-0.5016 0.056,-0.63959 0.0294,-0.0946 0.0451,-0.11385 0.27301,-0.33799 0.36757,-0.36133 0.71043,-0.57527 1.1621,-0.72519 0.34087,-0.11314 0.61787,-0.15329 1.05061,-0.15237 0.43438,9e-4 0.64387,0.0518 0.89918,0.2185 0.13395,0.0874 0.77688,0.41343 0.99695,0.50549 0.0798,0.0334 0.19969,0.0746 0.26627,0.0917 0.1188,0.0304 0.1775,0.0707 0.1775,0.12199 0,0.0408 0.0594,-0.005 0.079,-0.0609 0.0417,-0.11943 0.0105,-0.45171 -0.0693,-0.74832 -0.0831,-0.30696 -0.0709,-0.28875 -0.48059,-0.71701 l -0.3732,-0.38999 -0.17905,-0.29772 c -0.30254,-0.50305 -0.49702,-0.73559 -0.6936,-0.82941 -0.0932,-0.0445 -0.10174,-0.0533 -0.13009,-0.13317 -0.0685,-0.19304 -0.27877,-0.66898 -0.41938,-0.9489 -0.30913,-0.61536 -0.60859,-1.07762 -0.87785,-1.35509 -0.10598,-0.10927 -0.1102,-0.11173 -0.29315,-0.16908 -0.69968,-0.21962 -1.45979,-0.33162 -2.25028,-0.33162 -0.7835,0 -1.12623,0.0569 -1.55059,0.25697 -0.41747,0.19692 -0.84519,0.52893 -1.24077,0.96315 -0.0881,0.0967 -0.23046,0.24474 -0.31643,0.32907 -0.33381,0.32737 -0.63589,0.90002 -0.95763,1.81542 -0.17521,0.49848 -0.34321,1.07367 -0.68755,2.35392 -0.1772,0.65886 -0.33657,1.19312 -0.41462,1.38994 -0.29688,0.74871 -0.83555,1.39284 -1.57261,1.88049 -0.21689,0.14351 -0.43884,0.25647 -0.72416,0.36857 -0.42226,0.16592 -1.51904,0.66535 -2.20273,1.00304 -0.50941,0.25163 -0.78624,0.40557 -0.87748,0.488 -0.27439,0.2479 -1.81738,0.83447 -2.19627,0.83492 -0.28147,6.4e-4 -1.87078,0.3101 -3.22786,0.62914 -0.37642,0.0885 -1.44342,0.39465 -1.85579,0.53251 -0.52256,0.17468 -0.93033,0.35712 -1.36925,0.61259 -0.37376,0.21755 -0.41655,0.2492 -0.46384,0.34325 -0.1234,0.24551 -0.42983,0.64743 -0.55088,0.72256 -0.0357,0.0222 -0.0799,0.0633 -0.0983,0.0913 -0.12696,0.19368 -1.20794,0.9377 -2.46935,1.69961 l -0.40905,0.24706 0.0105,0.15578 0.0105,0.15576 -1.49014,1.1692 c -0.81958,0.64307 -1.53411,1.21291 -1.58782,1.26633 -0.22746,0.22615 -1.06688,0.72406 -2.13441,1.26605 -0.21269,0.10797 -0.37211,0.21851 -0.58683,0.40688 -0.35475,0.31122 -0.81094,0.78718 -0.79782,0.83243 0.005,0.0154 0.0124,0.0679 0.0177,0.11667 l 0.009,0.0888 -0.38044,0.32274 -0.38044,0.32275 -0.24539,0.0928 c -0.13495,0.051 -0.35519,0.14682 -0.4894,0.2129 -0.19524,0.0961 -0.27271,0.12546 -0.3873,0.1466 -0.60213,0.11103 -1.14809,0.26811 -1.48744,0.42801 -0.12374,0.0583 -0.17914,0.0725 -0.46551,0.12014 -0.32458,0.0539 -0.3764,0.0701 -0.49795,0.15419 -0.0724,0.0502 -0.29894,0.11197 -0.71004,0.1935 -0.14201,0.0282 -0.30539,0.0693 -0.36309,0.0913 -0.0953,0.0364 -0.12045,0.0393 -0.27433,0.0312 -0.19723,-0.0105 -0.27935,0.008 -0.28761,0.0669 -0.0105,0.0743 -0.0652,0.0895 -0.27545,0.077 l -0.19128,-0.0117 -0.10291,0.0922 c -0.0566,0.0507 -0.14223,0.11848 -0.19027,0.15056 -0.0821,0.0549 -0.0954,0.0584 -0.21927,0.0593 -0.11055,9.2e-4 -0.1403,0.007 -0.18387,0.0381 -0.0381,0.0272 -0.0506,0.0473 -0.047,0.076 0.005,0.0345 -0.009,0.0451 -0.11845,0.0927 -0.29848,0.12981 -0.60098,0.37688 -0.76312,0.62328 -0.0823,0.12517 -0.10597,0.18949 -0.10585,0.28885 0,0.0926 0.0416,0.16344 0.12957,0.22175 0.0617,0.0409 0.10363,0.0485 0.6098,0.11233 0.2989,0.0376 0.54688,0.069 0.55103,0.0697 0.005,7.2e-4 -0.0331,0.043 -0.0826,0.0941 -0.23549,0.24246 -0.34842,0.45486 -0.31424,0.59103 0.0172,0.0684 0.0908,0.1388 0.20544,0.19655 l 0.11033,0.0557 0.44418,0 c 0.35437,0 0.44417,0.005 0.44417,0.0211 0,0.0361 -0.0929,0.11244 -0.47604,0.39104 -0.47716,0.34695 -0.77729,0.57877 -1.00589,0.77687 -0.22278,0.19307 -0.32265,0.27145 -0.73694,0.57828 -0.37755,0.27963 -0.67924,0.52234 -0.78556,0.63196 -0.0734,0.0757 -0.0752,0.0798 -0.0625,0.14755 0.0249,0.13289 0.15401,0.21542 0.38584,0.24662 0.1246,0.0169 0.13197,0.0158 0.32309,-0.0433 0.10762,-0.0332 0.1992,-0.057 0.20362,-0.0525 0.005,0.005 -0.004,0.0424 -0.018,0.0842 -0.0143,0.0419 -0.0233,0.0788 -0.0202,0.0819 0.004,0.004 0.059,-0.005 0.12371,-0.0168 0.19367,-0.0368 1.4172,-0.15191 1.61521,-0.15191 0.0256,0 0.62806,-0.32163 1.51907,-0.81089 l 1.47671,-0.8109 0.67308,-0.29532 0.67308,-0.29528 0.33518,-0.079 c 0.18437,-0.0434 0.5382,-0.11981 0.78632,-0.16971 l 0.45112,-0.0907 1.34818,-0.0154 c 0.74151,-0.008 1.92549,-0.0105 2.6311,-0.005 1.58007,0.0127 2.40959,-0.0119 3.60668,-0.10668 1.02606,-0.0813 2.2267,-0.22713 2.9254,-0.3555 0.14547,-0.0267 0.17169,-0.0278 0.20232,-0.008 0.0741,0.0478 0.40615,0.0873 1.1648,0.13805 0.65513,0.0439 1.03411,0.0881 1.04725,0.12236 0.0149,0.0389 -0.0991,0.1351 -0.32914,0.27763 -0.12929,0.0801 0.10056,0.004 0.45334,-0.1501 0.38391,-0.16771 0.56476,-0.22238 0.54233,-0.16391 -0.005,0.0119 -0.0271,0.0971 -0.0498,0.1896 -0.19513,0.7889 -0.13702,1.50531 0.17465,2.1529 0.0469,0.0977 0.14815,0.28217 0.2248,0.41009 0.0766,0.1279 0.13935,0.24169 0.13935,0.25284 0,0.0105 0.0245,0.0353 0.0544,0.0538 0.21052,0.13012 0.71341,0.81327 1.30086,1.76717 0.22965,0.37292 0.61357,1.04006 0.61357,1.06622 0,0.009 -0.0709,0.0345 -0.15735,0.055 -0.63334,0.14956 -1.15425,0.2837 -1.22238,0.3148 -0.0444,0.0201 -0.11826,0.0667 -0.16415,0.10315 -0.0845,0.0672 -0.21599,0.23525 -0.24615,0.31459 -0.0153,0.0404 -0.0121,0.0455 0.0472,0.0758 0.14003,0.0713 0.45895,0.1187 0.99112,0.14693 l 0.3401,0.018 0.30662,-0.0502 c 0.16863,-0.0277 0.32872,-0.0502 0.35576,-0.0502 0.0305,10e-6 0.0949,0.0286 0.16944,0.0751 0.0662,0.0413 0.13118,0.0745 0.14449,0.0738 0.0133,-7.3e-4 0.19331,-0.0418 0.39998,-0.0913 0.20668,-0.0495 0.38591,-0.09 0.3983,-0.09 0.0391,0 0.094,0.0968 0.10197,0.17957 0.005,0.0433 0.0158,0.0786 0.0256,0.0783 0.0755,-9.1e-4 0.20946,-0.0506 0.27051,-0.10022 0.13325,-0.10809 0.32828,-0.1813 0.44151,-0.16576 0.0355,0.005 0.66727,0.0377 1.40394,0.0729 0.94758,0.0454 1.49046,0.0641 1.85579,0.0642 0.45053,0 0.71195,0.0125 2.04943,0.0973 1.33857,0.085 1.56513,0.10303 1.78594,0.14271 l 0.2529,0.0454 0.10634,-0.066 z m -8.1261,-1.29663 c -0.0941,-0.0716 -0.1035,-0.0847 -0.14213,-0.19956 -0.0384,-0.11373 -0.0512,-0.13211 -0.17277,-0.24611 -0.10985,-0.10303 -0.16573,-0.17676 -0.34093,-0.44995 -0.11527,-0.17973 -0.26975,-0.43206 -0.34329,-0.56076 -0.0734,-0.12869 -0.21773,-0.37195 -0.32044,-0.5406 -0.26743,-0.43907 -0.43627,-0.84375 -0.54034,-1.29506 l -0.0233,-0.10092 0.0721,-0.14842 0.0722,-0.1484 -0.0253,-0.14804 c -0.0139,-0.0814 -0.0253,-0.22703 -0.0253,-0.32356 0,-0.14561 -0.006,-0.18431 -0.0316,-0.22719 -0.024,-0.0394 -0.0341,-0.0959 -0.0428,-0.23803 l -0.0105,-0.18634 0.0589,0 0.0589,0 0,-0.0787 c 0,-0.0433 -0.0105,-0.1095 -0.0243,-0.14726 -0.0325,-0.0921 -0.0305,-0.1324 0.008,-0.17446 0.0387,-0.0416 0.0839,-0.0453 0.11924,-0.009 0.0197,0.0198 0.0254,0.0618 0.0254,0.1896 0,0.0903 0.0105,0.21509 0.0234,0.27722 0.0128,0.0621 0.0282,0.16774 0.0341,0.23467 0.0105,0.11385 0.008,0.12795 -0.0373,0.21785 -0.0577,0.11539 -0.0777,0.2979 -0.0462,0.42164 l 0.0199,0.078 0.0908,0.008 c 0.0724,0.007 0.10114,0.018 0.14158,0.0565 0.0978,0.0932 0.15678,0.19158 0.1932,0.32262 0.0197,0.0711 0.075,0.19998 0.12284,0.28662 0.0478,0.0866 0.0869,0.16107 0.0869,0.1654 0,0.005 -0.0273,0.008 -0.0604,0.008 -0.0505,0 -0.0666,0.009 -0.0976,0.0547 -0.0251,0.0367 -0.0643,0.0649 -0.12047,0.0862 l -0.0834,0.0317 0.12046,0.0674 c 0.10903,0.0609 0.13003,0.067 0.22189,0.0644 0.0966,-0.003 0.10433,0 0.16137,0.0554 0.056,0.0546 0.0641,0.0576 0.12223,0.0444 0.0341,-0.008 0.12168,-0.019 0.19429,-0.0251 0.13193,-0.0106 0.13205,-0.0106 0.20398,0.0434 0.0524,0.0396 0.0883,0.0875 0.13231,0.17611 0.0561,0.11302 0.0692,0.12743 0.18364,0.20111 0.16438,0.10587 0.26021,0.21756 0.60374,0.70388 0.25187,0.35654 0.29733,0.43059 0.35528,0.57834 0.11385,0.29022 0.15835,0.43924 0.16997,0.56877 0.0156,0.17259 -0.0148,0.25207 -0.11933,0.3125 -0.10102,0.0584 -0.16311,0.0661 -0.55477,0.0687 l -0.33392,0.003 -0.10069,-0.0767 z"
       style="fill:#cccccc"
       inkscape:connector-curvature="0" />
  </g>
</svg>
