<?xml version="1.0" encoding="UTF-8" standalone="no"?>
<!-- Created with Inkscape (http://www.inkscape.org/) -->

<svg
   xmlns:dc="http://purl.org/dc/elements/1.1/"
   xmlns:cc="http://creativecommons.org/ns#"
   xmlns:rdf="http://www.w3.org/1999/02/22-rdf-syntax-ns#"
   xmlns:svg="http://www.w3.org/2000/svg"
   xmlns="http://www.w3.org/2000/svg"
   xmlns:xlink="http://www.w3.org/1999/xlink"
   xmlns:sodipodi="http://sodipodi.sourceforge.net/DTD/sodipodi-0.dtd"
   xmlns:inkscape="http://www.inkscape.org/namespaces/inkscape"
   width="1024"
   height="1024"
   id="svg2"
   version="1.1"
   inkscape:version="0.48.2 r9819"
   sodipodi:docname="AppIcon 1.svg">
  <defs
     id="defs4">
    <linearGradient
       id="linearGradient3902">
      <stop
         style="stop-color:#ffffff;stop-opacity:1;"
         offset="0"
         id="stop3904" />
      <stop
         style="stop-color:#fff9f9;stop-opacity:0.72868216;"
         offset="1"
         id="stop3906" />
    </linearGradient>
    <linearGradient
       id="linearGradient4110">
      <stop
         style="stop-color:#ffffff;stop-opacity:1;"
         offset="0"
         id="stop4112" />
      <stop
         style="stop-color:#e5e5e5;stop-opacity:1;"
         offset="1"
         id="stop4114" />
    </linearGradient>
    <inkscape:perspective
       sodipodi:type="inkscape:persp3d"
       inkscape:vp_x="0 : 512 : 1"
       inkscape:vp_y="0 : 1000 : 0"
       inkscape:vp_z="1024 : 512 : 1"
       inkscape:persp3d-origin="512 : 341.33333 : 1"
       id="perspective4094" />
    <linearGradient
       id="linearGradient4483">
      <stop
         style="stop-color:#056aff;stop-opacity:1;"
         offset="0"
         id="stop4485" />
      <stop
         style="stop-color:#ffffff;stop-opacity:0;"
         offset="1"
         id="stop4487" />
    </linearGradient>
    <linearGradient
       inkscape:collect="always"
       xlink:href="#linearGradient4110"
       id="linearGradient4116"
       x1="511.68015"
       y1="0"
       x2="511.68015"
       y2="1461.4401"
       gradientUnits="userSpaceOnUse"
       gradientTransform="scale(1,1.001095)" />
    <linearGradient
       inkscape:collect="always"
       xlink:href="#linearGradient3902"
       id="linearGradient3908"
       x1="509.1376"
       y1="513.90118"
       x2="467.15973"
       y2="1029.1136"
       gradientUnits="userSpaceOnUse"
       gradientTransform="matrix(1.2524295,0,0,1.2524296,-146.91309,-129.30104)" />
    <linearGradient
       id="linearGradient3819">
      <stop
         id="stop3821"
         offset="0"
         style="stop-color:#fac97a;stop-opacity:1;" />
      <stop
         id="stop3823"
         offset="1"
         style="stop-color:#f7a525;stop-opacity:1;" />
    </linearGradient>
    <linearGradient
       inkscape:collect="always"
       xlink:href="#linearGradient3902"
       id="linearGradient3119"
       gradientUnits="userSpaceOnUse"
       gradientTransform="matrix(1.2524295,0,0,1.2524296,318.34903,209.62497)"
       x1="509.1376"
       y1="513.90118"
       x2="467.15973"
       y2="1029.1136" />
    <linearGradient
       inkscape:collect="always"
       xlink:href="#linearGradient3819"
       id="linearGradient3131"
       gradientUnits="userSpaceOnUse"
       x1="68.507584"
       y1="0.4667235"
       x2="68.666122"
       y2="139.75705" />
  </defs>
  <sodipodi:namedview
     id="base"
     pagecolor="#ffffff"
     bordercolor="#666666"
     borderopacity="1.0"
     inkscape:pageopacity="0.0"
     inkscape:pageshadow="2"
     inkscape:zoom="0.828125"
     inkscape:cx="342.9434"
     inkscape:cy="512"
     inkscape:document-units="px"
     inkscape:current-layer="layer3"
     showgrid="false"
     showguides="true"
     inkscape:guide-bbox="true"
     fit-margin-top="0"
     fit-margin-left="0"
     fit-margin-right="0"
     fit-margin-bottom="0"
     inkscape:window-width="1920"
     inkscape:window-height="1036"
     inkscape:window-x="36"
     inkscape:window-y="22"
     inkscape:window-maximized="0"
     inkscape:showpageshadow="false"
     borderlayer="true"
     showborder="false">
    <sodipodi:guide
       orientation="0,1"
       position="-10.429825,956.71547"
       id="guide3101" />
    <sodipodi:guide
       orientation="1,0"
       position="956.5625,59.8125"
       id="guide3103" />
    <sodipodi:guide
       orientation="0,1"
       position="1246.875,315.625"
       id="guide3105" />
    <sodipodi:guide
       orientation="1,0"
       position="67.351921,64.523494"
       id="guide3107" />
    <sodipodi:guide
       orientation="0,1"
       position="961.5,67.5"
       id="guide3109" />
    <sodipodi:guide
       orientation="1,0"
       position="319.08193,67.707547"
       id="guide3111" />
    <sodipodi:guide
       orientation="1,0"
       position="511.68014,67.707547"
       id="guide3113" />
    <sodipodi:guide
       orientation="1,0"
       position="706.1875,64.734375"
       id="guide3115" />
    <sodipodi:guide
       orientation="0,1"
       position="-21.213203,1024"
       id="guide3117" />
    <sodipodi:guide
       orientation="0,1"
       position="0,0"
       id="guide3119" />
    <sodipodi:guide
       orientation="1,0"
       position="0,1042.6289"
       id="guide3121" />
    <sodipodi:guide
       orientation="0,1"
       position="-6.8942911,705"
       id="guide3123" />
    <sodipodi:guide
       orientation="1,0"
       position="1024,1037.75"
       id="guide3125" />
    <sodipodi:guide
       orientation="0,1"
       position="-27.223611,512.65241"
       id="guide3127" />
    <inkscape:grid
       type="xygrid"
       id="grid4235"
       empspacing="5"
       visible="true"
       enabled="true"
       snapvisiblegridlinesonly="true" />
    <sodipodi:guide
       orientation="1,0"
       position="511.68014,430.8932"
       id="guide4003" />
  </sodipodi:namedview>
  <metadata
     id="metadata7">
    <rdf:RDF>
      <cc:Work
         rdf:about="">
        <dc:format>image/svg+xml</dc:format>
        <dc:type
           rdf:resource="http://purl.org/dc/dcmitype/StillImage" />
        <dc:title />
      </cc:Work>
    </rdf:RDF>
  </metadata>
  <g
     inkscape:groupmode="layer"
     id="layer5"
     inkscape:label="Background"
     style="display:inline"
     sodipodi:insensitive="true">
    <rect
       style="color:#000000;fill:url(#linearGradient4116);fill-opacity:1;fill-rule:nonzero;stroke:none;stroke-width:2;marker:none;visibility:visible;display:inline;overflow:visible;enable-background:accumulate"
       id="rect4108"
       width="1024"
       height="1024"
       x="0"
       y="1.5099033e-14" />
  </g>
  <g
     inkscape:groupmode="layer"
     id="layer3"
     inkscape:label="Layer"
     style="display:inline">
    <g
       id="g3121"
       transform="matrix(0.92499999,0,0,0.92499999,5.0999996,72.00001)">
      <g
         transform="matrix(6.875268,0,0,6.875268,68.000021,-3.6146187)"
         id="g3110">
        <path
           id="path3945"
           style="fill:url(#linearGradient3131);fill-opacity:1;stroke:#b75c25;stroke-width:3.15799999;stroke-linecap:round;stroke-linejoin:round;stroke-miterlimit:4;stroke-opacity:1;stroke-dasharray:none"
           d="m 126.90606,32.708323 c 20.462,31.572 11.454,73.751997 -20.117,94.214997 -31.570999,20.461 -73.752999,11.453 -94.213999,-20.118 -0.012,-0.017 -0.021,-0.031 -0.032,-0.048 -20.4620008,-31.571997 -11.4550008,-73.752997 20.117,-94.214997 31.57,-20.4610007 73.752999,-11.4540007 94.214999,20.118 0.01,0.016 0.021,0.032 0.031,0.048 z"
           inkscape:connector-curvature="0" />
        <path
           id="path2996_11_"
           style="fill:#ffffff;stroke:#b75c25;stroke-width:0.48844725;stroke-linecap:round;stroke-linejoin:round;display:none"
           d="M 13.418855,22.200368"
           inkscape:connector-curvature="0" />
        <path
           id="path3958_11_"
           style="fill:#ffffff;stroke:#b75c25;stroke-width:0.14224336;display:none"
           d="m 127.3847,157.17664 c -0.63665,-0.34088 -1.80575,-1.18063 -2.59769,-1.86813 -1.35155,-1.1739 -1.55572,-1.43456 -3.32911,-4.24125 -1.04006,-1.64356 -2.20608,-3.51659 -2.59173,-4.16018 -2.18754,-3.64745 -6.16691,-10.02051 -9.39159,-15.03906 -2.83496,-4.41504 -5.29202,-8.31742 -6.29199,-9.99705 -1.80274,-3.0254 -2.12504,-3.41214 -4.421824,-5.29689 -1.202184,-0.98545 -2.212863,-1.76163 -2.246071,-1.72069 -0.03129,0.04 0.113247,0.32224 0.324239,0.62884 0.211932,0.30665 0.59473,0.91989 0.852498,1.36329 0.257769,0.4434 1.02735,1.44722 1.705999,2.23239 1.682689,1.93748 2.278299,2.86133 2.585869,3.99812 0.21687,0.80567 0.22751,1.05665 0.0655,1.51757 -0.20609,0.58401 -0.28613,0.60543 -1.67588,0.42182 -0.23639,-0.0313 -0.375909,0.037 -0.422822,0.20896 -0.09964,0.37307 -0.74803,0.38473 -1.762727,0.0351 -0.929672,-0.32026 -4.692432,-2.09374 -5.813427,-2.74224 -0.364255,-0.20896 -1.06547,-0.56052 -1.558593,-0.77937 -4.214875,-1.86907 -7.247058,-3.39265 -9.922808,-4.98048 -0.817404,-0.48438 -1.575275,-0.92583 -1.683564,-0.97845 -0.227469,-0.11126 -0.922806,0.71292 -1.920008,2.2734 -0.367143,0.57423 -0.942328,1.43952 -1.276336,1.91993 -1.206002,1.7325 -1.749097,2.61917 -1.728464,2.81841 0.01178,0.11137 -0.156289,0.42191 -0.373005,0.68946 -0.608372,0.74994 -0.618169,1.09575 -0.04498,1.4843 l 4.353486,0.83207 c 1.371119,0.38664 1.672854,1.02934 1.75678,1.40145 -0.656222,-0.54786 -1.32125,-0.84176 -2.008755,-0.55961 -2.193427,-0.23833 -4.143621,-0.66595 -6.991184,-0.72265 -1.88867,-0.0392 -3.619164,1.51368 -4.498124,1.69139 -1.916965,0.38275 -7.627904,1.21484 -9.86142,2.08582 -0.881849,0.34379 -1.633739,0.62893 -1.668953,0.63276 -0.03614,0.004 -0.04398,-0.13678 -0.01654,-0.31056 0.04198,-0.27732 -0.02733,-0.30663 -0.575216,-0.24993 -0.790963,0.0821 -1.368114,0.37104 -1.462912,0.73241 -0.110364,0.41788 -0.353495,0.67373 -0.7911,0.83199 -0.385796,0.14056 -0.388691,0.13666 -0.266577,-0.39069 0.417028,-1.79684 1.769475,-2.61912 4.652359,-2.83205 3.072332,-0.2246 5.922874,-0.60739 6.863343,-0.91998 0.215784,-0.0723 0.326125,-0.22656 0.305645,-0.42582 -0.01951,-0.18552 -0.09661,-0.26566 -0.187412,-0.19537 -0.108333,0.0841 -0.117156,0.0293 -0.02828,-0.18165 0.0693,-0.16602 0.145537,-0.49217 0.169027,-0.72463 0.02447,-0.23054 0.161159,-0.47062 0.304746,-0.53132 0.523466,-0.22072 2.032277,-0.0526 2.673812,0.30079 0.658222,0.36134 1.120196,0.43367 0.894494,0.1426 -0.07427,-0.0977 -0.05657,-0.1308 0.04397,-0.0839 0.241147,0.11714 1.177735,-0.42195 1.386664,-0.79693 0.09481,-0.17194 0.446278,-0.59384 0.780242,-0.93754 0.333963,-0.34371 0.975626,-1.13678 1.426742,-1.76175 0.450138,-0.6269 1.307639,-1.79878 1.906253,-2.60944 0.597592,-0.80854 1.213886,-1.67781 1.368165,-1.92967 0.154225,-0.25388 0.542993,-0.82803 0.863298,-1.27731 0.321243,-0.44922 0.576117,-0.88467 0.567452,-0.9707 -0.0078,-0.0839 0.143594,-0.30658 0.336881,-0.49611 0.19428,-0.18745 0.347644,-0.39443 0.340918,-0.45889 -0.02824,-0.26766 -1.493196,-0.93362 -2.211873,-1.00389 -2.47956,-0.24409 -8.043086,-2.15627 -10.578198,-3.63482 -2.478452,-1.44528 -3.016533,-1.77156 -3.842717,-2.32221 -1.771529,-1.18358 -5.440483,-4.0449 -6.956085,-5.42579 -0.580108,-0.52936 -1.134812,-1.03135 -1.233461,-1.1153 -0.397449,-0.34375 -1.656228,-1.785184 -1.668894,-1.914032 -0.02447,-0.228549 -0.623063,-0.596726 -0.747095,-0.458903 -0.06348,0.07132 -0.07227,0.0332 -0.01955,-0.08598 0.06157,-0.135816 -0.162134,-0.462861 -0.612344,-0.896442 -0.390595,-0.374949 -0.716862,-0.751945 -0.725566,-0.839838 -0.0088,-0.08602 -0.139696,-0.209062 -0.289022,-0.273418 -0.150419,-0.0644 -0.296859,-0.212881 -0.327186,-0.329156 -0.02923,-0.116233 -0.576087,-0.854502 -1.214765,-1.639643 -1.173767,-1.443456 -2.579162,-3.468804 -3.066369,-4.417959 -0.145456,-0.285131 -0.440373,-0.708944 -0.654256,-0.94339 -0.214807,-0.23435 -0.786089,-1.048763 -1.270496,-1.811587 -0.484391,-0.76267 -0.930677,-1.41501 -0.992248,-1.452131 -0.06054,-0.03614 -0.128917,-0.204121 -0.151359,-0.373006 -0.129863,-0.99126 -1.130898,-3.447285 -1.483401,-3.643473 -0.07421,-0.04202 -0.177727,-0.499025 -0.229554,-1.016629 -0.05181,-0.52336 -0.187422,-1.033155 -0.305676,-1.148498 -0.11628,-0.114305 -0.1826,-0.243153 -0.147527,-0.287092 0.03517,-0.04302 -0.05463,-0.517623 -0.200204,-1.052816 -0.339838,-1.250843 -0.693335,-4.117193 -0.497087,-4.021963 0.08597,0.04142 0.07325,-0.286178 -0.03025,-0.780349 -0.09862,-0.468243 -0.119116,-0.87932 -0.04586,-0.913556 0.135679,-0.06346 0.04389,-1.807671 -0.202195,-3.83687 -0.07712,-0.633315 -0.283185,-2.729054 -0.45804,-4.656823 -0.174854,-1.927769 -0.372081,-3.499086 -0.438542,-3.492151 -0.393534,0.04106 -0.725494,-1.554613 -0.878829,-4.224121 -0.03132,-0.531251 -0.0898,-0.962004 -0.132825,-0.957048 -0.109361,0.01312 -0.645484,1.261735 -0.625057,1.456025 0.0088,0.08882 -0.116196,0.324717 -0.277318,0.524419 -0.266539,0.328117 -0.31057,0.339865 -0.463828,0.123043 -0.09281,-0.132305 -0.240193,-0.185512 -0.326221,-0.118683 -0.109426,0.08404 -0.147428,-0.05958 -0.123983,-0.463886 0.02632,-0.472104 -0.0088,-0.564393 -0.1816,-0.476537 -0.277347,0.141067 -0.315454,-0.22416 -0.12602,-1.218253 0.08102,-0.423378 0.08203,-0.837009 0.0029,-0.918952 -0.07917,-0.0821 -0.183663,-0.770564 -0.230419,-1.530218 -0.05365,-0.855513 -0.15137,-1.412029 -0.256883,-1.463383 -0.118097,-0.0572 -0.13375,-0.222123 -0.05071,-0.536694 0.137747,-0.517632 0.01856,-0.856515 -0.289003,-0.824736 -0.115213,0.01218 -0.21971,-0.07863 -0.233385,-0.202241 -0.01269,-0.123091 0.03805,-0.194325 0.11325,-0.157693 0.07516,0.03617 0.128884,-0.0078 0.12019,-0.09714 -0.0097,-0.08981 -0.07918,-0.156745 -0.15426,-0.148911 -0.07523,0.0078 -0.424734,-0.192385 -0.776327,-0.445434 -0.567412,-0.407666 -0.796859,-0.463353 -2.051739,-0.497584 -0.77729,-0.02092 -1.695284,-0.08019 -2.041055,-0.131363 -0.345681,-0.0518 -0.865181,-0.06883 -1.155226,-0.03903 -0.289009,0.03078 -0.856407,-0.04735 -1.259691,-0.172764 -0.403389,-0.124939 -1.089908,-0.265594 -1.525341,-0.311607 -0.435636,-0.04646 -0.928783,-0.159701 -1.095742,-0.251455 -0.293901,-0.16218 -0.294955,-0.178244 -0.03418,-0.500472 0.462895,-0.57022 4.144475,-1.211417 7.136833,-1.242607 2.16311,-0.02243 5.436541,0.08548 5.540083,0.183544 0.150429,0.142001 1.708011,-0.0244 1.692334,-0.180616 -0.07515,-0.718746 -1.655244,-2.126028 -3.429678,-3.054251 -0.58793,-0.307705 -1.097726,-0.613297 -1.132795,-0.679622 -0.03611,-0.06591 -0.145517,-0.11281 -0.244179,-0.102982 -0.09866,0.0098 -0.72359,-0.275354 -1.388664,-0.633796 -0.665074,-0.358442 -1.285106,-0.596701 -1.376938,-0.530355 -0.09271,0.0669 -0.126035,0.06198 -0.07318,-0.0098 0.145512,-0.20025 -0.197305,-0.399005 -1.523447,-0.885205 -1.941344,-0.710966 -2.624018,-0.913141 -3.245065,-0.961406 -0.941429,-0.07222 -1.637657,-0.714348 -1.037129,-0.953675 1.045905,-0.415499 2.301711,-0.667519 2.32328,-0.465262 0.0098,0.08498 0.11515,0.101981 0.238297,0.03766 0.12105,-0.06504 0.331049,-0.176375 0.464833,-0.247564 0.150372,-0.07914 0.213801,-0.06445 0.164004,0.0381 -0.04981,0.103952 0.06058,0.126026 0.290047,0.05667 0.204148,-0.06158 0.329176,-0.164515 0.279322,-0.229452 -0.09277,-0.120024 0.835919,2.9e-5 0.995096,0.128987 0.04788,0.03855 -0.0723,0.153731 -0.266619,0.255809 -0.334944,0.176314 -0.335955,0.184507 -0.02253,0.161137 0.181669,-0.0132 0.362254,-0.142617 0.401393,-0.286201 0.05658,-0.211966 0.210936,-0.258864 0.807548,-0.245064 1.907263,0.04299 4.757842,0.547428 4.789062,0.846655 0.0068,0.06492 0.210974,0.176741 0.454032,0.248115 0.49222,0.144597 2.263681,-0.312079 2.911082,-0.75054 0.195364,-0.132358 0.460046,-0.26215 0.588907,-0.289591 0.129955,-0.0274 0.521547,-0.16608 0.871996,-0.308553 0.351527,-0.142586 0.709993,-0.224621 0.797782,-0.182148 0.08794,0.04246 0.151324,-0.0044 0.141554,-0.104038 -0.01071,-0.102614 0.112314,-0.160706 0.284118,-0.134308 0.167027,0.02534 0.619159,-0.04734 1.004899,-0.161612 0.38574,-0.114274 1.924769,-0.346702 3.418894,-0.516124 2.099532,-0.236787 2.986314,-0.273946 3.899473,-0.161138 1.595625,0.198211 3.439487,0.638169 4.183603,0.998473 0.335937,0.162614 0.649429,0.291957 0.697291,0.287119 0.102614,-0.01071 0.921839,0.43896 1.714801,0.940977 0.313574,0.198695 0.633784,0.31194 0.711871,0.252472 0.0771,-0.05999 0.102486,-0.02982 0.05561,0.06791 -0.04689,0.09758 0.04302,0.203596 0.200239,0.236336 0.157177,0.03228 0.442321,0.270021 0.632728,0.528378 0.190407,0.258358 0.666067,0.751024 1.055621,1.095134 0.38957,0.344264 1.049869,1.010199 1.466852,1.480061 0.416966,0.469709 1.007719,1.072761 1.314478,1.340285 0.305681,0.267636 0.669033,0.746671 0.808614,1.064919 0.161111,0.368101 0.72061,0.972703 1.542027,1.663973 1.163099,0.9805 1.330103,1.190444 1.728508,2.169394 0.502965,1.238798 0.91994,1.875534 1.71768,2.623084 0.308698,0.289094 0.56651,0.588319 0.575183,0.665484 0.0078,0.07663 0.506796,0.671843 1.109342,1.322342 0.602482,0.649884 1.336916,1.486775 1.632859,1.859315 0.295943,0.372539 0.950187,1.126507 1.455039,1.675381 0.834933,0.907276 0.887732,1.001922 0.575127,1.036093 -0.308606,0.03375 -0.285099,0.07422 0.238245,0.402354 0.319385,0.200733 0.96187,0.657176 1.426789,1.014106 0.465858,0.356988 0.902342,0.644103 0.971652,0.637649 0.06839,-0.0064 0.466831,0.250045 0.888679,0.56979 0.420925,0.319842 0.886753,0.630333 1.034181,0.689911 0.148415,0.0601 0.498021,0.280693 0.776382,0.490683 0.279284,0.209894 0.962845,0.636702 1.521519,0.948703 0.558627,0.311539 1.48924,0.850982 2.06937,1.198691 0.580024,0.348187 1.800757,1.076176 2.712925,1.617699 2.392604,1.421418 2.564406,1.529774 3.433604,2.179668 0.433625,0.323804 1.006862,0.718733 1.275416,0.877958 2.415087,1.431202 7.898397,5.876143 9.814561,7.957062 0.193399,0.209523 0.704164,0.755447 1.13676,1.212483 1.208989,1.280219 1.457974,1.563413 2.932661,3.328657 0.75488,0.906142 1.52543,1.785144 1.71096,1.955053 0.18647,0.169966 0.42968,0.433546 0.54013,0.585938 0.11138,0.152297 0.53223,0.656281 0.93454,1.121142 0.78222,0.898468 3.53808,5.060647 3.57323,5.394458 0.0107,0.111325 0.23345,0.529291 0.49321,0.933599 0.38858,0.601596 1.61626,2.886696 1.6318,3.037172 0.002,0.02343 -0.0976,0.05264 -0.22355,0.0664 -0.17483,0.01762 -0.1865,0.09955 -0.0508,0.355526 0.0976,0.181569 0.42871,0.935508 0.73726,1.671891 0.30767,0.738341 0.92877,1.89452 1.38092,2.570352 0.45216,0.675832 0.99325,1.558558 1.20211,1.961022 0.46091,0.884869 1.04784,2.660159 0.84765,2.564399 -0.0781,-0.0371 -0.12012,0.14846 -0.0927,0.41403 0.0351,0.33195 -0.0127,0.46088 -0.15042,0.41398 -0.11124,-0.0391 -0.31351,-0.0967 -0.45019,-0.13079 -0.1368,-0.0352 -0.51666,-0.41903 -0.84374,-0.85752 -0.32724,-0.43553 -0.61626,-0.76556 -0.64256,-0.73435 -0.0273,0.0332 0.3007,0.72071 0.72845,1.52926 1.71881,3.248 2.30273,4.80961 1.82037,4.85932 -0.16505,0.0175 -0.0294,0.35936 0.52628,1.32812 0.41211,0.71687 0.76169,1.41413 0.77533,1.55081 0.0449,0.4317 -0.2666,0.30075 -0.55867,-0.2344 -0.15428,-0.28327 -0.35344,-0.50775 -0.44231,-0.49801 -0.23534,0.0235 -0.21485,0.0723 0.59077,1.38873 0.9111,1.49124 1.9239,3.41307 1.95507,3.71479 0.0371,0.3574 -0.21687,0.29292 -0.74517,-0.18554 -0.78801,-0.71684 -1.76564,-1.51763 -1.75773,-1.44334 0.004,0.0389 0.41207,0.96088 0.90525,2.05078 0.79786,1.75779 1.96392,4.58213 1.98827,4.81256 0.0292,0.27549 -0.34865,0.0449 -0.60051,-0.3672 -0.336,-0.55078 -0.93467,-0.93451 -0.89749,-0.5782 0.0108,0.1152 0.1835,0.37696 0.38173,0.58209 0.19734,0.20414 0.32724,0.43553 0.28816,0.51861 -0.0772,0.16015 1.08005,2.28324 1.28029,2.34664 0.0683,0.0215 0.13584,0.15425 0.15139,0.29882 0.0147,0.14263 1.51655,2.58684 3.33684,5.43171 3.79191,5.92685 4.59673,7.13866 5.93359,8.94239 1.52147,2.05274 3.23731,4.50775 4.23042,6.05465 0.50288,0.78329 1.27634,1.87505 1.71674,2.4277 1.24503,1.55857 2.40525,3.31634 2.98147,4.5195 0.43846,0.91412 0.58298,1.47649 0.87117,3.37408 0.43068,2.83108 0.39054,3.01863 -0.61919,2.92678 -0.8194,-0.0742 -0.93755,-0.10358 -2.53415,-0.64647 -0.64946,-0.22073 -1.26172,-0.48142 -1.36331,-0.58015 -0.24704,-0.24218 -0.76661,-0.17195 -0.73828,0.0996 0.0126,0.11922 -0.0763,0.44342 -0.19733,0.71872 -0.23441,0.53316 -0.81637,0.73727 -1.20511,0.42184 -0.15726,-0.12698 -0.27543,-0.082 -0.51658,0.19138 -0.27049,0.30365 -1.13671,0.94332 -1.30267,0.96095 -0.0303,0.003 -0.57618,-0.27254 -1.21193,-0.61227 l 0,0 z M 64.718674,126.50547 c -0.0323,-0.30658 -0.125045,-0.4532 -0.278306,-0.43752 -0.233424,0.0254 -0.265632,0.6543 -0.043,0.83403 0.243176,0.19919 0.367045,0.0449 0.321301,-0.39651 z M 36.847603,75.21561 c -0.02338,-0.253857 0.002,-0.34282 0.05672,-0.197206 0.05562,0.145517 0.07421,0.353528 0.04296,0.462386 -0.03135,0.107936 -0.07623,-0.01071 -0.09967,-0.26518 z"
           inkscape:connector-curvature="0" />
        <path
           id="path3019_11_"
           style="fill:#ffffff;stroke:#b75c25;stroke-width:0.14224336;display:none"
           d="m 127.3847,157.17664 c -0.63665,-0.34088 -1.80575,-1.18063 -2.59769,-1.86813 -1.35155,-1.1739 -1.55572,-1.43456 -3.32911,-4.24125 -1.04006,-1.64356 -2.20608,-3.51659 -2.59173,-4.16018 -2.18754,-3.64745 -6.16691,-10.02051 -9.39159,-15.03906 -2.83496,-4.41504 -5.29202,-8.31742 -6.29199,-9.99705 -1.80274,-3.0254 -2.12504,-3.41214 -4.421824,-5.29689 -1.202184,-0.98545 -2.212863,-1.76163 -2.246071,-1.72069 -0.03129,0.04 0.113247,0.32224 0.324239,0.62884 0.211932,0.30665 0.59473,0.91989 0.852498,1.36329 0.257769,0.4434 1.02735,1.44722 1.705999,2.23239 1.682689,1.93748 2.278299,2.86133 2.585869,3.99812 0.21687,0.80567 0.22751,1.05665 0.0655,1.51757 -0.20609,0.58401 -0.28613,0.60543 -1.67588,0.42182 -0.23639,-0.0313 -0.375909,0.037 -0.422822,0.20896 -0.09964,0.37307 -0.74803,0.38473 -1.762727,0.0351 -0.929672,-0.32026 -4.692432,-2.09374 -5.813427,-2.74224 -0.364255,-0.20896 -1.06547,-0.56052 -1.558593,-0.77937 -4.214875,-1.86907 -7.247058,-3.39265 -9.922808,-4.98048 -0.817404,-0.48438 -1.575275,-0.92583 -1.683564,-0.97845 -0.227469,-0.11126 -0.922806,0.71292 -1.920008,2.2734 -0.367143,0.57423 -0.942328,1.43952 -1.276336,1.91993 -1.206002,1.7325 -1.749097,2.61917 -1.728464,2.81841 0.01178,0.11137 -0.156289,0.42191 -0.373005,0.68946 -0.608372,0.74994 -0.618169,1.09575 -0.04498,1.4843 l 4.353486,0.83207 c 1.371119,0.38664 1.672854,1.02934 1.75678,1.40145 -0.656222,-0.54786 -1.32125,-0.84176 -2.008755,-0.55961 -2.193427,-0.23833 -4.143621,-0.66595 -6.991184,-0.72265 -1.88867,-0.0392 -3.619164,1.51368 -4.498124,1.69139 -1.916965,0.38275 -7.627904,1.21484 -9.86142,2.08582 -0.881849,0.34379 -1.633739,0.62893 -1.668953,0.63276 -0.03614,0.004 -0.04398,-0.13678 -0.01654,-0.31056 0.04198,-0.27732 -0.02733,-0.30663 -0.575216,-0.24993 -0.790963,0.0821 -1.368114,0.37104 -1.462912,0.73241 -0.110364,0.41788 -0.353495,0.67373 -0.7911,0.83199 -0.385796,0.14056 -0.388691,0.13666 -0.266577,-0.39069 0.417028,-1.79684 1.769475,-2.61912 4.652359,-2.83205 3.072332,-0.2246 5.922874,-0.60739 6.863343,-0.91998 0.215784,-0.0723 0.326125,-0.22656 0.305645,-0.42582 -0.01951,-0.18552 -0.09661,-0.26566 -0.187412,-0.19537 -0.108333,0.0841 -0.117156,0.0293 -0.02828,-0.18165 0.0693,-0.16602 0.145537,-0.49217 0.169027,-0.72463 0.02447,-0.23054 0.161159,-0.47062 0.304746,-0.53132 0.523466,-0.22072 2.032277,-0.0526 2.673812,0.30079 0.658222,0.36134 1.120196,0.43367 0.894494,0.1426 -0.07427,-0.0977 -0.05657,-0.1308 0.04397,-0.0839 0.241147,0.11714 1.177735,-0.42195 1.386664,-0.79693 0.09481,-0.17194 0.446278,-0.59384 0.780242,-0.93754 0.333963,-0.34371 0.975626,-1.13678 1.426742,-1.76175 0.450138,-0.6269 1.307639,-1.79878 1.906253,-2.60944 0.597592,-0.80854 1.213886,-1.67781 1.368165,-1.92967 0.154225,-0.25388 0.542993,-0.82803 0.863298,-1.27731 0.321243,-0.44922 0.576117,-0.88467 0.567452,-0.9707 -0.0078,-0.0839 0.143594,-0.30658 0.336881,-0.49611 0.19428,-0.18745 0.347644,-0.39443 0.340918,-0.45889 -0.02824,-0.26766 -1.493196,-0.93362 -2.211873,-1.00389 -2.47956,-0.24409 -8.043086,-2.15627 -10.578198,-3.63482 -2.478452,-1.44528 -3.016533,-1.77156 -3.842717,-2.32221 -1.771529,-1.18358 -5.440483,-4.0449 -6.956085,-5.42579 -0.580108,-0.52936 -1.134812,-1.03135 -1.233461,-1.1153 -0.397449,-0.34375 -1.656228,-1.785184 -1.668894,-1.914032 -0.02447,-0.228549 -0.623063,-0.596726 -0.747095,-0.458903 -0.06348,0.07132 -0.07227,0.0332 -0.01955,-0.08598 0.06157,-0.135816 -0.162134,-0.462861 -0.612344,-0.896442 -0.390595,-0.374949 -0.716862,-0.751945 -0.725566,-0.839838 -0.0088,-0.08602 -0.139696,-0.209062 -0.289022,-0.273418 -0.150419,-0.0644 -0.296859,-0.212881 -0.327186,-0.329156 -0.02923,-0.116233 -0.576087,-0.854502 -1.214765,-1.639643 -1.173767,-1.443456 -2.579162,-3.468804 -3.066369,-4.417959 -0.145456,-0.285131 -0.440373,-0.708944 -0.654256,-0.94339 -0.214807,-0.23435 -0.786089,-1.048763 -1.270496,-1.811587 -0.484391,-0.76267 -0.930677,-1.41501 -0.992248,-1.452131 -0.06054,-0.03614 -0.128917,-0.204121 -0.151359,-0.373006 -0.129863,-0.99126 -1.130898,-3.447285 -1.483401,-3.643473 -0.07421,-0.04202 -0.177727,-0.499025 -0.229554,-1.016629 -0.05181,-0.52336 -0.187422,-1.033155 -0.305676,-1.148498 -0.11628,-0.114305 -0.1826,-0.243153 -0.147527,-0.287092 0.03517,-0.04302 -0.05463,-0.517623 -0.200204,-1.052816 -0.339838,-1.250843 -0.693335,-4.117193 -0.497087,-4.021963 0.08597,0.04142 0.07325,-0.286178 -0.03025,-0.780349 -0.09862,-0.468243 -0.119116,-0.87932 -0.04586,-0.913556 0.135679,-0.06346 0.04389,-1.807671 -0.202195,-3.83687 -0.07712,-0.633315 -0.283185,-2.729054 -0.45804,-4.656823 -0.174854,-1.927769 -0.372081,-3.499086 -0.438542,-3.492151 -0.393534,0.04106 -0.725494,-1.554613 -0.878829,-4.224121 -0.03132,-0.531251 -0.0898,-0.962004 -0.132825,-0.957048 -0.109361,0.01312 -0.645484,1.261735 -0.625057,1.456025 0.0088,0.08882 -0.116196,0.324717 -0.277318,0.524419 -0.266539,0.328117 -0.31057,0.339865 -0.463828,0.123043 -0.09281,-0.132305 -0.240193,-0.185512 -0.326221,-0.118683 -0.109426,0.08404 -0.147428,-0.05958 -0.123983,-0.463886 0.02632,-0.472104 -0.0088,-0.564393 -0.1816,-0.476537 -0.277347,0.141067 -0.315454,-0.22416 -0.12602,-1.218253 0.08102,-0.423378 0.08203,-0.837009 0.0029,-0.918952 -0.07917,-0.0821 -0.183663,-0.770564 -0.230419,-1.530218 -0.05365,-0.855513 -0.15137,-1.412029 -0.256883,-1.463383 -0.118097,-0.0572 -0.13375,-0.222123 -0.05071,-0.536694 0.137747,-0.517632 0.01856,-0.856515 -0.289003,-0.824736 -0.115213,0.01218 -0.21971,-0.07863 -0.233385,-0.202241 -0.01269,-0.123091 0.03805,-0.194325 0.11325,-0.157693 0.07516,0.03617 0.128884,-0.0078 0.12019,-0.09714 -0.0097,-0.08981 -0.07918,-0.156745 -0.15426,-0.148911 -0.07523,0.0078 -0.424734,-0.192385 -0.776327,-0.445434 -0.567412,-0.407666 -0.796859,-0.463353 -2.051739,-0.497584 -0.77729,-0.02092 -1.695284,-0.08019 -2.041055,-0.131363 -0.345681,-0.0518 -0.865181,-0.06883 -1.155226,-0.03903 -0.289009,0.03078 -0.856407,-0.04735 -1.259691,-0.172764 -0.403389,-0.124939 -1.089908,-0.265594 -1.525341,-0.311607 -0.435636,-0.04646 -0.928783,-0.159701 -1.095742,-0.251455 -0.293901,-0.16218 -0.294955,-0.178244 -0.03418,-0.500472 0.462895,-0.57022 4.144475,-1.211417 7.136833,-1.242607 2.16311,-0.02243 5.436541,0.08548 5.540083,0.183544 0.150429,0.142001 1.708011,-0.0244 1.692334,-0.180616 -0.07515,-0.718746 -1.655244,-2.126028 -3.429678,-3.054251 -0.58793,-0.307705 -1.097726,-0.613297 -1.132795,-0.679622 -0.03611,-0.06591 -0.145517,-0.11281 -0.244179,-0.102982 -0.09866,0.0098 -0.72359,-0.275354 -1.388664,-0.633796 -0.665074,-0.358442 -1.285106,-0.596701 -1.376938,-0.530355 -0.09271,0.0669 -0.126035,0.06198 -0.07318,-0.0098 0.145512,-0.20025 -0.197305,-0.399005 -1.523447,-0.885205 -1.941344,-0.710966 -2.624018,-0.913141 -3.245065,-0.961406 -0.941429,-0.07222 -1.637657,-0.714348 -1.037129,-0.953675 1.045905,-0.415499 2.301711,-0.667519 2.32328,-0.465262 0.0098,0.08498 0.11515,0.101981 0.238297,0.03766 0.12105,-0.06504 0.331049,-0.176375 0.464833,-0.247564 0.150372,-0.07914 0.213801,-0.06445 0.164004,0.0381 -0.04981,0.103952 0.06058,0.126026 0.290047,0.05667 0.204148,-0.06158 0.329176,-0.164515 0.279322,-0.229452 -0.09277,-0.120024 0.835919,2.9e-5 0.995096,0.128987 0.04788,0.03855 -0.0723,0.153731 -0.266619,0.255809 -0.334944,0.176314 -0.335955,0.184507 -0.02253,0.161137 0.181669,-0.0132 0.362254,-0.142617 0.401393,-0.286201 0.05658,-0.211966 0.210936,-0.258864 0.807548,-0.245064 1.907263,0.04299 4.757842,0.547428 4.789062,0.846655 0.0068,0.06492 0.210974,0.176741 0.454032,0.248115 0.49222,0.144597 2.263681,-0.312079 2.911082,-0.75054 0.195364,-0.132358 0.460046,-0.26215 0.588907,-0.289591 0.129955,-0.0274 0.521547,-0.16608 0.871996,-0.308553 0.351527,-0.142586 0.709993,-0.224621 0.797782,-0.182148 0.08794,0.04246 0.151324,-0.0044 0.141554,-0.104038 -0.01071,-0.102614 0.112314,-0.160706 0.284118,-0.134308 0.167027,0.02534 0.619159,-0.04734 1.004899,-0.161612 0.38574,-0.114274 1.924769,-0.346702 3.418894,-0.516124 2.099532,-0.236787 2.986314,-0.273946 3.899473,-0.161138 1.595625,0.198211 3.439487,0.638169 4.183603,0.998473 0.335937,0.162614 0.649429,0.291957 0.697291,0.287119 0.102614,-0.01071 0.921839,0.43896 1.714801,0.940977 0.313574,0.198695 0.633784,0.31194 0.711871,0.252472 0.0771,-0.05999 0.102486,-0.02982 0.05561,0.06791 -0.04689,0.09758 0.04302,0.203596 0.200239,0.236336 0.157177,0.03228 0.442321,0.270021 0.632728,0.528378 0.190407,0.258358 0.666067,0.751024 1.055621,1.095134 0.38957,0.344264 1.049869,1.010199 1.466852,1.480061 0.416966,0.469709 1.007719,1.072761 1.314478,1.340285 0.305681,0.267636 0.669033,0.746671 0.808614,1.064919 0.161111,0.368101 0.72061,0.972703 1.542027,1.663973 1.163099,0.9805 1.330103,1.190444 1.728508,2.169394 0.502965,1.238798 0.91994,1.875534 1.71768,2.623084 0.308698,0.289094 0.56651,0.588319 0.575183,0.665484 0.0078,0.07663 0.506796,0.671843 1.109342,1.322342 0.602482,0.649884 1.336916,1.486775 1.632859,1.859315 0.295943,0.372539 0.950187,1.126507 1.455039,1.675381 0.834933,0.907276 0.887732,1.001922 0.575127,1.036093 -0.308606,0.03375 -0.285099,0.07422 0.238245,0.402354 0.319385,0.200733 0.96187,0.657176 1.426789,1.014106 0.465858,0.356988 0.902342,0.644103 0.971652,0.637649 0.06839,-0.0064 0.466831,0.250045 0.888679,0.56979 0.420925,0.319842 0.886753,0.630333 1.034181,0.689911 0.148415,0.0601 0.498021,0.280693 0.776382,0.490683 0.279284,0.209894 0.962845,0.636702 1.521519,0.948703 0.558627,0.311539 1.48924,0.850982 2.06937,1.198691 0.580024,0.348187 1.800757,1.076176 2.712925,1.617699 2.392604,1.421418 2.564406,1.529774 3.433604,2.179668 0.433625,0.323804 1.006862,0.718733 1.275416,0.877958 2.415087,1.431202 7.898397,5.876143 9.814561,7.957062 0.193399,0.209523 0.704164,0.755447 1.13676,1.212483 1.208989,1.280219 1.457974,1.563413 2.932661,3.328657 0.75488,0.906142 1.52543,1.785144 1.71096,1.955053 0.18647,0.169966 0.42968,0.433546 0.54013,0.585938 0.11138,0.152297 0.53223,0.656281 0.93454,1.121142 0.78222,0.898468 3.53808,5.060647 3.57323,5.394458 0.0107,0.111325 0.23345,0.529291 0.49321,0.933599 0.38858,0.601596 1.61626,2.886696 1.6318,3.037172 0.002,0.02343 -0.0976,0.05264 -0.22355,0.0664 -0.17483,0.01762 -0.1865,0.09955 -0.0508,0.355526 0.0976,0.181569 0.42871,0.935508 0.73726,1.671891 0.30767,0.738341 0.92877,1.89452 1.38092,2.570352 0.45216,0.675832 0.99325,1.558558 1.20211,1.961022 0.46091,0.884869 1.04784,2.660159 0.84765,2.564399 -0.0781,-0.0371 -0.12012,0.14846 -0.0927,0.41403 0.0351,0.33195 -0.0127,0.46088 -0.15042,0.41398 -0.11124,-0.0391 -0.31351,-0.0967 -0.45019,-0.13079 -0.1368,-0.0352 -0.51666,-0.41903 -0.84374,-0.85752 -0.32724,-0.43553 -0.61626,-0.76556 -0.64256,-0.73435 -0.0273,0.0332 0.3007,0.72071 0.72845,1.52926 1.71881,3.248 2.30273,4.80961 1.82037,4.85932 -0.16505,0.0175 -0.0294,0.35936 0.52628,1.32812 0.41211,0.71687 0.76169,1.41413 0.77533,1.55081 0.0449,0.4317 -0.2666,0.30075 -0.55867,-0.2344 -0.15428,-0.28327 -0.35344,-0.50775 -0.44231,-0.49801 -0.23534,0.0235 -0.21485,0.0723 0.59077,1.38873 0.9111,1.49124 1.9239,3.41307 1.95507,3.71479 0.0371,0.3574 -0.21687,0.29292 -0.74517,-0.18554 -0.78801,-0.71684 -1.76564,-1.51763 -1.75773,-1.44334 0.004,0.0389 0.41207,0.96088 0.90525,2.05078 0.79786,1.75779 1.96392,4.58213 1.98827,4.81256 0.0292,0.27549 -0.34865,0.0449 -0.60051,-0.3672 -0.336,-0.55078 -0.93467,-0.93451 -0.89749,-0.5782 0.0108,0.1152 0.1835,0.37696 0.38173,0.58209 0.19734,0.20414 0.32724,0.43553 0.28816,0.51861 -0.0772,0.16015 1.08005,2.28324 1.28029,2.34664 0.0683,0.0215 0.13584,0.15425 0.15139,0.29882 0.0147,0.14263 1.51655,2.58684 3.33684,5.43171 3.79191,5.92685 4.59673,7.13866 5.93359,8.94239 1.52147,2.05274 3.23731,4.50775 4.23042,6.05465 0.50288,0.78329 1.27634,1.87505 1.71674,2.4277 1.24503,1.55857 2.40525,3.31634 2.98147,4.5195 0.43846,0.91412 0.58298,1.47649 0.87117,3.37408 0.43068,2.83108 0.39054,3.01863 -0.61919,2.92678 -0.8194,-0.0742 -0.93755,-0.10358 -2.53415,-0.64647 -0.64946,-0.22073 -1.26172,-0.48142 -1.36331,-0.58015 -0.24704,-0.24218 -0.76661,-0.17195 -0.73828,0.0996 0.0126,0.11922 -0.0763,0.44342 -0.19733,0.71872 -0.23441,0.53316 -0.81637,0.73727 -1.20511,0.42184 -0.15726,-0.12698 -0.27543,-0.082 -0.51658,0.19138 -0.27049,0.30365 -1.13671,0.94332 -1.30267,0.96095 -0.0303,0.003 -0.57618,-0.27254 -1.21193,-0.61227 l 0,0 z M 64.718674,126.50547 c -0.0323,-0.30658 -0.125045,-0.4532 -0.278306,-0.43752 -0.233424,0.0254 -0.265632,0.6543 -0.043,0.83403 0.243176,0.19919 0.367045,0.0449 0.321301,-0.39651 z M 36.847603,75.21561 c -0.02338,-0.253857 0.002,-0.34282 0.05672,-0.197206 0.05562,0.145517 0.07421,0.353528 0.04296,0.462386 -0.03135,0.107936 -0.07623,-0.01071 -0.09967,-0.26518 z"
           inkscape:connector-curvature="0" />
        <path
           id="path3980"
           style="fill:#ffffff;stroke:#b75c25;stroke-width:0.14224336;display:none"
           d="M 10.978498,20.220303"
           inkscape:connector-curvature="0" />
        <path
           id="path3982"
           style="fill:#ffffff;stroke:#b75c25;stroke-width:0.14224336;display:none"
           d="M 10.978498,20.220303"
           inkscape:connector-curvature="0" />
        <path
           style="fill:#ffffff;stroke:#b75c25;stroke-width:1.60000002;stroke-linejoin:round;stroke-miterlimit:4;stroke-dasharray:none"
           d="m 134.70187,148.05187 c -6.02804,-3.622 -8.23462,-10.82509 -12.20555,-16.28021 -4.86411,-7.50992 -9.41409,-15.26378 -14.48538,-22.61554 -2.23014,-2.30405 -5.86014,-4.86673 -2.30763,-0.44767 3.30945,2.4191 5.68301,8.87191 -0.19876,7.42753 -6.390734,-3.01679 -12.897052,-5.85149 -18.977627,-9.48062 -1.241447,2.174 -8.947968,9.07903 -3.331727,9.56789 2.68617,0.0742 6.023604,2.36208 1.225035,1.75449 -5.983994,-2.07632 -11.093456,1.71422 -16.942071,2.21049 -3.049955,1.02735 -6.675391,1.37934 -8.325643,1.62552 1.364716,-5.02533 10.296023,-1.41684 11.605501,-4.55485 1.28905,-2.95917 5.750541,1.39946 6.922894,-3.40634 2.552345,-3.76812 10.008183,-10.60825 0.88639,-10.38551 C 68.798883,100.70774 60.393778,93.916501 54.229745,86.255854 50.547143,81.370288 46.60925,76.414661 45.241194,70.378074 43.834639,64.879215 44.459405,59.087062 43.526934,53.469472 42.398188,51.013078 43.029396,43.841168 40.84292,48.259467 39.286934,46.636856 40.234033,42.216525 39.261245,40.251344 37.588474,37.927868 27.882184,40.04128 30.05762,37.323041 c 3.877928,-1.893027 10.946551,0.47363 13.161116,-1.459886 -3.395793,-3.225937 -7.766514,-4.872063 -12.094962,-6.207451 -3.219869,-1.938419 4.62734,-1.271099 4.030589,-1.711796 4.89502,1.30758 9.038695,0.489437 13.743967,-1.111085 6.075758,-1.448696 12.964084,0.292697 16.74392,5.446611 4.07988,3.822461 6.51853,8.713295 10.426862,12.709142 2.48287,4.388535 7.573656,6.475479 12.188897,9.400701 10.386731,5.75461 19.284141,14.034012 25.893361,23.877865 2.92329,4.29975 3.35196,8.609123 6.465,12.999537 2.05856,3.770335 -1.5658,1.769121 -1.49312,1.356786 1.22467,1.937841 3.74579,8.424385 3.09761,8.559515 -1.78032,-1.444028 4.99194,8.05579 0.18172,3.40171 -0.65998,0.44923 3.66361,8.07861 1.19646,6.07492 5.60326,10.80881 13.37351,20.32309 19.91884,30.53925 2.78277,4.98429 0.26181,7.75848 -4.38378,5.17365 -0.33468,1.0023 -3.45965,2.82202 -4.43223,1.67936 z"
           id="path3988"
           inkscape:connector-curvature="0"
           sodipodi:nodetypes="ccccccccccccccccccccccccccccccccccc" />
      </g>
    </g>
  </g>
  <g
     inkscape:label="BORDER"
     inkscape:groupmode="layer"
     id="layer1"
     transform="translate(50.25,211.52169)"
     style="display:inline"
     sodipodi:insensitive="true">
    <path
       inkscape:connector-curvature="0"
       d="m 301.95446,-211.52169 319.59108,0 c 101.4156,0 152.12339,0 206.7084,17.25959 59.59748,21.69173 106.54481,68.63899 128.23654,128.236542 C 973.75,-11.44076 973.75,39.267072 973.75,140.68273 l 0,319.59116 c 0,101.41566 0,152.12349 -17.25952,206.70829 -21.69173,59.59758 -68.63906,106.54477 -128.23654,128.23654 -54.58501,17.25959 -105.2928,17.25959 -206.7084,17.25959 l -319.59108,0 c -101.4156,0 -152.12339,0 -206.708396,-17.25959 C 35.648581,773.52695 -11.298747,726.57976 -32.99048,666.98218 -50.25,612.39738 -50.25,561.68955 -50.25,460.27389 l 0,-319.59116 c 0,-101.415658 0,-152.12349 17.25952,-206.708254 21.691733,-59.597546 68.639061,-106.544846 128.236544,-128.236576 54.585006,-17.25959 105.292796,-17.25959 206.708396,-17.25959 l 0,0"
       id="path5"
       style="fill:none;stroke:#000000;stroke-opacity:1" />
  </g>
  <g
     inkscape:groupmode="layer"
     id="layer6"
     inkscape:label="MASK"
     style="display:inline"
     sodipodi:insensitive="true">
    <path
       style="color:#000000;fill:#ffffff;fill-opacity:1;fill-rule:nonzero;stroke:none;stroke-width:2;marker:none;visibility:visible;display:inline;overflow:visible;enable-background:accumulate"
       d="m -0.03515625,708.40625 c 0.05564213,38.75762 0.61632351,71.02215 3.48917125,100.18549 0.8757813,8.89038 2.0231286,17.50673 3.364698,25.91301 2.7291509,17.10087 6.251639,30.63186 10.624705,44.6288 0.983104,3.14664 2.343873,6.00913 3.546782,8.89844 4.954414,11.90016 10.441772,22.62502 16.75229,32.23106 7.482354,11.38984 16.590926,23.44234 26.690428,33.79613 11.282296,11.56636 22.163363,20.60638 34.238258,28.7856 7.753914,5.2523 15.167714,9.80978 23.655414,13.91931 3.34329,1.61873 6.78353,3.25751 10.45545,4.87471 6.01057,2.6472 12.64725,5.2405 20.38236,7.4312 16.33865,4.6274 37.83594,9.5058 66.67436,11.7859 26.04947,2.0596 58.07248,3.2184 99.20801,3.1754 l -319.08192625,0 z"
       id="path4146"
       inkscape:connector-curvature="0"
       sodipodi:nodetypes="csssssssssssccc" />
    <path
       style="color:#000000;fill:#ffffff;fill-opacity:1;fill-rule:nonzero;stroke:none;stroke-width:2;marker:none;visibility:visible;display:inline;overflow:visible;enable-background:accumulate"
       d="m 1024,708.375 c -0.028,33.52476 -0.3641,57.51886 -2.1872,86.13032 -2.1429,33.63123 -7.6767,62.03085 -16.1313,85.82727 -5.1582,14.5187 -11.40374,27.32387 -18.62968,38.55822 -10.39312,16.15845 -22.65083,31.16786 -36.89519,44.46448 -6.86448,6.40775 -13.96935,11.81612 -21.91877,17.50161 -10.37402,7.41958 -20.2254,13.06198 -32.1818,18.6383 -10.69022,4.9858 -23.165,9.4996 -39.90567,13.451 -11.58454,2.7344 -25.21186,5.3376 -41.70422,7.0737 -27.23282,2.8667 -62.17789,3.4121 -108.25867,3.9801 L 1024,1024 z"
       id="path4146-5"
       inkscape:connector-curvature="0"
       sodipodi:nodetypes="cssssssssccc" />
    <path
       style="color:#000000;fill:#ffffff;fill-opacity:1;fill-rule:nonzero;stroke:none;stroke-width:2;marker:none;visibility:visible;display:inline;overflow:visible;enable-background:accumulate"
       d="m 1023.9571,318.26274 c 0.1837,-39.14081 -0.2997,-73.55855 -3.476,-103.94061 -1.4113,-13.49969 -3.8539,-26.31006 -5.9548,-38.18792 -3.6187,-20.45841 -10.1174,-38.44655 -17.2973,-52.70888 -2.12747,-4.22606 -3.90726,-7.55456 -5.77779,-10.81658 -1.49793,-2.61224 -3.05404,-5.18185 -4.89348,-8.13563 -1.96035,-3.14791 -3.87346,-6.195884 -5.993,-9.197124 C 974.88453,87.232938 968.40279,79.35023 961.65509,72.082687 951.58996,61.242143 940.4011,51.100793 927.77306,42.698049 909.73264,30.693887 894.47219,21.390417 866.08729,13.614807 853.18652,10.080839 837.40303,6.7460486 817.42751,4.3881848 790.09127,1.1614792 754.65731,0.08073128 706.1875,0 L 1024,0 z"
       id="path4146-5-3"
       inkscape:connector-curvature="0"
       sodipodi:nodetypes="cssssssssssccc" />
    <path
       style="color:#000000;fill:#ffffff;fill-opacity:1;fill-rule:nonzero;stroke:none;stroke-width:2;marker:none;visibility:visible;display:inline;overflow:visible;enable-background:accumulate"
       d="M 0,318.48 C 0.04438432,264.21497 1.9515494,215.42652 8.7981727,178.4577 14.754939,146.29372 24.640519,123.97857 37.889606,103.37989 53.29125,79.434582 73.01483,58.195063 97.250401,42.030991 111.80438,32.324119 124.48551,25.310001 143.39137,18.055461 153.25339,14.271217 164.74156,11.469151 178.08885,8.8727346 208.3231,2.9913388 250.69975,-0.29260813 319.08193,0 L 0,0 z"
       id="path4146-5-3-7"
       inkscape:connector-curvature="0"
       sodipodi:nodetypes="csssssccc" />
  </g>
  <g
     inkscape:groupmode="layer"
     id="layer2"
     inkscape:label="GUIDES"
     style="display:none"
     transform="translate(0,-2.2054443)"
     sodipodi:insensitive="true">
    <path
       style="color:#000000;fill:none;stroke:#000000;stroke-width:2;stroke-linecap:butt;stroke-linejoin:miter;stroke-miterlimit:4;stroke-opacity:1;stroke-dasharray:none;stroke-dashoffset:0;marker:none;visibility:visible;display:inline;overflow:visible;enable-background:accumulate"
       d="m 0.99801512,321.03518 0,386.27669"
       id="path4024"
       inkscape:connector-curvature="0" />
    <path
       sodipodi:type="arc"
       style="color:#000000;fill:none;stroke:#000000;stroke-width:1.00571477;stroke-linecap:butt;stroke-linejoin:miter;stroke-miterlimit:4;stroke-opacity:1;stroke-dasharray:none;stroke-dashoffset:0;marker:none;visibility:visible;display:inline;overflow:visible;enable-background:accumulate"
       id="path3129"
       sodipodi:cx="462.32144"
       sodipodi:cy="298.86218"
       sodipodi:rx="138"
       sodipodi:ry="138"
       d="m 600.32144,298.86218 c 0,76.2153 -61.7847,138 -138,138 -76.21529,0 -138,-61.7847 -138,-138 0,-76.21529 61.78471,-138 138,-138 76.2153,0 138,61.78471 138,138 z"
       transform="matrix(1.988799,0,0,1.988471,-407.91018,-80.585593)" />
    <path
       sodipodi:type="arc"
       style="color:#000000;fill:none;stroke:#000000;stroke-width:0.62086099;stroke-linecap:butt;stroke-linejoin:miter;stroke-miterlimit:4;stroke-opacity:1;stroke-dasharray:none;stroke-dashoffset:0;marker:none;visibility:visible;display:inline;overflow:visible;enable-background:accumulate"
       id="path3129-9"
       sodipodi:cx="462.32144"
       sodipodi:cy="298.86218"
       sodipodi:rx="138"
       sodipodi:ry="138"
       d="m 600.32144,298.86218 c 0,76.2153 -61.7847,138 -138,138 -76.21529,0 -138,-61.7847 -138,-138 0,-76.21529 61.78471,-138 138,-138 76.2153,0 138,61.78471 138,138 z"
       transform="matrix(3.2215081,0,0,3.2211587,-977.38931,-448.55899)" />
    <path
       style="color:#000000;fill:none;stroke:#000000;stroke-width:2;stroke-linecap:butt;stroke-linejoin:miter;stroke-miterlimit:4;stroke-opacity:1;stroke-dasharray:none;stroke-dashoffset:0;marker:none;visibility:visible;display:inline;overflow:visible;enable-background:accumulate"
       d="M 67.351921,69.489974 956.5625,958.70544"
       id="path4011"
       inkscape:connector-curvature="0"
       sodipodi:nodetypes="cc" />
    <path
       style="color:#000000;fill:none;stroke:#000000;stroke-width:2;stroke-linecap:butt;stroke-linejoin:miter;stroke-miterlimit:4;stroke-opacity:1;stroke-dasharray:none;stroke-dashoffset:0;marker:none;visibility:visible;display:inline;overflow:visible;enable-background:accumulate"
       d="m 0.99801467,707.31189 1022.00298533,0"
       id="path4028"
       inkscape:connector-curvature="0" />
    <path
       style="color:#000000;fill:none;stroke:#000000;stroke-width:2;stroke-linecap:butt;stroke-linejoin:miter;stroke-miterlimit:4;stroke-opacity:1;stroke-dasharray:none;stroke-dashoffset:0;marker:none;visibility:visible;display:inline;overflow:visible;enable-background:accumulate"
       d="m 0.99801467,513.69318 1022.00298533,0"
       id="path4030"
       inkscape:connector-curvature="0" />
    <path
       style="color:#000000;fill:none;stroke:#000000;stroke-width:2;stroke-linecap:butt;stroke-linejoin:miter;stroke-miterlimit:4;stroke-opacity:1;stroke-dasharray:none;stroke-dashoffset:0;marker:none;visibility:visible;display:inline;overflow:visible;enable-background:accumulate"
       d="m 0.99801467,321.0352 1022.00298533,0"
       id="path4032"
       inkscape:connector-curvature="0" />
    <path
       style="color:#000000;fill:none;stroke:#000000;stroke-width:2;stroke-linecap:butt;stroke-linejoin:miter;stroke-miterlimit:4;stroke-opacity:1;stroke-dasharray:none;stroke-dashoffset:0;marker:none;visibility:visible;display:inline;overflow:visible;enable-background:accumulate"
       d="m 319.08193,1026.2054 0,-1023.9999557"
       id="path4034"
       inkscape:connector-curvature="0"
       sodipodi:nodetypes="cc" />
    <path
       style="color:#000000;fill:none;stroke:#000000;stroke-width:2;stroke-linecap:butt;stroke-linejoin:miter;stroke-miterlimit:4;stroke-opacity:1;stroke-dasharray:none;stroke-dashoffset:0;marker:none;visibility:visible;display:inline;overflow:visible;enable-background:accumulate"
       d="m 511.68014,2.2054443 0,1023.9999557"
       id="path4036"
       inkscape:connector-curvature="0"
       sodipodi:nodetypes="cc" />
    <path
       style="color:#000000;fill:none;stroke:#000000;stroke-width:2;stroke-linecap:butt;stroke-linejoin:miter;stroke-miterlimit:4;stroke-opacity:1;stroke-dasharray:none;stroke-dashoffset:0;marker:none;visibility:visible;display:inline;overflow:visible;enable-background:accumulate"
       d="m 706.1875,1026.2054 0,-1023.9999557"
       id="path4038"
       inkscape:connector-curvature="0"
       sodipodi:nodetypes="cc" />
    <path
       style="color:#000000;fill:none;stroke:#000000;stroke-width:2;stroke-linecap:butt;stroke-linejoin:miter;stroke-miterlimit:4;stroke-opacity:1;stroke-dasharray:none;stroke-dashoffset:0;marker:none;visibility:visible;display:inline;overflow:visible;enable-background:accumulate"
       d="M 67.351921,958.70544 956.5625,69.489974"
       id="path4001"
       inkscape:connector-curvature="0"
       sodipodi:nodetypes="cc" />
    <path
       style="color:#000000;fill:none;stroke:#000000;stroke-width:2;stroke-linecap:butt;stroke-linejoin:miter;stroke-miterlimit:4;stroke-opacity:1;stroke-dasharray:none;stroke-dashoffset:0;marker:none;visibility:visible;display:inline;overflow:visible;enable-background:accumulate"
       d="m 956.5625,69.489974 0,889.215466"
       id="path4003"
       inkscape:connector-curvature="0"
       sodipodi:nodetypes="cc" />
    <path
       style="color:#000000;fill:none;stroke:#000000;stroke-width:2;stroke-linecap:butt;stroke-linejoin:miter;stroke-miterlimit:4;stroke-opacity:1;stroke-dasharray:none;stroke-dashoffset:0;marker:none;visibility:visible;display:inline;overflow:visible;enable-background:accumulate"
       d="m 67.351921,69.489974 889.210579,0"
       id="path4009"
       inkscape:connector-curvature="0"
       sodipodi:nodetypes="cc" />
    <path
       style="color:#000000;fill:none;stroke:#000000;stroke-width:2;stroke-linecap:butt;stroke-linejoin:miter;stroke-miterlimit:4;stroke-opacity:1;stroke-dasharray:none;stroke-dashoffset:0;marker:none;visibility:visible;display:inline;overflow:visible;enable-background:accumulate"
       d="m 67.351921,958.70544 0,-889.215466"
       id="path4007"
       inkscape:connector-curvature="0"
       sodipodi:nodetypes="cc" />
    <path
       style="color:#000000;fill:none;stroke:#000000;stroke-width:2;stroke-linecap:butt;stroke-linejoin:miter;stroke-miterlimit:4;stroke-opacity:1;stroke-dasharray:none;stroke-dashoffset:0;marker:none;visibility:visible;display:inline;overflow:visible;enable-background:accumulate"
       d="m 956.5625,958.70544 -889.210579,-3e-5"
       id="path4005"
       inkscape:connector-curvature="0"
       sodipodi:nodetypes="cc" />
    <path
       sodipodi:type="arc"
       style="color:#000000;fill:none;stroke:#000000;stroke-width:1.42908275;stroke-linecap:butt;stroke-linejoin:miter;stroke-miterlimit:4;stroke-opacity:1;stroke-dasharray:none;stroke-dashoffset:0;marker:none;visibility:visible;display:inline;overflow:visible;enable-background:accumulate"
       id="path3129-7"
       sodipodi:cx="462.32144"
       sodipodi:cy="298.86218"
       sodipodi:rx="138"
       sodipodi:ry="138"
       d="m 600.32144,298.86218 c 0,76.2153 -61.7847,138 -138,138 -76.21529,0 -138,-61.7847 -138,-138 0,-76.21529 61.78471,-138 138,-138 76.2153,0 138,61.78471 138,138 z"
       transform="matrix(1.4025564,0,0,1.3964479,-135.79717,96.569794)" />
  </g>
</svg>
