<?xml version="1.0" encoding="UTF-8" standalone="no"?>
<!-- Created with Inkscape (http://www.inkscape.org/) -->

<svg
   xmlns:dc="http://purl.org/dc/elements/1.1/"
   xmlns:cc="http://creativecommons.org/ns#"
   xmlns:rdf="http://www.w3.org/1999/02/22-rdf-syntax-ns#"
   xmlns:svg="http://www.w3.org/2000/svg"
   xmlns="http://www.w3.org/2000/svg"
   xmlns:xlink="http://www.w3.org/1999/xlink"
   xmlns:sodipodi="http://sodipodi.sourceforge.net/DTD/sodipodi-0.dtd"
   xmlns:inkscape="http://www.inkscape.org/namespaces/inkscape"
   width="1024"
   height="1024"
   id="svg2"
   version="1.1"
   inkscape:version="0.48.2 r9819"
   sodipodi:docname="AppIcon 2.svg">
  <defs
     id="defs4">
    <linearGradient
       id="linearGradient3837">
      <stop
         style="stop-color:#ffffff;stop-opacity:1;"
         offset="0"
         id="stop3839" />
      <stop
         style="stop-color:#ffffff;stop-opacity:0.79912657;"
         offset="1"
         id="stop3841" />
    </linearGradient>
    <linearGradient
       id="linearGradient3902">
      <stop
         style="stop-color:#ffffff;stop-opacity:1;"
         offset="0"
         id="stop3904" />
      <stop
         style="stop-color:#fff9f9;stop-opacity:0.72868216;"
         offset="1"
         id="stop3906" />
    </linearGradient>
    <linearGradient
       id="linearGradient4110">
      <stop
         style="stop-color:#ffffff;stop-opacity:1;"
         offset="0"
         id="stop4112" />
      <stop
         style="stop-color:#e5e5e5;stop-opacity:1;"
         offset="1"
         id="stop4114" />
    </linearGradient>
    <inkscape:perspective
       sodipodi:type="inkscape:persp3d"
       inkscape:vp_x="0 : 512 : 1"
       inkscape:vp_y="0 : 1000 : 0"
       inkscape:vp_z="1024 : 512 : 1"
       inkscape:persp3d-origin="512 : 341.33333 : 1"
       id="perspective4094" />
    <linearGradient
       id="linearGradient4483">
      <stop
         style="stop-color:#056aff;stop-opacity:1;"
         offset="0"
         id="stop4485" />
      <stop
         style="stop-color:#ffffff;stop-opacity:0;"
         offset="1"
         id="stop4487" />
    </linearGradient>
    <linearGradient
       inkscape:collect="always"
       xlink:href="#linearGradient3819"
       id="linearGradient4116"
       x1="511.68015"
       y1="0"
       x2="511.68015"
       y2="1461.4401"
       gradientUnits="userSpaceOnUse"
       gradientTransform="scale(1,1.001095)" />
    <linearGradient
       inkscape:collect="always"
       xlink:href="#linearGradient3902"
       id="linearGradient3908"
       x1="509.1376"
       y1="513.90118"
       x2="467.15973"
       y2="1029.1136"
       gradientUnits="userSpaceOnUse"
       gradientTransform="matrix(1.2524295,0,0,1.2524296,-146.91309,-129.30104)" />
    <linearGradient
       id="linearGradient3819">
      <stop
         id="stop3821"
         offset="0"
         style="stop-color:#fbce87;stop-opacity:1;" />
      <stop
         id="stop3823"
         offset="1"
         style="stop-color:#f7a525;stop-opacity:1;" />
    </linearGradient>
    <linearGradient
       inkscape:collect="always"
       xlink:href="#linearGradient3902"
       id="linearGradient3119"
       gradientUnits="userSpaceOnUse"
       gradientTransform="matrix(1.2524295,0,0,1.2524296,318.34903,209.62497)"
       x1="509.1376"
       y1="513.90118"
       x2="467.15973"
       y2="1029.1136" />
    <linearGradient
       inkscape:collect="always"
       xlink:href="#linearGradient3837"
       id="linearGradient3843"
       x1="511.68015"
       y1="174.44623"
       x2="511.68015"
       y2="956.5"
       gradientUnits="userSpaceOnUse" />
    <linearGradient
       inkscape:collect="always"
       xlink:href="#linearGradient3837"
       id="linearGradient3051"
       gradientUnits="userSpaceOnUse"
       x1="511.68015"
       y1="174.44623"
       x2="511.68015"
       y2="956.5" />
  </defs>
  <sodipodi:namedview
     id="base"
     pagecolor="#ffffff"
     bordercolor="#666666"
     borderopacity="1.0"
     inkscape:pageopacity="0.0"
     inkscape:pageshadow="2"
     inkscape:zoom="0.828125"
     inkscape:cx="656.90566"
     inkscape:cy="512"
     inkscape:document-units="px"
     inkscape:current-layer="layer3"
     showgrid="false"
     showguides="true"
     inkscape:guide-bbox="true"
     fit-margin-top="0"
     fit-margin-left="0"
     fit-margin-right="0"
     fit-margin-bottom="0"
     inkscape:window-width="1920"
     inkscape:window-height="1036"
     inkscape:window-x="36"
     inkscape:window-y="22"
     inkscape:window-maximized="0"
     inkscape:showpageshadow="false"
     borderlayer="true"
     showborder="false">
    <sodipodi:guide
       orientation="0,1"
       position="-10.429825,956.71547"
       id="guide3101" />
    <sodipodi:guide
       orientation="1,0"
       position="956.5625,59.8125"
       id="guide3103" />
    <sodipodi:guide
       orientation="0,1"
       position="1246.875,315.625"
       id="guide3105" />
    <sodipodi:guide
       orientation="1,0"
       position="67.351921,64.523494"
       id="guide3107" />
    <sodipodi:guide
       orientation="0,1"
       position="961.5,67.5"
       id="guide3109" />
    <sodipodi:guide
       orientation="1,0"
       position="319.08193,67.707547"
       id="guide3111" />
    <sodipodi:guide
       orientation="1,0"
       position="511.68014,67.707547"
       id="guide3113" />
    <sodipodi:guide
       orientation="1,0"
       position="706.1875,64.734375"
       id="guide3115" />
    <sodipodi:guide
       orientation="0,1"
       position="-21.213203,1024"
       id="guide3117" />
    <sodipodi:guide
       orientation="0,1"
       position="0,0"
       id="guide3119" />
    <sodipodi:guide
       orientation="1,0"
       position="0,1042.6289"
       id="guide3121" />
    <sodipodi:guide
       orientation="0,1"
       position="-6.8942911,705"
       id="guide3123" />
    <sodipodi:guide
       orientation="1,0"
       position="1024,1037.75"
       id="guide3125" />
    <sodipodi:guide
       orientation="0,1"
       position="-27.223611,512.65241"
       id="guide3127" />
    <inkscape:grid
       type="xygrid"
       id="grid4235"
       empspacing="5"
       visible="true"
       enabled="true"
       snapvisiblegridlinesonly="true" />
    <sodipodi:guide
       orientation="1,0"
       position="511.68014,430.8932"
       id="guide4003" />
  </sodipodi:namedview>
  <metadata
     id="metadata7">
    <rdf:RDF>
      <cc:Work
         rdf:about="">
        <dc:format>image/svg+xml</dc:format>
        <dc:type
           rdf:resource="http://purl.org/dc/dcmitype/StillImage" />
        <dc:title />
      </cc:Work>
    </rdf:RDF>
  </metadata>
  <g
     inkscape:groupmode="layer"
     id="layer5"
     inkscape:label="Background"
     style="display:inline"
     sodipodi:insensitive="true">
    <rect
       style="color:#000000;fill:url(#linearGradient4116);fill-opacity:1;fill-rule:nonzero;stroke:none;stroke-width:2;marker:none;visibility:visible;display:inline;overflow:visible;enable-background:accumulate"
       id="rect4108"
       width="1024"
       height="1024"
       x="0"
       y="1.5099033e-14" />
  </g>
  <g
     inkscape:groupmode="layer"
     id="layer3"
     inkscape:label="Layer"
     style="display:inline">
    <path
       id="path2996_11_"
       style="fill:#ffffff;stroke:#b75c25;stroke-width:3.10634017;stroke-linecap:round;stroke-linejoin:round;display:none"
       d="M 153.33887,209.84245"
       inkscape:connector-curvature="0" />
    <path
       id="path3958_11_"
       style="fill:#ffffff;stroke:#b75c25;stroke-width:0.90461409;display:none"
       d="m 878.11866,1068.2406 c -4.04885,-2.1678 -11.48389,-7.5083 -16.52033,-11.8806 -8.59535,-7.4655 -9.89379,-9.1232 -21.17188,-26.9727 -6.61439,-10.4524 -14.02984,-22.3642 -16.48243,-26.4572 -13.91193,-23.1964 -39.21922,-63.72666 -59.72697,-95.64275 -18.02927,-28.07798 -33.65525,-52.89565 -40.01468,-63.57746 -11.46475,-19.24041 -13.51445,-21.69993 -28.12113,-33.68622 -7.64544,-6.2671 -14.07298,-11.20331 -14.28417,-10.94294 -0.19899,0.25438 0.72021,2.04932 2.06204,3.99918 1.34781,1.95018 3.78226,5.85015 5.42157,8.67001 1.63931,2.81986 6.53355,9.20377 10.84951,14.19716 10.70126,12.32164 14.48912,18.19698 16.44515,25.42653 1.37921,5.12376 1.44688,6.7199 0.41655,9.65118 -1.31065,3.71408 -1.81968,3.8503 -10.65796,2.68261 -1.50335,-0.19905 -2.39064,0.23531 -2.68899,1.32891 -0.63367,2.37258 -4.75719,2.44674 -11.21028,0.22322 -5.91236,-2.03673 -29.8421,-13.31539 -36.9712,-17.43961 -2.31653,-1.32891 -6.77599,-3.56469 -9.91207,-4.9565 -26.80501,-11.88658 -46.08855,-21.57597 -63.10531,-31.67397 -5.19838,-3.08048 -10.01816,-5.88793 -10.70683,-6.22258 -1.44662,-0.70757 -5.8687,4.53391 -12.21053,14.45797 -2.33489,3.65189 -5.99285,9.15481 -8.11702,12.21003 -7.66971,11.01805 -11.12359,16.65693 -10.99237,17.92403 0.0749,0.70827 -0.99394,2.68318 -2.37218,4.3847 -3.86901,4.76934 -3.93132,6.96856 -0.28605,9.43959 l 27.68653,5.29165 c 8.7198,2.45889 10.63872,6.54622 11.17246,8.91269 -4.17333,-3.48418 -8.40266,-5.35327 -12.77493,-3.5589 -13.94937,-1.51569 -26.35187,-4.23519 -44.46129,-4.59579 -12.01123,-0.24929 -23.01652,9.62644 -28.60637,10.75661 -12.19118,2.43414 -48.5106,7.72592 -62.71492,13.26503 -5.60822,2.18637 -10.38996,3.99975 -10.61391,4.02411 -0.22983,0.0254 -0.27969,-0.86987 -0.10518,-1.97504 0.26697,-1.76365 -0.17381,-1.95006 -3.65816,-1.58946 -5.03023,0.52212 -8.70069,2.35967 -9.30357,4.65785 -0.70187,2.65756 -2.24809,4.28467 -5.0311,5.29114 -2.45351,0.89391 -2.47193,0.86911 -1.69533,-2.48464 2.65214,-11.42723 11.2532,-16.65662 29.58725,-18.01077 19.53887,-1.42837 37.66725,-3.86277 43.64827,-5.85073 1.37231,-0.4598 2.07404,-1.44083 1.94379,-2.70805 -0.12408,-1.17984 -0.6144,-1.6895 -1.19187,-1.24248 -0.68896,0.53484 -0.74507,0.18634 -0.17985,-1.15523 0.44072,-1.05582 0.92556,-3.13001 1.07495,-4.60837 0.15562,-1.46615 1.02491,-2.99297 1.93807,-3.379 3.32905,-1.40369 12.92451,-0.33451 17.00443,1.91292 4.18605,2.29798 7.12403,2.75797 5.68865,0.90688 -0.47233,-0.62134 -0.35976,-0.83184 0.27963,-0.53357 1.53361,0.74496 7.48995,-2.68345 8.81866,-5.06818 0.60296,-1.09347 2.83816,-3.7766 4.96205,-5.9624 2.12388,-2.18587 6.20461,-7.22949 9.07354,-11.20406 2.86271,-3.98685 8.31609,-11.43957 12.12305,-16.59506 3.80046,-5.14201 7.71985,-10.67024 8.70101,-12.27197 0.98081,-1.61458 3.45323,-5.26596 5.49025,-8.12321 2.04298,-2.85687 3.66389,-5.62617 3.60878,-6.17329 -0.0496,-0.53357 0.9132,-1.94973 2.14244,-3.15507 1.23554,-1.19211 2.21088,-2.50843 2.16811,-2.91837 -0.1796,-1.70221 -9.49617,-5.93747 -14.06668,-6.38436 -15.76907,-1.55232 -51.15099,-13.71306 -67.27335,-23.11608 -15.76202,-9.19144 -19.18401,-11.26646 -24.43823,-14.76838 -11.26626,-7.52713 -34.59942,-25.72404 -44.23808,-34.50598 -3.68927,-3.36653 -7.21697,-6.559 -7.84434,-7.09289 -2.52763,-2.18612 -10.53299,-11.3531 -10.61354,-12.17252 -0.15562,-1.45349 -3.96245,-3.79495 -4.75124,-2.91845 -0.40371,0.45357 -0.45961,0.21114 -0.12433,-0.5468 0.39156,-0.86374 -1.03111,-2.94362 -3.89428,-5.70103 -2.48404,-2.38454 -4.55897,-4.78209 -4.61433,-5.34106 -0.056,-0.54705 -0.88841,-1.32955 -1.83807,-1.73883 -0.95661,-0.40956 -1.88791,-1.35384 -2.08078,-2.09331 -0.18589,-0.7392 -3.66369,-5.43431 -7.72544,-10.42751 -7.46472,-9.17984 -16.4025,-22.06029 -19.50095,-28.09655 -0.92505,-1.81333 -2.80061,-4.50862 -4.16083,-5.99961 -1.36609,-1.49038 -4.99923,-6.66973 -8.07987,-11.52101 -3.08055,-4.85029 -5.91876,-8.99893 -6.31032,-9.235 -0.38502,-0.22984 -0.81987,-1.29814 -0.96259,-2.37218 -0.82588,-6.30404 -7.19208,-21.92343 -9.43387,-23.17111 -0.47195,-0.26724 -1.13028,-3.17362 -1.45988,-6.46538 -0.32949,-3.32837 -1.19193,-6.57048 -1.94398,-7.30402 -0.7395,-0.72693 -1.16127,-1.54636 -0.93822,-1.82579 0.22367,-0.27359 -0.34742,-3.29189 -1.27322,-6.69552 -2.16124,-7.95488 -4.40935,-26.18379 -3.16129,-25.57816 0.54674,0.26341 0.46585,-1.81999 -0.19237,-4.96273 -0.62719,-2.97785 -0.75754,-5.59214 -0.29166,-5.80987 0.86287,-0.40358 0.27913,-11.49611 -1.28588,-24.40105 -0.49045,-4.02764 -1.80095,-17.35575 -2.91296,-29.61563 -1.11201,-12.25989 -2.3663,-22.25287 -2.78896,-22.20877 -2.50273,0.26113 -4.61387,-9.88675 -5.58902,-26.86381 -0.19919,-3.37856 -0.5711,-6.11799 -0.84472,-6.08647 -0.6955,0.0834 -4.10504,8.02416 -3.97513,9.25977 0.056,0.56486 -0.73896,2.06508 -1.76364,3.33511 -1.69508,2.0867 -1.9751,2.16141 -2.94977,0.78251 -0.59023,-0.84141 -1.52753,-1.17979 -2.07464,-0.75478 -0.69591,0.53446 -0.93759,-0.37891 -0.78849,-2.95014 0.16739,-3.00241 -0.056,-3.58933 -1.1549,-3.0306 -1.76382,0.89714 -2.00617,-1.42557 -0.80144,-7.74763 0.51525,-2.69252 0.52168,-5.32306 0.0184,-5.84419 -0.50349,-0.52212 -1.16803,-4.90049 -1.46538,-9.7316 -0.34119,-5.44074 -0.96265,-8.97998 -1.63368,-9.30657 -0.75105,-0.36377 -0.8506,-1.41262 -0.32249,-3.41317 0.87602,-3.29194 0.11803,-5.44711 -1.83795,-5.24501 -0.73271,0.0775 -1.39728,-0.50006 -1.48424,-1.28618 -0.0807,-0.78281 0.24198,-1.23583 0.72022,-1.00286 0.47799,0.23002 0.81966,-0.0496 0.76437,-0.61778 -0.0617,-0.57116 -0.50356,-0.99684 -0.98104,-0.94702 -0.47843,0.0496 -2.70115,-1.22349 -4.93715,-2.83279 -3.60852,-2.5926 -5.06772,-2.94675 -13.04828,-3.16444 -4.94327,-0.13305 -10.78137,-0.50998 -12.98034,-0.83542 -2.1984,-0.32943 -5.50223,-0.43774 -7.3468,-0.24822 -1.83799,0.19575 -5.44643,-0.30113 -8.01116,-1.09871 -2.5654,-0.79457 -6.93141,-1.68908 -9.7006,-1.98171 -2.77048,-0.29546 -5.90671,-1.01563 -6.9685,-1.59916 -1.8691,-1.0314 -1.8758,-1.13356 -0.21737,-3.18281 2.94383,-3.62638 26.35729,-7.70415 45.38756,-7.90251 13.75657,-0.14265 34.57435,0.54362 35.23284,1.16727 0.95667,0.90307 10.86231,-0.15517 10.76261,-1.14865 -0.47793,-4.57095 -10.52673,-13.52074 -21.81146,-19.42388 -3.73902,-1.95689 -6.98113,-3.90034 -7.20415,-4.32214 -0.22965,-0.41917 -0.92543,-0.71743 -1.55289,-0.65493 -0.62744,0.0623 -4.60176,-1.75115 -8.83138,-4.0307 -4.22962,-2.27956 -8.17279,-3.7948 -8.7568,-3.37286 -0.5896,0.42546 -0.80154,0.39417 -0.4654,-0.0623 0.9254,-1.27351 -1.25479,-2.53752 -9.68855,-5.62957 -12.34621,-4.52147 -16.68776,-5.80723 -20.63739,-6.11417 -5.98713,-0.4593 -10.41488,-4.54299 -6.59575,-6.06502 6.65156,-2.64242 14.63802,-4.24517 14.77519,-2.95889 0.0623,0.54044 0.73231,0.64856 1.51548,0.2395 0.76983,-0.41363 2.10534,-1.12167 2.95616,-1.57441 0.95631,-0.5033 1.35969,-0.40988 1.043,0.2423 -0.31677,0.6611 0.38527,0.80148 1.84459,0.3604 1.29831,-0.39162 2.09344,-1.04625 1.77638,-1.45923 -0.58998,-0.7633 5.31613,1.9e-4 6.32844,0.82031 0.3045,0.24517 -0.4598,0.97767 -1.6956,1.62685 -2.13011,1.12129 -2.13654,1.1734 -0.14328,1.02477 1.15535,-0.084 2.3038,-0.90699 2.55271,-1.82013 0.35983,-1.34802 1.34147,-1.64628 5.1357,-1.55851 12.12947,0.2734 30.25808,3.48143 30.45663,5.3844 0.0432,0.41287 1.34171,1.12401 2.88747,1.57792 3.13033,0.91958 14.39616,-1.9847 18.51338,-4.77315 1.24245,-0.84175 2.92572,-1.66718 3.74523,-1.84169 0.82646,-0.17425 3.31684,-1.05621 5.54557,-1.96228 2.23557,-0.90679 4.51528,-1.42851 5.07359,-1.15839 0.55926,0.27003 0.96236,-0.028 0.90023,-0.66165 -0.0681,-0.65258 0.71427,-1.02202 1.80688,-0.85414 1.06223,0.16115 3.93762,-0.30107 6.39078,-1.02779 2.45316,-0.72674 12.24081,-2.2049 21.74288,-3.28236 13.35223,-1.50587 18.99183,-1.74219 24.79917,-1.02478 10.14758,1.26055 21.87384,4.05852 26.60614,6.34992 2.13643,1.03416 4.13012,1.85673 4.43451,1.82596 0.65258,-0.0681 5.86255,2.79162 10.90549,5.98426 1.99421,1.26363 4.03062,1.98382 4.52723,1.60563 0.49032,-0.38151 0.65177,-0.18964 0.35366,0.43188 -0.29821,0.62057 0.27359,1.2948 1.27344,1.50301 0.99959,0.20529 2.813,1.71723 4.02391,3.36028 1.21092,1.64306 4.23594,4.77623 6.71335,6.96464 2.47752,2.18939 6.67677,6.42449 9.32863,9.41263 2.65175,2.98718 6.40871,6.82236 8.35958,8.52371 1.94402,1.70206 4.2548,4.74855 5.14248,6.77248 1.02461,2.34099 4.58281,6.18603 9.80671,10.58224 7.39687,6.23561 8.45896,7.57078 10.99266,13.79653 3.19867,7.87829 5.85047,11.92769 10.9238,16.68183 1.9632,1.83853 3.60279,3.74148 3.65795,4.23222 0.0496,0.48734 3.22303,4.27267 7.05499,8.4096 3.83156,4.13302 8.50228,9.45533 10.38437,11.82454 1.88209,2.36921 6.04283,7.16416 9.2535,10.65479 5.30986,5.76994 5.64564,6.37185 3.65759,6.58916 -1.96262,0.21464 -1.81312,0.47202 1.51515,2.55882 2.03117,1.27659 6.11713,4.1794 9.07384,6.44934 2.96268,2.2703 5.73855,4.09625 6.17934,4.0552 0.43493,-0.0407 2.96887,1.59019 5.65166,3.62365 2.67693,2.03408 5.63942,4.00868 6.577,4.38758 0.94387,0.38221 3.16723,1.7851 4.9375,3.12055 1.77614,1.33485 6.12333,4.04919 9.67629,6.0334 3.55265,1.98127 9.471,5.41192 13.16041,7.62322 3.68873,2.21434 11.45213,6.84407 17.25318,10.28796 15.21606,9.03968 16.30865,9.72878 21.83642,13.86186 2.7577,2.05927 6.40327,4.57087 8.11117,5.58348 15.35904,9.10191 50.23082,37.37006 62.41691,50.60392 1.22994,1.33248 4.47821,4.80435 7.22936,7.71093 7.68871,8.14171 9.27216,9.94272 18.65062,21.169 4.80075,5.76273 9.70116,11.35285 10.88106,12.4334 1.18588,1.08092 2.7326,2.75719 3.43502,3.72635 0.70834,0.96855 3.38478,4.1737 5.94332,7.13004 4.97463,5.71392 22.50086,32.1838 22.7244,34.30672 0.068,0.70798 1.48465,3.36609 3.13663,5.93733 2.47122,3.82593 10.2788,18.3583 10.37763,19.31527 0.0127,0.14901 -0.6207,0.33477 -1.42169,0.42228 -1.11186,0.11206 -1.18607,0.6331 -0.32307,2.26101 0.6207,1.15471 2.72643,5.94948 4.68869,10.6326 1.95667,4.69557 5.90663,12.04843 8.78213,16.34647 2.87557,4.29803 6.3167,9.91184 7.64497,12.47136 2.93121,5.62743 6.66387,16.91761 5.39073,16.30861 -0.49668,-0.23594 -0.76391,0.94415 -0.58953,2.63307 0.22322,2.11108 -0.0808,2.93103 -0.95662,2.63276 -0.70744,-0.24866 -1.9938,-0.61498 -2.86304,-0.83178 -0.86999,-0.22385 -3.28576,-2.66487 -5.36586,-5.4535 -2.08113,-2.76981 -3.91919,-4.86867 -4.08644,-4.67019 -0.17362,0.21114 1.91233,4.58345 4.63266,9.72552 10.93099,20.65605 14.6445,30.5873 11.57687,30.90344 -1.04966,0.11129 -0.18697,2.2854 3.34694,8.44634 2.62087,4.55903 4.84406,8.99334 4.93081,9.86257 0.28555,2.74545 -1.69548,1.91266 -3.55293,-1.4907 -0.98116,-1.80149 -2.24775,-3.22909 -2.81293,-3.16715 -1.49667,0.14945 -1.36636,0.4598 3.75708,8.8318 5.79425,9.48372 12.23528,21.70584 12.43351,23.62466 0.23594,2.27293 -1.37922,1.86286 -4.739,-1.17996 -5.01145,-4.55884 -11.22881,-9.65156 -11.1785,-9.1791 0.0254,0.24739 2.62061,6.11083 5.75704,13.04219 5.07409,11.17888 12.48979,29.14061 12.64465,30.60606 0.1857,1.75201 -2.21728,0.28555 -3.81902,-2.33525 -2.13683,-3.50275 -5.94414,-5.94313 -5.70769,-3.67714 0.0687,0.73263 1.16699,2.39733 2.42766,3.70188 1.255,1.29825 2.08112,2.7698 1.83258,3.29816 -0.49096,1.01849 6.86871,14.52055 8.14217,14.92375 0.43436,0.13673 0.86389,0.98097 0.96278,1.90038 0.0935,0.90707 9.64468,16.45133 21.22104,34.54363 24.11512,37.69253 29.23347,45.39918 37.7354,56.87022 9.67597,13.05466 20.58807,28.66759 26.90387,38.50529 3.19813,4.98143 8.11704,11.92461 10.91782,15.43926 7.91792,9.91187 15.29648,21.09067 18.96103,28.74227 2.78844,5.8135 3.70753,9.3899 5.54031,21.4579 2.73896,18.0046 2.48369,19.1973 -3.93782,18.6132 -5.21107,-0.4719 -5.96246,-0.6587 -16.11623,-4.1113 -4.13033,-1.4038 -8.02407,-3.0616 -8.67014,-3.6895 -1.57108,-1.5402 -4.87535,-1.0936 -4.69518,0.6334 0.0801,0.7582 -0.48524,2.82 -1.25495,4.5708 -1.49076,3.3907 -5.1918,4.6887 -7.66404,2.6827 -1.00012,-0.8075 -1.75163,-0.5215 -3.28526,1.2171 -1.72021,1.9311 -7.22904,5.9992 -8.28449,6.1113 -0.19269,0.019 -3.66428,-1.7333 -7.70742,-3.8938 l 0,0 z M 479.58637,873.18356 c -0.20541,-1.94973 -0.79524,-2.88218 -1.76992,-2.78246 -1.48449,0.16153 -1.68932,4.1611 -0.27346,5.30411 1.54651,1.26678 2.33427,0.28555 2.04335,-2.52165 z M 302.33687,546.9994 c -0.14868,-1.61444 0.0127,-2.18021 0.36072,-1.25416 0.35372,0.92543 0.47195,2.24831 0.27321,2.9406 -0.19937,0.68643 -0.48479,-0.0681 -0.63386,-1.68644 z"
       inkscape:connector-curvature="0" />
    <path
       id="path3019_11_"
       style="fill:#ffffff;stroke:#b75c25;stroke-width:0.90461409;display:none"
       d="m 878.11866,1068.2406 c -4.04885,-2.1678 -11.48389,-7.5083 -16.52033,-11.8806 -8.59535,-7.4655 -9.89379,-9.1232 -21.17188,-26.9727 -6.61439,-10.4524 -14.02984,-22.3642 -16.48243,-26.4572 -13.91193,-23.1964 -39.21922,-63.72666 -59.72697,-95.64275 -18.02927,-28.07798 -33.65525,-52.89565 -40.01468,-63.57746 -11.46475,-19.24041 -13.51445,-21.69993 -28.12113,-33.68622 -7.64544,-6.2671 -14.07298,-11.20331 -14.28417,-10.94294 -0.19899,0.25438 0.72021,2.04932 2.06204,3.99918 1.34781,1.95018 3.78226,5.85015 5.42157,8.67001 1.63931,2.81986 6.53355,9.20377 10.84951,14.19716 10.70126,12.32164 14.48912,18.19698 16.44515,25.42653 1.37921,5.12376 1.44688,6.7199 0.41655,9.65118 -1.31065,3.71408 -1.81968,3.8503 -10.65796,2.68261 -1.50335,-0.19905 -2.39064,0.23531 -2.68899,1.32891 -0.63367,2.37258 -4.75719,2.44674 -11.21028,0.22322 -5.91236,-2.03673 -29.8421,-13.31539 -36.9712,-17.43961 -2.31653,-1.32891 -6.77599,-3.56469 -9.91207,-4.9565 -26.80501,-11.88658 -46.08855,-21.57597 -63.10531,-31.67397 -5.19838,-3.08048 -10.01816,-5.88793 -10.70683,-6.22258 -1.44662,-0.70757 -5.8687,4.53391 -12.21053,14.45797 -2.33489,3.65189 -5.99285,9.15481 -8.11702,12.21003 -7.66971,11.01805 -11.12359,16.65693 -10.99237,17.92403 0.0749,0.70827 -0.99394,2.68318 -2.37218,4.3847 -3.86901,4.76934 -3.93132,6.96856 -0.28605,9.43959 l 27.68653,5.29165 c 8.7198,2.45889 10.63872,6.54622 11.17246,8.91269 -4.17333,-3.48418 -8.40266,-5.35327 -12.77493,-3.5589 -13.94937,-1.51569 -26.35187,-4.23519 -44.46129,-4.59579 -12.01123,-0.24929 -23.01652,9.62644 -28.60637,10.75661 -12.19118,2.43414 -48.5106,7.72592 -62.71492,13.26503 -5.60822,2.18637 -10.38996,3.99975 -10.61391,4.02411 -0.22983,0.0254 -0.27969,-0.86987 -0.10518,-1.97504 0.26697,-1.76365 -0.17381,-1.95006 -3.65816,-1.58946 -5.03023,0.52212 -8.70069,2.35967 -9.30357,4.65785 -0.70187,2.65756 -2.24809,4.28467 -5.0311,5.29114 -2.45351,0.89391 -2.47193,0.86911 -1.69533,-2.48464 2.65214,-11.42723 11.2532,-16.65662 29.58725,-18.01077 19.53887,-1.42837 37.66725,-3.86277 43.64827,-5.85073 1.37231,-0.4598 2.07404,-1.44083 1.94379,-2.70805 -0.12408,-1.17984 -0.6144,-1.6895 -1.19187,-1.24248 -0.68896,0.53484 -0.74507,0.18634 -0.17985,-1.15523 0.44072,-1.05582 0.92556,-3.13001 1.07495,-4.60837 0.15562,-1.46615 1.02491,-2.99297 1.93807,-3.379 3.32905,-1.40369 12.92451,-0.33451 17.00443,1.91292 4.18605,2.29798 7.12403,2.75797 5.68865,0.90688 -0.47233,-0.62134 -0.35976,-0.83184 0.27963,-0.53357 1.53361,0.74496 7.48995,-2.68345 8.81866,-5.06818 0.60296,-1.09347 2.83816,-3.7766 4.96205,-5.9624 2.12388,-2.18587 6.20461,-7.22949 9.07354,-11.20406 2.86271,-3.98685 8.31609,-11.43957 12.12305,-16.59506 3.80046,-5.14201 7.71985,-10.67024 8.70101,-12.27197 0.98081,-1.61458 3.45323,-5.26596 5.49025,-8.12321 2.04298,-2.85687 3.66389,-5.62617 3.60878,-6.17329 -0.0496,-0.53357 0.9132,-1.94973 2.14244,-3.15507 1.23554,-1.19211 2.21088,-2.50843 2.16811,-2.91837 -0.1796,-1.70221 -9.49617,-5.93747 -14.06668,-6.38436 -15.76907,-1.55232 -51.15099,-13.71306 -67.27335,-23.11608 -15.76202,-9.19144 -19.18401,-11.26646 -24.43823,-14.76838 -11.26626,-7.52713 -34.59942,-25.72404 -44.23808,-34.50598 -3.68927,-3.36653 -7.21697,-6.559 -7.84434,-7.09289 -2.52763,-2.18612 -10.53299,-11.3531 -10.61354,-12.17252 -0.15562,-1.45349 -3.96245,-3.79495 -4.75124,-2.91845 -0.40371,0.45357 -0.45961,0.21114 -0.12433,-0.5468 0.39156,-0.86374 -1.03111,-2.94362 -3.89428,-5.70103 -2.48404,-2.38454 -4.55897,-4.78209 -4.61433,-5.34106 -0.056,-0.54705 -0.88841,-1.32955 -1.83807,-1.73883 -0.95661,-0.40956 -1.88791,-1.35384 -2.08078,-2.09331 -0.18589,-0.7392 -3.66369,-5.43431 -7.72544,-10.42751 -7.46472,-9.17984 -16.4025,-22.06029 -19.50095,-28.09655 -0.92505,-1.81333 -2.80061,-4.50862 -4.16083,-5.99961 -1.36609,-1.49038 -4.99923,-6.66973 -8.07987,-11.52101 -3.08055,-4.85029 -5.91876,-8.99893 -6.31032,-9.235 -0.38502,-0.22984 -0.81987,-1.29814 -0.96259,-2.37218 -0.82588,-6.30404 -7.19208,-21.92343 -9.43387,-23.17111 -0.47195,-0.26724 -1.13028,-3.17362 -1.45988,-6.46538 -0.32949,-3.32837 -1.19193,-6.57048 -1.94398,-7.30402 -0.7395,-0.72693 -1.16127,-1.54636 -0.93822,-1.82579 0.22367,-0.27359 -0.34742,-3.29189 -1.27322,-6.69552 -2.16124,-7.95488 -4.40935,-26.18379 -3.16129,-25.57816 0.54674,0.26341 0.46585,-1.81999 -0.19237,-4.96273 -0.62719,-2.97785 -0.75754,-5.59214 -0.29166,-5.80987 0.86287,-0.40358 0.27913,-11.49611 -1.28588,-24.40105 -0.49045,-4.02764 -1.80095,-17.35575 -2.91296,-29.61563 -1.11201,-12.25989 -2.3663,-22.25287 -2.78896,-22.20877 -2.50273,0.26113 -4.61387,-9.88675 -5.58902,-26.86381 -0.19919,-3.37856 -0.5711,-6.11799 -0.84472,-6.08647 -0.6955,0.0834 -4.10504,8.02416 -3.97513,9.25977 0.056,0.56486 -0.73896,2.06508 -1.76364,3.33511 -1.69508,2.0867 -1.9751,2.16141 -2.94977,0.78251 -0.59023,-0.84141 -1.52753,-1.17979 -2.07464,-0.75478 -0.69591,0.53446 -0.93759,-0.37891 -0.78849,-2.95014 0.16739,-3.00241 -0.056,-3.58933 -1.1549,-3.0306 -1.76382,0.89714 -2.00617,-1.42557 -0.80144,-7.74763 0.51525,-2.69252 0.52168,-5.32306 0.0184,-5.84419 -0.50349,-0.52212 -1.16803,-4.90049 -1.46538,-9.7316 -0.34119,-5.44074 -0.96265,-8.97998 -1.63368,-9.30657 -0.75105,-0.36377 -0.8506,-1.41262 -0.32249,-3.41317 0.87602,-3.29194 0.11803,-5.44711 -1.83795,-5.24501 -0.73271,0.0775 -1.39728,-0.50006 -1.48424,-1.28618 -0.0807,-0.78281 0.24198,-1.23583 0.72022,-1.00286 0.47799,0.23002 0.81966,-0.0496 0.76437,-0.61778 -0.0617,-0.57116 -0.50356,-0.99684 -0.98104,-0.94702 -0.47843,0.0496 -2.70115,-1.22349 -4.93715,-2.83279 -3.60852,-2.5926 -5.06772,-2.94675 -13.04828,-3.16444 -4.94327,-0.13305 -10.78137,-0.50998 -12.98034,-0.83542 -2.1984,-0.32943 -5.50223,-0.43774 -7.3468,-0.24822 -1.83799,0.19575 -5.44643,-0.30113 -8.01116,-1.09871 -2.5654,-0.79457 -6.93141,-1.68908 -9.7006,-1.98171 -2.77048,-0.29546 -5.90671,-1.01563 -6.9685,-1.59916 -1.8691,-1.0314 -1.8758,-1.13356 -0.21737,-3.18281 2.94383,-3.62638 26.35729,-7.70415 45.38756,-7.90251 13.75657,-0.14265 34.57435,0.54362 35.23284,1.16727 0.95667,0.90307 10.86231,-0.15517 10.76261,-1.14865 -0.47793,-4.57095 -10.52673,-13.52074 -21.81146,-19.42388 -3.73902,-1.95689 -6.98113,-3.90034 -7.20415,-4.32214 -0.22965,-0.41917 -0.92543,-0.71743 -1.55289,-0.65493 -0.62744,0.0623 -4.60176,-1.75115 -8.83138,-4.0307 -4.22962,-2.27956 -8.17279,-3.7948 -8.7568,-3.37286 -0.5896,0.42546 -0.80154,0.39417 -0.4654,-0.0623 0.9254,-1.27351 -1.25479,-2.53752 -9.68855,-5.62957 -12.34621,-4.52147 -16.68776,-5.80723 -20.63739,-6.11417 -5.98713,-0.4593 -10.41488,-4.54299 -6.59575,-6.06502 6.65156,-2.64242 14.63802,-4.24517 14.77519,-2.95889 0.0623,0.54044 0.73231,0.64856 1.51548,0.2395 0.76983,-0.41363 2.10534,-1.12167 2.95616,-1.57441 0.95631,-0.5033 1.35969,-0.40988 1.043,0.2423 -0.31677,0.6611 0.38527,0.80148 1.84459,0.3604 1.29831,-0.39162 2.09344,-1.04625 1.77638,-1.45923 -0.58998,-0.7633 5.31613,1.9e-4 6.32844,0.82031 0.3045,0.24517 -0.4598,0.97767 -1.6956,1.62685 -2.13011,1.12129 -2.13654,1.1734 -0.14328,1.02477 1.15535,-0.084 2.3038,-0.90699 2.55271,-1.82013 0.35983,-1.34802 1.34147,-1.64628 5.1357,-1.55851 12.12947,0.2734 30.25808,3.48143 30.45663,5.3844 0.0432,0.41287 1.34171,1.12401 2.88747,1.57792 3.13033,0.91958 14.39616,-1.9847 18.51338,-4.77315 1.24245,-0.84175 2.92572,-1.66718 3.74523,-1.84169 0.82646,-0.17425 3.31684,-1.05621 5.54557,-1.96228 2.23557,-0.90679 4.51528,-1.42851 5.07359,-1.15839 0.55926,0.27003 0.96236,-0.028 0.90023,-0.66165 -0.0681,-0.65258 0.71427,-1.02202 1.80688,-0.85414 1.06223,0.16115 3.93762,-0.30107 6.39078,-1.02779 2.45316,-0.72674 12.24081,-2.2049 21.74288,-3.28236 13.35223,-1.50587 18.99183,-1.74219 24.79917,-1.02478 10.14758,1.26055 21.87384,4.05852 26.60614,6.34992 2.13643,1.03416 4.13012,1.85673 4.43451,1.82596 0.65258,-0.0681 5.86255,2.79162 10.90549,5.98426 1.99421,1.26363 4.03062,1.98382 4.52723,1.60563 0.49032,-0.38151 0.65177,-0.18964 0.35366,0.43188 -0.29821,0.62057 0.27359,1.2948 1.27344,1.50301 0.99959,0.20529 2.813,1.71723 4.02391,3.36028 1.21092,1.64306 4.23594,4.77623 6.71335,6.96464 2.47752,2.18939 6.67677,6.42449 9.32863,9.41263 2.65175,2.98718 6.40871,6.82236 8.35958,8.52371 1.94402,1.70206 4.2548,4.74855 5.14248,6.77248 1.02461,2.34099 4.58281,6.18603 9.80671,10.58224 7.39687,6.23561 8.45896,7.57078 10.99266,13.79653 3.19867,7.87829 5.85047,11.92769 10.9238,16.68183 1.9632,1.83853 3.60279,3.74148 3.65795,4.23222 0.0496,0.48734 3.22303,4.27267 7.05499,8.4096 3.83156,4.13302 8.50228,9.45533 10.38437,11.82454 1.88209,2.36921 6.04283,7.16416 9.2535,10.65479 5.30986,5.76994 5.64564,6.37185 3.65759,6.58916 -1.96262,0.21464 -1.81312,0.47202 1.51515,2.55882 2.03117,1.27659 6.11713,4.1794 9.07384,6.44934 2.96268,2.2703 5.73855,4.09625 6.17934,4.0552 0.43493,-0.0407 2.96887,1.59019 5.65166,3.62365 2.67693,2.03408 5.63942,4.00868 6.577,4.38758 0.94387,0.38221 3.16723,1.7851 4.9375,3.12055 1.77614,1.33485 6.12333,4.04919 9.67629,6.0334 3.55265,1.98127 9.471,5.41192 13.16041,7.62322 3.68873,2.21434 11.45213,6.84407 17.25318,10.28796 15.21606,9.03968 16.30865,9.72878 21.83642,13.86186 2.7577,2.05927 6.40327,4.57087 8.11117,5.58348 15.35904,9.10191 50.23082,37.37006 62.41691,50.60392 1.22994,1.33248 4.47821,4.80435 7.22936,7.71093 7.68871,8.14171 9.27216,9.94272 18.65062,21.169 4.80075,5.76273 9.70116,11.35285 10.88106,12.4334 1.18588,1.08092 2.7326,2.75719 3.43502,3.72635 0.70834,0.96855 3.38478,4.1737 5.94332,7.13004 4.97463,5.71392 22.50086,32.1838 22.7244,34.30672 0.068,0.70798 1.48465,3.36609 3.13663,5.93733 2.47122,3.82593 10.2788,18.3583 10.37763,19.31527 0.0127,0.14901 -0.6207,0.33477 -1.42169,0.42228 -1.11186,0.11206 -1.18607,0.6331 -0.32307,2.26101 0.6207,1.15471 2.72643,5.94948 4.68869,10.6326 1.95667,4.69557 5.90663,12.04843 8.78213,16.34647 2.87557,4.29803 6.3167,9.91184 7.64497,12.47136 2.93121,5.62743 6.66387,16.91761 5.39073,16.30861 -0.49668,-0.23594 -0.76391,0.94415 -0.58953,2.63307 0.22322,2.11108 -0.0808,2.93103 -0.95662,2.63276 -0.70744,-0.24866 -1.9938,-0.61498 -2.86304,-0.83178 -0.86999,-0.22385 -3.28576,-2.66487 -5.36586,-5.4535 -2.08113,-2.76981 -3.91919,-4.86867 -4.08644,-4.67019 -0.17362,0.21114 1.91233,4.58345 4.63266,9.72552 10.93099,20.65605 14.6445,30.5873 11.57687,30.90344 -1.04966,0.11129 -0.18697,2.2854 3.34694,8.44634 2.62087,4.55903 4.84406,8.99334 4.93081,9.86257 0.28555,2.74545 -1.69548,1.91266 -3.55293,-1.4907 -0.98116,-1.80149 -2.24775,-3.22909 -2.81293,-3.16715 -1.49667,0.14945 -1.36636,0.4598 3.75708,8.8318 5.79425,9.48372 12.23528,21.70584 12.43351,23.62466 0.23594,2.27293 -1.37922,1.86286 -4.739,-1.17996 -5.01145,-4.55884 -11.22881,-9.65156 -11.1785,-9.1791 0.0254,0.24739 2.62061,6.11083 5.75704,13.04219 5.07409,11.17888 12.48979,29.14061 12.64465,30.60606 0.1857,1.75201 -2.21728,0.28555 -3.81902,-2.33525 -2.13683,-3.50275 -5.94414,-5.94313 -5.70769,-3.67714 0.0687,0.73263 1.16699,2.39733 2.42766,3.70188 1.255,1.29825 2.08112,2.7698 1.83258,3.29816 -0.49096,1.01849 6.86871,14.52055 8.14217,14.92375 0.43436,0.13673 0.86389,0.98097 0.96278,1.90038 0.0935,0.90707 9.64468,16.45133 21.22104,34.54363 24.11512,37.69253 29.23347,45.39918 37.7354,56.87022 9.67597,13.05466 20.58807,28.66759 26.90387,38.50529 3.19813,4.98143 8.11704,11.92461 10.91782,15.43926 7.91792,9.91187 15.29648,21.09067 18.96103,28.74227 2.78844,5.8135 3.70753,9.3899 5.54031,21.4579 2.73896,18.0046 2.48369,19.1973 -3.93782,18.6132 -5.21107,-0.4719 -5.96246,-0.6587 -16.11623,-4.1113 -4.13033,-1.4038 -8.02407,-3.0616 -8.67014,-3.6895 -1.57108,-1.5402 -4.87535,-1.0936 -4.69518,0.6334 0.0801,0.7582 -0.48524,2.82 -1.25495,4.5708 -1.49076,3.3907 -5.1918,4.6887 -7.66404,2.6827 -1.00012,-0.8075 -1.75163,-0.5215 -3.28526,1.2171 -1.72021,1.9311 -7.22904,5.9992 -8.28449,6.1113 -0.19269,0.019 -3.66428,-1.7333 -7.70742,-3.8938 l 0,0 z M 479.58637,873.18356 c -0.20541,-1.94973 -0.79524,-2.88218 -1.76992,-2.78246 -1.48449,0.16153 -1.68932,4.1611 -0.27346,5.30411 1.54651,1.26678 2.33427,0.28555 2.04335,-2.52165 z M 302.33687,546.9994 c -0.14868,-1.61444 0.0127,-2.18021 0.36072,-1.25416 0.35372,0.92543 0.47195,2.24831 0.27321,2.9406 -0.19937,0.68643 -0.48479,-0.0681 -0.63386,-1.68644 z"
       inkscape:connector-curvature="0" />
    <path
       id="path3980"
       style="fill:#ffffff;stroke:#b75c25;stroke-width:0.90461409;display:none"
       d="M 137.81912,197.24999"
       inkscape:connector-curvature="0" />
    <path
       id="path3982"
       style="fill:#ffffff;stroke:#b75c25;stroke-width:0.90461409;display:none"
       d="M 137.81912,197.24999"
       inkscape:connector-curvature="0" />
    <path
       style="fill:url(#linearGradient3051);fill-opacity:1;stroke:#b75c25;stroke-width:10;stroke-linecap:round;stroke-linejoin:round;stroke-miterlimit:4;stroke-dasharray:none"
       d="m 988.80726,1085.0797 c -44.97309,-27.0224 -61.43554,-80.7621 -91.06124,-121.46071 -36.28937,-56.02879 -70.2351,-113.87758 -108.07018,-168.72644 -16.63824,-17.18966 -43.72042,-36.30888 -17.21638,-3.33984 24.69057,18.04803 42.3989,66.1901 -1.48289,55.41409 -47.67897,-22.50719 -96.22026,-43.65587 -141.58524,-70.73148 -9.25077,16.21261 -66.73415,67.70433 -24.8891,71.37643 19.82919,0.25877 45.07646,17.73421 9.17182,13.09571 -42.93212,-15.45601 -79.4083,11.08218 -121.00442,15.41205 -24.76366,7.0629 -53.89728,11.88824 -67.50889,13.20707 10.18165,-37.49218 76.81492,-10.5705 86.58446,-33.9821 9.61715,-22.07729 42.90271,10.4409 51.64922,-25.41349 19.04212,-28.11257 74.66746,-79.14429 6.61305,-77.48256 -72.87867,-20.58622 -135.58613,-71.25317 -181.57376,-128.40651 -25.59783,-34.15696 -53.25534,-68.57199 -64.7798,-109.88987 -13.59435,-43.52644 -7.51336,-89.91902 -15.07002,-134.71751 -8.42115,-18.32627 -3.71196,-71.83331 -20.02446,-38.86998 -11.60864,-12.10572 -4.54273,-45.08424 -11.80031,-59.74572 -12.47996,-17.33461 -84.89508,-1.56721 -68.66495,-21.84701 28.93183,-14.1232 81.66829,3.53358 98.19035,-10.89168 -25.33478,-24.06757 -57.94316,-36.34869 -90.23615,-46.31155 -28.47792,-14.48951 26.70656,-8.70063 30.07077,-12.77109 36.51999,9.75539 67.43445,3.65152 102.5388,-8.28941 45.32904,-10.80819 96.72035,2.18371 124.92035,40.6352 30.43851,28.51802 48.6324,65.00676 77.79107,94.81834 18.52379,32.74127 56.50429,48.31122 90.93696,70.13524 77.49166,42.93308 143.87207,104.70272 193.18103,178.14416 21.80962,32.07889 25.00775,64.22955 48.23304,96.98486 15.35815,28.12911 -10.59741,7.0462 -11.13963,10.12249 11.08801,14.76684 24.81303,61.8492 23.11017,63.85946 -13.28232,-10.77338 37.24309,60.10136 1.35572,25.37892 -4.92384,3.35157 27.33289,60.27163 8.92638,45.32281 41.8039,80.64059 99.77487,151.62321 148.60727,227.84232 13.5513,24.5717 12.3968,64.4059 -23.6411,39.6816 -12.5008,-7.5757 -24.7895,25.3377 -42.13194,11.4462 z"
       id="path3988"
       inkscape:connector-curvature="0"
       sodipodi:nodetypes="ccccccccccccccccccccccccccccccccccc" />
  </g>
  <g
     inkscape:label="BORDER"
     inkscape:groupmode="layer"
     id="layer1"
     transform="translate(50.25,211.52169)"
     style="display:inline"
     sodipodi:insensitive="true">
    <path
       inkscape:connector-curvature="0"
       d="m 301.95446,-211.52169 319.59108,0 c 101.4156,0 152.12339,0 206.7084,17.25959 59.59748,21.69173 106.54481,68.63899 128.23654,128.236542 C 973.75,-11.44076 973.75,39.267072 973.75,140.68273 l 0,319.59116 c 0,101.41566 0,152.12349 -17.25952,206.70829 -21.69173,59.59758 -68.63906,106.54477 -128.23654,128.23654 -54.58501,17.25959 -105.2928,17.25959 -206.7084,17.25959 l -319.59108,0 c -101.4156,0 -152.12339,0 -206.708396,-17.25959 C 35.648581,773.52695 -11.298747,726.57976 -32.99048,666.98218 -50.25,612.39738 -50.25,561.68955 -50.25,460.27389 l 0,-319.59116 c 0,-101.415658 0,-152.12349 17.25952,-206.708254 21.691733,-59.597546 68.639061,-106.544846 128.236544,-128.236576 54.585006,-17.25959 105.292796,-17.25959 206.708396,-17.25959 l 0,0"
       id="path5"
       style="fill:none;stroke:#000000;stroke-opacity:1" />
  </g>
  <g
     inkscape:groupmode="layer"
     id="layer6"
     inkscape:label="MASK"
     style="display:inline"
     sodipodi:insensitive="true">
    <path
       style="color:#000000;fill:#ffffff;fill-opacity:1;fill-rule:nonzero;stroke:none;stroke-width:2;marker:none;visibility:visible;display:inline;overflow:visible;enable-background:accumulate"
       d="m -0.03515625,708.40625 c 0.05564213,38.75762 0.61632351,71.02215 3.48917125,100.18549 0.8757813,8.89038 2.0231286,17.50673 3.364698,25.91301 2.7291509,17.10087 6.251639,30.63186 10.624705,44.6288 0.983104,3.14664 2.343873,6.00913 3.546782,8.89844 4.954414,11.90016 10.441772,22.62502 16.75229,32.23106 7.482354,11.38984 16.590926,23.44234 26.690428,33.79613 11.282296,11.56636 22.163363,20.60638 34.238258,28.7856 7.753914,5.2523 15.167714,9.80978 23.655414,13.91931 3.34329,1.61873 6.78353,3.25751 10.45545,4.87471 6.01057,2.6472 12.64725,5.2405 20.38236,7.4312 16.33865,4.6274 37.83594,9.5058 66.67436,11.7859 26.04947,2.0596 58.07248,3.2184 99.20801,3.1754 l -319.08192625,0 z"
       id="path4146"
       inkscape:connector-curvature="0"
       sodipodi:nodetypes="csssssssssssccc" />
    <path
       style="color:#000000;fill:#ffffff;fill-opacity:1;fill-rule:nonzero;stroke:none;stroke-width:2;marker:none;visibility:visible;display:inline;overflow:visible;enable-background:accumulate"
       d="m 1024,708.375 c -0.028,33.52476 -0.3641,57.51886 -2.1872,86.13032 -2.1429,33.63123 -7.6767,62.03085 -16.1313,85.82727 -5.1582,14.5187 -11.40374,27.32387 -18.62968,38.55822 -10.39312,16.15845 -22.65083,31.16786 -36.89519,44.46448 -6.86448,6.40775 -13.96935,11.81612 -21.91877,17.50161 -10.37402,7.41958 -20.2254,13.06198 -32.1818,18.6383 -10.69022,4.9858 -23.165,9.4996 -39.90567,13.451 -11.58454,2.7344 -25.21186,5.3376 -41.70422,7.0737 -27.23282,2.8667 -62.17789,3.4121 -108.25867,3.9801 L 1024,1024 z"
       id="path4146-5"
       inkscape:connector-curvature="0"
       sodipodi:nodetypes="cssssssssccc" />
    <path
       style="color:#000000;fill:#ffffff;fill-opacity:1;fill-rule:nonzero;stroke:none;stroke-width:2;marker:none;visibility:visible;display:inline;overflow:visible;enable-background:accumulate"
       d="m 1023.9571,318.26274 c 0.1837,-39.14081 -0.2997,-73.55855 -3.476,-103.94061 -1.4113,-13.49969 -3.8539,-26.31006 -5.9548,-38.18792 -3.6187,-20.45841 -10.1174,-38.44655 -17.2973,-52.70888 -2.12747,-4.22606 -3.90726,-7.55456 -5.77779,-10.81658 -1.49793,-2.61224 -3.05404,-5.18185 -4.89348,-8.13563 -1.96035,-3.14791 -3.87346,-6.195884 -5.993,-9.197124 C 974.88453,87.232938 968.40279,79.35023 961.65509,72.082687 951.58996,61.242143 940.4011,51.100793 927.77306,42.698049 909.73264,30.693887 894.47219,21.390417 866.08729,13.614807 853.18652,10.080839 837.40303,6.7460486 817.42751,4.3881848 790.09127,1.1614792 754.65731,0.08073128 706.1875,0 L 1024,0 z"
       id="path4146-5-3"
       inkscape:connector-curvature="0"
       sodipodi:nodetypes="cssssssssssccc" />
    <path
       style="color:#000000;fill:#ffffff;fill-opacity:1;fill-rule:nonzero;stroke:none;stroke-width:2;marker:none;visibility:visible;display:inline;overflow:visible;enable-background:accumulate"
       d="M 0,318.48 C 0.04438432,264.21497 1.9515494,215.42652 8.7981727,178.4577 14.754939,146.29372 24.640519,123.97857 37.889606,103.37989 53.29125,79.434582 73.01483,58.195063 97.250401,42.030991 111.80438,32.324119 124.48551,25.310001 143.39137,18.055461 153.25339,14.271217 164.74156,11.469151 178.08885,8.8727346 208.3231,2.9913388 250.69975,-0.29260813 319.08193,0 L 0,0 z"
       id="path4146-5-3-7"
       inkscape:connector-curvature="0"
       sodipodi:nodetypes="csssssccc" />
  </g>
  <g
     inkscape:groupmode="layer"
     id="layer2"
     inkscape:label="GUIDES"
     style="display:none"
     transform="translate(0,-2.2054443)"
     sodipodi:insensitive="true">
    <path
       style="color:#000000;fill:none;stroke:#000000;stroke-width:2;stroke-linecap:butt;stroke-linejoin:miter;stroke-miterlimit:4;stroke-opacity:1;stroke-dasharray:none;stroke-dashoffset:0;marker:none;visibility:visible;display:inline;overflow:visible;enable-background:accumulate"
       d="m 0.99801512,321.03518 0,386.27669"
       id="path4024"
       inkscape:connector-curvature="0" />
    <path
       sodipodi:type="arc"
       style="color:#000000;fill:none;stroke:#000000;stroke-width:1.00571477;stroke-linecap:butt;stroke-linejoin:miter;stroke-miterlimit:4;stroke-opacity:1;stroke-dasharray:none;stroke-dashoffset:0;marker:none;visibility:visible;display:inline;overflow:visible;enable-background:accumulate"
       id="path3129"
       sodipodi:cx="462.32144"
       sodipodi:cy="298.86218"
       sodipodi:rx="138"
       sodipodi:ry="138"
       d="m 600.32144,298.86218 c 0,76.2153 -61.7847,138 -138,138 -76.21529,0 -138,-61.7847 -138,-138 0,-76.21529 61.78471,-138 138,-138 76.2153,0 138,61.78471 138,138 z"
       transform="matrix(1.988799,0,0,1.988471,-407.91018,-80.585593)" />
    <path
       sodipodi:type="arc"
       style="color:#000000;fill:none;stroke:#000000;stroke-width:0.62086099;stroke-linecap:butt;stroke-linejoin:miter;stroke-miterlimit:4;stroke-opacity:1;stroke-dasharray:none;stroke-dashoffset:0;marker:none;visibility:visible;display:inline;overflow:visible;enable-background:accumulate"
       id="path3129-9"
       sodipodi:cx="462.32144"
       sodipodi:cy="298.86218"
       sodipodi:rx="138"
       sodipodi:ry="138"
       d="m 600.32144,298.86218 c 0,76.2153 -61.7847,138 -138,138 -76.21529,0 -138,-61.7847 -138,-138 0,-76.21529 61.78471,-138 138,-138 76.2153,0 138,61.78471 138,138 z"
       transform="matrix(3.2215081,0,0,3.2211587,-977.38931,-448.55899)" />
    <path
       style="color:#000000;fill:none;stroke:#000000;stroke-width:2;stroke-linecap:butt;stroke-linejoin:miter;stroke-miterlimit:4;stroke-opacity:1;stroke-dasharray:none;stroke-dashoffset:0;marker:none;visibility:visible;display:inline;overflow:visible;enable-background:accumulate"
       d="M 67.351921,69.489974 956.5625,958.70544"
       id="path4011"
       inkscape:connector-curvature="0"
       sodipodi:nodetypes="cc" />
    <path
       style="color:#000000;fill:none;stroke:#000000;stroke-width:2;stroke-linecap:butt;stroke-linejoin:miter;stroke-miterlimit:4;stroke-opacity:1;stroke-dasharray:none;stroke-dashoffset:0;marker:none;visibility:visible;display:inline;overflow:visible;enable-background:accumulate"
       d="m 0.99801467,707.31189 1022.00298533,0"
       id="path4028"
       inkscape:connector-curvature="0" />
    <path
       style="color:#000000;fill:none;stroke:#000000;stroke-width:2;stroke-linecap:butt;stroke-linejoin:miter;stroke-miterlimit:4;stroke-opacity:1;stroke-dasharray:none;stroke-dashoffset:0;marker:none;visibility:visible;display:inline;overflow:visible;enable-background:accumulate"
       d="m 0.99801467,513.69318 1022.00298533,0"
       id="path4030"
       inkscape:connector-curvature="0" />
    <path
       style="color:#000000;fill:none;stroke:#000000;stroke-width:2;stroke-linecap:butt;stroke-linejoin:miter;stroke-miterlimit:4;stroke-opacity:1;stroke-dasharray:none;stroke-dashoffset:0;marker:none;visibility:visible;display:inline;overflow:visible;enable-background:accumulate"
       d="m 0.99801467,321.0352 1022.00298533,0"
       id="path4032"
       inkscape:connector-curvature="0" />
    <path
       style="color:#000000;fill:none;stroke:#000000;stroke-width:2;stroke-linecap:butt;stroke-linejoin:miter;stroke-miterlimit:4;stroke-opacity:1;stroke-dasharray:none;stroke-dashoffset:0;marker:none;visibility:visible;display:inline;overflow:visible;enable-background:accumulate"
       d="m 319.08193,1026.2054 0,-1023.9999557"
       id="path4034"
       inkscape:connector-curvature="0"
       sodipodi:nodetypes="cc" />
    <path
       style="color:#000000;fill:none;stroke:#000000;stroke-width:2;stroke-linecap:butt;stroke-linejoin:miter;stroke-miterlimit:4;stroke-opacity:1;stroke-dasharray:none;stroke-dashoffset:0;marker:none;visibility:visible;display:inline;overflow:visible;enable-background:accumulate"
       d="m 511.68014,2.2054443 0,1023.9999557"
       id="path4036"
       inkscape:connector-curvature="0"
       sodipodi:nodetypes="cc" />
    <path
       style="color:#000000;fill:none;stroke:#000000;stroke-width:2;stroke-linecap:butt;stroke-linejoin:miter;stroke-miterlimit:4;stroke-opacity:1;stroke-dasharray:none;stroke-dashoffset:0;marker:none;visibility:visible;display:inline;overflow:visible;enable-background:accumulate"
       d="m 706.1875,1026.2054 0,-1023.9999557"
       id="path4038"
       inkscape:connector-curvature="0"
       sodipodi:nodetypes="cc" />
    <path
       style="color:#000000;fill:none;stroke:#000000;stroke-width:2;stroke-linecap:butt;stroke-linejoin:miter;stroke-miterlimit:4;stroke-opacity:1;stroke-dasharray:none;stroke-dashoffset:0;marker:none;visibility:visible;display:inline;overflow:visible;enable-background:accumulate"
       d="M 67.351921,958.70544 956.5625,69.489974"
       id="path4001"
       inkscape:connector-curvature="0"
       sodipodi:nodetypes="cc" />
    <path
       style="color:#000000;fill:none;stroke:#000000;stroke-width:2;stroke-linecap:butt;stroke-linejoin:miter;stroke-miterlimit:4;stroke-opacity:1;stroke-dasharray:none;stroke-dashoffset:0;marker:none;visibility:visible;display:inline;overflow:visible;enable-background:accumulate"
       d="m 956.5625,69.489974 0,889.215466"
       id="path4003"
       inkscape:connector-curvature="0"
       sodipodi:nodetypes="cc" />
    <path
       style="color:#000000;fill:none;stroke:#000000;stroke-width:2;stroke-linecap:butt;stroke-linejoin:miter;stroke-miterlimit:4;stroke-opacity:1;stroke-dasharray:none;stroke-dashoffset:0;marker:none;visibility:visible;display:inline;overflow:visible;enable-background:accumulate"
       d="m 67.351921,69.489974 889.210579,0"
       id="path4009"
       inkscape:connector-curvature="0"
       sodipodi:nodetypes="cc" />
    <path
       style="color:#000000;fill:none;stroke:#000000;stroke-width:2;stroke-linecap:butt;stroke-linejoin:miter;stroke-miterlimit:4;stroke-opacity:1;stroke-dasharray:none;stroke-dashoffset:0;marker:none;visibility:visible;display:inline;overflow:visible;enable-background:accumulate"
       d="m 67.351921,958.70544 0,-889.215466"
       id="path4007"
       inkscape:connector-curvature="0"
       sodipodi:nodetypes="cc" />
    <path
       style="color:#000000;fill:none;stroke:#000000;stroke-width:2;stroke-linecap:butt;stroke-linejoin:miter;stroke-miterlimit:4;stroke-opacity:1;stroke-dasharray:none;stroke-dashoffset:0;marker:none;visibility:visible;display:inline;overflow:visible;enable-background:accumulate"
       d="m 956.5625,958.70544 -889.210579,-3e-5"
       id="path4005"
       inkscape:connector-curvature="0"
       sodipodi:nodetypes="cc" />
    <path
       sodipodi:type="arc"
       style="color:#000000;fill:none;stroke:#000000;stroke-width:1.42908275;stroke-linecap:butt;stroke-linejoin:miter;stroke-miterlimit:4;stroke-opacity:1;stroke-dasharray:none;stroke-dashoffset:0;marker:none;visibility:visible;display:inline;overflow:visible;enable-background:accumulate"
       id="path3129-7"
       sodipodi:cx="462.32144"
       sodipodi:cy="298.86218"
       sodipodi:rx="138"
       sodipodi:ry="138"
       d="m 600.32144,298.86218 c 0,76.2153 -61.7847,138 -138,138 -76.21529,0 -138,-61.7847 -138,-138 0,-76.21529 61.78471,-138 138,-138 76.2153,0 138,61.78471 138,138 z"
       transform="matrix(1.4025564,0,0,1.3964479,-135.79717,96.569794)" />
  </g>
</svg>
