<?xml version="1.0" encoding="UTF-8" standalone="no"?>
<!-- Generator: Adobe Illustrator 16.0.4, SVG Export Plug-In . SVG Version: 6.00 Build 0)  -->

<svg
   xmlns:dc="http://purl.org/dc/elements/1.1/"
   xmlns:cc="http://creativecommons.org/ns#"
   xmlns:rdf="http://www.w3.org/1999/02/22-rdf-syntax-ns#"
   xmlns:svg="http://www.w3.org/2000/svg"
   xmlns="http://www.w3.org/2000/svg"
   xmlns:xlink="http://www.w3.org/1999/xlink"
   xmlns:sodipodi="http://sodipodi.sourceforge.net/DTD/sodipodi-0.dtd"
   xmlns:inkscape="http://www.inkscape.org/namespaces/inkscape"
   version="1.1"
   id="Layer_1"
   x="0px"
   y="0px"
   width="145.44888"
   height="149.46539"
   viewBox="0 0 145.44888 149.46539"
   xml:space="preserve"
   inkscape:version="0.48.2 r9819"
   sodipodi:docname="vogel_Open_Nature_Guides_logo1.svg"><metadata
   id="metadata18"><rdf:RDF><cc:Work
       rdf:about=""><dc:format>image/svg+xml</dc:format><dc:type
         rdf:resource="http://purl.org/dc/dcmitype/StillImage" /><dc:title></dc:title></cc:Work></rdf:RDF></metadata><defs
   id="defs16"><linearGradient
   id="linearGradient3819"><stop
     style="stop-color:#fac97a;stop-opacity:1;"
     offset="0"
     id="stop3821" /><stop
     style="stop-color:#f7a525;stop-opacity:1;"
     offset="1"
     id="stop3823" /></linearGradient>
	
	

		
		
		
	
		
			
		
			
		
		
	<linearGradient
   inkscape:collect="always"
   xlink:href="#linearGradient3819"
   id="linearGradient3825"
   x1="68.507584"
   y1="0.4667235"
   x2="68.666122"
   y2="139.75705"
   gradientUnits="userSpaceOnUse" /></defs><sodipodi:namedview
   pagecolor="#ffffff"
   bordercolor="#666666"
   borderopacity="1"
   objecttolerance="10"
   gridtolerance="10"
   guidetolerance="10"
   inkscape:pageopacity="0"
   inkscape:pageshadow="2"
   inkscape:window-width="1472"
   inkscape:window-height="814"
   id="namedview14"
   showgrid="false"
   inkscape:zoom="3.9557662"
   inkscape:cx="66.057968"
   inkscape:cy="80.452212"
   inkscape:window-x="0"
   inkscape:window-y="22"
   inkscape:window-maximized="0"
   inkscape:current-layer="Layer_1"
   fit-margin-top="0"
   fit-margin-left="0"
   fit-margin-right="0"
   fit-margin-bottom="0" />
<path
   id="path3945"
   style="fill:url(#linearGradient3825);stroke:#b75c25;stroke-width:3.15799998999999998;stroke-linecap:round;stroke-linejoin:round;stroke-miterlimit:4;stroke-opacity:1;stroke-dasharray:none;fill-opacity:1.0"
   d="m 126.90606,32.708323 c 20.462,31.572 11.454,73.751997 -20.117,94.214997 -31.570999,20.461 -73.752999,11.453 -94.213999,-20.118 -0.012,-0.017 -0.021,-0.031 -0.032,-0.048 -20.4620008,-31.571997 -11.4550008,-73.752997 20.117,-94.214997 31.57,-20.4610007 73.752999,-11.4540007 94.214999,20.118 0.01,0.016 0.021,0.032 0.031,0.048 z"
   inkscape:connector-curvature="0" />
<path
   id="path2996_11_"
   style="fill:#ffffff;stroke:#b75c25;stroke-width:0.48844725;stroke-linecap:round;stroke-linejoin:round;display:none"
   d="M 13.418855,22.200368"
   inkscape:connector-curvature="0" /><path
   id="path3958_11_"
   style="fill:#ffffff;stroke:#b75c25;stroke-width:0.14224336;display:none"
   d="m 127.3847,157.17664 c -0.63665,-0.34088 -1.80575,-1.18063 -2.59769,-1.86813 -1.35155,-1.1739 -1.55572,-1.43456 -3.32911,-4.24125 -1.04006,-1.64356 -2.20608,-3.51659 -2.59173,-4.16018 -2.18754,-3.64745 -6.16691,-10.02051 -9.39159,-15.03906 -2.83496,-4.41504 -5.29202,-8.31742 -6.29199,-9.99705 -1.80274,-3.0254 -2.12504,-3.41214 -4.421824,-5.29689 -1.202184,-0.98545 -2.212863,-1.76163 -2.246071,-1.72069 -0.03129,0.04 0.113247,0.32224 0.324239,0.62884 0.211932,0.30665 0.59473,0.91989 0.852498,1.36329 0.257769,0.4434 1.02735,1.44722 1.705999,2.23239 1.682689,1.93748 2.278299,2.86133 2.585869,3.99812 0.21687,0.80567 0.22751,1.05665 0.0655,1.51757 -0.20609,0.58401 -0.28613,0.60543 -1.67588,0.42182 -0.23639,-0.0313 -0.375909,0.037 -0.422822,0.20896 -0.09964,0.37307 -0.74803,0.38473 -1.762727,0.0351 -0.929672,-0.32026 -4.692432,-2.09374 -5.813427,-2.74224 -0.364255,-0.20896 -1.06547,-0.56052 -1.558593,-0.77937 -4.214875,-1.86907 -7.247058,-3.39265 -9.922808,-4.98048 -0.817404,-0.48438 -1.575275,-0.92583 -1.683564,-0.97845 -0.227469,-0.11126 -0.922806,0.71292 -1.920008,2.2734 -0.367143,0.57423 -0.942328,1.43952 -1.276336,1.91993 -1.206002,1.7325 -1.749097,2.61917 -1.728464,2.81841 0.01178,0.11137 -0.156289,0.42191 -0.373005,0.68946 -0.608372,0.74994 -0.618169,1.09575 -0.04498,1.4843 l 4.353486,0.83207 c 1.371119,0.38664 1.672854,1.02934 1.75678,1.40145 -0.656222,-0.54786 -1.32125,-0.84176 -2.008755,-0.55961 -2.193427,-0.23833 -4.143621,-0.66595 -6.991184,-0.72265 -1.88867,-0.0392 -3.619164,1.51368 -4.498124,1.69139 -1.916965,0.38275 -7.627904,1.21484 -9.86142,2.08582 -0.881849,0.34379 -1.633739,0.62893 -1.668953,0.63276 -0.03614,0.004 -0.04398,-0.13678 -0.01654,-0.31056 0.04198,-0.27732 -0.02733,-0.30663 -0.575216,-0.24993 -0.790963,0.0821 -1.368114,0.37104 -1.462912,0.73241 -0.110364,0.41788 -0.353495,0.67373 -0.7911,0.83199 -0.385796,0.14056 -0.388691,0.13666 -0.266577,-0.39069 0.417028,-1.79684 1.769475,-2.61912 4.652359,-2.83205 3.072332,-0.2246 5.922874,-0.60739 6.863343,-0.91998 0.215784,-0.0723 0.326125,-0.22656 0.305645,-0.42582 -0.01951,-0.18552 -0.09661,-0.26566 -0.187412,-0.19537 -0.108333,0.0841 -0.117156,0.0293 -0.02828,-0.18165 0.0693,-0.16602 0.145537,-0.49217 0.169027,-0.72463 0.02447,-0.23054 0.161159,-0.47062 0.304746,-0.53132 0.523466,-0.22072 2.032277,-0.0526 2.673812,0.30079 0.658222,0.36134 1.120196,0.43367 0.894494,0.1426 -0.07427,-0.0977 -0.05657,-0.1308 0.04397,-0.0839 0.241147,0.11714 1.177735,-0.42195 1.386664,-0.79693 0.09481,-0.17194 0.446278,-0.59384 0.780242,-0.93754 0.333963,-0.34371 0.975626,-1.13678 1.426742,-1.76175 0.450138,-0.6269 1.307639,-1.79878 1.906253,-2.60944 0.597592,-0.80854 1.213886,-1.67781 1.368165,-1.92967 0.154225,-0.25388 0.542993,-0.82803 0.863298,-1.27731 0.321243,-0.44922 0.576117,-0.88467 0.567452,-0.9707 -0.0078,-0.0839 0.143594,-0.30658 0.336881,-0.49611 0.19428,-0.18745 0.347644,-0.39443 0.340918,-0.45889 -0.02824,-0.26766 -1.493196,-0.93362 -2.211873,-1.00389 -2.47956,-0.24409 -8.043086,-2.15627 -10.578198,-3.63482 -2.478452,-1.44528 -3.016533,-1.77156 -3.842717,-2.32221 -1.771529,-1.18358 -5.440483,-4.0449 -6.956085,-5.42579 -0.580108,-0.52936 -1.134812,-1.03135 -1.233461,-1.1153 -0.397449,-0.34375 -1.656228,-1.785184 -1.668894,-1.914032 -0.02447,-0.228549 -0.623063,-0.596726 -0.747095,-0.458903 -0.06348,0.07132 -0.07227,0.0332 -0.01955,-0.08598 0.06157,-0.135816 -0.162134,-0.462861 -0.612344,-0.896442 -0.390595,-0.374949 -0.716862,-0.751945 -0.725566,-0.839838 -0.0088,-0.08602 -0.139696,-0.209062 -0.289022,-0.273418 -0.150419,-0.0644 -0.296859,-0.212881 -0.327186,-0.329156 -0.02923,-0.116233 -0.576087,-0.854502 -1.214765,-1.639643 -1.173767,-1.443456 -2.579162,-3.468804 -3.066369,-4.417959 -0.145456,-0.285131 -0.440373,-0.708944 -0.654256,-0.94339 -0.214807,-0.23435 -0.786089,-1.048763 -1.270496,-1.811587 -0.484391,-0.76267 -0.930677,-1.41501 -0.992248,-1.452131 -0.06054,-0.03614 -0.128917,-0.204121 -0.151359,-0.373006 -0.129863,-0.99126 -1.130898,-3.447285 -1.483401,-3.643473 -0.07421,-0.04202 -0.177727,-0.499025 -0.229554,-1.016629 -0.05181,-0.52336 -0.187422,-1.033155 -0.305676,-1.148498 -0.11628,-0.114305 -0.1826,-0.243153 -0.147527,-0.287092 0.03517,-0.04302 -0.05463,-0.517623 -0.200204,-1.052816 -0.339838,-1.250843 -0.693335,-4.117193 -0.497087,-4.021963 0.08597,0.04142 0.07325,-0.286178 -0.03025,-0.780349 -0.09862,-0.468243 -0.119116,-0.87932 -0.04586,-0.913556 0.135679,-0.06346 0.04389,-1.807671 -0.202195,-3.83687 -0.07712,-0.633315 -0.283185,-2.729054 -0.45804,-4.656823 -0.174854,-1.927769 -0.372081,-3.499086 -0.438542,-3.492151 -0.393534,0.04106 -0.725494,-1.554613 -0.878829,-4.224121 -0.03132,-0.531251 -0.0898,-0.962004 -0.132825,-0.957048 -0.109361,0.01312 -0.645484,1.261735 -0.625057,1.456025 0.0088,0.08882 -0.116196,0.324717 -0.277318,0.524419 -0.266539,0.328117 -0.31057,0.339865 -0.463828,0.123043 -0.09281,-0.132305 -0.240193,-0.185512 -0.326221,-0.118683 -0.109426,0.08404 -0.147428,-0.05958 -0.123983,-0.463886 0.02632,-0.472104 -0.0088,-0.564393 -0.1816,-0.476537 -0.277347,0.141067 -0.315454,-0.22416 -0.12602,-1.218253 0.08102,-0.423378 0.08203,-0.837009 0.0029,-0.918952 -0.07917,-0.0821 -0.183663,-0.770564 -0.230419,-1.530218 -0.05365,-0.855513 -0.15137,-1.412029 -0.256883,-1.463383 -0.118097,-0.0572 -0.13375,-0.222123 -0.05071,-0.536694 0.137747,-0.517632 0.01856,-0.856515 -0.289003,-0.824736 -0.115213,0.01218 -0.21971,-0.07863 -0.233385,-0.202241 -0.01269,-0.123091 0.03805,-0.194325 0.11325,-0.157693 0.07516,0.03617 0.128884,-0.0078 0.12019,-0.09714 -0.0097,-0.08981 -0.07918,-0.156745 -0.15426,-0.148911 -0.07523,0.0078 -0.424734,-0.192385 -0.776327,-0.445434 -0.567412,-0.407666 -0.796859,-0.463353 -2.051739,-0.497584 -0.77729,-0.02092 -1.695284,-0.08019 -2.041055,-0.131363 -0.345681,-0.0518 -0.865181,-0.06883 -1.155226,-0.03903 -0.289009,0.03078 -0.856407,-0.04735 -1.259691,-0.172764 -0.403389,-0.124939 -1.089908,-0.265594 -1.525341,-0.311607 -0.435636,-0.04646 -0.928783,-0.159701 -1.095742,-0.251455 -0.293901,-0.16218 -0.294955,-0.178244 -0.03418,-0.500472 0.462895,-0.57022 4.144475,-1.211417 7.136833,-1.242607 2.16311,-0.02243 5.436541,0.08548 5.540083,0.183544 0.150429,0.142001 1.708011,-0.0244 1.692334,-0.180616 -0.07515,-0.718746 -1.655244,-2.126028 -3.429678,-3.054251 -0.58793,-0.307705 -1.097726,-0.613297 -1.132795,-0.679622 -0.03611,-0.06591 -0.145517,-0.11281 -0.244179,-0.102982 -0.09866,0.0098 -0.72359,-0.275354 -1.388664,-0.633796 -0.665074,-0.358442 -1.285106,-0.596701 -1.376938,-0.530355 -0.09271,0.0669 -0.126035,0.06198 -0.07318,-0.0098 0.145512,-0.20025 -0.197305,-0.399005 -1.523447,-0.885205 -1.941344,-0.710966 -2.624018,-0.913141 -3.245065,-0.961406 -0.941429,-0.07222 -1.637657,-0.714348 -1.037129,-0.953675 1.045905,-0.415499 2.301711,-0.667519 2.32328,-0.465262 0.0098,0.08498 0.11515,0.101981 0.238297,0.03766 0.12105,-0.06504 0.331049,-0.176375 0.464833,-0.247564 0.150372,-0.07914 0.213801,-0.06445 0.164004,0.0381 -0.04981,0.103952 0.06058,0.126026 0.290047,0.05667 0.204148,-0.06158 0.329176,-0.164515 0.279322,-0.229452 -0.09277,-0.120024 0.835919,2.9e-5 0.995096,0.128987 0.04788,0.03855 -0.0723,0.153731 -0.266619,0.255809 -0.334944,0.176314 -0.335955,0.184507 -0.02253,0.161137 0.181669,-0.0132 0.362254,-0.142617 0.401393,-0.286201 0.05658,-0.211966 0.210936,-0.258864 0.807548,-0.245064 1.907263,0.04299 4.757842,0.547428 4.789062,0.846655 0.0068,0.06492 0.210974,0.176741 0.454032,0.248115 0.49222,0.144597 2.263681,-0.312079 2.911082,-0.75054 0.195364,-0.132358 0.460046,-0.26215 0.588907,-0.289591 0.129955,-0.0274 0.521547,-0.16608 0.871996,-0.308553 0.351527,-0.142586 0.709993,-0.224621 0.797782,-0.182148 0.08794,0.04246 0.151324,-0.0044 0.141554,-0.104038 -0.01071,-0.102614 0.112314,-0.160706 0.284118,-0.134308 0.167027,0.02534 0.619159,-0.04734 1.004899,-0.161612 0.38574,-0.114274 1.924769,-0.346702 3.418894,-0.516124 2.099532,-0.236787 2.986314,-0.273946 3.899473,-0.161138 1.595625,0.198211 3.439487,0.638169 4.183603,0.998473 0.335937,0.162614 0.649429,0.291957 0.697291,0.287119 0.102614,-0.01071 0.921839,0.43896 1.714801,0.940977 0.313574,0.198695 0.633784,0.31194 0.711871,0.252472 0.0771,-0.05999 0.102486,-0.02982 0.05561,0.06791 -0.04689,0.09758 0.04302,0.203596 0.200239,0.236336 0.157177,0.03228 0.442321,0.270021 0.632728,0.528378 0.190407,0.258358 0.666067,0.751024 1.055621,1.095134 0.38957,0.344264 1.049869,1.010199 1.466852,1.480061 0.416966,0.469709 1.007719,1.072761 1.314478,1.340285 0.305681,0.267636 0.669033,0.746671 0.808614,1.064919 0.161111,0.368101 0.72061,0.972703 1.542027,1.663973 1.163099,0.9805 1.330103,1.190444 1.728508,2.169394 0.502965,1.238798 0.91994,1.875534 1.71768,2.623084 0.308698,0.289094 0.56651,0.588319 0.575183,0.665484 0.0078,0.07663 0.506796,0.671843 1.109342,1.322342 0.602482,0.649884 1.336916,1.486775 1.632859,1.859315 0.295943,0.372539 0.950187,1.126507 1.455039,1.675381 0.834933,0.907276 0.887732,1.001922 0.575127,1.036093 -0.308606,0.03375 -0.285099,0.07422 0.238245,0.402354 0.319385,0.200733 0.96187,0.657176 1.426789,1.014106 0.465858,0.356988 0.902342,0.644103 0.971652,0.637649 0.06839,-0.0064 0.466831,0.250045 0.888679,0.56979 0.420925,0.319842 0.886753,0.630333 1.034181,0.689911 0.148415,0.0601 0.498021,0.280693 0.776382,0.490683 0.279284,0.209894 0.962845,0.636702 1.521519,0.948703 0.558627,0.311539 1.48924,0.850982 2.06937,1.198691 0.580024,0.348187 1.800757,1.076176 2.712925,1.617699 2.392604,1.421418 2.564406,1.529774 3.433604,2.179668 0.433625,0.323804 1.006862,0.718733 1.275416,0.877958 2.415087,1.431202 7.898397,5.876143 9.814561,7.957062 0.193399,0.209523 0.704164,0.755447 1.13676,1.212483 1.208989,1.280219 1.457974,1.563413 2.932661,3.328657 0.75488,0.906142 1.52543,1.785144 1.71096,1.955053 0.18647,0.169966 0.42968,0.433546 0.54013,0.585938 0.11138,0.152297 0.53223,0.656281 0.93454,1.121142 0.78222,0.898468 3.53808,5.060647 3.57323,5.394458 0.0107,0.111325 0.23345,0.529291 0.49321,0.933599 0.38858,0.601596 1.61626,2.886696 1.6318,3.037172 0.002,0.02343 -0.0976,0.05264 -0.22355,0.0664 -0.17483,0.01762 -0.1865,0.09955 -0.0508,0.355526 0.0976,0.181569 0.42871,0.935508 0.73726,1.671891 0.30767,0.738341 0.92877,1.89452 1.38092,2.570352 0.45216,0.675832 0.99325,1.558558 1.20211,1.961022 0.46091,0.884869 1.04784,2.660159 0.84765,2.564399 -0.0781,-0.0371 -0.12012,0.14846 -0.0927,0.41403 0.0351,0.33195 -0.0127,0.46088 -0.15042,0.41398 -0.11124,-0.0391 -0.31351,-0.0967 -0.45019,-0.13079 -0.1368,-0.0352 -0.51666,-0.41903 -0.84374,-0.85752 -0.32724,-0.43553 -0.61626,-0.76556 -0.64256,-0.73435 -0.0273,0.0332 0.3007,0.72071 0.72845,1.52926 1.71881,3.248 2.30273,4.80961 1.82037,4.85932 -0.16505,0.0175 -0.0294,0.35936 0.52628,1.32812 0.41211,0.71687 0.76169,1.41413 0.77533,1.55081 0.0449,0.4317 -0.2666,0.30075 -0.55867,-0.2344 -0.15428,-0.28327 -0.35344,-0.50775 -0.44231,-0.49801 -0.23534,0.0235 -0.21485,0.0723 0.59077,1.38873 0.9111,1.49124 1.9239,3.41307 1.95507,3.71479 0.0371,0.3574 -0.21687,0.29292 -0.74517,-0.18554 -0.78801,-0.71684 -1.76564,-1.51763 -1.75773,-1.44334 0.004,0.0389 0.41207,0.96088 0.90525,2.05078 0.79786,1.75779 1.96392,4.58213 1.98827,4.81256 0.0292,0.27549 -0.34865,0.0449 -0.60051,-0.3672 -0.336,-0.55078 -0.93467,-0.93451 -0.89749,-0.5782 0.0108,0.1152 0.1835,0.37696 0.38173,0.58209 0.19734,0.20414 0.32724,0.43553 0.28816,0.51861 -0.0772,0.16015 1.08005,2.28324 1.28029,2.34664 0.0683,0.0215 0.13584,0.15425 0.15139,0.29882 0.0147,0.14263 1.51655,2.58684 3.33684,5.43171 3.79191,5.92685 4.59673,7.13866 5.93359,8.94239 1.52147,2.05274 3.23731,4.50775 4.23042,6.05465 0.50288,0.78329 1.27634,1.87505 1.71674,2.4277 1.24503,1.55857 2.40525,3.31634 2.98147,4.5195 0.43846,0.91412 0.58298,1.47649 0.87117,3.37408 0.43068,2.83108 0.39054,3.01863 -0.61919,2.92678 -0.8194,-0.0742 -0.93755,-0.10358 -2.53415,-0.64647 -0.64946,-0.22073 -1.26172,-0.48142 -1.36331,-0.58015 -0.24704,-0.24218 -0.76661,-0.17195 -0.73828,0.0996 0.0126,0.11922 -0.0763,0.44342 -0.19733,0.71872 -0.23441,0.53316 -0.81637,0.73727 -1.20511,0.42184 -0.15726,-0.12698 -0.27543,-0.082 -0.51658,0.19138 -0.27049,0.30365 -1.13671,0.94332 -1.30267,0.96095 -0.0303,0.003 -0.57618,-0.27254 -1.21193,-0.61227 l 0,0 z M 64.718674,126.50547 c -0.0323,-0.30658 -0.125045,-0.4532 -0.278306,-0.43752 -0.233424,0.0254 -0.265632,0.6543 -0.043,0.83403 0.243176,0.19919 0.367045,0.0449 0.321301,-0.39651 z M 36.847603,75.21561 c -0.02338,-0.253857 0.002,-0.34282 0.05672,-0.197206 0.05562,0.145517 0.07421,0.353528 0.04296,0.462386 -0.03135,0.107936 -0.07623,-0.01071 -0.09967,-0.26518 z"
   inkscape:connector-curvature="0" /><path
   id="path3019_11_"
   style="fill:#ffffff;stroke:#b75c25;stroke-width:0.14224336;display:none"
   d="m 127.3847,157.17664 c -0.63665,-0.34088 -1.80575,-1.18063 -2.59769,-1.86813 -1.35155,-1.1739 -1.55572,-1.43456 -3.32911,-4.24125 -1.04006,-1.64356 -2.20608,-3.51659 -2.59173,-4.16018 -2.18754,-3.64745 -6.16691,-10.02051 -9.39159,-15.03906 -2.83496,-4.41504 -5.29202,-8.31742 -6.29199,-9.99705 -1.80274,-3.0254 -2.12504,-3.41214 -4.421824,-5.29689 -1.202184,-0.98545 -2.212863,-1.76163 -2.246071,-1.72069 -0.03129,0.04 0.113247,0.32224 0.324239,0.62884 0.211932,0.30665 0.59473,0.91989 0.852498,1.36329 0.257769,0.4434 1.02735,1.44722 1.705999,2.23239 1.682689,1.93748 2.278299,2.86133 2.585869,3.99812 0.21687,0.80567 0.22751,1.05665 0.0655,1.51757 -0.20609,0.58401 -0.28613,0.60543 -1.67588,0.42182 -0.23639,-0.0313 -0.375909,0.037 -0.422822,0.20896 -0.09964,0.37307 -0.74803,0.38473 -1.762727,0.0351 -0.929672,-0.32026 -4.692432,-2.09374 -5.813427,-2.74224 -0.364255,-0.20896 -1.06547,-0.56052 -1.558593,-0.77937 -4.214875,-1.86907 -7.247058,-3.39265 -9.922808,-4.98048 -0.817404,-0.48438 -1.575275,-0.92583 -1.683564,-0.97845 -0.227469,-0.11126 -0.922806,0.71292 -1.920008,2.2734 -0.367143,0.57423 -0.942328,1.43952 -1.276336,1.91993 -1.206002,1.7325 -1.749097,2.61917 -1.728464,2.81841 0.01178,0.11137 -0.156289,0.42191 -0.373005,0.68946 -0.608372,0.74994 -0.618169,1.09575 -0.04498,1.4843 l 4.353486,0.83207 c 1.371119,0.38664 1.672854,1.02934 1.75678,1.40145 -0.656222,-0.54786 -1.32125,-0.84176 -2.008755,-0.55961 -2.193427,-0.23833 -4.143621,-0.66595 -6.991184,-0.72265 -1.88867,-0.0392 -3.619164,1.51368 -4.498124,1.69139 -1.916965,0.38275 -7.627904,1.21484 -9.86142,2.08582 -0.881849,0.34379 -1.633739,0.62893 -1.668953,0.63276 -0.03614,0.004 -0.04398,-0.13678 -0.01654,-0.31056 0.04198,-0.27732 -0.02733,-0.30663 -0.575216,-0.24993 -0.790963,0.0821 -1.368114,0.37104 -1.462912,0.73241 -0.110364,0.41788 -0.353495,0.67373 -0.7911,0.83199 -0.385796,0.14056 -0.388691,0.13666 -0.266577,-0.39069 0.417028,-1.79684 1.769475,-2.61912 4.652359,-2.83205 3.072332,-0.2246 5.922874,-0.60739 6.863343,-0.91998 0.215784,-0.0723 0.326125,-0.22656 0.305645,-0.42582 -0.01951,-0.18552 -0.09661,-0.26566 -0.187412,-0.19537 -0.108333,0.0841 -0.117156,0.0293 -0.02828,-0.18165 0.0693,-0.16602 0.145537,-0.49217 0.169027,-0.72463 0.02447,-0.23054 0.161159,-0.47062 0.304746,-0.53132 0.523466,-0.22072 2.032277,-0.0526 2.673812,0.30079 0.658222,0.36134 1.120196,0.43367 0.894494,0.1426 -0.07427,-0.0977 -0.05657,-0.1308 0.04397,-0.0839 0.241147,0.11714 1.177735,-0.42195 1.386664,-0.79693 0.09481,-0.17194 0.446278,-0.59384 0.780242,-0.93754 0.333963,-0.34371 0.975626,-1.13678 1.426742,-1.76175 0.450138,-0.6269 1.307639,-1.79878 1.906253,-2.60944 0.597592,-0.80854 1.213886,-1.67781 1.368165,-1.92967 0.154225,-0.25388 0.542993,-0.82803 0.863298,-1.27731 0.321243,-0.44922 0.576117,-0.88467 0.567452,-0.9707 -0.0078,-0.0839 0.143594,-0.30658 0.336881,-0.49611 0.19428,-0.18745 0.347644,-0.39443 0.340918,-0.45889 -0.02824,-0.26766 -1.493196,-0.93362 -2.211873,-1.00389 -2.47956,-0.24409 -8.043086,-2.15627 -10.578198,-3.63482 -2.478452,-1.44528 -3.016533,-1.77156 -3.842717,-2.32221 -1.771529,-1.18358 -5.440483,-4.0449 -6.956085,-5.42579 -0.580108,-0.52936 -1.134812,-1.03135 -1.233461,-1.1153 -0.397449,-0.34375 -1.656228,-1.785184 -1.668894,-1.914032 -0.02447,-0.228549 -0.623063,-0.596726 -0.747095,-0.458903 -0.06348,0.07132 -0.07227,0.0332 -0.01955,-0.08598 0.06157,-0.135816 -0.162134,-0.462861 -0.612344,-0.896442 -0.390595,-0.374949 -0.716862,-0.751945 -0.725566,-0.839838 -0.0088,-0.08602 -0.139696,-0.209062 -0.289022,-0.273418 -0.150419,-0.0644 -0.296859,-0.212881 -0.327186,-0.329156 -0.02923,-0.116233 -0.576087,-0.854502 -1.214765,-1.639643 -1.173767,-1.443456 -2.579162,-3.468804 -3.066369,-4.417959 -0.145456,-0.285131 -0.440373,-0.708944 -0.654256,-0.94339 -0.214807,-0.23435 -0.786089,-1.048763 -1.270496,-1.811587 -0.484391,-0.76267 -0.930677,-1.41501 -0.992248,-1.452131 -0.06054,-0.03614 -0.128917,-0.204121 -0.151359,-0.373006 -0.129863,-0.99126 -1.130898,-3.447285 -1.483401,-3.643473 -0.07421,-0.04202 -0.177727,-0.499025 -0.229554,-1.016629 -0.05181,-0.52336 -0.187422,-1.033155 -0.305676,-1.148498 -0.11628,-0.114305 -0.1826,-0.243153 -0.147527,-0.287092 0.03517,-0.04302 -0.05463,-0.517623 -0.200204,-1.052816 -0.339838,-1.250843 -0.693335,-4.117193 -0.497087,-4.021963 0.08597,0.04142 0.07325,-0.286178 -0.03025,-0.780349 -0.09862,-0.468243 -0.119116,-0.87932 -0.04586,-0.913556 0.135679,-0.06346 0.04389,-1.807671 -0.202195,-3.83687 -0.07712,-0.633315 -0.283185,-2.729054 -0.45804,-4.656823 -0.174854,-1.927769 -0.372081,-3.499086 -0.438542,-3.492151 -0.393534,0.04106 -0.725494,-1.554613 -0.878829,-4.224121 -0.03132,-0.531251 -0.0898,-0.962004 -0.132825,-0.957048 -0.109361,0.01312 -0.645484,1.261735 -0.625057,1.456025 0.0088,0.08882 -0.116196,0.324717 -0.277318,0.524419 -0.266539,0.328117 -0.31057,0.339865 -0.463828,0.123043 -0.09281,-0.132305 -0.240193,-0.185512 -0.326221,-0.118683 -0.109426,0.08404 -0.147428,-0.05958 -0.123983,-0.463886 0.02632,-0.472104 -0.0088,-0.564393 -0.1816,-0.476537 -0.277347,0.141067 -0.315454,-0.22416 -0.12602,-1.218253 0.08102,-0.423378 0.08203,-0.837009 0.0029,-0.918952 -0.07917,-0.0821 -0.183663,-0.770564 -0.230419,-1.530218 -0.05365,-0.855513 -0.15137,-1.412029 -0.256883,-1.463383 -0.118097,-0.0572 -0.13375,-0.222123 -0.05071,-0.536694 0.137747,-0.517632 0.01856,-0.856515 -0.289003,-0.824736 -0.115213,0.01218 -0.21971,-0.07863 -0.233385,-0.202241 -0.01269,-0.123091 0.03805,-0.194325 0.11325,-0.157693 0.07516,0.03617 0.128884,-0.0078 0.12019,-0.09714 -0.0097,-0.08981 -0.07918,-0.156745 -0.15426,-0.148911 -0.07523,0.0078 -0.424734,-0.192385 -0.776327,-0.445434 -0.567412,-0.407666 -0.796859,-0.463353 -2.051739,-0.497584 -0.77729,-0.02092 -1.695284,-0.08019 -2.041055,-0.131363 -0.345681,-0.0518 -0.865181,-0.06883 -1.155226,-0.03903 -0.289009,0.03078 -0.856407,-0.04735 -1.259691,-0.172764 -0.403389,-0.124939 -1.089908,-0.265594 -1.525341,-0.311607 -0.435636,-0.04646 -0.928783,-0.159701 -1.095742,-0.251455 -0.293901,-0.16218 -0.294955,-0.178244 -0.03418,-0.500472 0.462895,-0.57022 4.144475,-1.211417 7.136833,-1.242607 2.16311,-0.02243 5.436541,0.08548 5.540083,0.183544 0.150429,0.142001 1.708011,-0.0244 1.692334,-0.180616 -0.07515,-0.718746 -1.655244,-2.126028 -3.429678,-3.054251 -0.58793,-0.307705 -1.097726,-0.613297 -1.132795,-0.679622 -0.03611,-0.06591 -0.145517,-0.11281 -0.244179,-0.102982 -0.09866,0.0098 -0.72359,-0.275354 -1.388664,-0.633796 -0.665074,-0.358442 -1.285106,-0.596701 -1.376938,-0.530355 -0.09271,0.0669 -0.126035,0.06198 -0.07318,-0.0098 0.145512,-0.20025 -0.197305,-0.399005 -1.523447,-0.885205 -1.941344,-0.710966 -2.624018,-0.913141 -3.245065,-0.961406 -0.941429,-0.07222 -1.637657,-0.714348 -1.037129,-0.953675 1.045905,-0.415499 2.301711,-0.667519 2.32328,-0.465262 0.0098,0.08498 0.11515,0.101981 0.238297,0.03766 0.12105,-0.06504 0.331049,-0.176375 0.464833,-0.247564 0.150372,-0.07914 0.213801,-0.06445 0.164004,0.0381 -0.04981,0.103952 0.06058,0.126026 0.290047,0.05667 0.204148,-0.06158 0.329176,-0.164515 0.279322,-0.229452 -0.09277,-0.120024 0.835919,2.9e-5 0.995096,0.128987 0.04788,0.03855 -0.0723,0.153731 -0.266619,0.255809 -0.334944,0.176314 -0.335955,0.184507 -0.02253,0.161137 0.181669,-0.0132 0.362254,-0.142617 0.401393,-0.286201 0.05658,-0.211966 0.210936,-0.258864 0.807548,-0.245064 1.907263,0.04299 4.757842,0.547428 4.789062,0.846655 0.0068,0.06492 0.210974,0.176741 0.454032,0.248115 0.49222,0.144597 2.263681,-0.312079 2.911082,-0.75054 0.195364,-0.132358 0.460046,-0.26215 0.588907,-0.289591 0.129955,-0.0274 0.521547,-0.16608 0.871996,-0.308553 0.351527,-0.142586 0.709993,-0.224621 0.797782,-0.182148 0.08794,0.04246 0.151324,-0.0044 0.141554,-0.104038 -0.01071,-0.102614 0.112314,-0.160706 0.284118,-0.134308 0.167027,0.02534 0.619159,-0.04734 1.004899,-0.161612 0.38574,-0.114274 1.924769,-0.346702 3.418894,-0.516124 2.099532,-0.236787 2.986314,-0.273946 3.899473,-0.161138 1.595625,0.198211 3.439487,0.638169 4.183603,0.998473 0.335937,0.162614 0.649429,0.291957 0.697291,0.287119 0.102614,-0.01071 0.921839,0.43896 1.714801,0.940977 0.313574,0.198695 0.633784,0.31194 0.711871,0.252472 0.0771,-0.05999 0.102486,-0.02982 0.05561,0.06791 -0.04689,0.09758 0.04302,0.203596 0.200239,0.236336 0.157177,0.03228 0.442321,0.270021 0.632728,0.528378 0.190407,0.258358 0.666067,0.751024 1.055621,1.095134 0.38957,0.344264 1.049869,1.010199 1.466852,1.480061 0.416966,0.469709 1.007719,1.072761 1.314478,1.340285 0.305681,0.267636 0.669033,0.746671 0.808614,1.064919 0.161111,0.368101 0.72061,0.972703 1.542027,1.663973 1.163099,0.9805 1.330103,1.190444 1.728508,2.169394 0.502965,1.238798 0.91994,1.875534 1.71768,2.623084 0.308698,0.289094 0.56651,0.588319 0.575183,0.665484 0.0078,0.07663 0.506796,0.671843 1.109342,1.322342 0.602482,0.649884 1.336916,1.486775 1.632859,1.859315 0.295943,0.372539 0.950187,1.126507 1.455039,1.675381 0.834933,0.907276 0.887732,1.001922 0.575127,1.036093 -0.308606,0.03375 -0.285099,0.07422 0.238245,0.402354 0.319385,0.200733 0.96187,0.657176 1.426789,1.014106 0.465858,0.356988 0.902342,0.644103 0.971652,0.637649 0.06839,-0.0064 0.466831,0.250045 0.888679,0.56979 0.420925,0.319842 0.886753,0.630333 1.034181,0.689911 0.148415,0.0601 0.498021,0.280693 0.776382,0.490683 0.279284,0.209894 0.962845,0.636702 1.521519,0.948703 0.558627,0.311539 1.48924,0.850982 2.06937,1.198691 0.580024,0.348187 1.800757,1.076176 2.712925,1.617699 2.392604,1.421418 2.564406,1.529774 3.433604,2.179668 0.433625,0.323804 1.006862,0.718733 1.275416,0.877958 2.415087,1.431202 7.898397,5.876143 9.814561,7.957062 0.193399,0.209523 0.704164,0.755447 1.13676,1.212483 1.208989,1.280219 1.457974,1.563413 2.932661,3.328657 0.75488,0.906142 1.52543,1.785144 1.71096,1.955053 0.18647,0.169966 0.42968,0.433546 0.54013,0.585938 0.11138,0.152297 0.53223,0.656281 0.93454,1.121142 0.78222,0.898468 3.53808,5.060647 3.57323,5.394458 0.0107,0.111325 0.23345,0.529291 0.49321,0.933599 0.38858,0.601596 1.61626,2.886696 1.6318,3.037172 0.002,0.02343 -0.0976,0.05264 -0.22355,0.0664 -0.17483,0.01762 -0.1865,0.09955 -0.0508,0.355526 0.0976,0.181569 0.42871,0.935508 0.73726,1.671891 0.30767,0.738341 0.92877,1.89452 1.38092,2.570352 0.45216,0.675832 0.99325,1.558558 1.20211,1.961022 0.46091,0.884869 1.04784,2.660159 0.84765,2.564399 -0.0781,-0.0371 -0.12012,0.14846 -0.0927,0.41403 0.0351,0.33195 -0.0127,0.46088 -0.15042,0.41398 -0.11124,-0.0391 -0.31351,-0.0967 -0.45019,-0.13079 -0.1368,-0.0352 -0.51666,-0.41903 -0.84374,-0.85752 -0.32724,-0.43553 -0.61626,-0.76556 -0.64256,-0.73435 -0.0273,0.0332 0.3007,0.72071 0.72845,1.52926 1.71881,3.248 2.30273,4.80961 1.82037,4.85932 -0.16505,0.0175 -0.0294,0.35936 0.52628,1.32812 0.41211,0.71687 0.76169,1.41413 0.77533,1.55081 0.0449,0.4317 -0.2666,0.30075 -0.55867,-0.2344 -0.15428,-0.28327 -0.35344,-0.50775 -0.44231,-0.49801 -0.23534,0.0235 -0.21485,0.0723 0.59077,1.38873 0.9111,1.49124 1.9239,3.41307 1.95507,3.71479 0.0371,0.3574 -0.21687,0.29292 -0.74517,-0.18554 -0.78801,-0.71684 -1.76564,-1.51763 -1.75773,-1.44334 0.004,0.0389 0.41207,0.96088 0.90525,2.05078 0.79786,1.75779 1.96392,4.58213 1.98827,4.81256 0.0292,0.27549 -0.34865,0.0449 -0.60051,-0.3672 -0.336,-0.55078 -0.93467,-0.93451 -0.89749,-0.5782 0.0108,0.1152 0.1835,0.37696 0.38173,0.58209 0.19734,0.20414 0.32724,0.43553 0.28816,0.51861 -0.0772,0.16015 1.08005,2.28324 1.28029,2.34664 0.0683,0.0215 0.13584,0.15425 0.15139,0.29882 0.0147,0.14263 1.51655,2.58684 3.33684,5.43171 3.79191,5.92685 4.59673,7.13866 5.93359,8.94239 1.52147,2.05274 3.23731,4.50775 4.23042,6.05465 0.50288,0.78329 1.27634,1.87505 1.71674,2.4277 1.24503,1.55857 2.40525,3.31634 2.98147,4.5195 0.43846,0.91412 0.58298,1.47649 0.87117,3.37408 0.43068,2.83108 0.39054,3.01863 -0.61919,2.92678 -0.8194,-0.0742 -0.93755,-0.10358 -2.53415,-0.64647 -0.64946,-0.22073 -1.26172,-0.48142 -1.36331,-0.58015 -0.24704,-0.24218 -0.76661,-0.17195 -0.73828,0.0996 0.0126,0.11922 -0.0763,0.44342 -0.19733,0.71872 -0.23441,0.53316 -0.81637,0.73727 -1.20511,0.42184 -0.15726,-0.12698 -0.27543,-0.082 -0.51658,0.19138 -0.27049,0.30365 -1.13671,0.94332 -1.30267,0.96095 -0.0303,0.003 -0.57618,-0.27254 -1.21193,-0.61227 l 0,0 z M 64.718674,126.50547 c -0.0323,-0.30658 -0.125045,-0.4532 -0.278306,-0.43752 -0.233424,0.0254 -0.265632,0.6543 -0.043,0.83403 0.243176,0.19919 0.367045,0.0449 0.321301,-0.39651 z M 36.847603,75.21561 c -0.02338,-0.253857 0.002,-0.34282 0.05672,-0.197206 0.05562,0.145517 0.07421,0.353528 0.04296,0.462386 -0.03135,0.107936 -0.07623,-0.01071 -0.09967,-0.26518 z"
   inkscape:connector-curvature="0" /><path
   id="path3980"
   style="fill:#ffffff;stroke:#b75c25;stroke-width:0.14224336;display:none"
   d="M 10.978498,20.220303"
   inkscape:connector-curvature="0" /><path
   id="path3982"
   style="fill:#ffffff;stroke:#b75c25;stroke-width:0.14224336;display:none"
   d="M 10.978498,20.220303"
   inkscape:connector-curvature="0" /><path
   id="path3988"
   style="fill:#ffffff;stroke:#b75c25;stroke-width:1.60000002;stroke-linejoin:round;stroke-miterlimit:4;stroke-dasharray:none"
   d="m 134.70187,148.05187 c -0.63671,-0.33994 -1.80467,-1.18075 -2.59769,-1.86814 -1.35149,-1.17484 -1.55567,-1.43549 -3.32911,-4.24124 -1.03913,-1.64366 -2.20608,-3.5166 -2.59173,-4.16018 -2.18745,-3.64653 -6.16795,-10.0215 -9.39067,-15.03916 -2.83502,-4.4141 -5.2929,-8.31842 -6.29299,-9.99617 -1.80277,-3.02726 -2.12504,-3.41214 -4.42182,-5.29689 -1.20216,-0.98825 -2.21288,-1.76179 -2.24519,-1.72265 -0.0332,0.041 0.11331,0.32426 0.32317,0.62895 0.21099,0.3066 0.59473,0.9199 0.85249,1.3633 0.25793,0.44337 1.02632,1.44919 1.7071,2.23243 1.68165,1.93945 2.2783,2.86132 2.58498,4.00007 0.21781,0.80277 0.22845,1.05672 0.0655,1.51571 -0.20606,0.58588 -0.28519,0.60549 -1.67479,0.42186 -0.23529,-0.0313 -0.37601,0.0391 -0.42188,0.20902 -0.10059,0.37301 -0.74907,0.38671 -1.76469,0.0372 -0.92969,-0.32041 -4.69234,-2.09577 -5.81249,-2.74218 -0.36322,-0.21094 -1.06537,-0.56256 -1.55863,-0.78123 -4.213801,-1.86918 -7.2481,-3.39068 -9.922927,-4.9786 -0.817459,-0.4864 -1.574182,-0.92579 -1.68358,-0.97861 -0.227468,-0.11125 -0.921921,0.71096 -1.918954,2.27158 -0.36912,0.57614 -0.942328,1.43952 -1.277374,1.92191 -1.206018,1.73234 -1.748998,2.61713 -1.727596,2.8163 0.01168,0.1134 -0.157173,0.42386 -0.374043,0.69143 -0.607487,0.74798 -0.618224,1.09373 -0.04486,1.48242 l 4.35441,0.83198 c 1.369119,0.38685 1.672909,1.03135 1.755952,1.40246 -0.655339,-0.54686 -1.37396,-0.28121 -2.060583,0.002 -2.194405,-0.24024 -4.143621,-0.66594 -6.992163,-0.72456 -1.887675,-0.0371 -3.618185,1.5156 -4.498123,1.69139 -1.917987,0.38487 -7.628004,1.21687 -9.861365,2.08783 -0.881849,0.3438 -1.632855,0.62697 -1.668992,0.6309 -0.03521,0.004 -0.043,-0.13486 -0.01666,-0.30868 -0.358453,-0.60349 -1.706017,-0.35745 -1.985417,-0.0781 -0.28024,0.27729 -0.352611,0.67178 -0.792022,0.83208 -0.383765,0.14067 -0.38873,0.13481 -0.266616,-0.39255 0.417027,-1.79683 1.769629,-2.61913 4.652359,-2.83204 3.072332,-0.2246 5.923812,-0.60734 6.863343,-0.91998 0.215784,-0.0723 0.326124,-0.22656 0.305645,-0.42582 -0.01947,-0.18366 -0.09567,-0.2656 -0.187566,-0.19536 -0.108349,0.0839 -0.116217,0.0294 -0.02828,-0.18165 0.0693,-0.16602 0.145537,-0.49216 0.170004,-0.72271 0.02349,-0.23246 0.160165,-0.47269 0.303768,-0.53324 0.523467,-0.22071 2.032162,-0.0508 2.673812,0.3008 0.658223,0.36133 1.120081,0.43554 0.895588,0.14263 -0.07515,-0.0957 -0.05565,-0.13089 0.04291,-0.0821 0.241261,0.11526 1.178773,-0.42392 1.386779,-0.7988 0.09667,-0.17199 0.446278,-0.59384 0.780241,-0.93755 0.333964,-0.3437 0.976566,-1.13671 1.426742,-1.76175 0.450235,-0.62597 1.308562,-1.79887 1.906308,-2.60742 0.598631,-0.81051 1.213848,-1.67967 1.368127,-1.93153 0.155301,-0.25399 0.542976,-0.82818 0.86422,-1.2774 0.320305,-0.44928 0.575179,-0.88474 0.566415,-0.96873 -0.0088,-0.086 0.142599,-0.30866 0.33688,-0.49611 0.19438,-0.18949 0.347589,-0.39645 0.340749,-0.45903 -0.02828,-0.26952 -1.493081,-0.9355 -2.211928,-1.00591 -2.479561,-0.24408 -8.041954,-2.15436 -10.578198,-3.63482 -2.478606,-1.445259 -3.015594,-1.771499 -3.842718,-2.322199 -1.771528,-1.18358 -5.439389,-4.04487 -6.956084,-5.4258 -0.579016,-0.52931 -1.134796,-1.0312 -1.233462,-1.1153 -0.397448,-0.34375 -1.655289,-1.785127 -1.669009,-1.912154 -0.02441,-0.229488 -0.623005,-0.597665 -0.746018,-0.459015 -0.06342,0.07038 -0.07231,0.03134 -0.01949,-0.08692 0.06049,-0.135703 -0.163072,-0.462918 -0.613226,-0.897438 -0.389655,-0.374892 -0.716862,-0.751945 -0.725623,-0.838899 -0.0089,-0.08492 -0.1387,-0.209943 -0.289119,-0.274342 -0.149342,-0.06451 -0.296819,-0.211018 -0.32615,-0.328174 -0.03033,-0.116275 -0.57718,-0.854544 -1.2158,-1.640624 -1.172828,-1.443399 -2.578069,-3.468763 -3.06543,-4.417902 -0.146549,-0.285172 -0.441466,-0.708985 -0.655349,-0.943431 -0.214807,-0.23435 -0.786105,-1.048916 -1.270554,-1.810648 -0.484449,-0.761731 -0.930619,-1.415949 -0.991212,-1.45115 -0.06157,-0.03712 -0.129952,-0.205102 -0.151359,-0.373006 C 47.128934,75.195987 46.129049,72.739065 45.775379,72.54362 45.701129,72.50269 45.59864,72.045114 45.54687,71.526571 45.49516,71.004134 45.359448,70.493417 45.241194,70.378074 45.124087,70.264788 45.057613,70.135955 45.09284,70.092 c 0.03617,-0.0439 -0.05463,-0.517622 -0.200146,-1.053755 -0.338867,-1.250477 -0.693393,-4.116254 -0.4961,-4.021443 0.08588,0.04205 0.07325,-0.286178 -0.03118,-0.780254 -0.09768,-0.468185 -0.119117,-0.879319 -0.04586,-0.913556 0.135728,-0.06299 0.04394,-1.807208 -0.202195,-3.836869 -0.0762,-0.633412 -0.282246,-2.728997 -0.456946,-4.656782 -0.175778,-1.927672 -0.373021,-3.499143 -0.439482,-3.492209 -0.393534,0.04106 -0.72551,-1.554766 -0.878934,-4.223643 -0.0303,-0.531825 -0.08985,-0.962465 -0.131887,-0.95699 -0.109408,0.01266 -0.646471,1.261216 -0.626044,1.455506 0.0088,0.08882 -0.115209,0.325236 -0.277318,0.524419 -0.266645,0.328595 -0.310569,0.339865 -0.463828,0.123043 -0.09281,-0.132306 -0.239206,-0.184993 -0.326173,-0.118221 -0.108349,0.08393 -0.147428,-0.05958 -0.124031,-0.464348 0.02632,-0.472104 -0.0088,-0.564393 -0.1816,-0.476537 -0.277347,0.141067 -0.314514,-0.224102 -0.124927,-1.218211 0.0801,-0.423283 0.08205,-0.836856 0.002,-0.918856 -0.07917,-0.0821 -0.18257,-0.770523 -0.230419,-1.530218 -0.05266,-0.854994 -0.150447,-1.412125 -0.256883,-1.463384 -0.118097,-0.0572 -0.13375,-0.222123 -0.05071,-0.536693 0.137747,-0.517633 0.01856,-0.856516 -0.288016,-0.824217 -0.1162,0.01166 -0.220697,-0.07915 -0.233368,-0.202087 -0.01274,-0.123553 0.03804,-0.194325 0.113355,-0.158171 0.07422,0.03611 0.128009,-0.0073 0.119097,-0.09718 -0.0097,-0.08981 -0.07914,-0.156283 -0.154212,-0.148449 -0.07523,0.0078 -0.423859,-0.192943 -0.776311,-0.44528 -0.56746,-0.408128 -0.796907,-0.463814 -2.051787,-0.498046 -0.776319,-0.02055 -1.695268,-0.08004 -2.041055,-0.131362 -0.34568,-0.0518 -0.86518,-0.06883 -1.154238,-0.03851 -0.289997,0.03026 -0.857395,-0.04786 -1.260784,-0.172805 -0.4033,-0.12557 -1.089754,-0.26561 -1.52539,-0.312069 -0.435482,-0.04648 -0.928783,-0.1597 -1.095742,-0.251455 -0.293991,-0.161548 -0.294955,-0.178243 -0.03319,-0.499953 0.461955,-0.570277 4.143535,-1.211474 7.136768,-1.243222 2.163062,-0.02289 5.435496,0.0859 5.540084,0.183544 0.149352,0.142114 1.70801,-0.0244 1.691394,-0.180674 -0.07515,-0.718745 -1.655244,-2.126027 -3.42869,-3.053732 -0.587915,-0.30755 -1.09856,-0.613832 -1.133783,-0.68014 -0.03524,-0.06646 -0.145516,-0.11281 -0.244179,-0.102982 -0.09866,0.0098 -0.723589,-0.275355 -1.388664,-0.633797 -0.665074,-0.358441 -1.284166,-0.596643 -1.376922,-0.530201 -0.09271,0.0669 -0.125048,0.0625 -0.07318,-0.0098 0.145512,-0.20025 -0.196213,-0.398963 -1.5234,-0.884743 -1.940453,-0.71137 -2.623126,-0.913545 -3.24419,-0.961964 -0.941428,-0.07222 -1.639624,-0.713831 -1.038157,-0.953101 1.045856,-0.41596 2.302755,-0.66794 2.323216,-0.465878 0.0089,0.08492 0.116242,0.102023 0.237357,0.0376 0.122144,-0.065 0.331113,-0.175759 0.466849,-0.247619 0.149449,-0.07905 0.213802,-0.06445 0.164053,0.03856 -0.05073,0.104048 0.0596,0.125507 0.289059,0.05615 0.204148,-0.06158 0.330051,-0.165073 0.279258,-0.230068 -0.09279,-0.120177 0.836906,5.48e-4 0.995096,0.128987 0.04788,0.03855 -0.0723,0.153731 -0.266571,0.256271 -0.334992,0.175853 -0.335955,0.184507 -0.02253,0.161137 0.182544,-0.01376 0.362254,-0.142617 0.401345,-0.286663 0.05658,-0.211966 0.211875,-0.258806 0.807548,-0.245064 1.907158,0.04347 4.757842,0.547428 4.789062,0.846655 0.0068,0.06492 0.210974,0.176742 0.45417,0.247945 0.493143,0.144501 2.263696,-0.311925 2.911082,-0.75054 0.195258,-0.13188 0.460969,-0.262246 0.589894,-0.289072 0.128878,-0.02729 0.521547,-0.166079 0.87215,-0.308569 0.350587,-0.142643 0.7089,-0.224662 0.796859,-0.182052 0.08779,0.04247 0.152263,-0.0044 0.141554,-0.104037 -0.01071,-0.102614 0.112314,-0.160706 0.284117,-0.134308 0.167028,0.02534 0.620083,-0.04744 1.005823,-0.161709 0.385691,-0.114736 1.923845,-0.346605 3.417971,-0.516027 2.099638,-0.237265 2.986314,-0.273947 3.899521,-0.160677 1.59573,0.197733 3.440377,0.637766 4.183555,0.998012 0.335985,0.163076 0.649429,0.291956 0.69729,0.287118 0.102615,-0.01071 0.92184,0.43896 1.71485,0.941439 0.313525,0.198234 0.633736,0.311479 0.711912,0.251379 0.07819,-0.05995 0.10255,-0.02921 0.05561,0.06791 -0.04689,0.09758 0.04291,0.204074 0.20024,0.236337 0.15733,0.03226 0.442369,0.270481 0.632881,0.528361 0.19133,0.258262 0.666067,0.751025 1.055685,1.09575 0.390615,0.343844 1.050809,1.010256 1.467727,1.479503 0.416027,0.469651 1.007767,1.073222 1.31251,1.340801 0.305617,0.267021 0.669851,0.747053 0.808566,1.064458 0.161207,0.369023 0.721688,0.97259 1.542092,1.664588 1.163099,0.9805 1.331042,1.190502 1.728507,2.169394 0.50384,1.23824 0.920816,1.874976 1.717835,2.623068 0.308544,0.28911 0.567295,0.588392 0.575135,0.665023 0.0079,0.07709 0.507783,0.672361 1.110435,1.322383 0.601591,0.650288 1.336916,1.486775 1.631782,1.859427 0.295837,0.373017 0.951173,1.127027 1.456009,1.675747 0.833995,0.907218 0.886655,1.002034 0.574204,1.036189 -0.308605,0.03375 -0.284111,0.07474 0.239233,0.402873 0.320308,0.200636 0.962915,0.656756 1.42768,1.013702 0.464813,0.357408 0.901403,0.644045 0.96979,0.637687 0.06828,-0.0059 0.468741,0.250468 0.888679,0.569791 0.420925,0.319841 0.886753,0.630332 1.035168,0.690429 0.14852,0.05962 0.498127,0.280217 0.776398,0.490838 0.279236,0.209432 0.96295,0.636223 1.521471,0.948241 0.55764,0.31102 1.488317,0.851079 2.068341,1.199265 0.580129,0.34771 1.800709,1.075714 2.712876,1.617237 2.393528,1.421322 2.564406,1.529775 3.433605,2.179668 0.433657,0.324112 1.007801,0.71879 1.2754,0.877804 2.416014,1.431107 7.898554,5.876127 9.815504,7.95712 0.1923,0.209482 0.70415,0.755294 1.13571,1.212904 1.20894,1.279757 1.45798,1.563412 2.93255,3.329134 0.75588,0.90526 1.52533,1.78422 1.71196,1.954171 0.18553,0.169909 0.42874,0.433488 0.53998,0.585954 0.1103,0.152409 0.53125,0.657316 0.93454,1.121142 0.78217,0.899407 3.53801,5.061433 3.57225,5.395493 0.0117,0.110444 0.23345,0.529291 0.49418,0.932564 0.38858,0.601596 1.61513,2.887748 1.63081,3.038054 0.003,0.02349 -0.0976,0.05264 -0.22273,0.06538 -0.17473,0.01854 -0.18654,0.100644 -0.0508,0.355527 0.0967,0.182603 0.42777,0.93545 0.73627,1.672772 0.30756,0.737264 0.92976,1.893638 1.38098,2.569413 0.45216,0.675832 0.99309,1.558574 1.20211,1.961022 0.461,0.885794 1.04778,2.661104 0.84858,2.564464 -0.0791,-0.0371 -0.12104,0.14856 -0.0929,0.41404 0.0342,0.33205 -0.0128,0.46198 -0.15135,0.41408 -0.11127,-0.038 -0.31345,-0.0976 -0.45024,-0.12985 -0.13663,-0.035 -0.51566,-0.41991 -0.8428,-0.85747 -0.32725,-0.43552 -0.6172,-0.76561 -0.64365,-0.73439 -0.0264,0.0332 0.30179,0.72076 0.72845,1.52927 1.7188,3.248 2.30371,4.80857 1.82038,4.85947 -0.16505,0.0175 -0.0283,0.3594 0.52737,1.32816 0.41212,0.716869 0.76075,1.414079 0.77533,1.550809 0.0449,0.43171 -0.26659,0.30076 -0.55959,-0.2343 -0.15428,-0.28328 -0.35344,-0.50775 -0.44231,-0.49801 -0.23534,0.0235 -0.21486,0.0722 0.59081,1.3906 0.91204,1.48833 1.92374,3.41012 1.95503,3.71292 0.0381,0.35746 -0.21687,0.29292 -0.74408,-0.1855 -0.78908,-0.71673 -1.76563,-1.51763 -1.75773,-1.44334 0.004,0.0391 0.41115,0.96098 0.90526,2.05078 0.79693,1.75789 1.96391,4.58213 1.98733,4.8125 0.0294,0.27547 -0.34756,0.045 -0.60052,-0.3672 -0.336,-0.55078 -0.93462,-0.9356 -0.89748,-0.5782 0.0117,0.11526 0.18349,0.37696 0.38187,0.58208 0.19818,0.20311 0.32819,0.43558 0.289,0.51758 -0.0781,0.16026 1.08005,2.28324 1.28024,2.34774 0.0674,0.0214 0.13575,0.15628 0.15031,0.29878 0.0147,0.14262 1.5166,2.58589 3.33699,5.4317 3.79195,5.92575 4.59657,7.13867 5.93364,8.94145 1.52241,2.05279 3.23732,4.50774 4.23138,6.0547 0.50287,0.7833 1.2754,1.875 1.71673,2.4277 1.24518,1.55855 2.40432,3.31644 2.98055,4.5196 0.43845,0.91412 0.58298,1.47648 0.87203,3.37492 0.42965,2.8301 0.38966,3.01763 -0.61913,2.92584 -0.82033,-0.0741 -0.93847,-0.10348 -2.53508,-0.64653 -0.64837,-0.22068 -1.26178,-0.48047 -1.36238,-0.58008 -0.24798,-0.24225 -0.76753,-0.17186 -0.73922,0.0995 0.0127,0.12013 -0.0762,0.44433 -0.19623,0.71875 -0.23442,0.53316 -0.81736,0.73831 -1.20606,0.42179 -0.15522,-0.12688 -0.27341,-0.0821 -0.51657,0.19138 -0.27055,0.30458 -1.13671,0.94332 -1.30268,0.96095 -0.029,0.002 -0.57395,-0.27355 -1.21065,-0.61349 l 0,0 z M 72.036721,117.38169 c -0.0322,-0.30861 -0.125968,-0.4531 -0.279229,-0.43742 -0.233325,0.0234 -0.264594,0.65233 -0.04299,0.83403 0.244061,0.19724 0.368122,0.0448 0.322224,-0.39661 z M 44.164784,66.090986 c -0.02349,-0.254934 0.002,-0.343282 0.05672,-0.197207 0.05468,0.14546 0.07421,0.353529 0.04291,0.461926 -0.03132,0.108243 -0.07625,-0.01086 -0.09963,-0.264719 z"
   inkscape:connector-curvature="0" />
</svg>