<?xml version="1.0" encoding="iso-8859-1"?>
<!-- Generator: Adobe Illustrator 16.0.4, SVG Export Plug-In . SVG Version: 6.00 Build 0)  -->
<!DOCTYPE svg PUBLIC "-//W3C//DTD SVG 1.1//EN" "http://www.w3.org/Graphics/SVG/1.1/DTD/svg11.dtd">
<svg version="1.1" id="Layer_1" xmlns="http://www.w3.org/2000/svg" xmlns:xlink="http://www.w3.org/1999/xlink" x="0px" y="0px"
	 width="139.447px" height="158.25px" viewBox="0 0 139.447 158.25" style="enable-background:new 0 0 139.447 158.25;"
	 xml:space="preserve">
<path id="path3945" style="fill:#F8AF40;stroke:#EF7911;stroke-width:3.1578;stroke-linecap:round;stroke-linejoin:round;" d="
	M126.906,32.708c20.462,31.572,11.454,73.752-20.117,94.215c-31.571,20.461-73.753,11.453-94.214-20.118
	c-0.012-0.017-0.021-0.031-0.032-0.048C-7.919,75.185,1.088,33.004,32.66,12.542c31.57-20.461,73.753-11.454,94.215,20.118
	C126.885,32.676,126.896,32.692,126.906,32.708z"/>
<g id="g3127" transform="translate(114.89013,-192.72213)">
	<g id="layer1-6" transform="matrix(0.15384448,-0.01605163,0.01605163,0.15384448,15.403507,243.47592)">
		
			<path id="path2998_11_" style="fill:#FFFFFF;stroke:#B75C25;stroke-width:3.1578;stroke-linecap:round;stroke-linejoin:round;" d="
			M-732.357-262.011"/>
		
			<path id="path2996_11_" style="display:none;fill:#FFFFFF;stroke:#B75C25;stroke-width:3.1578;stroke-linecap:round;stroke-linejoin:round;" d="
			M-732.357-262.011"/>
		<path id="path3958_11_" style="display:none;fill:#FFFFFF;stroke:#B75C25;stroke-width:0.9196;" d="M-90.103,682.355
			c-3.865-2.619-10.819-8.803-15.45-13.755c-7.903-8.455-9.041-10.268-18.561-29.505c-5.585-11.266-11.826-24.092-13.874-28.489
			c-11.619-24.921-32.931-68.57-50.299-103.003c-15.267-30.291-28.448-57.032-33.751-68.503
			c-9.562-20.663-11.375-23.366-24.879-37.026c-7.069-7.143-13.047-12.812-13.288-12.571c-0.228,0.236,0.512,2.148,1.663,4.261
			c1.157,2.114,3.207,6.314,4.567,9.338c1.36,3.024,5.635,9.995,9.472,15.499c9.52,13.587,12.73,19.927,13.945,27.443
			c0.854,5.326,0.754,6.947-0.597,9.802c-1.717,3.617-2.246,3.701-11.059,1.588c-1.499-0.36-2.442-0.014-2.859,1.06
			c-0.891,2.332-5.068,1.972-11.358-0.957c-5.763-2.683-28.768-16.611-35.541-21.533c-2.202-1.588-6.475-4.319-9.499-6.057
			c-25.848-14.846-44.323-26.677-60.463-38.682c-4.931-3.663-9.508-7.01-10.169-7.421c-1.388-0.868-6.412,3.965-13.871,13.33
			c-2.746,3.446-7.025,8.624-9.495,11.489c-8.917,10.331-13.004,15.668-13.005,16.963c0.001,0.724-1.288,2.608-2.861,4.183
			c-4.415,4.414-4.71,6.631-1.285,9.514l27.435,8.271c8.557,3.406,10.066,7.741,10.356,10.19c-3.852-3.963-7.931-6.299-12.541-4.946
			c-13.944-3.004-26.197-7.062-44.469-9.337c-12.118-1.519-24.287,7.305-30.058,7.858c-12.583,1.175-49.863,2.694-64.809,6.796
			c-5.901,1.619-10.927,2.948-11.156,2.949c-0.235,0.001-0.191-0.909,0.102-2.008c0.456-1.755,0.03-1.99-3.531-1.993
			c-5.141-0.003-9.046,1.468-9.898,3.728c-0.99,2.613-2.725,4.095-5.645,4.819c-2.575,0.645-2.591,0.618-1.452-2.691
			c3.887-11.274,13.135-15.654,31.815-15.089c19.906,0.617,38.492,0.068,44.749-1.311c1.436-0.32,2.249-1.238,2.251-2.533
			c-0.001-1.206-0.443-1.773-1.074-1.382c-0.753,0.468-0.773,0.11-0.06-1.187c0.557-1.021,1.266-3.067,1.573-4.546
			c0.312-1.466,1.352-2.918,2.316-3.212c3.514-1.068,13.103,1.025,16.991,3.728c3.99,2.765,6.912,3.54,5.656,1.517
			c-0.412-0.678-0.276-0.879,0.339-0.51c1.472,0.915,7.856-1.923,9.451-4.194c0.725-1.042,3.268-3.519,5.646-5.505
			c2.378-1.986,7.036-6.655,10.356-10.371c3.315-3.729,9.615-10.689,14.008-15.5c4.385-4.798,8.931-9.974,10.092-11.49
			c1.162-1.529,4.047-4.96,6.408-7.634c2.367-2.673,4.298-5.302,4.3-5.861c0.006-0.545,1.129-1.875,2.499-2.964
			c1.375-1.075,2.5-2.303,2.5-2.722c-0.002-1.74-8.975-7.005-13.549-7.939c-15.78-3.233-50.271-19.261-65.58-30.469
			c-14.967-10.956-18.208-13.415-23.151-17.51c-10.597-8.799-32.269-29.659-41.088-39.555c-3.375-3.793-6.605-7.393-7.183-7.999
			c-2.325-2.477-9.452-12.59-9.447-13.427c-0.004-1.486-3.606-4.255-4.496-3.452c-0.456,0.416-0.487,0.165-0.068-0.566
			c0.487-0.832-0.732-3.085-3.336-6.175c-2.26-2.673-4.105-5.316-4.102-5.887c0.001-0.559-0.758-1.438-1.675-1.952
			c-0.924-0.515-1.766-1.568-1.883-2.336c-0.11-0.767-3.131-5.881-6.711-11.358c-6.579-10.069-14.257-24.035-16.753-30.465
			c-0.744-1.931-2.356-4.854-3.574-6.505c-1.224-1.651-4.351-7.271-6.954-12.501c-2.603-5.229-5.035-9.723-5.406-10.003
			c-0.365-0.273-0.692-1.399-0.723-2.5c-0.17-6.461-4.959-22.925-7.094-24.423c-0.449-0.32-0.808-3.328-0.794-6.691
			c0.018-3.4-0.512-6.769-1.195-7.59c-0.671-0.813-1.011-1.686-0.756-1.945c0.255-0.253-0.004-3.365-0.581-6.904
			c-1.346-8.271-1.696-26.939-0.498-26.195c0.525,0.324,0.663-1.791,0.329-5.038c-0.32-3.077-0.176-5.734,0.318-5.905
			c0.915-0.317,1.495-11.594,1.274-24.807c-0.071-4.124,0.01-17.738,0.179-30.251s-0.045-22.749-0.477-22.749
			c-2.558,0-3.622-10.483-2.817-27.751c0.155-3.437,0.068-6.246-0.212-6.243c-0.712,0.011-4.997,7.68-4.996,8.943
			c-0.003,0.577-0.965,2.01-2.135,3.186c-1.934,1.931-2.225,1.977-3.065,0.48c-0.508-0.913-1.42-1.354-2.018-0.982
			c-0.76,0.467-0.908-0.482-0.486-3.066c0.486-3.018,0.322-3.635-0.848-3.186c-1.878,0.721-1.878-1.653,0.007-7.918
			c0.805-2.668,1.089-5.327,0.635-5.907c-0.454-0.581-0.664-5.078-0.455-9.994c0.229-5.537-0.026-9.181-0.67-9.582
			c-0.721-0.447-0.711-1.518,0.034-3.485c1.233-3.236,0.694-5.495-1.305-5.497c-0.749,0.001-1.36-0.653-1.365-1.457
			c0.001-0.8,0.375-1.224,0.834-0.938c0.459,0.283,0.834,0.036,0.838-0.544c-0.002-0.584-0.404-1.061-0.892-1.061
			c-0.489,0-2.602-1.522-4.693-3.385c-3.375-3.002-4.813-3.514-12.859-4.576c-4.984-0.656-10.847-1.653-13.036-2.214
			c-2.188-0.565-5.517-1.023-7.402-1.026c-1.879,0.004-5.475-0.879-7.984-1.956c-2.51-1.074-6.83-2.439-9.599-3.027
			c-2.77-0.591-5.865-1.65-6.877-2.352c-1.781-1.24-1.777-1.344,0.116-3.241c3.359-3.356,27.462-5.009,46.724-3.202
			c13.924,1.307,34.9,4.197,35.5,4.897c0.872,1.014,10.999,0.989,11.003-0.026c-0.001-4.672-9.217-14.781-20.004-21.94
			c-3.574-2.373-6.647-4.68-6.828-5.13c-0.188-0.448-0.86-0.823-1.501-0.826c-0.641-0.003-4.468-2.256-8.504-5.007
			c-4.036-2.751-7.863-4.699-8.498-4.334c-0.641,0.368-0.852,0.314-0.464-0.112c1.07-1.19-1.001-2.698-9.202-6.714
			c-12.006-5.874-16.26-7.632-20.221-8.359c-6.005-1.096-10.051-5.692-6.029-6.828c7.004-1.97,15.248-2.748,15.251-1.433
			c0.006,0.553,0.672,0.733,1.507,0.402c0.822-0.337,2.247-0.912,3.155-1.28c1.02-0.408,1.418-0.271,1.029,0.355
			c-0.39,0.635,0.305,0.851,1.827,0.559c1.354-0.259,2.227-0.837,1.95-1.288c-0.516-0.834,5.375,0.561,6.312,1.497
			c0.282,0.28-0.568,0.94-1.886,1.466c-2.272,0.909-2.284,0.961-0.253,1.021c1.177,0.037,2.425-0.674,2.773-1.571
			c0.506-1.325,1.53-1.523,5.357-1.034c12.235,1.556,30.226,6.712,30.226,8.657c0,0.422,1.238,1.278,2.753,1.9
			c3.068,1.26,14.765-0.488,19.222-2.873c1.345-0.72,3.134-1.377,3.981-1.467c0.854-0.089,3.465-0.718,5.814-1.399
			c2.356-0.681,4.716-0.968,5.252-0.636c0.537,0.332,0.976,0.073,0.98-0.574c0-0.667,0.83-0.958,1.917-0.673
			c1.057,0.275,4.013,0.111,6.57-0.365c2.557-0.476,12.609-0.938,22.33-1.025c13.659-0.114,19.386,0.242,25.182,1.58
			c10.127,2.345,21.688,6.411,26.231,9.227c2.051,1.271,3.98,2.313,4.291,2.314c0.667,0,5.633,3.441,10.395,7.201
			c1.883,1.488,3.866,2.431,4.408,2.101c0.536-0.334,0.679-0.123,0.312,0.474c-0.367,0.596,0.14,1.338,1.129,1.654
			c0.989,0.313,2.663,2.033,3.714,3.822c1.051,1.789,3.779,5.276,6.053,7.75c2.274,2.475,6.073,7.2,8.439,10.501
			c2.366,3.3,5.76,7.574,7.553,9.5c1.786,1.926,3.801,5.25,4.485,7.39c0.789,2.475,3.981,6.738,8.799,11.734
			c6.821,7.085,7.754,8.547,9.659,15.109c2.403,8.303,4.657,12.677,9.285,18.019c1.791,2.066,3.248,4.163,3.252,4.665
			c-0.001,0.498,2.808,4.66,6.246,9.247c3.438,4.583,7.599,10.457,9.252,13.051c1.653,2.594,5.354,7.881,8.232,11.749
			c4.76,6.394,5.036,7.038,3.003,7.048c-2.007,0.01-1.883,0.286,1.262,2.747c1.919,1.505,5.744,4.871,8.494,7.478
			c2.756,2.608,5.37,4.747,5.82,4.752c0.444,0.005,2.834,1.921,5.332,4.26c2.492,2.339,5.279,4.648,6.187,5.13
			c0.914,0.486,3.014,2.139,4.663,3.676c1.655,1.537,5.764,4.74,9.147,7.121c3.383,2.378,9.005,6.471,12.502,9.096
			c3.496,2.628,10.857,8.128,16.359,12.222c14.431,10.745,15.463,11.557,20.616,16.319c2.571,2.373,5.992,5.297,7.612,6.501
			c14.569,10.823,46.845,43.083,57.77,57.749c1.103,1.477,4.021,5.33,6.496,8.559c6.915,9.043,8.326,11.031,16.624,23.371
			c4.246,6.333,8.611,12.502,9.69,13.719c1.085,1.218,2.472,3.076,3.08,4.13c0.614,1.054,2.982,4.577,5.257,7.836
			c4.427,6.302,19.355,34.914,19.357,37.084c-0.006,0.723,1.146,3.56,2.545,6.334c2.095,4.129,8.456,19.646,8.455,20.624
			c-0.003,0.152-0.663,0.273-1.482,0.277c-1.136-0.004-1.266,0.515-0.565,2.252c0.506,1.233,2.129,6.303,3.619,11.245
			c1.483,4.954,4.701,12.805,7.155,17.454c2.454,4.649,5.341,10.688,6.414,13.416c2.37,5.999,4.953,17.808,3.73,17.058
			c-0.477-0.291-0.872,0.874-0.874,2.6c0.003,2.158-0.391,2.955-1.245,2.561c-0.689-0.326-1.951-0.832-2.807-1.143
			c-0.856-0.318-3.041-3.041-4.85-6.08c-1.812-3.02-3.449-5.336-3.639-5.153c-0.198,0.195,1.45,4.836,3.658,10.322
			c8.873,22.038,11.58,32.471,8.445,32.467c-1.073,0.002-0.43,2.291,2.493,8.893c2.169,4.886,3.949,9.604,3.945,10.492
			c-0.001,2.806-1.916,1.755-3.435-1.882c-0.802-1.925-1.932-3.502-2.51-3.499c-1.529-0.007-1.43,0.321,2.867,9.326
			c4.858,10.2,10.081,23.237,10.079,25.198c-0.001,2.323-1.591,1.738-4.667-1.693c-4.586-5.138-10.335-10.943-10.334-10.46
			c-0.001,0.253,2.005,6.455,4.445,13.794c3.951,11.838,9.554,30.781,9.556,32.279c0.003,1.791-2.272,0.055-3.615-2.764
			c-1.791-3.767-5.383-6.636-5.383-4.32c-0.008,0.748,0.927,2.547,2.064,3.999c1.132,1.445,1.812,3.02,1.505,3.528
			c-0.604,0.978,5.413,15.406,6.658,15.948c0.425,0.184,0.77,1.083,0.773,2.023c-0.001,0.927,8.016,17.651,17.812,37.165
			c20.406,40.654,24.768,48.986,32.154,61.481c8.406,14.22,17.792,31.157,23.14,41.77c2.708,5.374,6.949,12.913,9.41,16.762
			c6.96,10.857,13.241,22.938,16.139,31.061c2.206,6.172,2.758,9.885,3.338,22.28c0.87,18.493,0.486,19.672-5.945,18.404
			c-5.219-1.027-5.959-1.295-15.861-5.857c-4.028-1.855-7.79-3.942-8.377-4.645c-1.426-1.723-4.814-1.62-4.814,0.145
			c0.001,0.775-0.788,2.8-1.751,4.489c-1.865,3.271-5.744,4.193-8.032,1.904c-0.926-0.922-1.716-0.712-3.45,0.884
			c-1.943,1.771-7.942,5.303-9.021,5.305C-82.918,687.103-86.243,684.966-90.103,682.355L-90.103,682.355z M-472.473,443.095
			c-0.002-1.993-0.5-2.998-1.496-3c-1.518,0.007-2.147,4.029-0.836,5.334C-473.375,446.873-472.475,445.964-472.473,443.095z
			 M-617.276,94.599c0.02-1.648,0.243-2.203,0.497-1.23c0.26,0.973,0.24,2.323-0.034,3.002
			C-617.087,97.044-617.296,96.251-617.276,94.599z"/>
		<path id="path3019_11_" style="display:none;fill:#FFFFFF;stroke:#B75C25;stroke-width:0.9196;" d="M-90.103,682.355
			c-3.865-2.619-10.819-8.803-15.45-13.755c-7.903-8.455-9.041-10.268-18.561-29.505c-5.585-11.266-11.826-24.092-13.874-28.489
			c-11.619-24.921-32.931-68.57-50.299-103.003c-15.267-30.291-28.448-57.032-33.751-68.503
			c-9.562-20.663-11.375-23.366-24.879-37.026c-7.069-7.143-13.047-12.812-13.288-12.571c-0.228,0.236,0.512,2.148,1.663,4.261
			c1.157,2.114,3.207,6.314,4.567,9.338c1.36,3.024,5.635,9.995,9.472,15.499c9.52,13.587,12.73,19.927,13.945,27.443
			c0.854,5.326,0.754,6.947-0.597,9.802c-1.717,3.617-2.246,3.701-11.059,1.588c-1.499-0.36-2.442-0.014-2.859,1.06
			c-0.891,2.332-5.068,1.972-11.358-0.957c-5.763-2.683-28.768-16.611-35.541-21.533c-2.202-1.588-6.475-4.319-9.499-6.057
			c-25.848-14.846-44.323-26.677-60.463-38.682c-4.931-3.663-9.508-7.01-10.169-7.421c-1.388-0.868-6.412,3.965-13.871,13.33
			c-2.746,3.446-7.025,8.624-9.495,11.489c-8.917,10.331-13.004,15.668-13.005,16.963c0.001,0.724-1.288,2.608-2.861,4.183
			c-4.415,4.414-4.71,6.631-1.285,9.514l27.435,8.271c8.557,3.406,10.066,7.741,10.356,10.19c-3.852-3.963-7.931-6.299-12.541-4.946
			c-13.944-3.004-26.197-7.062-44.469-9.337c-12.118-1.519-24.287,7.305-30.058,7.858c-12.583,1.175-49.863,2.694-64.809,6.796
			c-5.901,1.619-10.927,2.948-11.156,2.949c-0.235,0.001-0.191-0.909,0.102-2.008c0.456-1.755,0.03-1.99-3.531-1.993
			c-5.141-0.003-9.046,1.468-9.898,3.728c-0.99,2.613-2.725,4.095-5.645,4.819c-2.575,0.645-2.591,0.618-1.452-2.691
			c3.887-11.274,13.135-15.654,31.815-15.089c19.906,0.617,38.492,0.068,44.749-1.311c1.436-0.32,2.249-1.238,2.251-2.533
			c-0.001-1.206-0.443-1.773-1.074-1.382c-0.753,0.468-0.773,0.11-0.06-1.187c0.557-1.021,1.266-3.067,1.573-4.546
			c0.312-1.466,1.352-2.918,2.316-3.212c3.514-1.068,13.103,1.025,16.991,3.728c3.99,2.765,6.912,3.54,5.656,1.517
			c-0.412-0.678-0.276-0.879,0.339-0.51c1.472,0.915,7.856-1.923,9.451-4.194c0.725-1.042,3.268-3.519,5.646-5.505
			c2.378-1.986,7.036-6.655,10.356-10.371c3.315-3.729,9.615-10.689,14.008-15.5c4.385-4.798,8.931-9.974,10.092-11.49
			c1.162-1.529,4.047-4.96,6.408-7.634c2.367-2.673,4.298-5.302,4.3-5.861c0.006-0.545,1.129-1.875,2.499-2.964
			c1.375-1.075,2.5-2.303,2.5-2.722c-0.002-1.74-8.975-7.005-13.549-7.939c-15.78-3.233-50.271-19.261-65.58-30.469
			c-14.967-10.956-18.208-13.415-23.151-17.51c-10.597-8.799-32.269-29.659-41.088-39.555c-3.375-3.793-6.605-7.393-7.183-7.999
			c-2.325-2.477-9.452-12.59-9.447-13.427c-0.004-1.486-3.606-4.255-4.496-3.452c-0.456,0.416-0.487,0.165-0.068-0.566
			c0.487-0.832-0.732-3.085-3.336-6.175c-2.26-2.673-4.105-5.316-4.102-5.887c0.001-0.559-0.758-1.438-1.675-1.952
			c-0.924-0.515-1.766-1.568-1.883-2.336c-0.11-0.767-3.131-5.881-6.711-11.358c-6.579-10.069-14.257-24.035-16.753-30.465
			c-0.744-1.931-2.356-4.854-3.574-6.505c-1.224-1.651-4.351-7.271-6.954-12.501c-2.603-5.229-5.035-9.723-5.406-10.003
			c-0.365-0.273-0.692-1.399-0.723-2.5c-0.17-6.461-4.959-22.925-7.094-24.423c-0.449-0.32-0.808-3.328-0.794-6.691
			c0.018-3.4-0.512-6.769-1.195-7.59c-0.671-0.813-1.011-1.686-0.756-1.945c0.255-0.253-0.004-3.365-0.581-6.904
			c-1.346-8.271-1.696-26.939-0.498-26.195c0.525,0.324,0.663-1.791,0.329-5.038c-0.32-3.077-0.176-5.734,0.318-5.905
			c0.915-0.317,1.495-11.594,1.274-24.807c-0.071-4.124,0.01-17.738,0.179-30.251s-0.045-22.749-0.477-22.749
			c-2.558,0-3.622-10.483-2.817-27.751c0.155-3.437,0.068-6.246-0.212-6.243c-0.712,0.011-4.997,7.68-4.996,8.943
			c-0.003,0.577-0.965,2.01-2.135,3.186c-1.934,1.931-2.225,1.977-3.065,0.48c-0.508-0.913-1.42-1.354-2.018-0.982
			c-0.76,0.467-0.908-0.482-0.486-3.066c0.486-3.018,0.322-3.635-0.848-3.186c-1.878,0.721-1.878-1.653,0.007-7.918
			c0.805-2.668,1.089-5.327,0.635-5.907c-0.454-0.581-0.664-5.078-0.455-9.994c0.229-5.537-0.026-9.181-0.67-9.582
			c-0.721-0.447-0.711-1.518,0.034-3.485c1.233-3.236,0.694-5.495-1.305-5.497c-0.749,0.001-1.36-0.653-1.365-1.457
			c0.001-0.8,0.375-1.224,0.834-0.938c0.459,0.283,0.834,0.036,0.838-0.544c-0.002-0.584-0.404-1.061-0.892-1.061
			c-0.489,0-2.602-1.522-4.693-3.385c-3.375-3.002-4.813-3.514-12.859-4.576c-4.984-0.656-10.847-1.653-13.036-2.214
			c-2.188-0.565-5.517-1.023-7.402-1.026c-1.879,0.004-5.475-0.879-7.984-1.956c-2.51-1.074-6.83-2.439-9.599-3.027
			c-2.77-0.591-5.865-1.65-6.877-2.352c-1.781-1.24-1.777-1.344,0.116-3.241c3.359-3.356,27.462-5.009,46.724-3.202
			c13.924,1.307,34.9,4.197,35.5,4.897c0.872,1.014,10.999,0.989,11.003-0.026c-0.001-4.672-9.217-14.781-20.004-21.94
			c-3.574-2.373-6.647-4.68-6.828-5.13c-0.188-0.448-0.86-0.823-1.501-0.826c-0.641-0.003-4.468-2.256-8.504-5.007
			c-4.036-2.751-7.863-4.699-8.498-4.334c-0.641,0.368-0.852,0.314-0.464-0.112c1.07-1.19-1.001-2.698-9.202-6.714
			c-12.006-5.874-16.26-7.632-20.221-8.359c-6.005-1.096-10.051-5.692-6.029-6.828c7.004-1.97,15.248-2.748,15.251-1.433
			c0.006,0.553,0.672,0.733,1.507,0.402c0.822-0.337,2.247-0.912,3.155-1.28c1.02-0.408,1.418-0.271,1.029,0.355
			c-0.39,0.635,0.305,0.851,1.827,0.559c1.354-0.259,2.227-0.837,1.95-1.288c-0.516-0.834,5.375,0.561,6.312,1.497
			c0.282,0.28-0.568,0.94-1.886,1.466c-2.272,0.909-2.284,0.961-0.253,1.021c1.177,0.037,2.425-0.674,2.773-1.571
			c0.506-1.325,1.53-1.523,5.357-1.034c12.235,1.556,30.226,6.712,30.226,8.657c0,0.422,1.238,1.278,2.753,1.9
			c3.068,1.26,14.765-0.488,19.222-2.873c1.345-0.72,3.134-1.377,3.981-1.467c0.854-0.089,3.465-0.718,5.814-1.399
			c2.356-0.681,4.716-0.968,5.252-0.636c0.537,0.332,0.976,0.073,0.98-0.574c0-0.667,0.83-0.958,1.917-0.673
			c1.057,0.275,4.013,0.111,6.57-0.365c2.557-0.476,12.609-0.938,22.33-1.025c13.659-0.114,19.386,0.242,25.182,1.58
			c10.127,2.345,21.688,6.411,26.231,9.227c2.051,1.271,3.98,2.313,4.291,2.314c0.667,0,5.633,3.441,10.395,7.201
			c1.883,1.488,3.866,2.431,4.408,2.101c0.536-0.334,0.679-0.123,0.312,0.474c-0.367,0.596,0.14,1.338,1.129,1.654
			c0.989,0.313,2.663,2.033,3.714,3.822c1.051,1.789,3.779,5.276,6.053,7.75c2.274,2.475,6.073,7.2,8.439,10.501
			c2.366,3.3,5.76,7.574,7.553,9.5c1.786,1.926,3.801,5.25,4.485,7.39c0.789,2.475,3.981,6.738,8.799,11.734
			c6.821,7.085,7.754,8.547,9.659,15.109c2.403,8.303,4.657,12.677,9.285,18.019c1.791,2.066,3.248,4.163,3.252,4.665
			c-0.001,0.498,2.808,4.66,6.246,9.247c3.438,4.583,7.599,10.457,9.252,13.051c1.653,2.594,5.354,7.881,8.232,11.749
			c4.76,6.394,5.036,7.038,3.003,7.048c-2.007,0.01-1.883,0.286,1.262,2.747c1.919,1.505,5.744,4.871,8.494,7.478
			c2.756,2.608,5.37,4.747,5.82,4.752c0.444,0.005,2.834,1.921,5.332,4.26c2.492,2.339,5.279,4.648,6.187,5.13
			c0.914,0.486,3.014,2.139,4.663,3.676c1.655,1.537,5.764,4.74,9.147,7.121c3.383,2.378,9.005,6.471,12.502,9.096
			c3.496,2.628,10.857,8.128,16.359,12.222c14.431,10.745,15.463,11.557,20.616,16.319c2.571,2.373,5.992,5.297,7.612,6.501
			c14.569,10.823,46.845,43.083,57.77,57.749c1.103,1.477,4.021,5.33,6.496,8.559c6.915,9.043,8.326,11.031,16.624,23.371
			c4.246,6.333,8.611,12.502,9.69,13.719c1.085,1.218,2.472,3.076,3.08,4.13c0.614,1.054,2.982,4.577,5.257,7.836
			c4.427,6.302,19.355,34.914,19.357,37.084c-0.006,0.723,1.146,3.56,2.545,6.334c2.095,4.129,8.456,19.646,8.455,20.624
			c-0.003,0.152-0.663,0.273-1.482,0.277c-1.136-0.004-1.266,0.515-0.565,2.252c0.506,1.233,2.129,6.303,3.619,11.245
			c1.483,4.954,4.701,12.805,7.155,17.454c2.454,4.649,5.341,10.688,6.414,13.416c2.37,5.999,4.953,17.808,3.73,17.058
			c-0.477-0.291-0.872,0.874-0.874,2.6c0.003,2.158-0.391,2.955-1.245,2.561c-0.689-0.326-1.951-0.832-2.807-1.143
			c-0.856-0.318-3.041-3.041-4.85-6.08c-1.812-3.02-3.449-5.336-3.639-5.153c-0.198,0.195,1.45,4.836,3.658,10.322
			c8.873,22.038,11.58,32.471,8.445,32.467c-1.073,0.002-0.43,2.291,2.493,8.893c2.169,4.886,3.949,9.604,3.945,10.492
			c-0.001,2.806-1.916,1.755-3.435-1.882c-0.802-1.925-1.932-3.502-2.51-3.499c-1.529-0.007-1.43,0.321,2.867,9.326
			c4.858,10.2,10.081,23.237,10.079,25.198c-0.001,2.323-1.591,1.738-4.667-1.693c-4.586-5.138-10.335-10.943-10.334-10.46
			c-0.001,0.253,2.005,6.455,4.445,13.794c3.951,11.838,9.554,30.781,9.556,32.279c0.003,1.791-2.272,0.055-3.615-2.764
			c-1.791-3.767-5.383-6.636-5.383-4.32c-0.008,0.748,0.927,2.547,2.064,3.999c1.132,1.445,1.812,3.02,1.505,3.528
			c-0.604,0.978,5.413,15.406,6.658,15.948c0.425,0.184,0.77,1.083,0.773,2.023c-0.001,0.927,8.016,17.651,17.812,37.165
			c20.406,40.654,24.768,48.986,32.154,61.481c8.406,14.22,17.792,31.157,23.14,41.77c2.708,5.374,6.949,12.913,9.41,16.762
			c6.96,10.857,13.241,22.938,16.139,31.061c2.206,6.172,2.758,9.885,3.338,22.28c0.87,18.493,0.486,19.672-5.945,18.404
			c-5.219-1.027-5.959-1.295-15.861-5.857c-4.028-1.855-7.79-3.942-8.377-4.645c-1.426-1.723-4.814-1.62-4.814,0.145
			c0.001,0.775-0.788,2.8-1.751,4.489c-1.865,3.271-5.744,4.193-8.032,1.904c-0.926-0.922-1.716-0.712-3.45,0.884
			c-1.943,1.771-7.942,5.303-9.021,5.305C-82.918,687.103-86.243,684.966-90.103,682.355L-90.103,682.355z M-472.473,443.095
			c-0.002-1.993-0.5-2.998-1.496-3c-1.518,0.007-2.147,4.029-0.836,5.334C-473.375,446.873-472.475,445.964-472.473,443.095z
			 M-617.276,94.599c0.02-1.648,0.243-2.203,0.497-1.23c0.26,0.973,0.24,2.323-0.034,3.002
			C-617.087,97.044-617.296,96.251-617.276,94.599z"/>
	</g>
	<g id="g3978" transform="matrix(0.15384448,-0.01605163,0.01605163,0.15384448,12.962402,241.49609)">
		<path id="path3980" style="display:none;fill:#FFFFFF;stroke:#B75C25;stroke-width:0.9196;" d="M-732.352-262.012"/>
		<path id="path3982" style="display:none;fill:#FFFFFF;stroke:#B75C25;stroke-width:0.9196;" d="M-732.352-262.012"/>
		<path id="path3988" style="fill:#FFFFFF;stroke:#B75C25;stroke-width:0.9196;" d="M-90.105,682.356
			c-3.866-2.613-10.812-8.803-15.45-13.755c-7.902-8.461-9.04-10.274-18.561-29.505c-5.579-11.266-11.826-24.092-13.874-28.489
			c-11.619-24.915-32.937-68.577-50.293-103.003c-15.268-30.285-28.453-57.039-33.758-68.498
			c-9.561-20.675-11.375-23.366-24.879-37.026c-7.067-7.161-13.047-12.813-13.281-12.583c-0.241,0.241,0.511,2.161,1.656,4.261
			c1.151,2.113,3.207,6.314,4.567,9.338c1.361,3.024,5.627,10.007,9.479,15.5c9.512,13.599,12.73,19.927,13.938,27.455
			c0.862,5.308,0.76,6.948-0.596,9.79c-1.718,3.629-2.24,3.702-11.052,1.589c-1.492-0.359-2.444-0.001-2.853,1.061
			c-0.897,2.331-5.076,1.984-11.372-0.945c-5.763-2.684-28.766-16.624-35.535-21.532c-2.194-1.6-6.473-4.332-9.498-6.069
			c-25.841-14.846-44.331-26.665-60.465-38.67c-4.93-3.676-9.501-7.009-10.169-7.422c-1.388-0.868-6.405,3.953-13.863,13.319
			c-2.76,3.457-7.025,8.624-9.503,11.501c-8.917,10.33-13.002,15.655-12.998,16.95c-0.001,0.737-1.295,2.62-2.869,4.195
			c-4.408,4.402-4.709,6.618-1.283,9.502l27.441,8.271c8.544,3.406,10.065,7.754,10.35,10.196c-3.847-3.956-8.646-2.73-13.251-1.37
			c-13.949-3.017-26.197-7.062-44.474-9.35c-12.113-1.505-24.282,7.318-30.058,7.858c-12.591,1.188-49.865,2.707-64.81,6.809
			c-5.901,1.619-10.92,2.936-11.155,2.937c-0.229,0.001-0.186-0.896,0.1-1.996c-1.9-4.121-10.73-3.443-12.714-1.834
			c-1.988,1.595-2.718,4.083-5.651,4.819c-2.562,0.647-2.59,0.606-1.451-2.703c3.887-11.274,13.136-15.654,31.815-15.089
			c19.906,0.617,38.498,0.069,44.749-1.311c1.436-0.32,2.249-1.238,2.251-2.533c-0.002-1.194-0.437-1.772-1.075-1.382
			c-0.753,0.467-0.767,0.111-0.06-1.187c0.557-1.021,1.266-3.067,1.578-4.533c0.307-1.479,1.347-2.932,2.311-3.225
			c3.514-1.068,13.101,1.037,16.991,3.728c3.99,2.765,6.91,3.552,5.663,1.518c-0.419-0.666-0.27-0.879,0.331-0.499
			c1.474,0.903,7.864-1.935,9.453-4.206c0.737-1.041,3.268-3.519,5.646-5.505c2.378-1.986,7.042-6.654,10.356-10.371
			c3.315-3.723,9.621-10.689,14.007-15.487c4.393-4.81,8.932-9.986,10.093-11.502c1.169-1.529,4.047-4.961,6.414-7.634
			c2.361-2.674,4.292-5.303,4.292-5.849c0.001-0.559,1.124-1.889,2.499-2.964c1.377-1.088,2.501-2.316,2.499-2.723
			c-0.001-1.752-8.973-7.017-13.548-7.952c-15.78-3.233-50.265-19.248-65.58-30.469c-14.968-10.956-18.202-13.414-23.151-17.51
			c-10.597-8.799-32.262-29.658-41.088-39.555c-3.368-3.792-6.605-7.392-7.183-7.999c-2.325-2.477-9.446-12.589-9.449-13.415
			c-0.003-1.492-3.605-4.261-4.489-3.452c-0.455,0.41-0.486,0.153-0.067-0.572c0.48-0.832-0.738-3.086-3.341-6.182
			c-2.254-2.672-4.105-5.316-4.103-5.881c0-0.552-0.751-1.443-1.675-1.958c-0.917-0.515-1.767-1.556-1.877-2.329
			c-0.117-0.768-3.138-5.882-6.717-11.365c-6.573-10.068-14.25-24.034-16.747-30.464c-0.751-1.932-2.363-4.855-3.581-6.506
			c-1.224-1.651-4.351-7.272-6.955-12.495c-2.604-5.223-5.034-9.729-5.4-9.996c-0.371-0.28-0.698-1.406-0.723-2.5
			c-0.176-6.468-4.957-22.937-7.1-24.431c-0.45-0.313-0.802-3.324-0.787-6.693c0.018-3.394-0.512-6.769-1.195-7.59
			c-0.677-0.807-1.018-1.68-0.762-1.939c0.262-0.258-0.004-3.365-0.58-6.91c-1.34-8.268-1.697-26.933-0.492-26.191
			c0.524,0.328,0.663-1.791,0.323-5.038c-0.314-3.076-0.176-5.734,0.318-5.905c0.915-0.314,1.495-11.591,1.274-24.807
			c-0.065-4.124,0.016-17.737,0.186-30.25c0.163-12.513-0.051-22.75-0.483-22.75c-2.558,0-3.622-10.484-2.818-27.748
			c0.162-3.44,0.068-6.249-0.206-6.242c-0.712,0.008-5.003,7.676-5.002,8.939c-0.003,0.577-0.959,2.014-2.135,3.186
			c-1.935,1.934-2.225,1.977-3.065,0.48c-0.508-0.913-1.414-1.35-2.018-0.979c-0.753,0.467-0.908-0.482-0.486-3.069
			c0.486-3.018,0.322-3.635-0.848-3.186c-1.878,0.721-1.872-1.652,0.014-7.917c0.799-2.668,1.089-5.326,0.629-5.907
			c-0.454-0.581-0.657-5.077-0.455-9.994c0.235-5.533-0.02-9.181-0.67-9.582c-0.721-0.447-0.711-1.518,0.034-3.485
			c1.233-3.236,0.694-5.495-1.299-5.493c-0.755-0.003-1.366-0.657-1.365-1.456c0.001-0.803,0.375-1.224,0.835-0.941
			c0.453,0.282,0.828,0.039,0.831-0.545c-0.002-0.584-0.404-1.058-0.892-1.058c-0.489,0-2.596-1.525-4.693-3.384
			c-3.375-3.005-4.813-3.517-12.859-4.579c-4.978-0.653-10.847-1.652-13.036-2.214c-2.188-0.565-5.517-1.023-7.396-1.022
			c-1.885,0-5.481-0.883-7.991-1.957c-2.509-1.078-6.829-2.439-9.599-3.03c-2.769-0.591-5.865-1.65-6.877-2.352
			c-1.782-1.236-1.777-1.344,0.122-3.237c3.353-3.357,27.456-5.01,46.724-3.206c13.924,1.304,34.893,4.199,35.5,4.897
			c0.865,1.014,10.999,0.989,10.997-0.027c-0.001-4.672-9.217-14.781-19.998-21.936c-3.574-2.372-6.652-4.684-6.834-5.134
			c-0.182-0.451-0.86-0.823-1.501-0.826c-0.641-0.003-4.468-2.256-8.504-5.007s-7.857-4.698-8.498-4.333
			c-0.641,0.368-0.846,0.318-0.464-0.112c1.07-1.19-0.994-2.697-9.202-6.711c-12-5.876-16.254-7.634-20.215-8.362
			c-6.005-1.096-10.064-5.69-6.036-6.825c7.004-1.973,15.255-2.75,15.251-1.437c0,0.552,0.679,0.734,1.501,0.401
			c0.829-0.336,2.247-0.908,3.168-1.279c1.014-0.408,1.418-0.271,1.029,0.358c-0.396,0.635,0.299,0.847,1.821,0.555
			c1.354-0.259,2.233-0.84,1.95-1.292c-0.516-0.835,5.381,0.565,6.312,1.497c0.282,0.28-0.568,0.94-1.886,1.469
			c-2.272,0.906-2.284,0.961-0.253,1.021c1.183,0.034,2.425-0.674,2.773-1.574c0.506-1.325,1.536-1.522,5.357-1.034
			c12.234,1.559,30.226,6.712,30.226,8.657c0,0.422,1.238,1.278,2.754,1.899c3.074,1.26,14.765-0.487,19.222-2.873
			c1.344-0.717,3.14-1.377,3.987-1.463c0.847-0.089,3.465-0.718,5.815-1.399c2.35-0.682,4.709-0.969,5.246-0.636
			c0.536,0.332,0.982,0.074,0.98-0.574c0-0.667,0.83-0.958,1.917-0.673c1.057,0.275,4.019,0.111,6.576-0.365
			c2.557-0.479,12.603-0.938,22.324-1.025c13.66-0.117,19.386,0.242,25.182,1.583c10.128,2.342,21.694,6.409,26.231,9.224
			c2.051,1.274,3.98,2.313,4.291,2.314c0.667,0,5.633,3.441,10.395,7.204c1.883,1.485,3.866,2.428,4.409,2.094
			c0.543-0.333,0.679-0.119,0.312,0.474c-0.367,0.596,0.139,1.341,1.129,1.654s2.663,2.036,3.715,3.822
			c1.057,1.789,3.779,5.276,6.053,7.754c2.281,2.473,6.079,7.201,8.445,10.498c2.36,3.299,5.76,7.577,7.54,9.502
			c1.786,1.922,3.806,5.253,4.485,7.387c0.789,2.481,3.988,6.738,8.799,11.738c6.821,7.085,7.76,8.548,9.659,15.109
			c2.409,8.3,4.663,12.674,9.286,18.019c1.79,2.066,3.253,4.164,3.252,4.662c-0.001,0.501,2.814,4.664,6.253,9.248
			c3.432,4.585,7.599,10.457,9.245,13.051c1.652,2.597,5.36,7.885,8.238,11.752c4.754,6.393,5.029,7.038,2.997,7.048
			c-2.007,0.01-1.877,0.29,1.268,2.751c1.925,1.505,5.751,4.869,8.5,7.476c2.749,2.61,5.364,4.746,5.808,4.751
			c0.443,0.008,2.846,1.925,5.332,4.26c2.492,2.339,5.279,4.648,6.193,5.134c0.915,0.483,3.015,2.136,4.663,3.677
			c1.655,1.534,5.765,4.737,9.147,7.118c3.377,2.374,8.999,6.471,12.495,9.099c3.497,2.625,10.857,8.125,16.359,12.219
			c14.437,10.745,15.463,11.557,20.616,16.319c2.571,2.375,5.998,5.298,7.612,6.5c14.575,10.823,46.846,43.083,57.776,57.75
			c1.096,1.476,4.021,5.329,6.489,8.561c6.915,9.04,8.326,11.031,16.623,23.374c4.253,6.328,8.611,12.496,9.697,13.714
			c1.079,1.217,2.466,3.075,3.079,4.13c0.607,1.054,2.975,4.583,5.257,7.836c4.426,6.308,19.354,34.919,19.35,37.09
			c0.001,0.718,1.146,3.56,2.552,6.328c2.095,4.129,8.448,19.652,8.448,20.629c0.003,0.153-0.663,0.273-1.476,0.271
			c-1.136,0.002-1.267,0.522-0.565,2.252c0.499,1.239,2.123,6.302,3.612,11.25c1.483,4.947,4.708,12.8,7.156,17.448
			c2.454,4.649,5.34,10.688,6.414,13.416c2.37,6.005,4.952,17.814,3.736,17.059c-0.484-0.292-0.878,0.874-0.875,2.6
			c-0.003,2.158-0.392,2.962-1.251,2.561c-0.69-0.319-1.95-0.838-2.808-1.137c-0.855-0.317-3.034-3.046-4.844-6.079
			c-1.812-3.02-3.455-5.337-3.646-5.154c-0.192,0.196,1.457,4.837,3.658,10.322c8.873,22.038,11.587,32.465,8.445,32.468
			c-1.073,0.002-0.423,2.292,2.5,8.894c2.169,4.886,3.943,9.603,3.945,10.492c-0.001,2.806-1.916,1.755-3.441-1.882
			c-0.802-1.925-1.932-3.502-2.51-3.499c-1.529-0.007-1.43,0.32,2.866,9.338c4.866,10.182,10.082,23.218,10.08,25.186
			c0.005,2.324-1.591,1.738-4.66-1.692c-4.593-5.138-10.335-10.943-10.334-10.46c-0.001,0.254,1.999,6.455,4.445,13.794
			c3.945,11.838,9.554,30.781,9.55,32.278c0.004,1.791-2.265,0.056-3.615-2.764c-1.791-3.767-5.382-6.643-5.383-4.32
			c-0.002,0.749,0.927,2.547,2.065,3.999c1.138,1.439,1.818,3.021,1.511,3.522c-0.61,0.978,5.413,15.406,6.657,15.955
			c0.419,0.183,0.768,1.096,0.766,2.022c-0.001,0.927,8.017,17.645,17.813,37.165c20.407,40.647,24.767,48.986,32.155,61.475
			c8.412,14.221,17.792,31.157,23.146,41.771c2.708,5.374,6.943,12.912,9.41,16.762c6.961,10.857,13.235,22.938,16.133,31.061
			c2.206,6.172,2.758,9.885,3.343,22.286c0.864,18.486,0.481,19.665-5.944,18.398c-5.225-1.027-5.965-1.295-15.867-5.858
			c-4.021-1.854-7.791-3.936-8.371-4.644c-1.432-1.724-4.82-1.62-4.82,0.144c0.001,0.781-0.788,2.806-1.744,4.49
			c-1.865,3.271-5.751,4.199-8.038,1.903c-0.913-0.92-1.703-0.711-3.45,0.884c-1.944,1.777-7.942,5.303-9.021,5.305
			C-82.92,687.105-86.239,684.969-90.105,682.356L-90.105,682.356z M-472.47,443.103c0-2.006-0.506-2.998-1.502-3
			c-1.516-0.006-2.139,4.017-0.836,5.334C-473.371,446.869-472.471,445.972-472.47,443.103z M-617.278,94.601
			c0.02-1.655,0.243-2.206,0.497-1.23c0.254,0.972,0.24,2.323-0.034,2.999C-617.089,97.045-617.298,96.249-617.278,94.601z"/>
	</g>
</g>
</svg>
