<?xml version="1.0" encoding="iso-8859-1"?>
<!-- Generator: Adobe Illustrator 16.0.4, SVG Export Plug-In . SVG Version: 6.00 Build 0)  -->
<!DOCTYPE svg PUBLIC "-//W3C//DTD SVG 1.1//EN" "http://www.w3.org/Graphics/SVG/1.1/DTD/svg11.dtd">
<svg version="1.1" id="Layer_1" xmlns="http://www.w3.org/2000/svg" xmlns:xlink="http://www.w3.org/1999/xlink" x="0px" y="0px"
	 width="139.448px" height="158.249px" viewBox="0 0 139.448 158.249" style="enable-background:new 0 0 139.448 158.249;"
	 xml:space="preserve">
<path id="path3945" style="fill:#F8AF40;stroke:#EF7911;stroke-width:3.1578;stroke-linecap:round;stroke-linejoin:round;" d="
	M126.906,32.708c20.461,31.572,11.454,73.753-20.118,94.215c-31.571,20.462-73.753,11.454-94.214-20.118
	c-0.011-0.016-0.021-0.031-0.032-0.048C-7.919,75.185,1.088,33.004,32.66,12.542C64.231-7.919,106.413,1.088,126.875,32.66
	C126.885,32.676,126.896,32.692,126.906,32.708z"/>
<g id="g3127" transform="translate(114.89013,-192.72213)">
	<g id="layer1-6" transform="matrix(0.15384448,-0.01605163,0.01605163,0.15384448,15.403507,243.47592)" >
		
			<path id="path2998_11_" style="fill:#E6302E;stroke:#CC1417;stroke-width:3.1578;stroke-linecap:round;stroke-linejoin:round;" d="
			M-732.352-262.008"/>
		
			<path id="path2996_11_" style="fill:#E6302E;stroke:#CC1417;stroke-width:3.1578;stroke-linecap:round;stroke-linejoin:round;" d="
			M-732.352-262.008"/>
		
			<path id="path3958_11_" style="fill:#B61917;stroke:#CC1417;stroke-width:0.9196;" d="
			M-90.098,682.352c-3.866-2.613-10.818-8.803-15.45-13.755c-7.903-8.455-9.041-10.268-18.561-29.505
			c-5.585-11.266-11.826-24.086-13.874-28.489c-11.619-24.915-32.938-68.565-50.299-103.003
			c-15.268-30.285-28.448-57.032-33.752-68.497c-9.562-20.663-11.375-23.366-24.879-37.026
			c-7.074-7.149-13.053-12.813-13.288-12.571c-0.233,0.23,0.512,2.148,1.663,4.261c1.151,2.113,3.201,6.314,4.567,9.338
			c1.36,3.024,5.629,9.995,9.472,15.499c9.519,13.587,12.731,19.921,13.945,27.443c0.854,5.32,0.754,6.947-0.597,9.802
			c-1.717,3.617-2.245,3.695-11.058,1.582c-1.499-0.359-2.443-0.007-2.86,1.066c-0.89,2.326-5.068,1.972-11.358-0.957
			c-5.763-2.683-28.767-16.617-35.541-21.533c-2.201-1.594-6.475-4.319-9.499-6.057c-25.847-14.853-44.323-26.677-60.463-38.682
			c-4.931-3.663-9.508-7.01-10.169-7.421c-1.388-0.868-6.412,3.959-13.871,13.33c-2.746,3.446-7.025,8.624-9.495,11.489
			c-8.917,10.331-13.004,15.668-13.005,16.963c0.001,0.724-1.288,2.608-2.861,4.183c-4.415,4.414-4.71,6.631-1.285,9.515
			l27.436,8.265c8.551,3.406,10.065,7.747,10.356,10.19c-3.853-3.957-7.931-6.299-12.542-4.94
			c-13.943-3.01-26.197-7.063-44.469-9.344c-12.119-1.512-24.288,7.311-30.058,7.858c-12.584,1.182-49.864,2.7-64.809,6.803
			c-5.901,1.619-10.927,2.948-11.155,2.943c-0.235,0.001-0.192-0.902,0.101-2.002c0.456-1.755,0.031-1.996-3.531-1.993
			c-5.141-0.003-9.046,1.468-9.898,3.728c-0.99,2.614-2.725,4.089-5.645,4.819c-2.575,0.645-2.59,0.612-1.452-2.697
			c3.886-11.268,13.135-15.654,31.814-15.083c19.906,0.611,38.492,0.068,44.749-1.311c1.436-0.32,2.249-1.238,2.252-2.539
			c-0.002-1.2-0.444-1.767-1.075-1.375c-0.753,0.467-0.773,0.11-0.06-1.193c0.557-1.015,1.265-3.061,1.572-4.54
			c0.312-1.472,1.352-2.919,2.316-3.212c3.514-1.074,13.103,1.024,16.992,3.722c3.99,2.765,6.911,3.546,5.656,1.523
			c-0.412-0.678-0.276-0.886,0.339-0.511c1.472,0.915,7.857-1.929,9.452-4.2c0.724-1.035,3.267-3.512,5.646-5.498
			c2.378-1.986,7.036-6.655,10.357-10.377c3.315-3.723,9.615-10.689,14.007-15.493c4.385-4.798,8.931-9.974,10.093-11.496
			c1.162-1.523,4.046-4.954,6.407-7.628c2.367-2.673,4.299-5.309,4.3-5.861c0-0.546,1.123-1.876,2.499-2.964
			c1.375-1.075,2.5-2.304,2.499-2.723c-0.002-1.746-8.975-7.005-13.549-7.945c-15.78-3.227-50.271-19.255-65.58-30.463
			c-14.967-10.963-18.208-13.415-23.151-17.517c-10.597-8.793-32.269-29.653-41.088-39.555c-3.376-3.786-6.605-7.386-7.183-7.999
			c-2.325-2.477-9.452-12.59-9.448-13.421c-0.004-1.486-3.606-4.255-4.496-3.453c-0.456,0.416-0.487,0.165-0.068-0.566
			c0.487-0.832-0.732-3.085-3.336-6.175c-2.26-2.673-4.104-5.322-4.102-5.887c0.001-0.558-0.758-1.438-1.675-1.952
			c-0.924-0.515-1.766-1.568-1.883-2.336c-0.11-0.767-3.132-5.881-6.711-11.358c-6.579-10.068-14.257-24.035-16.753-30.471
			c-0.745-1.925-2.357-4.848-3.575-6.499c-1.224-1.651-4.351-7.271-6.954-12.501s-5.035-9.723-5.406-10.003
			c-0.365-0.273-0.692-1.399-0.723-2.5c-0.17-6.461-4.959-22.925-7.094-24.424c-0.449-0.32-0.808-3.328-0.794-6.691
			c0.018-3.4-0.513-6.769-1.195-7.59c-0.671-0.813-1.011-1.686-0.756-1.945c0.255-0.253-0.004-3.365-0.581-6.903
			c-1.346-8.272-1.696-26.939-0.498-26.195c0.525,0.325,0.663-1.791,0.329-5.038c-0.32-3.077-0.176-5.735,0.318-5.905
			c0.916-0.317,1.495-11.594,1.274-24.807c-0.071-4.124,0.01-17.738,0.179-30.25s-0.045-22.749-0.477-22.749
			c-2.558,0-3.622-10.484-2.817-27.751c0.155-3.437,0.068-6.246-0.212-6.243c-0.712,0.011-4.997,7.68-4.996,8.943
			c-0.003,0.577-0.965,2.01-2.135,3.186c-1.934,1.931-2.225,1.977-3.065,0.48c-0.508-0.913-1.42-1.354-2.018-0.982
			c-0.76,0.467-0.908-0.482-0.486-3.066c0.486-3.018,0.322-3.635-0.848-3.186c-1.878,0.721-1.878-1.653,0.007-7.918
			c0.805-2.668,1.089-5.326,0.635-5.907c-0.454-0.581-0.664-5.078-0.455-9.994c0.229-5.537-0.026-9.182-0.67-9.582
			c-0.721-0.447-0.711-1.518,0.034-3.485c1.233-3.236,0.694-5.495-1.305-5.497c-0.749,0.001-1.36-0.653-1.365-1.456
			c0.001-0.8,0.375-1.224,0.834-0.938c0.459,0.283,0.834,0.036,0.838-0.544c-0.003-0.584-0.404-1.061-0.892-1.061
			s-2.602-1.522-4.693-3.384c-3.374-3.005-4.813-3.517-12.859-4.576c-4.984-0.657-10.847-1.652-13.036-2.214
			c-2.188-0.565-5.517-1.026-7.402-1.026c-1.879,0.001-5.475-0.879-7.984-1.957c-2.51-1.074-6.83-2.439-9.599-3.027
			c-2.77-0.59-5.865-1.65-6.877-2.352c-1.781-1.24-1.777-1.344,0.116-3.241c3.359-3.357,27.462-5.009,46.723-3.202
			c13.924,1.304,34.9,4.197,35.5,4.897c0.872,1.015,10.999,0.989,11.003-0.026c-0.001-4.672-9.217-14.781-20.004-21.94
			c-3.574-2.372-6.647-4.68-6.828-5.13c-0.188-0.451-0.86-0.823-1.5-0.829c-0.641-0.003-4.468-2.256-8.504-5.004
			c-4.036-2.751-7.863-4.699-8.498-4.334c-0.641,0.368-0.852,0.314-0.464-0.112c1.07-1.19-1.001-2.697-9.202-6.714
			c-12.006-5.874-16.26-7.632-20.221-8.359c-6.005-1.099-10.057-5.693-6.029-6.828c7.004-1.97,15.248-2.748,15.251-1.433
			c0,0.552,0.672,0.733,1.501,0.401c0.822-0.336,2.247-0.911,3.161-1.279c1.02-0.411,1.418-0.271,1.029,0.355
			c-0.39,0.635,0.305,0.848,1.827,0.556c1.354-0.259,2.227-0.837,1.95-1.288c-0.516-0.835,5.375,0.561,6.312,1.497
			c0.282,0.28-0.568,0.941-1.886,1.466c-2.272,0.909-2.284,0.961-0.253,1.021c1.177,0.037,2.425-0.674,2.773-1.571
			c0.506-1.325,1.53-1.522,5.357-1.034c12.235,1.556,30.226,6.712,30.226,8.657c0,0.422,1.238,1.278,2.754,1.9
			c3.068,1.26,14.765-0.488,19.222-2.873c1.345-0.72,3.134-1.377,3.981-1.467c0.853-0.086,3.464-0.715,5.815-1.399
			c2.356-0.681,4.716-0.968,5.252-0.636c0.537,0.332,0.976,0.076,0.98-0.571c0-0.667,0.83-0.958,1.917-0.673
			c1.057,0.275,4.013,0.111,6.57-0.368c2.557-0.476,12.609-0.938,22.33-1.022c13.66-0.117,19.386,0.242,25.182,1.58
			c10.128,2.345,21.688,6.411,26.231,9.227c2.051,1.271,3.98,2.313,4.291,2.314c0.667,0,5.633,3.441,10.395,7.201
			c1.882,1.488,3.866,2.431,4.409,2.098c0.536-0.334,0.679-0.12,0.312,0.474c-0.367,0.597,0.14,1.338,1.129,1.654
			c0.989,0.313,2.663,2.033,3.715,3.822c1.051,1.789,3.779,5.276,6.053,7.751c2.275,2.475,6.073,7.2,8.439,10.5
			c2.366,3.3,5.761,7.574,7.547,9.5c1.786,1.926,3.801,5.249,4.485,7.39c0.789,2.475,3.982,6.738,8.799,11.735
			c6.821,7.085,7.754,8.547,9.659,15.109c2.403,8.303,4.657,12.677,9.286,18.019c1.79,2.066,3.247,4.163,3.252,4.665
			c-0.001,0.498,2.808,4.66,6.246,9.247c3.438,4.583,7.599,10.457,9.252,13.051c1.653,2.594,5.354,7.881,8.232,11.749
			c4.76,6.394,5.036,7.038,3.003,7.048c-2.007,0.01-1.883,0.286,1.262,2.747c1.925,1.505,5.75,4.872,8.5,7.479
			c2.75,2.607,5.364,4.746,5.814,4.752c0.444,0.005,2.84,1.921,5.332,4.26s5.279,4.648,6.193,5.131
			c0.914,0.486,3.014,2.139,4.663,3.676c1.649,1.537,5.764,4.74,9.141,7.121c3.383,2.378,9.005,6.472,12.502,9.096
			c3.496,2.628,10.857,8.128,16.359,12.222c14.431,10.745,15.463,11.557,20.616,16.319c2.571,2.373,5.992,5.297,7.612,6.501
			c14.569,10.823,46.845,43.082,57.769,57.749c1.103,1.477,4.021,5.33,6.496,8.558c6.915,9.043,8.326,11.032,16.623,23.374
			c4.247,6.327,8.611,12.502,9.69,13.719c1.085,1.218,2.472,3.076,3.079,4.13c0.614,1.054,2.982,4.577,5.263,7.836
			c4.421,6.301,19.349,34.913,19.351,37.084c0.001,0.717,1.146,3.56,2.545,6.334c2.096,4.129,8.456,19.646,8.455,20.624
			c-0.003,0.152-0.663,0.274-1.482,0.277c-1.136-0.004-1.266,0.515-0.565,2.252c0.506,1.233,2.13,6.297,3.619,11.245
			c1.483,4.954,4.701,12.805,7.155,17.454c2.454,4.649,5.341,10.682,6.415,13.409c2.37,6.005,4.952,17.814,3.729,17.065
			c-0.477-0.297-0.872,0.874-0.874,2.6c0.003,2.159-0.391,2.955-1.245,2.562c-0.69-0.326-1.95-0.838-2.806-1.15
			s-3.041-3.04-4.851-6.073c-1.811-3.026-3.448-5.343-3.639-5.153c-0.198,0.195,1.451,4.836,3.658,10.322
			c8.873,22.038,11.581,32.465,8.445,32.467c-1.073,0.002-0.43,2.291,2.494,8.887c2.169,4.886,3.949,9.61,3.945,10.498
			c-0.001,2.806-1.916,1.755-3.435-1.882c-0.802-1.925-1.932-3.502-2.51-3.499c-1.529-0.007-1.43,0.321,2.867,9.326
			c4.859,10.194,10.081,23.231,10.079,25.198c0,2.317-1.591,1.738-4.666-1.699c-4.587-5.132-10.335-10.943-10.335-10.454
			c-0.001,0.254,2.005,6.455,4.445,13.794c3.951,11.838,9.554,30.78,9.556,32.279c0.004,1.79-2.272,0.055-3.615-2.77
			c-1.791-3.761-5.382-6.636-5.383-4.32c-0.003,0.755,0.927,2.553,2.065,3.999c1.131,1.445,1.811,3.026,1.504,3.528
			c-0.603,0.978,5.419,15.406,6.658,15.948c0.425,0.184,0.769,1.089,0.773,2.023c-0.001,0.927,8.016,17.652,17.813,37.165
			c20.406,40.654,24.768,48.986,32.154,61.481c8.406,14.22,17.792,31.158,23.14,41.771c2.708,5.374,6.949,12.913,9.41,16.762
			c6.961,10.857,13.241,22.939,16.139,31.061c2.206,6.172,2.758,9.885,3.338,22.28c0.87,18.493,0.487,19.672-5.945,18.404
			c-5.219-1.027-5.959-1.295-15.861-5.857c-4.028-1.855-7.79-3.942-8.377-4.644c-1.426-1.723-4.814-1.62-4.814,0.145
			c0.002,0.775-0.787,2.8-1.751,4.489c-1.859,3.272-5.744,4.193-8.032,1.904c-0.92-0.921-1.71-0.712-3.45,0.884
			c-1.943,1.771-7.942,5.303-9.021,5.305C-82.913,687.101-86.238,684.964-90.098,682.352L-90.098,682.352z M-472.469,443.098
			c-0.001-1.993-0.5-2.997-1.496-3c-1.518,0.007-2.147,4.029-0.836,5.334C-473.37,446.87-472.47,445.967-472.469,443.098z
			 M-617.272,94.6c0.02-1.648,0.242-2.203,0.497-1.23s0.24,2.323-0.034,3.002C-617.083,97.047-617.292,96.251-617.272,94.6z"/>
		
			<path id="path3019_11_" style="fill:#CE5E15;stroke:#EF7911;stroke-width:0.9196;" d="
			M-90.098,682.352c-3.866-2.613-10.818-8.803-15.45-13.755c-7.903-8.455-9.041-10.268-18.561-29.505
			c-5.585-11.266-11.826-24.086-13.874-28.489c-11.619-24.915-32.938-68.565-50.299-103.003
			c-15.268-30.285-28.448-57.032-33.752-68.497c-9.562-20.663-11.375-23.366-24.879-37.026
			c-7.074-7.149-13.053-12.813-13.288-12.571c-0.233,0.23,0.512,2.148,1.663,4.261c1.151,2.113,3.201,6.314,4.567,9.338
			c1.36,3.024,5.629,9.995,9.472,15.499c9.519,13.587,12.731,19.921,13.945,27.443c0.854,5.32,0.754,6.947-0.597,9.802
			c-1.717,3.617-2.245,3.695-11.058,1.582c-1.499-0.359-2.443-0.007-2.86,1.066c-0.89,2.326-5.068,1.972-11.358-0.957
			c-5.763-2.683-28.767-16.617-35.541-21.533c-2.201-1.594-6.475-4.319-9.499-6.057c-25.847-14.853-44.323-26.677-60.463-38.682
			c-4.931-3.663-9.508-7.01-10.169-7.421c-1.388-0.868-6.412,3.959-13.871,13.33c-2.746,3.446-7.025,8.624-9.495,11.489
			c-8.917,10.331-13.004,15.668-13.005,16.963c0.001,0.724-1.288,2.608-2.861,4.183c-4.415,4.414-4.71,6.631-1.285,9.515
			l27.436,8.265c8.551,3.406,10.065,7.747,10.356,10.19c-3.853-3.957-7.931-6.299-12.542-4.94
			c-13.943-3.01-26.197-7.063-44.469-9.344c-12.119-1.512-24.288,7.311-30.058,7.858c-12.584,1.182-49.864,2.7-64.809,6.803
			c-5.901,1.619-10.927,2.948-11.155,2.943c-0.235,0.001-0.192-0.902,0.101-2.002c0.456-1.755,0.031-1.996-3.531-1.993
			c-5.141-0.003-9.046,1.468-9.898,3.728c-0.99,2.614-2.725,4.089-5.645,4.819c-2.575,0.645-2.59,0.612-1.452-2.697
			c3.886-11.268,13.135-15.654,31.814-15.083c19.906,0.611,38.492,0.068,44.749-1.311c1.436-0.32,2.249-1.238,2.252-2.539
			c-0.002-1.2-0.444-1.767-1.075-1.375c-0.753,0.467-0.773,0.11-0.06-1.193c0.557-1.015,1.265-3.061,1.572-4.54
			c0.312-1.472,1.352-2.919,2.316-3.212c3.514-1.074,13.103,1.024,16.992,3.722c3.99,2.765,6.911,3.546,5.656,1.523
			c-0.412-0.678-0.276-0.886,0.339-0.511c1.472,0.915,7.857-1.929,9.452-4.2c0.724-1.035,3.267-3.512,5.646-5.498
			c2.378-1.986,7.036-6.655,10.357-10.377c3.315-3.723,9.615-10.689,14.007-15.493c4.385-4.798,8.931-9.974,10.093-11.496
			c1.162-1.523,4.046-4.954,6.407-7.628c2.367-2.673,4.299-5.309,4.3-5.861c0-0.546,1.123-1.876,2.499-2.964
			c1.375-1.075,2.5-2.304,2.499-2.723c-0.002-1.746-8.975-7.005-13.549-7.945c-15.78-3.227-50.271-19.255-65.58-30.463
			c-14.967-10.963-18.208-13.415-23.151-17.517c-10.597-8.793-32.269-29.653-41.088-39.555c-3.376-3.786-6.605-7.386-7.183-7.999
			c-2.325-2.477-9.452-12.59-9.448-13.421c-0.004-1.486-3.606-4.255-4.496-3.453c-0.456,0.416-0.487,0.165-0.068-0.566
			c0.487-0.832-0.732-3.085-3.336-6.175c-2.26-2.673-4.104-5.322-4.102-5.887c0.001-0.558-0.758-1.438-1.675-1.952
			c-0.924-0.515-1.766-1.568-1.883-2.336c-0.11-0.767-3.132-5.881-6.711-11.358c-6.579-10.068-14.257-24.035-16.753-30.471
			c-0.745-1.925-2.357-4.848-3.575-6.499c-1.224-1.651-4.351-7.271-6.954-12.501s-5.035-9.723-5.406-10.003
			c-0.365-0.273-0.692-1.399-0.723-2.5c-0.17-6.461-4.959-22.925-7.094-24.424c-0.449-0.32-0.808-3.328-0.794-6.691
			c0.018-3.4-0.513-6.769-1.195-7.59c-0.671-0.813-1.011-1.686-0.756-1.945c0.255-0.253-0.004-3.365-0.581-6.903
			c-1.346-8.272-1.696-26.939-0.498-26.195c0.525,0.325,0.663-1.791,0.329-5.038c-0.32-3.077-0.176-5.735,0.318-5.905
			c0.916-0.317,1.495-11.594,1.274-24.807c-0.071-4.124,0.01-17.738,0.179-30.25s-0.045-22.749-0.477-22.749
			c-2.558,0-3.622-10.484-2.817-27.751c0.155-3.437,0.068-6.246-0.212-6.243c-0.712,0.011-4.997,7.68-4.996,8.943
			c-0.003,0.577-0.965,2.01-2.135,3.186c-1.934,1.931-2.225,1.977-3.065,0.48c-0.508-0.913-1.42-1.354-2.018-0.982
			c-0.76,0.467-0.908-0.482-0.486-3.066c0.486-3.018,0.322-3.635-0.848-3.186c-1.878,0.721-1.878-1.653,0.007-7.918
			c0.805-2.668,1.089-5.326,0.635-5.907c-0.454-0.581-0.664-5.078-0.455-9.994c0.229-5.537-0.026-9.182-0.67-9.582
			c-0.721-0.447-0.711-1.518,0.034-3.485c1.233-3.236,0.694-5.495-1.305-5.497c-0.749,0.001-1.36-0.653-1.365-1.456
			c0.001-0.8,0.375-1.224,0.834-0.938c0.459,0.283,0.834,0.036,0.838-0.544c-0.003-0.584-0.404-1.061-0.892-1.061
			s-2.602-1.522-4.693-3.384c-3.374-3.005-4.813-3.517-12.859-4.576c-4.984-0.657-10.847-1.652-13.036-2.214
			c-2.188-0.565-5.517-1.026-7.402-1.026c-1.879,0.001-5.475-0.879-7.984-1.957c-2.51-1.074-6.83-2.439-9.599-3.027
			c-2.77-0.59-5.865-1.65-6.877-2.352c-1.781-1.24-1.777-1.344,0.116-3.241c3.359-3.357,27.462-5.009,46.723-3.202
			c13.924,1.304,34.9,4.197,35.5,4.897c0.872,1.015,10.999,0.989,11.003-0.026c-0.001-4.672-9.217-14.781-20.004-21.94
			c-3.574-2.372-6.647-4.68-6.828-5.13c-0.188-0.451-0.86-0.823-1.5-0.829c-0.641-0.003-4.468-2.256-8.504-5.004
			c-4.036-2.751-7.863-4.699-8.498-4.334c-0.641,0.368-0.852,0.314-0.464-0.112c1.07-1.19-1.001-2.697-9.202-6.714
			c-12.006-5.874-16.26-7.632-20.221-8.359c-6.005-1.099-10.057-5.693-6.029-6.828c7.004-1.97,15.248-2.748,15.251-1.433
			c0,0.552,0.672,0.733,1.501,0.401c0.822-0.336,2.247-0.911,3.161-1.279c1.02-0.411,1.418-0.271,1.029,0.355
			c-0.39,0.635,0.305,0.848,1.827,0.556c1.354-0.259,2.227-0.837,1.95-1.288c-0.516-0.835,5.375,0.561,6.312,1.497
			c0.282,0.28-0.568,0.941-1.886,1.466c-2.272,0.909-2.284,0.961-0.253,1.021c1.177,0.037,2.425-0.674,2.773-1.571
			c0.506-1.325,1.53-1.522,5.357-1.034c12.235,1.556,30.226,6.712,30.226,8.657c0,0.422,1.238,1.278,2.754,1.9
			c3.068,1.26,14.765-0.488,19.222-2.873c1.345-0.72,3.134-1.377,3.981-1.467c0.853-0.086,3.464-0.715,5.815-1.399
			c2.356-0.681,4.716-0.968,5.252-0.636c0.537,0.332,0.976,0.076,0.98-0.571c0-0.667,0.83-0.958,1.917-0.673
			c1.057,0.275,4.013,0.111,6.57-0.368c2.557-0.476,12.609-0.938,22.33-1.022c13.66-0.117,19.386,0.242,25.182,1.58
			c10.128,2.345,21.688,6.411,26.231,9.227c2.051,1.271,3.98,2.313,4.291,2.314c0.667,0,5.633,3.441,10.395,7.201
			c1.882,1.488,3.866,2.431,4.409,2.098c0.536-0.334,0.679-0.12,0.312,0.474c-0.367,0.597,0.14,1.338,1.129,1.654
			c0.989,0.313,2.663,2.033,3.715,3.822c1.051,1.789,3.779,5.276,6.053,7.751c2.275,2.475,6.073,7.2,8.439,10.5
			c2.366,3.3,5.761,7.574,7.547,9.5c1.786,1.926,3.801,5.249,4.485,7.39c0.789,2.475,3.982,6.738,8.799,11.735
			c6.821,7.085,7.754,8.547,9.659,15.109c2.403,8.303,4.657,12.677,9.286,18.019c1.79,2.066,3.247,4.163,3.252,4.665
			c-0.001,0.498,2.808,4.66,6.246,9.247c3.438,4.583,7.599,10.457,9.252,13.051c1.653,2.594,5.354,7.881,8.232,11.749
			c4.76,6.394,5.036,7.038,3.003,7.048c-2.007,0.01-1.883,0.286,1.262,2.747c1.925,1.505,5.75,4.872,8.5,7.479
			c2.75,2.607,5.364,4.746,5.814,4.752c0.444,0.005,2.84,1.921,5.332,4.26s5.279,4.648,6.193,5.131
			c0.914,0.486,3.014,2.139,4.663,3.676c1.649,1.537,5.764,4.74,9.141,7.121c3.383,2.378,9.005,6.472,12.502,9.096
			c3.496,2.628,10.857,8.128,16.359,12.222c14.431,10.745,15.463,11.557,20.616,16.319c2.571,2.373,5.992,5.297,7.612,6.501
			c14.569,10.823,46.845,43.082,57.769,57.749c1.103,1.477,4.021,5.33,6.496,8.558c6.915,9.043,8.326,11.032,16.623,23.374
			c4.247,6.327,8.611,12.502,9.69,13.719c1.085,1.218,2.472,3.076,3.079,4.13c0.614,1.054,2.982,4.577,5.263,7.836
			c4.421,6.301,19.349,34.913,19.351,37.084c0.001,0.717,1.146,3.56,2.545,6.334c2.096,4.129,8.456,19.646,8.455,20.624
			c-0.003,0.152-0.663,0.274-1.482,0.277c-1.136-0.004-1.266,0.515-0.565,2.252c0.506,1.233,2.13,6.297,3.619,11.245
			c1.483,4.954,4.701,12.805,7.155,17.454c2.454,4.649,5.341,10.682,6.415,13.409c2.37,6.005,4.952,17.814,3.729,17.065
			c-0.477-0.297-0.872,0.874-0.874,2.6c0.003,2.159-0.391,2.955-1.245,2.562c-0.69-0.326-1.95-0.838-2.806-1.15
			s-3.041-3.04-4.851-6.073c-1.811-3.026-3.448-5.343-3.639-5.153c-0.198,0.195,1.451,4.836,3.658,10.322
			c8.873,22.038,11.581,32.465,8.445,32.467c-1.073,0.002-0.43,2.291,2.494,8.887c2.169,4.886,3.949,9.61,3.945,10.498
			c-0.001,2.806-1.916,1.755-3.435-1.882c-0.802-1.925-1.932-3.502-2.51-3.499c-1.529-0.007-1.43,0.321,2.867,9.326
			c4.859,10.194,10.081,23.231,10.079,25.198c0,2.317-1.591,1.738-4.666-1.699c-4.587-5.132-10.335-10.943-10.335-10.454
			c-0.001,0.254,2.005,6.455,4.445,13.794c3.951,11.838,9.554,30.78,9.556,32.279c0.004,1.79-2.272,0.055-3.615-2.77
			c-1.791-3.761-5.382-6.636-5.383-4.32c-0.003,0.755,0.927,2.553,2.065,3.999c1.131,1.445,1.811,3.026,1.504,3.528
			c-0.603,0.978,5.419,15.406,6.658,15.948c0.425,0.184,0.769,1.089,0.773,2.023c-0.001,0.927,8.016,17.652,17.813,37.165
			c20.406,40.654,24.768,48.986,32.154,61.481c8.406,14.22,17.792,31.158,23.14,41.771c2.708,5.374,6.949,12.913,9.41,16.762
			c6.961,10.857,13.241,22.939,16.139,31.061c2.206,6.172,2.758,9.885,3.338,22.28c0.87,18.493,0.487,19.672-5.945,18.404
			c-5.219-1.027-5.959-1.295-15.861-5.857c-4.028-1.855-7.79-3.942-8.377-4.644c-1.426-1.723-4.814-1.62-4.814,0.145
			c0.002,0.775-0.787,2.8-1.751,4.489c-1.859,3.272-5.744,4.193-8.032,1.904c-0.92-0.921-1.71-0.712-3.45,0.884
			c-1.943,1.771-7.942,5.303-9.021,5.305C-82.913,687.101-86.238,684.964-90.098,682.352L-90.098,682.352z M-472.469,443.098
			c-0.001-1.993-0.5-2.997-1.496-3c-1.518,0.007-2.147,4.029-0.836,5.334C-473.37,446.87-472.47,445.967-472.469,443.098z
			 M-617.272,94.6c0.02-1.648,0.242-2.203,0.497-1.23s0.24,2.323-0.034,3.002C-617.083,97.047-617.292,96.251-617.272,94.6z
			 M-732.352-262.008"/>
	</g>
	<g id="g3978" transform="matrix(0.15384448,-0.01605163,0.01605163,0.15384448,12.962402,241.49609)">
		<path id="path3980" style="fill:#CE5E15;stroke:#EF7911;stroke-width:0.9196;" d="
			M-732.348-262.008"/>
		<path id="path3982"  style="fill:#CE5E15;stroke:#EF7911;stroke-width:0.9196;" d="
			M-732.348-262.008"/>
		
			<path id="path3988"  style="fill:#FFFFFF;stroke:#FFFFFF;stroke-width:0.9196;" d="
			M-90.1,682.354c-3.866-2.612-10.818-8.803-15.45-13.755c-7.903-8.455-9.04-10.274-18.561-29.505
			c-5.579-11.265-11.826-24.092-13.874-28.489c-11.62-24.909-32.938-68.571-50.293-103.003
			c-15.268-30.285-28.454-57.033-33.758-68.498c-9.561-20.669-11.375-23.366-24.88-37.02c-7.067-7.161-13.047-12.819-13.281-12.583
			c-0.24,0.235,0.512,2.154,1.657,4.261c1.151,2.113,3.207,6.314,4.567,9.338c1.36,3.024,5.627,10.007,9.479,15.5
			c9.512,13.599,12.73,19.927,13.939,27.448c0.861,5.314,0.76,6.948-0.597,9.796c-1.718,3.629-2.24,3.702-11.058,1.588
			c-1.492-0.359-2.443-0.007-2.853,1.061c-0.891,2.332-5.075,1.978-11.365-0.951c-5.763-2.683-28.767-16.617-35.541-21.533
			c-2.195-1.594-6.474-4.325-9.498-6.063c-25.841-14.846-44.325-26.664-60.464-38.676c-4.93-3.669-9.502-7.003-10.169-7.422
			c-1.388-0.869-6.405,3.959-13.864,13.325c-2.754,3.458-7.025,8.624-9.502,11.495c-8.917,10.331-13.003,15.662-12.998,16.957
			c0,0.73-1.295,2.614-2.868,4.189c-4.408,4.409-4.709,6.625-1.284,9.508l27.442,8.272c8.544,3.405,10.065,7.753,10.35,10.189
			c-3.847-3.956-8.646-2.73-13.251-1.37c-13.949-3.011-26.197-7.056-44.475-9.344c-12.113-1.511-24.282,7.318-30.058,7.858
			c-12.585,1.188-49.858,2.701-64.809,6.803c-5.901,1.619-10.92,2.942-11.155,2.943c-0.229,0.002-0.186-0.895,0.1-1.995
			c-1.899-4.127-10.73-3.443-12.713-1.841c-1.983,1.602-2.718,4.09-5.645,4.819c-2.568,0.646-2.59,0.612-1.452-2.697
			c3.887-11.274,13.135-15.654,31.815-15.089c19.906,0.617,38.498,0.069,44.749-1.311c1.436-0.32,2.249-1.238,2.251-2.533
			c-0.002-1.2-0.443-1.773-1.075-1.382c-0.753,0.467-0.767,0.11-0.06-1.187c0.557-1.021,1.266-3.067,1.578-4.539
			c0.306-1.472,1.346-2.925,2.31-3.219c3.514-1.068,13.102,1.031,16.991,3.728c3.99,2.765,6.911,3.546,5.663,1.518
			c-0.419-0.672-0.276-0.88,0.332-0.505c1.473,0.909,7.863-1.928,9.452-4.2c0.731-1.041,3.268-3.518,5.646-5.505
			c2.378-1.986,7.042-6.654,10.356-10.371c3.315-3.723,9.621-10.689,14.007-15.493c4.392-4.804,8.932-9.98,10.093-11.496
			c1.163-1.529,4.047-4.961,6.414-7.634c2.361-2.674,4.292-5.303,4.293-5.855c0-0.552,1.123-1.882,2.499-2.964
			c1.376-1.082,2.501-2.31,2.499-2.723c-0.002-1.746-8.974-7.011-13.549-7.945c-15.78-3.233-50.265-19.254-65.58-30.469
			c-14.967-10.956-18.202-13.414-23.151-17.51c-10.597-8.799-32.262-29.659-41.088-39.555c-3.369-3.792-6.605-7.392-7.183-7.999
			c-2.325-2.477-9.446-12.589-9.448-13.421c-0.004-1.486-3.606-4.255-4.49-3.452c-0.456,0.416-0.486,0.159-0.068-0.566
			c0.48-0.832-0.738-3.086-3.341-6.182c-2.254-2.673-4.105-5.316-4.103-5.881c0.001-0.558-0.751-1.443-1.675-1.958
			c-0.918-0.515-1.767-1.562-1.877-2.329c-0.117-0.768-3.138-5.882-6.717-11.365c-6.573-10.068-14.25-24.034-16.747-30.465
			c-0.751-1.932-2.363-4.855-3.581-6.505c-1.224-1.651-4.351-7.271-6.955-12.494c-2.603-5.229-5.034-9.729-5.399-10.002
			c-0.371-0.274-0.698-1.4-0.723-2.5c-0.176-6.461-4.958-22.931-7.1-24.424c-0.449-0.32-0.802-3.327-0.787-6.696
			c0.018-3.394-0.512-6.769-1.195-7.59c-0.678-0.807-1.018-1.68-0.763-1.939c0.262-0.258-0.004-3.365-0.58-6.91
			c-1.34-8.268-1.697-26.933-0.492-26.191c0.524,0.328,0.663-1.791,0.323-5.038c-0.314-3.076-0.176-5.734,0.318-5.905
			c0.915-0.314,1.495-11.591,1.274-24.807c-0.065-4.123,0.016-17.737,0.185-30.25c0.163-12.513-0.051-22.749-0.483-22.75
			c-2.558,0-3.623-10.484-2.818-27.748c0.162-3.439,0.068-6.249-0.206-6.242c-0.712,0.008-5.003,7.676-5.002,8.939
			c-0.003,0.577-0.959,2.014-2.135,3.186c-1.935,1.934-2.225,1.977-3.065,0.48c-0.508-0.913-1.414-1.35-2.018-0.979
			c-0.753,0.467-0.908-0.482-0.486-3.069c0.486-3.018,0.322-3.635-0.848-3.186c-1.878,0.721-1.872-1.652,0.014-7.917
			c0.799-2.668,1.089-5.326,0.629-5.908c-0.454-0.581-0.657-5.077-0.455-9.994c0.234-5.533-0.02-9.181-0.67-9.582
			c-0.721-0.447-0.711-1.518,0.034-3.485c1.233-3.236,0.694-5.495-1.299-5.493c-0.755-0.003-1.366-0.657-1.365-1.456
			c0.001-0.803,0.375-1.224,0.835-0.941c0.453,0.282,0.828,0.039,0.831-0.545c-0.003-0.584-0.404-1.058-0.893-1.058
			c-0.489,0-2.596-1.525-4.693-3.384c-3.374-3.005-4.813-3.517-12.859-4.579c-4.978-0.653-10.847-1.652-13.036-2.214
			c-2.188-0.565-5.517-1.023-7.396-1.022c-1.885,0-5.481-0.883-7.991-1.957c-2.509-1.077-6.83-2.439-9.599-3.03
			c-2.77-0.59-5.865-1.65-6.877-2.352c-1.782-1.236-1.777-1.344,0.122-3.237c3.353-3.357,27.456-5.01,46.724-3.206
			c13.924,1.304,34.893,4.199,35.5,4.897c0.865,1.014,10.999,0.989,10.997-0.027c-0.001-4.672-9.217-14.781-19.998-21.936
			c-3.574-2.372-6.652-4.684-6.834-5.134c-0.182-0.451-0.86-0.823-1.501-0.826s-4.468-2.256-8.504-5.007
			c-4.036-2.751-7.857-4.698-8.498-4.334c-0.641,0.368-0.846,0.318-0.464-0.112c1.07-1.19-0.995-2.697-9.202-6.711
			c-12-5.876-16.254-7.634-20.215-8.362c-6.005-1.096-10.064-5.69-6.036-6.825c7.004-1.973,15.255-2.75,15.251-1.437
			c0,0.552,0.679,0.734,1.501,0.401c0.828-0.336,2.247-0.908,3.168-1.279c1.014-0.408,1.418-0.271,1.029,0.358
			c-0.396,0.635,0.299,0.847,1.821,0.555c1.354-0.259,2.233-0.84,1.95-1.291c-0.516-0.835,5.381,0.565,6.312,1.497
			c0.282,0.28-0.568,0.941-1.886,1.469c-2.272,0.906-2.284,0.961-0.253,1.021c1.183,0.035,2.425-0.674,2.773-1.574
			c0.506-1.325,1.536-1.522,5.357-1.034c12.234,1.559,30.226,6.712,30.226,8.657c0,0.422,1.238,1.278,2.754,1.9
			c3.074,1.26,14.765-0.488,19.222-2.873c1.344-0.717,3.14-1.377,3.987-1.463c0.847-0.089,3.465-0.718,5.815-1.399
			c2.35-0.682,4.709-0.969,5.246-0.636c0.537,0.332,0.983,0.074,0.98-0.574c0-0.667,0.83-0.958,1.917-0.673
			c1.057,0.275,4.019,0.112,6.576-0.364c2.557-0.479,12.603-0.938,22.324-1.025c13.66-0.117,19.386,0.242,25.181,1.583
			c10.128,2.342,21.694,6.409,26.231,9.224c2.051,1.274,3.98,2.313,4.291,2.314c0.667,0,5.633,3.441,10.395,7.204
			c1.883,1.485,3.866,2.428,4.409,2.095c0.543-0.334,0.679-0.12,0.312,0.474c-0.367,0.597,0.139,1.341,1.129,1.654
			c0.989,0.313,2.663,2.036,3.715,3.822c1.057,1.789,3.779,5.276,6.053,7.754c2.281,2.472,6.079,7.198,8.445,10.498
			c2.36,3.299,5.76,7.577,7.54,9.502c1.786,1.922,3.807,5.25,4.485,7.387c0.789,2.479,3.988,6.738,8.799,11.735
			c6.821,7.085,7.76,8.548,9.659,15.112c2.409,8.3,4.663,12.674,9.286,18.019c1.791,2.063,3.254,4.161,3.252,4.662
			s2.814,4.661,6.253,9.247c3.432,4.586,7.599,10.457,9.245,13.051c1.653,2.594,5.36,7.881,8.239,11.749
			c4.754,6.396,5.029,7.038,2.997,7.048c-2.007,0.01-1.877,0.29,1.268,2.751c1.925,1.505,5.751,4.869,8.5,7.476
			c2.749,2.61,5.364,4.746,5.808,4.751c0.444,0.008,2.846,1.925,5.332,4.26c2.492,2.339,5.279,4.648,6.193,5.134
			c0.915,0.483,3.014,2.139,4.663,3.676c1.655,1.537,5.764,4.74,9.147,7.118c3.377,2.377,8.999,6.471,12.495,9.099
			c3.497,2.625,10.857,8.125,16.359,12.219c14.437,10.746,15.463,11.557,20.616,16.319c2.57,2.376,5.998,5.298,7.612,6.501
			c14.575,10.823,46.845,43.082,57.776,57.75c1.096,1.476,4.021,5.329,6.489,8.561c6.915,9.04,8.326,11.031,16.623,23.374
			c4.253,6.328,8.611,12.496,9.697,13.714c1.079,1.217,2.466,3.076,3.079,4.13c0.607,1.054,2.975,4.582,5.257,7.836
			c4.426,6.308,19.354,34.92,19.35,37.09c0.001,0.717,1.146,3.56,2.552,6.328c2.096,4.129,8.449,19.652,8.448,20.629
			c0.003,0.153-0.663,0.274-1.476,0.271c-1.136,0.002-1.267,0.522-0.565,2.252c0.499,1.239,2.123,6.303,3.612,11.251
			c1.483,4.947,4.708,12.799,7.155,17.447c2.454,4.649,5.34,10.688,6.414,13.416c2.37,6.005,4.952,17.814,3.736,17.059
			c-0.484-0.292-0.878,0.873-0.874,2.6c-0.003,2.158-0.392,2.962-1.251,2.561c-0.69-0.32-1.95-0.838-2.807-1.143
			c-0.856-0.318-3.034-3.046-4.844-6.072c-1.811-3.026-3.454-5.343-3.645-5.154c-0.192,0.196,1.457,4.837,3.659,10.316
			c8.872,22.045,11.586,32.472,8.444,32.474c-1.072-0.004-0.423,2.292,2.5,8.888c2.169,4.886,3.942,9.609,3.945,10.498
			c0,2.799-1.915,1.749-3.44-1.889c-0.802-1.924-1.932-3.502-2.51-3.499c-1.53-0.001-1.431,0.327,2.866,9.338
			c4.866,10.182,10.082,23.225,10.08,25.186c0.005,2.324-1.591,1.745-4.66-1.692c-4.593-5.132-10.335-10.943-10.335-10.454
			c0,0.247,1.999,6.455,4.446,13.788c3.945,11.838,9.554,30.78,9.55,32.278c0.003,1.797-2.266,0.056-3.615-2.764
			c-1.791-3.761-5.382-6.643-5.383-4.32c-0.002,0.749,0.927,2.553,2.065,3.999c1.138,1.439,1.817,3.027,1.511,3.522
			c-0.61,0.984,5.412,15.412,6.657,15.955c0.419,0.183,0.768,1.096,0.767,2.022c-0.002,0.927,8.016,17.652,17.812,37.165
			c20.407,40.647,24.768,48.986,32.155,61.475c8.412,14.221,17.792,31.157,23.146,41.771c2.708,5.373,6.942,12.918,9.41,16.762
			c6.96,10.864,13.234,22.944,16.132,31.061c2.206,6.178,2.758,9.886,3.343,22.287c0.864,18.486,0.481,19.665-5.945,18.404
			c-5.225-1.028-5.964-1.302-15.867-5.864c-4.022-1.848-7.791-3.936-8.371-4.644c-1.432-1.724-4.82-1.62-4.82,0.145
			c0.001,0.781-0.788,2.806-1.745,4.496c-1.865,3.271-5.75,4.192-8.037,1.897c-0.914-0.914-1.703-0.711-3.45,0.884
			c-1.944,1.778-7.942,5.303-9.021,5.305C-82.915,687.103-86.234,684.966-90.1,682.354L-90.1,682.354z M-472.465,443.101
			c-0.001-2-0.506-2.998-1.503-2.994c-1.517-0.006-2.139,4.017-0.835,5.328C-473.366,446.872-472.466,445.97-472.465,443.101z
			 M-617.274,94.602c0.02-1.652,0.243-2.206,0.497-1.23c0.254,0.972,0.24,2.323-0.034,2.999
			C-617.084,97.046-617.293,96.25-617.274,94.602z M-732.348-262.008"/>
	</g>
</g>
</svg>
